999
Generated by Autodesk CAM - http://cam.autodesk.com
0
SECTION
2
HEADER
9
$ACADVER
1
AC1006
9
$ANGBASE
50
0
9
$ANGDIR
70
0
0
ENDSEC
0
SECTION
2
BLOCKS
0
ENDSEC
9
$EXTMIN
10
-27.425
20
-24.425
30
0
9
$EXTMAX
10
28.425
20
56.242
30
15
0
SECTION
2
ENTITIES
0
LINE
8
1
62
3
10
-24.65
20
56.242
30
15
11
-24.65
21
56.242
31
15
0
LINE
8
1
62
3
10
-24.65
20
56.242
30
15
11
-24.65
21
56.242
31
0
0
LINE
8
1
62
2
10
-24.65
20
56.242
30
0
11
-24.525
21
56.025
31
0
0
LINE
8
1
62
1
10
-24.525
20
56.025
30
0
11
25.525
21
56.025
31
0
0
LINE
8
1
62
1
10
25.525
20
56.025
30
0
11
25.525
21
51
31
0
0
LINE
8
1
62
1
10
25.525
20
51
30
0
11
28.4
21
51
31
0
0
LINE
8
1
62
1
10
28.4
20
51
30
0
11
28.425
21
51
31
0
0
LINE
8
1
62
1
10
28.425
20
51
30
0
11
28.425
21
40.9
31
0
0
LINE
8
1
62
1
10
28.425
20
40.9
30
0
11
25.525
21
40.9
31
0
0
LINE
8
1
62
1
10
25.525
20
40.9
30
0
11
25.525
21
30.9
31
0
0
LINE
8
1
62
1
10
25.525
20
30.9
30
0
11
28.4
21
30.9
31
0
0
LINE
8
1
62
1
10
28.4
20
30.9
30
0
11
28.425
21
30.9
31
0
0
LINE
8
1
62
1
10
28.425
20
30.9
30
0
11
28.425
21
20.8
31
0
0
LINE
8
1
62
1
10
28.425
20
20.8
30
0
11
25.525
21
20.8
31
0
0
LINE
8
1
62
1
10
25.525
20
20.8
30
0
11
25.525
21
10.8
31
0
0
LINE
8
1
62
1
10
25.525
20
10.8
30
0
11
28.4
21
10.8
31
0
0
LINE
8
1
62
1
10
28.4
20
10.8
30
0
11
28.425
21
10.8
31
0
0
LINE
8
1
62
1
10
28.425
20
10.8
30
0
11
28.425
21
0.725
31
0
0
LINE
8
1
62
1
10
28.425
20
0.725
30
0
11
28.425
21
0.7
31
0
0
LINE
8
1
62
1
10
28.425
20
0.7
30
0
11
25.525
21
0.7
31
0
0
LINE
8
1
62
1
10
25.525
20
0.7
30
0
11
25.525
21
-9.3
31
0
0
LINE
8
1
62
1
10
25.525
20
-9.3
30
0
11
28.4
21
-9.3
31
0
0
LINE
8
1
62
1
10
28.4
20
-9.3
30
0
11
28.425
21
-9.3
31
0
0
LINE
8
1
62
1
10
28.425
20
-9.3
30
0
11
28.425
21
-19.375
31
0
0
LINE
8
1
62
1
10
28.425
20
-19.375
30
0
11
28.425
21
-19.4
31
0
0
LINE
8
1
62
1
10
28.425
20
-19.4
30
0
11
25.525
21
-19.4
31
0
0
LINE
8
1
62
1
10
25.525
20
-19.4
30
0
11
25.525
21
-24.4
31
0
0
LINE
8
1
62
1
10
25.525
20
-24.4
30
0
11
25.525
21
-24.425
31
0
0
LINE
8
1
62
1
10
25.525
20
-24.425
30
0
11
-24.525
21
-24.425
31
0
0
LINE
8
1
62
1
10
-24.525
20
-24.425
30
0
11
-24.525
21
-19.4
31
0
0
LINE
8
1
62
1
10
-24.525
20
-19.4
30
0
11
-27.4
21
-19.4
31
0
0
LINE
8
1
62
1
10
-27.4
20
-19.4
30
0
11
-27.425
21
-19.4
31
0
0
LINE
8
1
62
1
10
-27.425
20
-19.4
30
0
11
-27.425
21
-9.3
31
0
0
LINE
8
1
62
1
10
-27.425
20
-9.3
30
0
11
-24.525
21
-9.3
31
0
0
LINE
8
1
62
1
10
-24.525
20
-9.3
30
0
11
-24.525
21
0.7
31
0
0
LINE
8
1
62
1
10
-24.525
20
0.7
30
0
11
-27.4
21
0.7
31
0
0
LINE
8
1
62
1
10
-27.4
20
0.7
30
0
11
-27.425
21
0.7
31
0
0
LINE
8
1
62
1
10
-27.425
20
0.7
30
0
11
-27.425
21
10.8
31
0
0
LINE
8
1
62
1
10
-27.425
20
10.8
30
0
11
-24.525
21
10.8
31
0
0
LINE
8
1
62
1
10
-24.525
20
10.8
30
0
11
-24.525
21
20.8
31
0
0
LINE
8
1
62
1
10
-24.525
20
20.8
30
0
11
-27.4
21
20.8
31
0
0
LINE
8
1
62
1
10
-27.4
20
20.8
30
0
11
-27.425
21
20.8
31
0
0
LINE
8
1
62
1
10
-27.425
20
20.8
30
0
11
-27.425
21
30.9
31
0
0
LINE
8
1
62
1
10
-27.425
20
30.9
30
0
11
-24.525
21
30.9
31
0
0
LINE
8
1
62
1
10
-24.525
20
30.9
30
0
11
-24.525
21
40.9
31
0
0
LINE
8
1
62
1
10
-24.525
20
40.9
30
0
11
-27.4
21
40.9
31
0
0
LINE
8
1
62
1
10
-27.4
20
40.9
30
0
11
-27.425
21
40.9
31
0
0
LINE
8
1
62
1
10
-27.425
20
40.9
30
0
11
-27.425
21
51
31
0
0
LINE
8
1
62
1
10
-27.425
20
51
30
0
11
-24.525
21
51
31
0
0
LINE
8
1
62
1
10
-24.525
20
51
30
0
11
-24.525
21
56
31
0
0
LINE
8
1
62
1
10
-24.525
20
56
30
0
11
-24.525
21
56.025
31
0
0
LINE
8
1
62
2
10
-24.525
20
56.025
30
0
11
-24.4
21
56.242
31
0
0
LINE
8
1
62
3
10
-24.4
20
56.242
30
0
11
-24.4
21
56.242
31
15
0
ENDSEC
0
EOF
