999
Generated by Autodesk CAM - http://cam.autodesk.com
0
SECTION
2
HEADER
9
$ACADVER
1
AC1006
9
$ANGBASE
50
0
9
$ANGDIR
70
0
0
ENDSEC
0
SECTION
2
BLOCKS
0
ENDSEC
9
$EXTMIN
10
-26.125
20
-61.925
30
0
9
$EXTMAX
10
26.125
20
61.925
30
15
0
SECTION
2
ENTITIES
0
LINE
8
1
62
3
10
0.2
20
-9.567
30
15
11
0.2
21
-9.567
31
15
0
LINE
8
1
62
3
10
0.2
20
-9.567
30
15
11
0.2
21
-9.567
31
0
0
LINE
8
1
62
2
10
0.2
20
-9.567
30
0
11
0.075
21
-9.35
31
0
0
LINE
8
1
62
1
10
0.075
20
-9.35
30
0
11
-1.775
21
-9.35
31
0
0
LINE
8
1
62
1
10
-1.775
20
-9.35
30
0
11
-1.775
21
-19.35
31
0
0
LINE
8
1
62
1
10
-1.775
20
-19.35
30
0
11
1.075
21
-19.35
31
0
0
LINE
8
1
62
1
10
1.075
20
-19.35
30
0
11
1.075
21
-9.35
31
0
0
LINE
8
1
62
1
10
1.075
20
-9.35
30
0
11
0.075
21
-9.35
31
0
0
LINE
8
1
62
2
10
0.075
20
-9.35
30
0
11
-0.05
21
-9.567
31
0
0
LINE
8
1
62
3
10
-0.05
20
-9.567
30
0
11
-0.05
21
-9.567
31
5
0
LINE
8
1
62
3
10
-0.05
20
-9.567
30
5
11
0.2
21
10.533
31
5
0
LINE
8
1
62
3
10
0.2
20
10.533
30
5
11
0.2
21
10.533
31
0
0
LINE
8
1
62
2
10
0.2
20
10.533
30
0
11
0.075
21
10.75
31
0
0
LINE
8
1
62
1
10
0.075
20
10.75
30
0
11
-1.775
21
10.75
31
0
0
LINE
8
1
62
1
10
-1.775
20
10.75
30
0
11
-1.775
21
0.75
31
0
0
LINE
8
1
62
1
10
-1.775
20
0.75
30
0
11
1.075
21
0.75
31
0
0
LINE
8
1
62
1
10
1.075
20
0.75
30
0
11
1.075
21
10.75
31
0
0
LINE
8
1
62
1
10
1.075
20
10.75
30
0
11
0.075
21
10.75
31
0
0
LINE
8
1
62
2
10
0.075
20
10.75
30
0
11
-0.05
21
10.533
31
0
0
LINE
8
1
62
3
10
-0.05
20
10.533
30
0
11
-0.05
21
10.533
31
5
0
LINE
8
1
62
3
10
-0.05
20
10.533
30
5
11
0.2
21
30.633
31
5
0
LINE
8
1
62
3
10
0.2
20
30.633
30
5
11
0.2
21
30.633
31
0
0
LINE
8
1
62
2
10
0.2
20
30.633
30
0
11
0.075
21
30.85
31
0
0
LINE
8
1
62
1
10
0.075
20
30.85
30
0
11
-1.775
21
30.85
31
0
0
LINE
8
1
62
1
10
-1.775
20
30.85
30
0
11
-1.775
21
20.85
31
0
0
LINE
8
1
62
1
10
-1.775
20
20.85
30
0
11
1.075
21
20.85
31
0
0
LINE
8
1
62
1
10
1.075
20
20.85
30
0
11
1.075
21
30.85
31
0
0
LINE
8
1
62
1
10
1.075
20
30.85
30
0
11
0.075
21
30.85
31
0
0
LINE
8
1
62
2
10
0.075
20
30.85
30
0
11
-0.05
21
30.633
31
0
0
LINE
8
1
62
3
10
-0.05
20
30.633
30
0
11
-0.05
21
30.633
31
5
0
LINE
8
1
62
3
10
-0.05
20
30.633
30
5
11
-0.05
21
41.167
31
5
0
LINE
8
1
62
3
10
-0.05
20
41.167
30
5
11
-0.05
21
41.167
31
0
0
LINE
8
1
62
2
10
-0.05
20
41.167
30
0
11
0.075
21
40.95
31
0
0
LINE
8
1
62
1
10
0.075
20
40.95
30
0
11
1.075
21
40.95
31
0
0
LINE
8
1
62
1
10
1.075
20
40.95
30
0
11
1.075
21
50.95
31
0
0
LINE
8
1
62
1
10
1.075
20
50.95
30
0
11
-1.775
21
50.95
31
0
0
LINE
8
1
62
1
10
-1.775
20
50.95
30
0
11
-1.775
21
40.95
31
0
0
LINE
8
1
62
1
10
-1.775
20
40.95
30
0
11
0.075
21
40.95
31
0
0
LINE
8
1
62
2
10
0.075
20
40.95
30
0
11
0.2
21
41.167
31
0
0
LINE
8
1
62
3
10
0.2
20
41.167
30
0
11
0.2
21
41.167
31
5
0
LINE
8
1
62
3
10
0.2
20
41.167
30
5
11
1.342
21
56.35
31
5
0
LINE
8
1
62
3
10
1.342
20
56.35
30
5
11
1.342
21
56.35
31
0
0
LINE
8
1
62
2
10
1.342
20
56.35
30
0
11
1.125
21
56.225
31
0
0
LINE
8
1
62
1
10
1.125
20
56.225
30
0
11
1.125
21
56.025
31
0
0
LINE
8
1
62
1
10
1.125
20
56.025
30
0
11
26.1
21
56.025
31
0
0
LINE
8
1
62
1
10
26.1
20
56.025
30
0
11
26.125
21
56.025
31
0
0
LINE
8
1
62
1
10
26.125
20
56.025
30
0
11
26.125
21
50.95
31
0
0
LINE
8
1
62
1
10
26.125
20
50.95
30
0
11
23.225
21
50.95
31
0
0
LINE
8
1
62
1
10
23.225
20
50.95
30
0
11
23.225
21
40.95
31
0
0
LINE
8
1
62
1
10
23.225
20
40.95
30
0
11
26.1
21
40.95
31
0
0
LINE
8
1
62
1
10
26.1
20
40.95
30
0
11
26.125
21
40.95
31
0
0
LINE
8
1
62
1
10
26.125
20
40.95
30
0
11
26.125
21
30.85
31
0
0
LINE
8
1
62
1
10
26.125
20
30.85
30
0
11
23.225
21
30.85
31
0
0
LINE
8
1
62
1
10
23.225
20
30.85
30
0
11
23.225
21
20.85
31
0
0
LINE
8
1
62
1
10
23.225
20
20.85
30
0
11
26.1
21
20.85
31
0
0
LINE
8
1
62
1
10
26.1
20
20.85
30
0
11
26.125
21
20.85
31
0
0
LINE
8
1
62
1
10
26.125
20
20.85
30
0
11
26.125
21
10.75
31
0
0
LINE
8
1
62
1
10
26.125
20
10.75
30
0
11
23.225
21
10.75
31
0
0
LINE
8
1
62
1
10
23.225
20
10.75
30
0
11
23.225
21
0.75
31
0
0
LINE
8
1
62
1
10
23.225
20
0.75
30
0
11
26.1
21
0.75
31
0
0
LINE
8
1
62
1
10
26.1
20
0.75
30
0
11
26.125
21
0.75
31
0
0
LINE
8
1
62
1
10
26.125
20
0.75
30
0
11
26.125
21
-9.35
31
0
0
LINE
8
1
62
1
10
26.125
20
-9.35
30
0
11
23.225
21
-9.35
31
0
0
LINE
8
1
62
1
10
23.225
20
-9.35
30
0
11
23.225
21
-19.35
31
0
0
LINE
8
1
62
1
10
23.225
20
-19.35
30
0
11
26.1
21
-19.35
31
0
0
LINE
8
1
62
1
10
26.1
20
-19.35
30
0
11
26.125
21
-19.35
31
0
0
LINE
8
1
62
1
10
26.125
20
-19.35
30
0
11
26.125
21
-24.425
31
0
0
LINE
8
1
62
1
10
26.125
20
-24.425
30
0
11
6.1
21
-24.425
31
0
0
ARC
8
1
62
1
10
6.1
20
-29.4
30
0
40
4.975
50
90
51
180
0
LINE
8
1
62
1
10
1.125
20
-29.4
30
0
11
1.125
21
-61.9
31
0
0
LINE
8
1
62
1
10
1.125
20
-61.9
30
0
11
1.125
21
-61.925
31
0
0
LINE
8
1
62
1
10
1.125
20
-61.925
30
0
11
-25.1
21
-61.925
31
0
0
ARC
8
1
62
1
10
-25.1
20
-60.9
30
0
40
1.025
50
180
51
-90
0
LINE
8
1
62
1
10
-26.125
20
-60.9
30
0
11
-26.125
21
55
31
0
0
ARC
8
1
62
1
10
-25.1
20
55
30
0
40
1.025
50
90
51
180
0
LINE
8
1
62
1
10
-25.1
20
56.025
30
0
11
-16.425
21
56.025
31
0
0
LINE
8
1
62
1
10
-16.425
20
56.025
30
0
11
-16.425
21
60.9
31
0
0
ARC
8
1
62
1
10
-15.4
20
60.9
30
0
40
1.025
50
90
51
180
0
LINE
8
1
62
1
10
-15.4
20
61.925
30
0
11
1.1
21
61.925
31
0
0
LINE
8
1
62
1
10
1.1
20
61.925
30
0
11
1.125
21
61.925
31
0
0
LINE
8
1
62
1
10
1.125
20
61.925
30
0
11
1.125
21
56.225
31
0
0
LINE
8
1
62
2
10
1.125
20
56.225
30
0
11
1.342
21
56.1
31
0
0
LINE
8
1
62
3
10
1.342
20
56.1
30
0
11
1.342
21
56.1
31
15
0
ENDSEC
0
EOF
