999
Generated by Autodesk CAM - http://cam.autodesk.com
0
SECTION
2
HEADER
9
$ACADVER
1
AC1006
9
$ANGBASE
50
0
9
$ANGDIR
70
0
0
ENDSEC
0
SECTION
2
BLOCKS
0
ENDSEC
9
$EXTMIN
10
-52.425
20
-61.925
30
0
9
$EXTMAX
10
53.425
20
62.142
30
15
0
SECTION
2
ENTITIES
0
LINE
8
1
62
3
10
-49.65
20
62.142
30
15
11
-49.65
21
62.142
31
15
0
LINE
8
1
62
3
10
-49.65
20
62.142
30
15
11
-49.65
21
62.142
31
0
0
LINE
8
1
62
2
10
-49.65
20
62.142
30
0
11
-49.525
21
61.925
31
0
0
LINE
8
1
62
1
10
-49.525
20
61.925
30
0
11
50.525
21
61.925
31
0
0
LINE
8
1
62
1
10
50.525
20
61.925
30
0
11
50.525
21
51
31
0
0
LINE
8
1
62
1
10
50.525
20
51
30
0
11
53.4
21
51
31
0
0
LINE
8
1
62
1
10
53.4
20
51
30
0
11
53.425
21
51
31
0
0
LINE
8
1
62
1
10
53.425
20
51
30
0
11
53.425
21
40.9
31
0
0
LINE
8
1
62
1
10
53.425
20
40.9
30
0
11
50.525
21
40.9
31
0
0
LINE
8
1
62
1
10
50.525
20
40.9
30
0
11
50.525
21
30.9
31
0
0
LINE
8
1
62
1
10
50.525
20
30.9
30
0
11
53.4
21
30.9
31
0
0
LINE
8
1
62
1
10
53.4
20
30.9
30
0
11
53.425
21
30.9
31
0
0
LINE
8
1
62
1
10
53.425
20
30.9
30
0
11
53.425
21
20.8
31
0
0
LINE
8
1
62
1
10
53.425
20
20.8
30
0
11
50.525
21
20.8
31
0
0
LINE
8
1
62
1
10
50.525
20
20.8
30
0
11
50.525
21
10.8
31
0
0
LINE
8
1
62
1
10
50.525
20
10.8
30
0
11
53.4
21
10.8
31
0
0
LINE
8
1
62
1
10
53.4
20
10.8
30
0
11
53.425
21
10.8
31
0
0
LINE
8
1
62
1
10
53.425
20
10.8
30
0
11
53.425
21
0.725
31
0
0
LINE
8
1
62
1
10
53.425
20
0.725
30
0
11
53.425
21
0.7
31
0
0
LINE
8
1
62
1
10
53.425
20
0.7
30
0
11
50.525
21
0.7
31
0
0
LINE
8
1
62
1
10
50.525
20
0.7
30
0
11
50.525
21
-9.3
31
0
0
LINE
8
1
62
1
10
50.525
20
-9.3
30
0
11
53.4
21
-9.3
31
0
0
LINE
8
1
62
1
10
53.4
20
-9.3
30
0
11
53.425
21
-9.3
31
0
0
LINE
8
1
62
1
10
53.425
20
-9.3
30
0
11
53.425
21
-19.375
31
0
0
LINE
8
1
62
1
10
53.425
20
-19.375
30
0
11
53.425
21
-19.4
31
0
0
LINE
8
1
62
1
10
53.425
20
-19.4
30
0
11
50.525
21
-19.4
31
0
0
LINE
8
1
62
1
10
50.525
20
-19.4
30
0
11
50.525
21
-61.9
31
0
0
LINE
8
1
62
1
10
50.525
20
-61.9
30
0
11
50.525
21
-61.925
31
0
0
LINE
8
1
62
1
10
50.525
20
-61.925
30
0
11
-49.525
21
-61.925
31
0
0
LINE
8
1
62
1
10
-49.525
20
-61.925
30
0
11
-49.525
21
-19.4
31
0
0
LINE
8
1
62
1
10
-49.525
20
-19.4
30
0
11
-52.4
21
-19.4
31
0
0
LINE
8
1
62
1
10
-52.4
20
-19.4
30
0
11
-52.425
21
-19.4
31
0
0
LINE
8
1
62
1
10
-52.425
20
-19.4
30
0
11
-52.425
21
-9.3
31
0
0
LINE
8
1
62
1
10
-52.425
20
-9.3
30
0
11
-49.525
21
-9.3
31
0
0
LINE
8
1
62
1
10
-49.525
20
-9.3
30
0
11
-49.525
21
0.7
31
0
0
LINE
8
1
62
1
10
-49.525
20
0.7
30
0
11
-52.4
21
0.7
31
0
0
LINE
8
1
62
1
10
-52.4
20
0.7
30
0
11
-52.425
21
0.7
31
0
0
LINE
8
1
62
1
10
-52.425
20
0.7
30
0
11
-52.425
21
10.8
31
0
0
LINE
8
1
62
1
10
-52.425
20
10.8
30
0
11
-49.525
21
10.8
31
0
0
LINE
8
1
62
1
10
-49.525
20
10.8
30
0
11
-49.525
21
20.8
31
0
0
LINE
8
1
62
1
10
-49.525
20
20.8
30
0
11
-52.4
21
20.8
31
0
0
LINE
8
1
62
1
10
-52.4
20
20.8
30
0
11
-52.425
21
20.8
31
0
0
LINE
8
1
62
1
10
-52.425
20
20.8
30
0
11
-52.425
21
30.9
31
0
0
LINE
8
1
62
1
10
-52.425
20
30.9
30
0
11
-49.525
21
30.9
31
0
0
LINE
8
1
62
1
10
-49.525
20
30.9
30
0
11
-49.525
21
40.9
31
0
0
LINE
8
1
62
1
10
-49.525
20
40.9
30
0
11
-52.4
21
40.9
31
0
0
LINE
8
1
62
1
10
-52.4
20
40.9
30
0
11
-52.425
21
40.9
31
0
0
LINE
8
1
62
1
10
-52.425
20
40.9
30
0
11
-52.425
21
51
31
0
0
LINE
8
1
62
1
10
-52.425
20
51
30
0
11
-49.525
21
51
31
0
0
LINE
8
1
62
1
10
-49.525
20
51
30
0
11
-49.525
21
61.9
31
0
0
LINE
8
1
62
1
10
-49.525
20
61.9
30
0
11
-49.525
21
61.925
31
0
0
LINE
8
1
62
2
10
-49.525
20
61.925
30
0
11
-49.4
21
62.142
31
0
0
LINE
8
1
62
3
10
-49.4
20
62.142
30
0
11
-49.4
21
62.142
31
15
0
ENDSEC
0
EOF
