<?xml version="1.0" encoding="utf-8"?>
<svg xmlns="http://www.w3.org/2000/svg" width="60.0000mm" height="90.8953mm" viewBox="695.7000 -480.2953 60.0000 90.8953">
<g>
	<path d="M748.7000,-394.4000 L750.7000,-394.4000 L750.7000,-394.4000 L750.7000,-400.3000 L750.7000,-400.3000 L700.7000,-400.3000 L700.7000,-400.3000 L700.7000,-394.4000 L700.7000,-394.4000 L702.7000,-394.4000"></path>
	<path d="M725.7000,-389.4000 L754.2250,-389.4000 L754.2250,-389.4000 L754.2510,-389.4002 L754.2771,-389.4009 L754.3031,-389.4021 L754.3290,-389.4037 L754.3550,-389.4057 L754.3809,-389.4083 L754.4068,-389.4112 L754.4326,-389.4147 L754.4583,-389.4186 L754.4840,-389.4229 L754.5096,-389.4277 L754.5351,-389.4330 L754.5605,-389.4387 L754.5858,-389.4448 L754.6109,-389.4514 L754.6360,-389.4584 L754.6609,-389.4659 L754.6857,-389.4738 L754.7104,-389.4822 L754.7349,-389.4909 L754.7593,-389.5002 L754.7834,-389.5098 L754.8074,-389.5199 L754.8313,-389.5304 L754.8549,-389.5413 L754.8783,-389.5526 L754.9016,-389.5643 L754.9246,-389.5765 L754.9474,-389.5890 L754.9700,-389.6020 L754.9924,-389.6153 L755.0145,-389.6291 L755.0363,-389.6432 L755.0579,-389.6577 L755.0793,-389.6726 L755.1004,-389.6879 L755.1212,-389.7035 L755.1417,-389.7195 L755.1620,-389.7358 L755.1819,-389.7526 L755.2016,-389.7696 L755.2210,-389.7870 L755.2400,-389.8048 L755.2587,-389.8229 L755.2771,-389.8413 L755.2952,-389.8600 L755.3130,-389.8790 L755.3304,-389.8984 L755.3474,-389.9181 L755.3642,-389.9380 L755.3805,-389.9583 L755.3965,-389.9788 L755.4121,-389.9996 L755.4274,-390.0207 L755.4423,-390.0421 L755.4568,-390.0637 L755.4709,-390.0855 L755.4847,-390.1076 L755.4980,-390.1300 L755.5110,-390.1526 L755.5235,-390.1754 L755.5357,-390.1984 L755.5474,-390.2217 L755.5587,-390.2451 L755.5696,-390.2687 L755.5801,-390.2926 L755.5902,-390.3166 L755.5998,-390.3407 L755.6091,-390.3651 L755.6178,-390.3896 L755.6262,-390.4143 L755.6341,-390.4391 L755.6416,-390.4640 L755.6486,-390.4891 L755.6552,-390.5142 L755.6613,-390.5395 L755.6670,-390.5649 L755.6723,-390.5904 L755.6771,-390.6160 L755.6814,-390.6417 L755.6853,-390.6674 L755.6888,-390.6932 L755.6917,-390.7191 L755.6943,-390.7450 L755.6963,-390.7710 L755.6979,-390.7969 L755.6991,-390.8229 L755.6998,-390.8490 L755.7000,-390.8750 L755.7000,-390.8750 L755.7000,-450.3000 L755.7000,-450.3000 L755.6813,-451.3587 L755.6253,-452.4162 L755.5319,-453.4710 L755.4015,-454.5218 L755.2340,-455.5674 L755.0297,-456.6064 L754.7888,-457.6375 L754.5118,-458.6596 L754.1988,-459.6712 L753.8503,-460.6711 L753.4668,-461.6581 L753.0486,-462.6310 L752.5964,-463.5884 L752.1107,-464.5294 L751.5921,-465.4526 L751.0412,-466.3569 L750.4587,-467.2412 L749.8454,-468.1045 L749.2020,-468.9455 L748.5294,-469.7633 L747.8283,-470.5569 L747.0996,-471.3252 L746.3442,-472.0673 L745.5632,-472.7823 L744.7574,-473.4693 L743.9278,-474.1274 L743.0756,-474.7559 L742.2017,-475.3539 L741.3072,-475.9206 L740.3933,-476.4555 L739.4611,-476.9577 L738.5117,-477.4267 L737.5464,-477.8620 L736.5663,-478.2629 L735.5727,-478.6290 L734.5667,-478.9597 L733.5498,-479.2548 L732.5230,-479.5138 L731.4878,-479.7364 L730.4453,-479.9223 L729.3970,-480.0713 L728.3440,-480.1833 L727.2877,-480.2580 L726.2295,-480.2953 L725.1705,-480.2953 L724.1123,-480.2580 L723.0560,-480.1833 L722.0030,-480.0713 L720.9547,-479.9223 L719.9122,-479.7364 L718.8770,-479.5138 L717.8502,-479.2548 L716.8333,-478.9597 L715.8273,-478.6290 L714.8337,-478.2629 L713.8536,-477.8620 L712.8883,-477.4267 L711.9389,-476.9577 L711.0067,-476.4555 L710.0928,-475.9206 L709.1983,-475.3539 L708.3244,-474.7559 L707.4722,-474.1274 L706.6426,-473.4693 L705.8368,-472.7823 L705.0558,-472.0673 L704.3004,-471.3252 L703.5717,-470.5569 L702.8706,-469.7633 L702.1980,-468.9455 L701.5546,-468.1045 L700.9413,-467.2412 L700.3588,-466.3569 L699.8079,-465.4526 L699.2893,-464.5294 L698.8036,-463.5884 L698.3514,-462.6310 L697.9332,-461.6581 L697.5497,-460.6711 L697.2012,-459.6712 L696.8882,-458.6596 L696.6112,-457.6375 L696.3703,-456.6064 L696.1660,-455.5674 L695.9985,-454.5218 L695.8681,-453.4710 L695.7747,-452.4162 L695.7187,-451.3587 L695.7000,-450.3000 L695.7000,-450.3000 L695.7000,-390.8750 L695.7000,-390.8750 L695.7002,-390.8490 L695.7009,-390.8229 L695.7021,-390.7969 L695.7037,-390.7710 L695.7057,-390.7450 L695.7083,-390.7191 L695.7112,-390.6932 L695.7147,-390.6674 L695.7186,-390.6417 L695.7229,-390.6160 L695.7277,-390.5904 L695.7330,-390.5649 L695.7387,-390.5395 L695.7448,-390.5142 L695.7514,-390.4891 L695.7584,-390.4640 L695.7659,-390.4391 L695.7738,-390.4143 L695.7822,-390.3896 L695.7909,-390.3651 L695.8002,-390.3407 L695.8098,-390.3166 L695.8199,-390.2926 L695.8304,-390.2687 L695.8413,-390.2451 L695.8526,-390.2217 L695.8643,-390.1984 L695.8765,-390.1754 L695.8890,-390.1526 L695.9020,-390.1300 L695.9153,-390.1076 L695.9291,-390.0855 L695.9432,-390.0637 L695.9577,-390.0421 L695.9726,-390.0207 L695.9879,-389.9996 L696.0035,-389.9788 L696.0195,-389.9583 L696.0358,-389.9380 L696.0526,-389.9181 L696.0696,-389.8984 L696.0870,-389.8790 L696.1048,-389.8600 L696.1229,-389.8413 L696.1413,-389.8229 L696.1600,-389.8048 L696.1790,-389.7870 L696.1984,-389.7696 L696.2181,-389.7526 L696.2380,-389.7358 L696.2583,-389.7195 L696.2788,-389.7035 L696.2996,-389.6879 L696.3207,-389.6726 L696.3421,-389.6577 L696.3637,-389.6432 L696.3855,-389.6291 L696.4076,-389.6153 L696.4300,-389.6020 L696.4526,-389.5890 L696.4754,-389.5765 L696.4984,-389.5643 L696.5217,-389.5526 L696.5451,-389.5413 L696.5687,-389.5304 L696.5926,-389.5199 L696.6166,-389.5098 L696.6407,-389.5002 L696.6651,-389.4909 L696.6896,-389.4822 L696.7143,-389.4738 L696.7391,-389.4659 L696.7640,-389.4584 L696.7891,-389.4514 L696.8142,-389.4448 L696.8395,-389.4387 L696.8649,-389.4330 L696.8904,-389.4277 L696.9160,-389.4229 L696.9417,-389.4186 L696.9674,-389.4147 L696.9932,-389.4112 L697.0191,-389.4083 L697.0450,-389.4057 L697.0710,-389.4037 L697.0969,-389.4021 L697.1229,-389.4009 L697.1490,-389.4002 L697.1750,-389.4000 L697.1750,-389.4000 L725.7000,-389.4000"></path>
	<path d="M695.7000,-420.3000 L715.7000,-420.3000"></path>
	<path d="M735.7000,-420.3000 L755.7000,-420.3000"></path>
	<path d="M705.7000,-417.3000 L745.7000,-417.3000"></path>
	<path d="M695.7000,-414.3000 L715.7000,-414.3000"></path>
	<path d="M735.7000,-414.3000 L755.7000,-414.3000"></path>
	<path d="M705.7000,-411.3000 L745.7000,-411.3000"></path>
	<path d="M695.7000,-408.3000 L715.7000,-408.3000"></path>
	<path d="M735.7000,-408.3000 L755.7000,-408.3000"></path>
	<path d="M705.7000,-405.3000 L745.7000,-405.3000"></path>
</g>
</svg>