<?xml version="1.0" encoding="UTF-8" standalone="no"?>
<!-- Generator: Adobe Illustrator 27.7.0, SVG Export Plug-In . SVG Version: 6.00 Build 0)  -->

<svg
   version="1.1"
   id="Í_xBC__xB2_ã_1"
   x="0px"
   y="0px"
   viewBox="0 0 680.83002 258.16"
   xml:space="preserve"
   sodipodi:docname="film.svg"
   width="680.83002"
   height="258.16"
   inkscape:version="1.2.2 (732a01da63, 2022-12-09)"
   xmlns:inkscape="http://www.inkscape.org/namespaces/inkscape"
   xmlns:sodipodi="http://sodipodi.sourceforge.net/DTD/sodipodi-0.dtd"
   xmlns="http://www.w3.org/2000/svg"
   xmlns:svg="http://www.w3.org/2000/svg"><defs
   id="defs2164" /><sodipodi:namedview
   id="namedview2162"
   pagecolor="#ffffff"
   bordercolor="#000000"
   borderopacity="0.25"
   inkscape:showpageshadow="2"
   inkscape:pageopacity="0.0"
   inkscape:pagecheckerboard="0"
   inkscape:deskcolor="#d1d1d1"
   showgrid="false"
   inkscape:zoom="1.5677083"
   inkscape:cx="123.42857"
   inkscape:cy="-26.790698"
   inkscape:window-width="3840"
   inkscape:window-height="2054"
   inkscape:window-x="-11"
   inkscape:window-y="-11"
   inkscape:window-maximized="1"
   inkscape:current-layer="Í_xBC__xB2_ã_1" />
<style
   type="text/css"
   id="style2089">
	.st0{fill-rule:evenodd;clip-rule:evenodd;fill:none;stroke:#F19572;stroke-width:0.5;stroke-miterlimit:10;}
</style>
<polyline
   class="st0"
   points="4079.23,-1252.04 4084.9,-1252.04 4084.9,-1235.32 3943.16,-1235.32 3943.16,-1252.04   3948.83,-1252.04 "
   id="polyline2091"
   transform="translate(-3418.49,1266.47)" />
<polyline
   class="st0"
   points="3872.29,-1178.63 3928.99,-1178.63 3985.68,-1178.63 "
   id="polyline2093"
   transform="translate(-3418.49,1266.47)" />
<line
   class="st0"
   x1="623.88989"
   y1="87.839996"
   x2="680.57983"
   y2="87.839996"
   id="line2095" />
<line
   class="st0"
   x1="538.8501"
   y1="79.339996"
   x2="652.22998"
   y2="79.339996"
   id="line2097" />
<polyline
   class="st0"
   points="3872.29,-1195.63 3928.99,-1195.63 3985.68,-1195.63 "
   id="polyline2099"
   transform="translate(-3418.49,1266.47)" />
<line
   class="st0"
   x1="623.88989"
   y1="70.839996"
   x2="680.57983"
   y2="70.839996"
   id="line2101" />
<line
   class="st0"
   x1="538.8501"
   y1="62.329987"
   x2="652.22998"
   y2="62.329987"
   id="line2103" />
<polyline
   class="st0"
   points="3872.29,-1212.64 3928.99,-1212.64 3985.68,-1212.64 "
   id="polyline2105"
   transform="translate(-3418.49,1266.47)" />
<line
   class="st0"
   x1="623.88989"
   y1="53.829987"
   x2="680.57983"
   y2="53.829987"
   id="line2107" />
<line
   class="st0"
   x1="538.8501"
   y1="45.319977"
   x2="652.22998"
   y2="45.319977"
   id="line2109" />
<polyline
   class="st0"
   points="3909.14,-1252.04 3914.81,-1252.04 3914.81,-1235.32 3773.08,-1235.32 3773.08,-1252.04   3778.75,-1252.04 "
   id="polyline2111"
   transform="translate(-3418.49,1266.47)" />
<polyline
   class="st0"
   points="3702.21,-1178.63 3758.91,-1178.63 3815.6,-1178.63 "
   id="polyline2113"
   transform="translate(-3418.49,1266.47)" />
<line
   class="st0"
   x1="368.76001"
   y1="79.339996"
   x2="482.1499"
   y2="79.339996"
   id="line2115" />
<polyline
   class="st0"
   points="3702.21,-1195.63 3758.91,-1195.63 3815.6,-1195.63 "
   id="polyline2117"
   transform="translate(-3418.49,1266.47)" />
<line
   class="st0"
   x1="368.76001"
   y1="62.329987"
   x2="482.1499"
   y2="62.329987"
   id="line2119" />
<polyline
   class="st0"
   points="3702.21,-1212.64 3758.91,-1212.64 3815.6,-1212.64 "
   id="polyline2121"
   transform="translate(-3418.49,1266.47)" />
<line
   class="st0"
   x1="368.76001"
   y1="45.319977"
   x2="482.1499"
   y2="45.319977"
   id="line2123" />
<polyline
   class="st0"
   points="3739.06,-1252.04 3744.73,-1252.04 3744.73,-1235.32 3602.99,-1235.32 3602.99,-1252.04   3608.66,-1252.04 "
   id="polyline2125"
   transform="translate(-3418.49,1266.47)" />
<polyline
   class="st0"
   points="3532.12,-1178.63 3588.82,-1178.63 3645.51,-1178.63 "
   id="polyline2127"
   transform="translate(-3418.49,1266.47)" />
<line
   class="st0"
   x1="198.67992"
   y1="79.339996"
   x2="312.06006"
   y2="79.339996"
   id="line2129" />
<polyline
   class="st0"
   points="3532.12,-1195.63 3588.82,-1195.63 3645.51,-1195.63 "
   id="polyline2131"
   transform="translate(-3418.49,1266.47)" />
<line
   class="st0"
   x1="198.67992"
   y1="62.329987"
   x2="312.06006"
   y2="62.329987"
   id="line2133" />
<polyline
   class="st0"
   points="3532.12,-1212.64 3588.82,-1212.64 3645.51,-1212.64 "
   id="polyline2135"
   transform="translate(-3418.49,1266.47)" />
<line
   class="st0"
   x1="198.67992"
   y1="45.319977"
   x2="312.06006"
   y2="45.319977"
   id="line2137" />
<polyline
   class="st0"
   points="3568.97,-1252.04 3574.64,-1252.04 3574.64,-1235.32 3432.91,-1235.32 3432.91,-1252.04   3438.58,-1252.04 "
   id="polyline2139"
   transform="translate(-3418.49,1266.47)" />
<line
   class="st0"
   x1="0.24999024"
   y1="87.839996"
   x2="56.93993"
   y2="87.839996"
   id="line2141" />
<line
   class="st0"
   x1="28.590078"
   y1="79.339996"
   x2="141.97997"
   y2="79.339996"
   id="line2143" />
<line
   class="st0"
   x1="0.24999024"
   y1="70.839996"
   x2="56.93993"
   y2="70.839996"
   id="line2145" />
<line
   class="st0"
   x1="28.590078"
   y1="62.329987"
   x2="141.97997"
   y2="62.329987"
   id="line2147" />
<line
   class="st0"
   x1="0.24999024"
   y1="53.829987"
   x2="56.93993"
   y2="53.829987"
   id="line2149" />
<line
   class="st0"
   x1="28.590078"
   y1="45.319977"
   x2="141.97997"
   y2="45.319977"
   id="line2151" />
<polygon
   class="st0"
   points="4094.96,-1266.22 4095.04,-1266.21 4095.11,-1266.21 4095.18,-1266.21 4095.26,-1266.2 4095.33,-1266.19 4095.4,-1266.18 4095.48,-1266.17 4095.55,-1266.16 4095.62,-1266.15 4095.69,-1266.14 4095.77,-1266.12 4095.84,-1266.11 4095.91,-1266.09 4095.98,-1266.07 4096.05,-1266.05 4096.12,-1266.03 4096.19,-1266.01 4096.26,-1265.98 4096.33,-1265.96 4096.4,-1265.93 4096.47,-1265.91 4096.54,-1265.88 4096.61,-1265.85 4096.67,-1265.82 4096.74,-1265.78 4096.81,-1265.75 4096.87,-1265.72 4096.94,-1265.68 4097,-1265.64 4097.06,-1265.61 4097.13,-1265.57 4097.19,-1265.53 4097.25,-1265.49 4097.31,-1265.44 4097.37,-1265.4 4097.43,-1265.36 4097.49,-1265.31 4097.54,-1265.26 4097.6,-1265.22 4097.66,-1265.17 4097.71,-1265.12 4097.77,-1265.07 4097.82,-1265.02 4097.87,-1264.97 4097.92,-1264.91 4097.97,-1264.86 4098.02,-1264.8 4098.07,-1264.75 4098.12,-1264.69 4098.16,-1264.63 4098.21,-1264.58 4098.25,-1264.52 4098.3,-1264.46 4098.34,-1264.4 4098.38,-1264.33 4098.42,-1264.27 4098.46,-1264.21 4098.5,-1264.15 4098.53,-1264.08 4098.57,-1264.02 4098.6,-1263.95 4098.64,-1263.89 4098.67,-1263.82 4098.7,-1263.75 4098.73,-1263.69 4098.76,-1263.62 4098.79,-1263.55 4098.81,-1263.48 4098.84,-1263.41 4098.86,-1263.34 4098.88,-1263.27 4098.9,-1263.2 4098.92,-1263.13 4098.94,-1263.06 4098.96,-1262.99 4098.98,-1262.91 4098.99,-1262.84 4099.01,-1262.77 4099.02,-1262.7 4099.03,-1262.62 4099.04,-1262.55 4099.05,-1262.48 4099.06,-1262.4 4099.06,-1262.33 4099.07,-1262.26 4099.07,-1262.18 4099.07,-1262.11 4099.07,-1262.04 4099.07,-1093.59 4099.02,-1090.59 4098.86,-1087.59 4098.6,-1084.6 4098.23,-1081.62 4097.75,-1078.66 4097.17,-1075.71 4096.49,-1072.79 4095.71,-1069.89 4094.82,-1067.02 4093.83,-1064.19 4092.74,-1061.39 4091.56,-1058.63 4090.28,-1055.92 4088.9,-1053.25 4087.43,-1050.63 4085.87,-1048.07 4084.22,-1045.56 4082.48,-1043.12 4080.66,-1040.73 4078.75,-1038.41 4076.76,-1036.17 4074.7,-1033.99 4072.55,-1031.88 4070.34,-1029.86 4068.06,-1027.91 4065.7,-1026.04 4063.29,-1024.26 4060.81,-1022.57 4058.28,-1020.96 4055.69,-1019.44 4053.04,-1018.02 4050.35,-1016.69 4047.62,-1015.46 4044.84,-1014.32 4042.02,-1013.28 4039.17,-1012.35 4036.29,-1011.51 4033.38,-1010.78 4030.44,-1010.14 4027.49,-1009.62 4024.52,-1009.2 4021.53,-1008.88 4018.54,-1008.67 4015.54,-1008.56 4012.53,-1008.56 4009.53,-1008.67 4006.54,-1008.88 4003.56,-1009.2 4000.58,-1009.62 3997.63,-1010.14 3994.69,-1010.78 3991.78,-1011.51 3988.9,-1012.35 3986.05,-1013.28 3983.23,-1014.32 3980.46,-1015.46 3977.72,-1016.69 3975.03,-1018.02 3972.39,-1019.44 3969.79,-1020.96 3967.26,-1022.57 3964.78,-1024.26 3962.37,-1026.04 3960.01,-1027.91 3957.73,-1029.86 3955.52,-1031.88 3953.38,-1033.99 3951.31,-1036.17 3949.32,-1038.41 3947.42,-1040.73 3945.59,-1043.12 3943.85,-1045.56 3942.2,-1048.07 3940.64,-1050.63 3939.17,-1053.25 3937.79,-1055.92 3936.51,-1058.63 3935.33,-1061.39 3934.24,-1064.19 3933.25,-1067.02 3932.36,-1069.89 3931.58,-1072.79 3930.9,-1075.71 3930.32,-1078.66 3929.84,-1081.62 3929.47,-1084.6 3929.21,-1087.59 3929.05,-1090.59 3929,-1093.59 3929,-1262.04 3929,-1262.11 3929,-1262.18 3929,-1262.26 3929.01,-1262.33 3929.01,-1262.4 3929.02,-1262.48 3929.03,-1262.55 3929.04,-1262.62 3929.05,-1262.7 3929.06,-1262.77 3929.08,-1262.84 3929.09,-1262.91 3929.11,-1262.99 3929.13,-1263.06 3929.15,-1263.13 3929.17,-1263.2 3929.19,-1263.27 3929.21,-1263.34 3929.23,-1263.41 3929.26,-1263.48 3929.28,-1263.55 3929.31,-1263.62 3929.34,-1263.69 3929.37,-1263.75 3929.4,-1263.82 3929.43,-1263.89 3929.46,-1263.95 3929.5,-1264.02 3929.53,-1264.08 3929.57,-1264.15 3929.61,-1264.21 3929.65,-1264.27 3929.69,-1264.33 3929.73,-1264.4 3929.77,-1264.46 3929.82,-1264.52 3929.86,-1264.58 3929.9,-1264.63 3929.95,-1264.69 3930,-1264.75 3930.05,-1264.8 3930.1,-1264.86 3930.15,-1264.91 3930.2,-1264.97 3930.25,-1265.02 3930.3,-1265.07 3930.36,-1265.12 3930.41,-1265.17 3930.47,-1265.22 3930.52,-1265.26 3930.58,-1265.31 3930.64,-1265.36 3930.7,-1265.4 3930.76,-1265.44 3930.82,-1265.49 3930.88,-1265.53 3930.94,-1265.57 3931,-1265.61 3931.07,-1265.64 3931.13,-1265.68 3931.2,-1265.72 3931.26,-1265.75 3931.33,-1265.78 3931.39,-1265.82 3931.46,-1265.85 3931.53,-1265.88 3931.6,-1265.91 3931.67,-1265.93 3931.73,-1265.96 3931.8,-1265.98 3931.87,-1266.01 3931.94,-1266.03 3932.02,-1266.05 3932.09,-1266.07 3932.16,-1266.09 3932.23,-1266.11 3932.3,-1266.12 3932.37,-1266.14 3932.45,-1266.15 3932.52,-1266.16 3932.59,-1266.17 3932.66,-1266.18 3932.74,-1266.19 3932.81,-1266.2 3932.89,-1266.21 3932.96,-1266.21 3933.03,-1266.21 3933.11,-1266.22 3933.18,-1266.22 4014.03,-1266.22 4094.89,-1266.22 "
   id="polygon2153"
   transform="translate(-3418.49,1266.47)" />
<polygon
   class="st0"
   points="3924.88,-1266.22 3924.95,-1266.21 3925.02,-1266.21 3925.1,-1266.21 3925.17,-1266.2 3925.25,-1266.19 3925.32,-1266.18 3925.39,-1266.17 3925.46,-1266.16 3925.54,-1266.15 3925.61,-1266.14 3925.68,-1266.12 3925.75,-1266.11 3925.83,-1266.09 3925.9,-1266.07 3925.97,-1266.05 3926.04,-1266.03 3926.11,-1266.01 3926.18,-1265.98 3926.25,-1265.96 3926.32,-1265.93 3926.39,-1265.91 3926.45,-1265.88 3926.52,-1265.85 3926.59,-1265.82 3926.66,-1265.78 3926.72,-1265.75 3926.79,-1265.72 3926.85,-1265.68 3926.92,-1265.64 3926.98,-1265.61 3927.04,-1265.57 3927.1,-1265.53 3927.16,-1265.49 3927.23,-1265.44 3927.28,-1265.4 3927.34,-1265.36 3927.4,-1265.31 3927.46,-1265.26 3927.52,-1265.22 3927.57,-1265.17 3927.63,-1265.12 3927.68,-1265.07 3927.73,-1265.02 3927.79,-1264.97 3927.84,-1264.91 3927.89,-1264.86 3927.94,-1264.8 3927.98,-1264.75 3928.03,-1264.69 3928.08,-1264.63 3928.12,-1264.58 3928.17,-1264.52 3928.21,-1264.46 3928.25,-1264.4 3928.3,-1264.33 3928.33,-1264.27 3928.37,-1264.21 3928.41,-1264.15 3928.45,-1264.08 3928.48,-1264.02 3928.52,-1263.95 3928.55,-1263.89 3928.58,-1263.82 3928.61,-1263.75 3928.64,-1263.69 3928.67,-1263.62 3928.7,-1263.55 3928.73,-1263.48 3928.75,-1263.41 3928.78,-1263.34 3928.8,-1263.27 3928.82,-1263.2 3928.84,-1263.13 3928.86,-1263.06 3928.88,-1262.99 3928.89,-1262.91 3928.91,-1262.84 3928.92,-1262.77 3928.93,-1262.7 3928.95,-1262.62 3928.96,-1262.55 3928.97,-1262.48 3928.97,-1262.4 3928.98,-1262.33 3928.99,-1262.26 3928.99,-1262.18 3928.99,-1262.11 3928.99,-1262.04 3928.99,-1093.59 3928.94,-1090.59 3928.78,-1087.59 3928.51,-1084.6 3928.14,-1081.62 3927.67,-1078.66 3927.09,-1075.71 3926.41,-1072.79 3925.62,-1069.89 3924.74,-1067.02 3923.75,-1064.19 3922.66,-1061.39 3921.47,-1058.63 3920.19,-1055.92 3918.82,-1053.25 3917.35,-1050.63 3915.78,-1048.07 3914.13,-1045.56 3912.39,-1043.12 3910.57,-1040.73 3908.66,-1038.41 3906.68,-1036.17 3904.61,-1033.99 3902.47,-1031.88 3900.26,-1029.86 3897.97,-1027.91 3895.62,-1026.04 3893.2,-1024.26 3890.73,-1022.57 3888.19,-1020.96 3885.6,-1019.44 3882.96,-1018.02 3880.27,-1016.69 3877.53,-1015.46 3874.75,-1014.32 3871.94,-1013.28 3869.08,-1012.35 3866.2,-1011.51 3863.29,-1010.78 3860.36,-1010.14 3857.4,-1009.62 3854.43,-1009.2 3851.45,-1008.88 3848.45,-1008.67 3845.45,-1008.56 3842.45,-1008.56 3839.45,-1008.67 3836.46,-1008.88 3833.47,-1009.2 3830.5,-1009.62 3827.54,-1010.14 3824.61,-1010.78 3821.7,-1011.51 3818.82,-1012.35 3815.97,-1013.28 3813.15,-1014.32 3810.37,-1015.46 3807.63,-1016.69 3804.94,-1018.02 3802.3,-1019.44 3799.71,-1020.96 3797.17,-1022.57 3794.7,-1024.26 3792.28,-1026.04 3789.93,-1027.91 3787.65,-1029.86 3785.43,-1031.88 3783.29,-1033.99 3781.23,-1036.17 3779.24,-1038.41 3777.33,-1040.73 3775.51,-1043.12 3773.77,-1045.56 3772.12,-1048.07 3770.56,-1050.63 3769.09,-1053.25 3767.71,-1055.92 3766.43,-1058.63 3765.24,-1061.39 3764.15,-1064.19 3763.17,-1067.02 3762.28,-1069.89 3761.49,-1072.79 3760.81,-1075.71 3760.23,-1078.66 3759.76,-1081.62 3759.39,-1084.6 3759.12,-1087.59 3758.96,-1090.59 3758.91,-1093.59 3758.91,-1262.04 3758.91,-1262.11 3758.91,-1262.18 3758.92,-1262.26 3758.92,-1262.33 3758.93,-1262.4 3758.94,-1262.48 3758.95,-1262.55 3758.96,-1262.62 3758.97,-1262.7 3758.98,-1262.77 3758.99,-1262.84 3759.01,-1262.91 3759.02,-1262.99 3759.04,-1263.06 3759.06,-1263.13 3759.08,-1263.2 3759.1,-1263.27 3759.12,-1263.34 3759.15,-1263.41 3759.17,-1263.48 3759.2,-1263.55 3759.23,-1263.62 3759.25,-1263.69 3759.28,-1263.75 3759.32,-1263.82 3759.35,-1263.89 3759.38,-1263.95 3759.42,-1264.02 3759.45,-1264.08 3759.49,-1264.15 3759.53,-1264.21 3759.56,-1264.27 3759.6,-1264.33 3759.65,-1264.4 3759.69,-1264.46 3759.73,-1264.52 3759.78,-1264.58 3759.82,-1264.63 3759.87,-1264.69 3759.91,-1264.75 3759.96,-1264.8 3760.01,-1264.86 3760.06,-1264.91 3760.11,-1264.97 3760.17,-1265.02 3760.22,-1265.07 3760.27,-1265.12 3760.33,-1265.17 3760.38,-1265.22 3760.44,-1265.26 3760.5,-1265.31 3760.56,-1265.36 3760.61,-1265.4 3760.67,-1265.44 3760.73,-1265.49 3760.8,-1265.53 3760.86,-1265.57 3760.92,-1265.61 3760.98,-1265.64 3761.05,-1265.68 3761.11,-1265.72 3761.18,-1265.75 3761.24,-1265.78 3761.31,-1265.82 3761.38,-1265.85 3761.45,-1265.88 3761.51,-1265.91 3761.58,-1265.93 3761.65,-1265.96 3761.72,-1265.98 3761.79,-1266.01 3761.86,-1266.03 3761.93,-1266.05 3762,-1266.07 3762.07,-1266.09 3762.15,-1266.11 3762.22,-1266.12 3762.29,-1266.14 3762.36,-1266.15 3762.43,-1266.16 3762.51,-1266.17 3762.58,-1266.18 3762.65,-1266.19 3762.73,-1266.2 3762.8,-1266.21 3762.87,-1266.21 3762.95,-1266.21 3763.02,-1266.22 3763.1,-1266.22 3843.95,-1266.22 3924.8,-1266.22 "
   id="polygon2155"
   transform="translate(-3418.49,1266.47)" />
<polygon
   class="st0"
   points="3754.79,-1266.22 3754.87,-1266.21 3754.94,-1266.21 3755.01,-1266.21 3755.09,-1266.2 3755.16,-1266.19 3755.23,-1266.18 3755.31,-1266.17 3755.38,-1266.16 3755.45,-1266.15 3755.53,-1266.14 3755.6,-1266.12 3755.67,-1266.11 3755.74,-1266.09 3755.81,-1266.07 3755.88,-1266.05 3755.95,-1266.03 3756.02,-1266.01 3756.09,-1265.98 3756.16,-1265.96 3756.23,-1265.93 3756.3,-1265.91 3756.37,-1265.88 3756.44,-1265.85 3756.5,-1265.82 3756.57,-1265.78 3756.64,-1265.75 3756.7,-1265.72 3756.77,-1265.68 3756.83,-1265.64 3756.89,-1265.61 3756.96,-1265.57 3757.02,-1265.53 3757.08,-1265.49 3757.14,-1265.44 3757.2,-1265.4 3757.26,-1265.36 3757.32,-1265.31 3757.38,-1265.26 3757.43,-1265.22 3757.49,-1265.17 3757.54,-1265.12 3757.6,-1265.07 3757.65,-1265.02 3757.7,-1264.97 3757.75,-1264.91 3757.8,-1264.86 3757.85,-1264.8 3757.9,-1264.75 3757.95,-1264.69 3757.99,-1264.63 3758.04,-1264.58 3758.08,-1264.52 3758.13,-1264.46 3758.17,-1264.4 3758.21,-1264.33 3758.25,-1264.27 3758.29,-1264.21 3758.33,-1264.15 3758.36,-1264.08 3758.4,-1264.02 3758.43,-1263.95 3758.47,-1263.89 3758.5,-1263.82 3758.53,-1263.75 3758.56,-1263.69 3758.59,-1263.62 3758.62,-1263.55 3758.64,-1263.48 3758.67,-1263.41 3758.69,-1263.34 3758.71,-1263.27 3758.74,-1263.2 3758.76,-1263.13 3758.78,-1263.06 3758.79,-1262.99 3758.81,-1262.91 3758.82,-1262.84 3758.84,-1262.77 3758.85,-1262.7 3758.86,-1262.62 3758.87,-1262.55 3758.88,-1262.48 3758.89,-1262.4 3758.9,-1262.33 3758.9,-1262.26 3758.9,-1262.18 3758.91,-1262.11 3758.91,-1262.04 3758.91,-1093.59 3758.85,-1090.59 3758.69,-1087.59 3758.43,-1084.6 3758.06,-1081.62 3757.58,-1078.66 3757.01,-1075.71 3756.32,-1072.79 3755.54,-1069.89 3754.65,-1067.02 3753.66,-1064.19 3752.58,-1061.39 3751.39,-1058.63 3750.11,-1055.92 3748.73,-1053.25 3747.26,-1050.63 3745.7,-1048.07 3744.05,-1045.56 3742.31,-1043.12 3740.49,-1040.73 3738.58,-1038.41 3736.59,-1036.17 3734.53,-1033.99 3732.39,-1031.88 3730.17,-1029.86 3727.89,-1027.91 3725.54,-1026.04 3723.12,-1024.26 3720.64,-1022.57 3718.11,-1020.96 3715.52,-1019.44 3712.87,-1018.02 3710.18,-1016.69 3707.45,-1015.46 3704.67,-1014.32 3701.85,-1013.28 3699,-1012.35 3696.12,-1011.51 3693.21,-1010.78 3690.27,-1010.14 3687.32,-1009.62 3684.35,-1009.2 3681.36,-1008.88 3678.37,-1008.67 3675.37,-1008.56 3672.37,-1008.56 3669.37,-1008.67 3666.37,-1008.88 3663.39,-1009.2 3660.42,-1009.62 3657.46,-1010.14 3654.53,-1010.78 3651.62,-1011.51 3648.73,-1012.35 3645.88,-1013.28 3643.06,-1014.32 3640.29,-1015.46 3637.55,-1016.69 3634.86,-1018.02 3632.22,-1019.44 3629.63,-1020.96 3627.09,-1022.57 3624.61,-1024.26 3622.2,-1026.04 3619.85,-1027.91 3617.56,-1029.86 3615.35,-1031.88 3613.21,-1033.99 3611.14,-1036.17 3609.15,-1038.41 3607.25,-1040.73 3605.42,-1043.12 3603.68,-1045.56 3602.03,-1048.07 3600.47,-1050.63 3599,-1053.25 3597.62,-1055.92 3596.34,-1058.63 3595.16,-1061.39 3594.07,-1064.19 3593.08,-1067.02 3592.2,-1069.89 3591.41,-1072.79 3590.73,-1075.71 3590.15,-1078.66 3589.67,-1081.62 3589.3,-1084.6 3589.04,-1087.59 3588.88,-1090.59 3588.83,-1093.59 3588.83,-1262.04 3588.83,-1262.11 3588.83,-1262.18 3588.83,-1262.26 3588.84,-1262.33 3588.84,-1262.4 3588.85,-1262.48 3588.86,-1262.55 3588.87,-1262.62 3588.88,-1262.7 3588.9,-1262.77 3588.91,-1262.84 3588.92,-1262.91 3588.94,-1262.99 3588.96,-1263.06 3588.98,-1263.13 3589,-1263.2 3589.02,-1263.27 3589.04,-1263.34 3589.06,-1263.41 3589.09,-1263.48 3589.11,-1263.55 3589.14,-1263.62 3589.17,-1263.69 3589.2,-1263.75 3589.23,-1263.82 3589.26,-1263.89 3589.3,-1263.95 3589.33,-1264.02 3589.37,-1264.08 3589.4,-1264.15 3589.44,-1264.21 3589.48,-1264.27 3589.52,-1264.33 3589.56,-1264.4 3589.6,-1264.46 3589.65,-1264.52 3589.69,-1264.58 3589.74,-1264.63 3589.78,-1264.69 3589.83,-1264.75 3589.88,-1264.8 3589.93,-1264.86 3589.98,-1264.91 3590.03,-1264.97 3590.08,-1265.02 3590.13,-1265.07 3590.19,-1265.12 3590.24,-1265.17 3590.3,-1265.22 3590.36,-1265.26 3590.41,-1265.31 3590.47,-1265.36 3590.53,-1265.4 3590.59,-1265.44 3590.65,-1265.49 3590.71,-1265.53 3590.77,-1265.57 3590.84,-1265.61 3590.9,-1265.64 3590.96,-1265.68 3591.03,-1265.72 3591.09,-1265.75 3591.16,-1265.78 3591.23,-1265.82 3591.29,-1265.85 3591.36,-1265.88 3591.43,-1265.91 3591.5,-1265.93 3591.57,-1265.96 3591.64,-1265.98 3591.71,-1266.01 3591.78,-1266.03 3591.85,-1266.05 3591.92,-1266.07 3591.99,-1266.09 3592.06,-1266.11 3592.13,-1266.12 3592.2,-1266.14 3592.28,-1266.15 3592.35,-1266.16 3592.42,-1266.17 3592.5,-1266.18 3592.57,-1266.19 3592.64,-1266.2 3592.72,-1266.21 3592.79,-1266.21 3592.86,-1266.21 3592.94,-1266.22 3593.01,-1266.22 3673.86,-1266.22 3754.72,-1266.22 "
   id="polygon2157"
   transform="translate(-3418.49,1266.47)" />
<polygon
   class="st0"
   points="3584.71,-1266.22 3584.78,-1266.21 3584.86,-1266.21 3584.93,-1266.21 3585,-1266.2 3585.08,-1266.19 3585.15,-1266.18 3585.22,-1266.17 3585.3,-1266.16 3585.37,-1266.15 3585.44,-1266.14 3585.51,-1266.12 3585.59,-1266.11 3585.66,-1266.09 3585.73,-1266.07 3585.8,-1266.05 3585.87,-1266.03 3585.94,-1266.01 3586.01,-1265.98 3586.08,-1265.96 3586.15,-1265.93 3586.22,-1265.91 3586.29,-1265.88 3586.35,-1265.85 3586.42,-1265.82 3586.49,-1265.78 3586.55,-1265.75 3586.62,-1265.72 3586.68,-1265.68 3586.75,-1265.64 3586.81,-1265.61 3586.87,-1265.57 3586.93,-1265.53 3587,-1265.49 3587.06,-1265.44 3587.12,-1265.4 3587.17,-1265.36 3587.23,-1265.31 3587.29,-1265.26 3587.35,-1265.22 3587.4,-1265.17 3587.46,-1265.12 3587.51,-1265.07 3587.56,-1265.02 3587.62,-1264.97 3587.67,-1264.91 3587.72,-1264.86 3587.77,-1264.8 3587.82,-1264.75 3587.86,-1264.69 3587.91,-1264.63 3587.96,-1264.58 3588,-1264.52 3588.04,-1264.46 3588.09,-1264.4 3588.13,-1264.33 3588.17,-1264.27 3588.21,-1264.21 3588.24,-1264.15 3588.28,-1264.08 3588.32,-1264.02 3588.35,-1263.95 3588.38,-1263.89 3588.42,-1263.82 3588.45,-1263.75 3588.48,-1263.69 3588.5,-1263.62 3588.53,-1263.55 3588.56,-1263.48 3588.58,-1263.41 3588.61,-1263.34 3588.63,-1263.27 3588.65,-1263.2 3588.67,-1263.13 3588.69,-1263.06 3588.71,-1262.99 3588.73,-1262.91 3588.74,-1262.84 3588.75,-1262.77 3588.77,-1262.7 3588.78,-1262.62 3588.79,-1262.55 3588.8,-1262.48 3588.8,-1262.4 3588.81,-1262.33 3588.82,-1262.26 3588.82,-1262.18 3588.82,-1262.11 3588.82,-1262.04 3588.82,-1093.59 3588.77,-1090.59 3588.61,-1087.59 3588.35,-1084.6 3587.98,-1081.62 3587.5,-1078.66 3586.92,-1075.71 3586.24,-1072.79 3585.45,-1069.89 3584.57,-1067.02 3583.58,-1064.19 3582.49,-1061.39 3581.31,-1058.63 3580.02,-1055.92 3578.65,-1053.25 3577.18,-1050.63 3575.62,-1048.07 3573.96,-1045.56 3572.23,-1043.12 3570.4,-1040.73 3568.5,-1038.41 3566.51,-1036.17 3564.44,-1033.99 3562.3,-1031.88 3560.09,-1029.86 3557.8,-1027.91 3555.45,-1026.04 3553.04,-1024.26 3550.56,-1022.57 3548.02,-1020.96 3545.43,-1019.44 3542.79,-1018.02 3540.1,-1016.69 3537.36,-1015.46 3534.58,-1014.32 3531.77,-1013.28 3528.92,-1012.35 3526.03,-1011.51 3523.12,-1010.78 3520.19,-1010.14 3517.23,-1009.62 3514.26,-1009.2 3511.28,-1008.88 3508.28,-1008.67 3505.28,-1008.56 3502.28,-1008.56 3499.28,-1008.67 3496.29,-1008.88 3493.3,-1009.2 3490.33,-1009.62 3487.38,-1010.14 3484.44,-1010.78 3481.53,-1011.51 3478.65,-1012.35 3475.8,-1013.28 3472.98,-1014.32 3470.2,-1015.46 3467.47,-1016.69 3464.77,-1018.02 3462.13,-1019.44 3459.54,-1020.96 3457.01,-1022.57 3454.53,-1024.26 3452.11,-1026.04 3449.76,-1027.91 3447.48,-1029.86 3445.26,-1031.88 3443.12,-1033.99 3441.06,-1036.17 3439.07,-1038.41 3437.16,-1040.73 3435.34,-1043.12 3433.6,-1045.56 3431.95,-1048.07 3430.39,-1050.63 3428.92,-1053.25 3427.54,-1055.92 3426.26,-1058.63 3425.07,-1061.39 3423.99,-1064.19 3423,-1067.02 3422.11,-1069.89 3421.33,-1072.79 3420.64,-1075.71 3420.06,-1078.66 3419.59,-1081.62 3419.22,-1084.6 3418.95,-1087.59 3418.8,-1090.59 3418.74,-1093.59 3418.74,-1262.04 3418.74,-1262.11 3418.75,-1262.18 3418.75,-1262.26 3418.75,-1262.33 3418.76,-1262.4 3418.77,-1262.48 3418.78,-1262.55 3418.79,-1262.62 3418.8,-1262.7 3418.81,-1262.77 3418.82,-1262.84 3418.84,-1262.91 3418.86,-1262.99 3418.87,-1263.06 3418.89,-1263.13 3418.91,-1263.2 3418.93,-1263.27 3418.96,-1263.34 3418.98,-1263.41 3419,-1263.48 3419.03,-1263.55 3419.06,-1263.62 3419.09,-1263.69 3419.12,-1263.75 3419.15,-1263.82 3419.18,-1263.89 3419.21,-1263.95 3419.25,-1264.02 3419.28,-1264.08 3419.32,-1264.15 3419.36,-1264.21 3419.4,-1264.27 3419.44,-1264.33 3419.48,-1264.4 3419.52,-1264.46 3419.56,-1264.52 3419.61,-1264.58 3419.65,-1264.63 3419.7,-1264.69 3419.75,-1264.75 3419.79,-1264.8 3419.84,-1264.86 3419.89,-1264.91 3419.94,-1264.97 3420,-1265.02 3420.05,-1265.07 3420.1,-1265.12 3420.16,-1265.17 3420.21,-1265.22 3420.27,-1265.26 3420.33,-1265.31 3420.39,-1265.36 3420.45,-1265.4 3420.51,-1265.44 3420.57,-1265.49 3420.63,-1265.53 3420.69,-1265.57 3420.75,-1265.61 3420.82,-1265.64 3420.88,-1265.68 3420.94,-1265.72 3421.01,-1265.75 3421.08,-1265.78 3421.14,-1265.82 3421.21,-1265.85 3421.28,-1265.88 3421.34,-1265.91 3421.41,-1265.93 3421.48,-1265.96 3421.55,-1265.98 3421.62,-1266.01 3421.69,-1266.03 3421.76,-1266.05 3421.83,-1266.07 3421.9,-1266.09 3421.98,-1266.11 3422.05,-1266.12 3422.12,-1266.14 3422.19,-1266.15 3422.27,-1266.16 3422.34,-1266.17 3422.41,-1266.18 3422.49,-1266.19 3422.56,-1266.2 3422.63,-1266.21 3422.71,-1266.21 3422.78,-1266.21 3422.85,-1266.22 3422.93,-1266.22 3503.78,-1266.22 3584.63,-1266.22 "
   id="polygon2159"
   transform="translate(-3418.49,1266.47)" />
</svg>
