<?xml version="1.0" encoding="utf-8"?>
<svg xmlns="http://www.w3.org/2000/svg" width="278.9714mm" height="2332.3000mm" viewBox="19.3143 -2373.3143 278.9714 2332.3000">
<g>
	<path d="M22.2143,-46.9143 L22.2143,-41.0143 L29.6878,-41.0143 L29.6878,-46.9143 L29.6878,-46.9143 L37.1612,-46.9143 L37.1612,-41.0143 L37.1612,-41.0143 L44.6347,-41.0143 L44.6347,-46.9143 L44.6347,-46.9143 L52.1082,-46.9143 L52.1082,-41.0143 L52.1082,-41.0143 L59.5816,-41.0143 L59.5816,-46.9143 L59.5816,-46.9143 L67.0551,-46.9143 L67.0551,-41.0143 L67.0551,-41.0143 L74.5286,-41.0143 L74.5286,-46.9143 L77.4286,-46.9143 L77.4286,-41.0143 L84.9020,-41.0143 L84.9020,-46.9143 L84.9020,-46.9143 L92.3755,-46.9143 L92.3755,-41.0143 L92.3755,-41.0143 L99.8490,-41.0143 L99.8490,-46.9143 L99.8490,-46.9143 L107.3224,-46.9143 L107.3224,-41.0143 L107.3224,-41.0143 L114.7959,-41.0143 L114.7959,-46.9143 L114.7959,-46.9143 L122.2694,-46.9143 L122.2694,-41.0143 L122.2694,-41.0143 L129.7429,-41.0143 L129.7429,-46.9143 L132.6429,-46.9143 L132.6429,-41.0143 L140.1163,-41.0143 L140.1163,-46.9143 L140.1163,-46.9143 L147.5898,-46.9143 L147.5898,-41.0143 L147.5898,-41.0143 L155.0633,-41.0143 L155.0633,-46.9143 L155.0633,-46.9143 L162.5367,-46.9143 L162.5367,-41.0143 L162.5367,-41.0143 L170.0102,-41.0143 L170.0102,-46.9143 L170.0102,-46.9143 L177.4837,-46.9143 L177.4837,-41.0143 L177.4837,-41.0143 L184.9571,-41.0143 L184.9571,-46.9143 L187.8571,-46.9143 L187.8571,-41.0143 L195.3306,-41.0143 L195.3306,-46.9143 L195.3306,-46.9143 L202.8041,-46.9143 L202.8041,-41.0143 L202.8041,-41.0143 L210.2776,-41.0143 L210.2776,-46.9143 L210.2776,-46.9143 L217.7510,-46.9143 L217.7510,-41.0143 L217.7510,-41.0143 L225.2245,-41.0143 L225.2245,-46.9143 L225.2245,-46.9143 L232.6980,-46.9143 L232.6980,-41.0143 L232.6980,-41.0143 L240.1714,-41.0143 L240.1714,-46.9143 L243.0714,-46.9143 L243.0714,-41.0143 L250.5449,-41.0143 L250.5449,-46.9143 L250.5449,-46.9143 L258.0184,-46.9143 L258.0184,-41.0143 L258.0184,-41.0143 L265.4918,-41.0143 L265.4918,-46.9143 L265.4918,-46.9143 L272.9653,-46.9143 L272.9653,-41.0143 L272.9653,-41.0143 L280.4388,-41.0143 L280.4388,-46.9143 L280.4388,-46.9143 L287.9122,-46.9143 L287.9122,-41.0143 L287.9122,-41.0143 L295.3857,-41.0143 L295.3857,-46.9143 L295.3857,-46.9143 L295.3857,-55.9989 L298.2857,-55.9989 L298.2857,-55.9989 L298.2857,-65.0835 L295.3857,-65.0835 L295.3857,-65.0835 L295.3857,-74.1681 L298.2857,-74.1681 L298.2857,-74.1681 L298.2857,-83.2527 L295.3857,-83.2527 L295.3857,-83.2527 L295.3857,-92.3374 L298.2857,-92.3374 L298.2857,-92.3374 L298.2857,-101.4220 L295.3857,-101.4220 L295.3857,-101.4220 L295.3857,-110.5066 L298.2857,-110.5066 L298.2857,-110.5066 L298.2857,-119.5912 L295.3857,-119.5912 L295.3857,-119.5912 L295.3857,-128.6758 L298.2857,-128.6758 L298.2857,-128.6758 L298.2857,-137.7604 L295.3857,-137.7604 L295.3857,-137.7604 L295.3857,-146.8451 L298.2857,-146.8451 L298.2857,-146.8451 L298.2857,-155.9297 L295.3857,-155.9297 L295.3857,-155.9297 L295.3857,-165.0143 L295.3857,-165.0143 L22.2143,-165.0143 L22.2143,-165.0143 L22.2143,-46.9143"></path>
	<path d="M74.5286,-65.0835 L77.4286,-65.0835 L77.4286,-74.1681 L74.5286,-74.1681 L74.5286,-65.0835"></path>
	<path d="M74.5286,-83.2527 L77.4286,-83.2527 L77.4286,-92.3374 L74.5286,-92.3374 L74.5286,-83.2527"></path>
	<path d="M74.5286,-101.4220 L77.4286,-101.4220 L77.4286,-110.5066 L74.5286,-110.5066 L74.5286,-101.4220"></path>
	<path d="M74.5286,-119.5912 L77.4286,-119.5912 L77.4286,-128.6758 L74.5286,-128.6758 L74.5286,-119.5912"></path>
	<path d="M74.5286,-137.7604 L77.4286,-137.7604 L77.4286,-146.8451 L74.5286,-146.8451 L74.5286,-137.7604"></path>
	<path d="M22.2143,-176.8143 L22.2143,-170.9143 L29.6878,-170.9143 L29.6878,-176.8143 L29.6878,-176.8143 L37.1612,-176.8143 L37.1612,-170.9143 L37.1612,-170.9143 L44.6347,-170.9143 L44.6347,-176.8143 L44.6347,-176.8143 L52.1082,-176.8143 L52.1082,-170.9143 L52.1082,-170.9143 L59.5816,-170.9143 L59.5816,-176.8143 L59.5816,-176.8143 L67.0551,-176.8143 L67.0551,-170.9143 L67.0551,-170.9143 L74.5286,-170.9143 L74.5286,-176.8143 L77.4286,-176.8143 L77.4286,-170.9143 L84.9020,-170.9143 L84.9020,-176.8143 L84.9020,-176.8143 L92.3755,-176.8143 L92.3755,-170.9143 L92.3755,-170.9143 L99.8490,-170.9143 L99.8490,-176.8143 L99.8490,-176.8143 L107.3224,-176.8143 L107.3224,-170.9143 L107.3224,-170.9143 L114.7959,-170.9143 L114.7959,-176.8143 L114.7959,-176.8143 L122.2694,-176.8143 L122.2694,-170.9143 L122.2694,-170.9143 L129.7429,-170.9143 L129.7429,-176.8143 L129.7429,-176.8143 L129.7429,-185.8989 L132.6429,-185.8989 L132.6429,-185.8989 L132.6429,-194.9835 L129.7429,-194.9835 L129.7429,-194.9835 L129.7429,-204.0681 L132.6429,-204.0681 L132.6429,-204.0681 L132.6429,-213.1527 L129.7429,-213.1527 L129.7429,-213.1527 L129.7429,-222.2374 L132.6429,-222.2374 L132.6429,-222.2374 L132.6429,-231.3220 L129.7429,-231.3220 L129.7429,-231.3220 L129.7429,-240.4066 L132.6429,-240.4066 L132.6429,-240.4066 L132.6429,-249.4912 L129.7429,-249.4912 L129.7429,-249.4912 L129.7429,-258.5758 L132.6429,-258.5758 L132.6429,-258.5758 L132.6429,-267.6604 L129.7429,-267.6604 L129.7429,-267.6604 L129.7429,-276.7451 L132.6429,-276.7451 L132.6429,-276.7451 L132.6429,-285.8297 L129.7429,-285.8297 L129.7429,-285.8297 L129.7429,-294.9143 L129.7429,-294.9143 L22.2143,-294.9143 L22.2143,-294.9143 L22.2143,-176.8143"></path>
	<path d="M74.5286,-194.9835 L77.4286,-194.9835 L77.4286,-204.0681 L74.5286,-204.0681 L74.5286,-194.9835"></path>
	<path d="M74.5286,-213.1527 L77.4286,-213.1527 L77.4286,-222.2374 L74.5286,-222.2374 L74.5286,-213.1527"></path>
	<path d="M74.5286,-231.3220 L77.4286,-231.3220 L77.4286,-240.4066 L74.5286,-240.4066 L74.5286,-231.3220"></path>
	<path d="M74.5286,-249.4912 L77.4286,-249.4912 L77.4286,-258.5758 L74.5286,-258.5758 L74.5286,-249.4912"></path>
	<path d="M74.5286,-267.6604 L77.4286,-267.6604 L77.4286,-276.7451 L74.5286,-276.7451 L74.5286,-267.6604"></path>
	<path d="M22.2143,-306.7143 L22.2143,-300.8143 L29.6878,-300.8143 L29.6878,-306.7143 L29.6878,-306.7143 L37.1612,-306.7143 L37.1612,-300.8143 L37.1612,-300.8143 L44.6347,-300.8143 L44.6347,-306.7143 L44.6347,-306.7143 L52.1082,-306.7143 L52.1082,-300.8143 L52.1082,-300.8143 L59.5816,-300.8143 L59.5816,-306.7143 L59.5816,-306.7143 L67.0551,-306.7143 L67.0551,-300.8143 L67.0551,-300.8143 L74.5286,-300.8143 L74.5286,-306.7143 L74.5286,-306.7143 L74.5286,-424.8143 L74.5286,-424.8143 L22.2143,-424.8143 L22.2143,-424.8143 L22.2143,-415.7297 L19.3143,-415.7297 L19.3143,-415.7297 L19.3143,-406.6451 L22.2143,-406.6451 L22.2143,-406.6451 L22.2143,-397.5604 L19.3143,-397.5604 L19.3143,-397.5604 L19.3143,-388.4758 L22.2143,-388.4758 L22.2143,-388.4758 L22.2143,-379.3912 L19.3143,-379.3912 L19.3143,-379.3912 L19.3143,-370.3066 L22.2143,-370.3066 L22.2143,-370.3066 L22.2143,-361.2220 L19.3143,-361.2220 L19.3143,-361.2220 L19.3143,-352.1374 L22.2143,-352.1374 L22.2143,-352.1374 L22.2143,-343.0527 L19.3143,-343.0527 L19.3143,-343.0527 L19.3143,-333.9681 L22.2143,-333.9681 L22.2143,-333.9681 L22.2143,-324.8835 L19.3143,-324.8835 L19.3143,-324.8835 L19.3143,-315.7989 L22.2143,-315.7989 L22.2143,-315.7989 L22.2143,-306.7143"></path>
	<path d="M22.2143,-436.6143 L22.2143,-430.7143 L29.6878,-430.7143 L29.6878,-436.6143 L29.6878,-436.6143 L37.1612,-436.6143 L37.1612,-430.7143 L37.1612,-430.7143 L44.6347,-430.7143 L44.6347,-436.6143 L44.6347,-436.6143 L52.1082,-436.6143 L52.1082,-430.7143 L52.1082,-430.7143 L59.5816,-430.7143 L59.5816,-436.6143 L59.5816,-436.6143 L67.0551,-436.6143 L67.0551,-430.7143 L67.0551,-430.7143 L74.5286,-430.7143 L74.5286,-436.6143 L74.5286,-436.6143 L74.5286,-554.7143 L74.5286,-554.7143 L22.2143,-554.7143 L22.2143,-554.7143 L22.2143,-545.6297 L19.3143,-545.6297 L19.3143,-545.6297 L19.3143,-536.5451 L22.2143,-536.5451 L22.2143,-536.5451 L22.2143,-527.4604 L19.3143,-527.4604 L19.3143,-527.4604 L19.3143,-518.3758 L22.2143,-518.3758 L22.2143,-518.3758 L22.2143,-509.2912 L19.3143,-509.2912 L19.3143,-509.2912 L19.3143,-500.2066 L22.2143,-500.2066 L22.2143,-500.2066 L22.2143,-491.1220 L19.3143,-491.1220 L19.3143,-491.1220 L19.3143,-482.0374 L22.2143,-482.0374 L22.2143,-482.0374 L22.2143,-472.9527 L19.3143,-472.9527 L19.3143,-472.9527 L19.3143,-463.8681 L22.2143,-463.8681 L22.2143,-463.8681 L22.2143,-454.7835 L19.3143,-454.7835 L19.3143,-454.7835 L19.3143,-445.6989 L22.2143,-445.6989 L22.2143,-445.6989 L22.2143,-436.6143"></path>
	<path d="M22.2143,-566.5143 L22.2143,-560.6143 L29.6878,-560.6143 L29.6878,-566.5143 L29.6878,-566.5143 L37.1612,-566.5143 L37.1612,-560.6143 L37.1612,-560.6143 L44.6347,-560.6143 L44.6347,-566.5143 L44.6347,-566.5143 L52.1082,-566.5143 L52.1082,-560.6143 L52.1082,-560.6143 L59.5816,-560.6143 L59.5816,-566.5143 L59.5816,-566.5143 L67.0551,-566.5143 L67.0551,-560.6143 L67.0551,-560.6143 L74.5286,-560.6143 L74.5286,-566.5143 L74.5286,-566.5143 L74.5286,-575.5989 L77.4286,-575.5989 L77.4286,-575.5989 L77.4286,-584.6835 L74.5286,-584.6835 L74.5286,-584.6835 L74.5286,-593.7681 L77.4286,-593.7681 L77.4286,-593.7681 L77.4286,-602.8527 L74.5286,-602.8527 L74.5286,-602.8527 L74.5286,-611.9374 L77.4286,-611.9374 L77.4286,-611.9374 L77.4286,-621.0220 L74.5286,-621.0220 L74.5286,-621.0220 L74.5286,-630.1066 L77.4286,-630.1066 L77.4286,-630.1066 L77.4286,-639.1912 L74.5286,-639.1912 L74.5286,-639.1912 L74.5286,-648.2758 L77.4286,-648.2758 L77.4286,-648.2758 L77.4286,-657.3604 L74.5286,-657.3604 L74.5286,-657.3604 L74.5286,-666.4451 L77.4286,-666.4451 L77.4286,-666.4451 L77.4286,-675.5297 L74.5286,-675.5297 L74.5286,-675.5297 L74.5286,-684.6143 L74.5286,-684.6143 L22.2143,-684.6143 L22.2143,-684.6143 L22.2143,-675.5297 L19.3143,-675.5297 L19.3143,-675.5297 L19.3143,-666.4451 L22.2143,-666.4451 L22.2143,-666.4451 L22.2143,-657.3604 L19.3143,-657.3604 L19.3143,-657.3604 L19.3143,-648.2758 L22.2143,-648.2758 L22.2143,-648.2758 L22.2143,-639.1912 L19.3143,-639.1912 L19.3143,-639.1912 L19.3143,-630.1066 L22.2143,-630.1066 L22.2143,-630.1066 L22.2143,-621.0220 L19.3143,-621.0220 L19.3143,-621.0220 L19.3143,-611.9374 L22.2143,-611.9374 L22.2143,-611.9374 L22.2143,-602.8527 L19.3143,-602.8527 L19.3143,-602.8527 L19.3143,-593.7681 L22.2143,-593.7681 L22.2143,-593.7681 L22.2143,-584.6835 L19.3143,-584.6835 L19.3143,-584.6835 L19.3143,-575.5989 L22.2143,-575.5989 L22.2143,-575.5989 L22.2143,-566.5143"></path>
	<path d="M22.2143,-696.4143 L22.2143,-690.5143 L29.6878,-690.5143 L29.6878,-696.4143 L29.6878,-696.4143 L37.1612,-696.4143 L37.1612,-690.5143 L37.1612,-690.5143 L44.6347,-690.5143 L44.6347,-696.4143 L44.6347,-696.4143 L52.1082,-696.4143 L52.1082,-690.5143 L52.1082,-690.5143 L59.5816,-690.5143 L59.5816,-696.4143 L59.5816,-696.4143 L67.0551,-696.4143 L67.0551,-690.5143 L67.0551,-690.5143 L74.5286,-690.5143 L74.5286,-696.4143 L74.5286,-696.4143 L74.5286,-705.4989 L77.4286,-705.4989 L77.4286,-705.4989 L77.4286,-714.5835 L74.5286,-714.5835 L74.5286,-714.5835 L74.5286,-723.6681 L77.4286,-723.6681 L77.4286,-723.6681 L77.4286,-732.7527 L74.5286,-732.7527 L74.5286,-732.7527 L74.5286,-741.8374 L77.4286,-741.8374 L77.4286,-741.8374 L77.4286,-750.9220 L74.5286,-750.9220 L74.5286,-750.9220 L74.5286,-760.0066 L77.4286,-760.0066 L77.4286,-760.0066 L77.4286,-769.0912 L74.5286,-769.0912 L74.5286,-769.0912 L74.5286,-778.1758 L77.4286,-778.1758 L77.4286,-778.1758 L77.4286,-787.2604 L74.5286,-787.2604 L74.5286,-787.2604 L74.5286,-796.3451 L77.4286,-796.3451 L77.4286,-796.3451 L77.4286,-805.4297 L74.5286,-805.4297 L74.5286,-805.4297 L74.5286,-814.5143 L74.5286,-814.5143 L22.2143,-814.5143 L22.2143,-814.5143 L22.2143,-696.4143"></path>
	<path d="M22.2143,-826.3143 L22.2143,-820.4143 L29.6878,-820.4143 L29.6878,-826.3143 L29.6878,-826.3143 L37.1612,-826.3143 L37.1612,-820.4143 L37.1612,-820.4143 L44.6347,-820.4143 L44.6347,-826.3143 L44.6347,-826.3143 L52.1082,-826.3143 L52.1082,-820.4143 L52.1082,-820.4143 L59.5816,-820.4143 L59.5816,-826.3143 L59.5816,-826.3143 L67.0551,-826.3143 L67.0551,-820.4143 L67.0551,-820.4143 L74.5286,-820.4143 L74.5286,-826.3143 L74.5286,-826.3143 L74.5286,-944.4143 L74.5286,-944.4143 L22.2143,-944.4143 L22.2143,-944.4143 L22.2143,-935.3297 L19.3143,-935.3297 L19.3143,-935.3297 L19.3143,-926.2451 L22.2143,-926.2451 L22.2143,-926.2451 L22.2143,-917.1604 L19.3143,-917.1604 L19.3143,-917.1604 L19.3143,-908.0758 L22.2143,-908.0758 L22.2143,-908.0758 L22.2143,-898.9912 L19.3143,-898.9912 L19.3143,-898.9912 L19.3143,-889.9066 L22.2143,-889.9066 L22.2143,-889.9066 L22.2143,-880.8220 L19.3143,-880.8220 L19.3143,-880.8220 L19.3143,-871.7374 L22.2143,-871.7374 L22.2143,-871.7374 L22.2143,-862.6527 L19.3143,-862.6527 L19.3143,-862.6527 L19.3143,-853.5681 L22.2143,-853.5681 L22.2143,-853.5681 L22.2143,-844.4835 L19.3143,-844.4835 L19.3143,-844.4835 L19.3143,-835.3989 L22.2143,-835.3989 L22.2143,-835.3989 L22.2143,-826.3143"></path>
	<path d="M22.2143,-956.2143 L22.2143,-950.3143 L29.6878,-950.3143 L29.6878,-956.2143 L29.6878,-956.2143 L37.1612,-956.2143 L37.1612,-950.3143 L37.1612,-950.3143 L44.6347,-950.3143 L44.6347,-956.2143 L44.6347,-956.2143 L52.1082,-956.2143 L52.1082,-950.3143 L52.1082,-950.3143 L59.5816,-950.3143 L59.5816,-956.2143 L59.5816,-956.2143 L67.0551,-956.2143 L67.0551,-950.3143 L67.0551,-950.3143 L74.5286,-950.3143 L74.5286,-956.2143 L77.4286,-956.2143 L77.4286,-950.3143 L84.9020,-950.3143 L84.9020,-956.2143 L84.9020,-956.2143 L92.3755,-956.2143 L92.3755,-950.3143 L92.3755,-950.3143 L99.8490,-950.3143 L99.8490,-956.2143 L99.8490,-956.2143 L107.3224,-956.2143 L107.3224,-950.3143 L107.3224,-950.3143 L114.7959,-950.3143 L114.7959,-956.2143 L114.7959,-956.2143 L122.2694,-956.2143 L122.2694,-950.3143 L122.2694,-950.3143 L129.7429,-950.3143 L129.7429,-956.2143 L129.7429,-956.2143 L129.7429,-965.2989 L132.6429,-965.2989 L132.6429,-965.2989 L132.6429,-974.3835 L129.7429,-974.3835 L129.7429,-974.3835 L129.7429,-983.4681 L132.6429,-983.4681 L132.6429,-983.4681 L132.6429,-992.5527 L129.7429,-992.5527 L129.7429,-992.5527 L129.7429,-1001.6374 L132.6429,-1001.6374 L132.6429,-1001.6374 L132.6429,-1010.7220 L129.7429,-1010.7220 L129.7429,-1010.7220 L129.7429,-1019.8066 L132.6429,-1019.8066 L132.6429,-1019.8066 L132.6429,-1028.8912 L129.7429,-1028.8912 L129.7429,-1028.8912 L129.7429,-1037.9758 L132.6429,-1037.9758 L132.6429,-1037.9758 L132.6429,-1047.0604 L129.7429,-1047.0604 L129.7429,-1047.0604 L129.7429,-1056.1451 L132.6429,-1056.1451 L132.6429,-1056.1451 L132.6429,-1065.2297 L129.7429,-1065.2297 L129.7429,-1065.2297 L129.7429,-1074.3143 L129.7429,-1074.3143 L22.2143,-1074.3143 L22.2143,-1074.3143 L22.2143,-1065.2297 L19.3143,-1065.2297 L19.3143,-1065.2297 L19.3143,-1056.1451 L22.2143,-1056.1451 L22.2143,-1056.1451 L22.2143,-1047.0604 L19.3143,-1047.0604 L19.3143,-1047.0604 L19.3143,-1037.9758 L22.2143,-1037.9758 L22.2143,-1037.9758 L22.2143,-1028.8912 L19.3143,-1028.8912 L19.3143,-1028.8912 L19.3143,-1019.8066 L22.2143,-1019.8066 L22.2143,-1019.8066 L22.2143,-1010.7220 L19.3143,-1010.7220 L19.3143,-1010.7220 L19.3143,-1001.6374 L22.2143,-1001.6374 L22.2143,-1001.6374 L22.2143,-992.5527 L19.3143,-992.5527 L19.3143,-992.5527 L19.3143,-983.4681 L22.2143,-983.4681 L22.2143,-983.4681 L22.2143,-974.3835 L19.3143,-974.3835 L19.3143,-974.3835 L19.3143,-965.2989 L22.2143,-965.2989 L22.2143,-965.2989 L22.2143,-956.2143"></path>
	<path d="M22.2143,-1086.1143 L22.2143,-1080.2143 L29.6878,-1080.2143 L29.6878,-1086.1143 L29.6878,-1086.1143 L37.1612,-1086.1143 L37.1612,-1080.2143 L37.1612,-1080.2143 L44.6347,-1080.2143 L44.6347,-1086.1143 L44.6347,-1086.1143 L52.1082,-1086.1143 L52.1082,-1080.2143 L52.1082,-1080.2143 L59.5816,-1080.2143 L59.5816,-1086.1143 L59.5816,-1086.1143 L67.0551,-1086.1143 L67.0551,-1080.2143 L67.0551,-1080.2143 L74.5286,-1080.2143 L74.5286,-1086.1143 L77.4286,-1086.1143 L77.4286,-1080.2143 L84.9020,-1080.2143 L84.9020,-1086.1143 L84.9020,-1086.1143 L92.3755,-1086.1143 L92.3755,-1080.2143 L92.3755,-1080.2143 L99.8490,-1080.2143 L99.8490,-1086.1143 L99.8490,-1086.1143 L107.3224,-1086.1143 L107.3224,-1080.2143 L107.3224,-1080.2143 L114.7959,-1080.2143 L114.7959,-1086.1143 L114.7959,-1086.1143 L122.2694,-1086.1143 L122.2694,-1080.2143 L122.2694,-1080.2143 L129.7429,-1080.2143 L129.7429,-1086.1143 L132.6429,-1086.1143 L132.6429,-1080.2143 L140.1163,-1080.2143 L140.1163,-1086.1143 L140.1163,-1086.1143 L147.5898,-1086.1143 L147.5898,-1080.2143 L147.5898,-1080.2143 L155.0633,-1080.2143 L155.0633,-1086.1143 L155.0633,-1086.1143 L162.5367,-1086.1143 L162.5367,-1080.2143 L162.5367,-1080.2143 L170.0102,-1080.2143 L170.0102,-1086.1143 L170.0102,-1086.1143 L177.4837,-1086.1143 L177.4837,-1080.2143 L177.4837,-1080.2143 L184.9571,-1080.2143 L184.9571,-1086.1143 L184.9571,-1086.1143 L184.9571,-1095.1989 L187.8571,-1095.1989 L187.8571,-1095.1989 L187.8571,-1104.2835 L184.9571,-1104.2835 L184.9571,-1104.2835 L184.9571,-1113.3681 L187.8571,-1113.3681 L187.8571,-1113.3681 L187.8571,-1122.4527 L184.9571,-1122.4527 L184.9571,-1122.4527 L184.9571,-1131.5374 L187.8571,-1131.5374 L187.8571,-1131.5374 L187.8571,-1140.6220 L184.9571,-1140.6220 L184.9571,-1140.6220 L184.9571,-1149.7066 L187.8571,-1149.7066 L187.8571,-1149.7066 L187.8571,-1158.7912 L184.9571,-1158.7912 L184.9571,-1158.7912 L184.9571,-1167.8758 L187.8571,-1167.8758 L187.8571,-1167.8758 L187.8571,-1176.9604 L184.9571,-1176.9604 L184.9571,-1176.9604 L184.9571,-1186.0451 L187.8571,-1186.0451 L187.8571,-1186.0451 L187.8571,-1195.1297 L184.9571,-1195.1297 L184.9571,-1195.1297 L184.9571,-1204.2143 L184.9571,-1204.2143 L22.2143,-1204.2143 L22.2143,-1204.2143 L22.2143,-1086.1143"></path>
	<path d="M22.2143,-1216.0143 L22.2143,-1210.1143 L29.6878,-1210.1143 L29.6878,-1216.0143 L29.6878,-1216.0143 L37.1612,-1216.0143 L37.1612,-1210.1143 L37.1612,-1210.1143 L44.6347,-1210.1143 L44.6347,-1216.0143 L44.6347,-1216.0143 L52.1082,-1216.0143 L52.1082,-1210.1143 L52.1082,-1210.1143 L59.5816,-1210.1143 L59.5816,-1216.0143 L59.5816,-1216.0143 L67.0551,-1216.0143 L67.0551,-1210.1143 L67.0551,-1210.1143 L74.5286,-1210.1143 L74.5286,-1216.0143 L77.4286,-1216.0143 L77.4286,-1210.1143 L84.9020,-1210.1143 L84.9020,-1216.0143 L84.9020,-1216.0143 L92.3755,-1216.0143 L92.3755,-1210.1143 L92.3755,-1210.1143 L99.8490,-1210.1143 L99.8490,-1216.0143 L99.8490,-1216.0143 L107.3224,-1216.0143 L107.3224,-1210.1143 L107.3224,-1210.1143 L114.7959,-1210.1143 L114.7959,-1216.0143 L114.7959,-1216.0143 L122.2694,-1216.0143 L122.2694,-1210.1143 L122.2694,-1210.1143 L129.7429,-1210.1143 L129.7429,-1216.0143 L132.6429,-1216.0143 L132.6429,-1210.1143 L140.1163,-1210.1143 L140.1163,-1216.0143 L140.1163,-1216.0143 L147.5898,-1216.0143 L147.5898,-1210.1143 L147.5898,-1210.1143 L155.0633,-1210.1143 L155.0633,-1216.0143 L155.0633,-1216.0143 L162.5367,-1216.0143 L162.5367,-1210.1143 L162.5367,-1210.1143 L170.0102,-1210.1143 L170.0102,-1216.0143 L170.0102,-1216.0143 L177.4837,-1216.0143 L177.4837,-1210.1143 L177.4837,-1210.1143 L184.9571,-1210.1143 L184.9571,-1216.0143 L187.8571,-1216.0143 L187.8571,-1210.1143 L195.3306,-1210.1143 L195.3306,-1216.0143 L195.3306,-1216.0143 L202.8041,-1216.0143 L202.8041,-1210.1143 L202.8041,-1210.1143 L210.2776,-1210.1143 L210.2776,-1216.0143 L210.2776,-1216.0143 L217.7510,-1216.0143 L217.7510,-1210.1143 L217.7510,-1210.1143 L225.2245,-1210.1143 L225.2245,-1216.0143 L225.2245,-1216.0143 L232.6980,-1216.0143 L232.6980,-1210.1143 L232.6980,-1210.1143 L240.1714,-1210.1143 L240.1714,-1216.0143 L243.0714,-1216.0143 L243.0714,-1210.1143 L250.5449,-1210.1143 L250.5449,-1216.0143 L250.5449,-1216.0143 L258.0184,-1216.0143 L258.0184,-1210.1143 L258.0184,-1210.1143 L265.4918,-1210.1143 L265.4918,-1216.0143 L265.4918,-1216.0143 L272.9653,-1216.0143 L272.9653,-1210.1143 L272.9653,-1210.1143 L280.4388,-1210.1143 L280.4388,-1216.0143 L280.4388,-1216.0143 L287.9122,-1216.0143 L287.9122,-1210.1143 L287.9122,-1210.1143 L295.3857,-1210.1143 L295.3857,-1216.0143 L295.3857,-1216.0143 L295.3857,-1334.1143 L295.3857,-1334.1143 L22.2143,-1334.1143 L22.2143,-1334.1143 L22.2143,-1216.0143"></path>
	<path d="M74.5286,-1234.1835 L77.4286,-1234.1835 L77.4286,-1243.2681 L74.5286,-1243.2681 L74.5286,-1234.1835"></path>
	<path d="M74.5286,-1252.3527 L77.4286,-1252.3527 L77.4286,-1261.4374 L74.5286,-1261.4374 L74.5286,-1252.3527"></path>
	<path d="M74.5286,-1270.5220 L77.4286,-1270.5220 L77.4286,-1279.6066 L74.5286,-1279.6066 L74.5286,-1270.5220"></path>
	<path d="M74.5286,-1288.6912 L77.4286,-1288.6912 L77.4286,-1297.7758 L74.5286,-1297.7758 L74.5286,-1288.6912"></path>
	<path d="M74.5286,-1306.8604 L77.4286,-1306.8604 L77.4286,-1315.9451 L74.5286,-1315.9451 L74.5286,-1306.8604"></path>
	<path d="M22.2143,-1345.9143 L22.2143,-1340.0143 L29.6878,-1340.0143 L29.6878,-1345.9143 L29.6878,-1345.9143 L37.1612,-1345.9143 L37.1612,-1340.0143 L37.1612,-1340.0143 L44.6347,-1340.0143 L44.6347,-1345.9143 L44.6347,-1345.9143 L52.1082,-1345.9143 L52.1082,-1340.0143 L52.1082,-1340.0143 L59.5816,-1340.0143 L59.5816,-1345.9143 L59.5816,-1345.9143 L67.0551,-1345.9143 L67.0551,-1340.0143 L67.0551,-1340.0143 L74.5286,-1340.0143 L74.5286,-1345.9143 L77.4286,-1345.9143 L77.4286,-1340.0143 L84.9020,-1340.0143 L84.9020,-1345.9143 L84.9020,-1345.9143 L92.3755,-1345.9143 L92.3755,-1340.0143 L92.3755,-1340.0143 L99.8490,-1340.0143 L99.8490,-1345.9143 L99.8490,-1345.9143 L107.3224,-1345.9143 L107.3224,-1340.0143 L107.3224,-1340.0143 L114.7959,-1340.0143 L114.7959,-1345.9143 L114.7959,-1345.9143 L122.2694,-1345.9143 L122.2694,-1340.0143 L122.2694,-1340.0143 L129.7429,-1340.0143 L129.7429,-1345.9143 L132.6429,-1345.9143 L132.6429,-1340.0143 L140.1163,-1340.0143 L140.1163,-1345.9143 L140.1163,-1345.9143 L147.5898,-1345.9143 L147.5898,-1340.0143 L147.5898,-1340.0143 L155.0633,-1340.0143 L155.0633,-1345.9143 L155.0633,-1345.9143 L162.5367,-1345.9143 L162.5367,-1340.0143 L162.5367,-1340.0143 L170.0102,-1340.0143 L170.0102,-1345.9143 L170.0102,-1345.9143 L177.4837,-1345.9143 L177.4837,-1340.0143 L177.4837,-1340.0143 L184.9571,-1340.0143 L184.9571,-1345.9143 L187.8571,-1345.9143 L187.8571,-1340.0143 L195.3306,-1340.0143 L195.3306,-1345.9143 L195.3306,-1345.9143 L202.8041,-1345.9143 L202.8041,-1340.0143 L202.8041,-1340.0143 L210.2776,-1340.0143 L210.2776,-1345.9143 L210.2776,-1345.9143 L217.7510,-1345.9143 L217.7510,-1340.0143 L217.7510,-1340.0143 L225.2245,-1340.0143 L225.2245,-1345.9143 L225.2245,-1345.9143 L232.6980,-1345.9143 L232.6980,-1340.0143 L232.6980,-1340.0143 L240.1714,-1340.0143 L240.1714,-1345.9143 L243.0714,-1345.9143 L243.0714,-1340.0143 L250.5449,-1340.0143 L250.5449,-1345.9143 L250.5449,-1345.9143 L258.0184,-1345.9143 L258.0184,-1340.0143 L258.0184,-1340.0143 L265.4918,-1340.0143 L265.4918,-1345.9143 L265.4918,-1345.9143 L272.9653,-1345.9143 L272.9653,-1340.0143 L272.9653,-1340.0143 L280.4388,-1340.0143 L280.4388,-1345.9143 L280.4388,-1345.9143 L287.9122,-1345.9143 L287.9122,-1340.0143 L287.9122,-1340.0143 L295.3857,-1340.0143 L295.3857,-1345.9143 L295.3857,-1345.9143 L295.3857,-1464.0143 L295.3857,-1464.0143 L22.2143,-1464.0143 L22.2143,-1464.0143 L22.2143,-1345.9143"></path>
	<path d="M184.9571,-1354.9989 L187.8571,-1354.9989 L187.8571,-1364.0835 L184.9571,-1364.0835 L184.9571,-1354.9989"></path>
	<path d="M184.9571,-1373.1681 L187.8571,-1373.1681 L187.8571,-1382.2527 L184.9571,-1382.2527 L184.9571,-1373.1681"></path>
	<path d="M184.9571,-1391.3374 L187.8571,-1391.3374 L187.8571,-1400.4220 L184.9571,-1400.4220 L184.9571,-1391.3374"></path>
	<path d="M184.9571,-1409.5066 L187.8571,-1409.5066 L187.8571,-1418.5912 L184.9571,-1418.5912 L184.9571,-1409.5066"></path>
	<path d="M184.9571,-1427.6758 L187.8571,-1427.6758 L187.8571,-1436.7604 L184.9571,-1436.7604 L184.9571,-1427.6758"></path>
	<path d="M184.9571,-1445.8451 L187.8571,-1445.8451 L187.8571,-1454.9297 L184.9571,-1454.9297 L184.9571,-1445.8451"></path>
	<path d="M22.2143,-1475.8143 L22.2143,-1469.9143 L29.6878,-1469.9143 L29.6878,-1475.8143 L29.6878,-1475.8143 L37.1612,-1475.8143 L37.1612,-1469.9143 L37.1612,-1469.9143 L44.6347,-1469.9143 L44.6347,-1475.8143 L44.6347,-1475.8143 L52.1082,-1475.8143 L52.1082,-1469.9143 L52.1082,-1469.9143 L59.5816,-1469.9143 L59.5816,-1475.8143 L59.5816,-1475.8143 L67.0551,-1475.8143 L67.0551,-1469.9143 L67.0551,-1469.9143 L74.5286,-1469.9143 L74.5286,-1475.8143 L77.4286,-1475.8143 L77.4286,-1469.9143 L84.9020,-1469.9143 L84.9020,-1475.8143 L84.9020,-1475.8143 L92.3755,-1475.8143 L92.3755,-1469.9143 L92.3755,-1469.9143 L99.8490,-1469.9143 L99.8490,-1475.8143 L99.8490,-1475.8143 L107.3224,-1475.8143 L107.3224,-1469.9143 L107.3224,-1469.9143 L114.7959,-1469.9143 L114.7959,-1475.8143 L114.7959,-1475.8143 L122.2694,-1475.8143 L122.2694,-1469.9143 L122.2694,-1469.9143 L129.7429,-1469.9143 L129.7429,-1475.8143 L132.6429,-1475.8143 L132.6429,-1469.9143 L140.1163,-1469.9143 L140.1163,-1475.8143 L140.1163,-1475.8143 L147.5898,-1475.8143 L147.5898,-1469.9143 L147.5898,-1469.9143 L155.0633,-1469.9143 L155.0633,-1475.8143 L155.0633,-1475.8143 L162.5367,-1475.8143 L162.5367,-1469.9143 L162.5367,-1469.9143 L170.0102,-1469.9143 L170.0102,-1475.8143 L170.0102,-1475.8143 L177.4837,-1475.8143 L177.4837,-1469.9143 L177.4837,-1469.9143 L184.9571,-1469.9143 L184.9571,-1475.8143 L184.9571,-1475.8143 L184.9571,-1593.9143 L184.9571,-1593.9143 L22.2143,-1593.9143 L22.2143,-1593.9143 L22.2143,-1584.8297 L22.2143,-1575.7451 L19.3143,-1575.7451 L19.3143,-1575.7451 L19.3143,-1566.6604 L22.2143,-1566.6604 L22.2143,-1566.6604 L22.2143,-1557.5758 L19.3143,-1557.5758 L19.3143,-1557.5758 L19.3143,-1548.4912 L22.2143,-1548.4912 L22.2143,-1548.4912 L22.2143,-1539.4066 L19.3143,-1539.4066 L19.3143,-1539.4066 L19.3143,-1530.3220 L22.2143,-1530.3220 L22.2143,-1530.3220 L22.2143,-1521.2374 L19.3143,-1521.2374 L19.3143,-1521.2374 L19.3143,-1512.1527 L22.2143,-1512.1527 L22.2143,-1512.1527 L22.2143,-1503.0681 L19.3143,-1503.0681 L19.3143,-1503.0681 L19.3143,-1493.9835 L22.2143,-1493.9835 L22.2143,-1493.9835 L22.2143,-1484.8989 L22.2143,-1475.8143"></path>
	<path d="M129.7429,-1484.8989 L132.6429,-1484.8989 L132.6429,-1493.9835 L129.7429,-1493.9835 L129.7429,-1484.8989"></path>
	<path d="M129.7429,-1503.0681 L132.6429,-1503.0681 L132.6429,-1512.1527 L129.7429,-1512.1527 L129.7429,-1503.0681"></path>
	<path d="M129.7429,-1521.2374 L132.6429,-1521.2374 L132.6429,-1530.3220 L129.7429,-1530.3220 L129.7429,-1521.2374"></path>
	<path d="M129.7429,-1539.4066 L132.6429,-1539.4066 L132.6429,-1548.4912 L129.7429,-1548.4912 L129.7429,-1539.4066"></path>
	<path d="M129.7429,-1557.5758 L132.6429,-1557.5758 L132.6429,-1566.6604 L129.7429,-1566.6604 L129.7429,-1557.5758"></path>
	<path d="M129.7429,-1575.7451 L132.6429,-1575.7451 L132.6429,-1584.8297 L129.7429,-1584.8297 L129.7429,-1575.7451"></path>
	<path d="M22.2143,-1605.7143 L22.2143,-1599.8143 L29.6878,-1599.8143 L29.6878,-1605.7143 L29.6878,-1605.7143 L37.1612,-1605.7143 L37.1612,-1599.8143 L37.1612,-1599.8143 L44.6347,-1599.8143 L44.6347,-1605.7143 L44.6347,-1605.7143 L52.1082,-1605.7143 L52.1082,-1599.8143 L52.1082,-1599.8143 L59.5816,-1599.8143 L59.5816,-1605.7143 L59.5816,-1605.7143 L67.0551,-1605.7143 L67.0551,-1599.8143 L67.0551,-1599.8143 L74.5286,-1599.8143 L74.5286,-1605.7143 L77.4286,-1605.7143 L77.4286,-1599.8143 L84.9020,-1599.8143 L84.9020,-1605.7143 L84.9020,-1605.7143 L92.3755,-1605.7143 L92.3755,-1599.8143 L92.3755,-1599.8143 L99.8490,-1599.8143 L99.8490,-1605.7143 L99.8490,-1605.7143 L107.3224,-1605.7143 L107.3224,-1599.8143 L107.3224,-1599.8143 L114.7959,-1599.8143 L114.7959,-1605.7143 L114.7959,-1605.7143 L122.2694,-1605.7143 L122.2694,-1599.8143 L122.2694,-1599.8143 L129.7429,-1599.8143 L129.7429,-1605.7143 L129.7429,-1605.7143 L129.7429,-1614.7989 L129.7429,-1623.8835 L132.6429,-1623.8835 L132.6429,-1623.8835 L132.6429,-1632.9681 L129.7429,-1632.9681 L129.7429,-1632.9681 L129.7429,-1642.0527 L132.6429,-1642.0527 L132.6429,-1642.0527 L132.6429,-1651.1374 L129.7429,-1651.1374 L129.7429,-1651.1374 L129.7429,-1660.2220 L132.6429,-1660.2220 L132.6429,-1660.2220 L132.6429,-1669.3066 L129.7429,-1669.3066 L129.7429,-1669.3066 L129.7429,-1678.3912 L132.6429,-1678.3912 L132.6429,-1678.3912 L132.6429,-1687.4758 L129.7429,-1687.4758 L129.7429,-1687.4758 L129.7429,-1696.5604 L132.6429,-1696.5604 L132.6429,-1696.5604 L132.6429,-1705.6451 L129.7429,-1705.6451 L129.7429,-1705.6451 L129.7429,-1714.7297 L129.7429,-1723.8143 L129.7429,-1723.8143 L22.2143,-1723.8143 L22.2143,-1723.8143 L19.3143,-1723.8143 L19.3143,-1714.7297 L22.2143,-1714.7297 L22.2143,-1714.7297 L22.2143,-1705.6451 L19.3143,-1705.6451 L19.3143,-1705.6451 L19.3143,-1696.5604 L22.2143,-1696.5604 L22.2143,-1696.5604 L22.2143,-1687.4758 L19.3143,-1687.4758 L19.3143,-1687.4758 L19.3143,-1678.3912 L22.2143,-1678.3912 L22.2143,-1678.3912 L22.2143,-1669.3066 L19.3143,-1669.3066 L19.3143,-1669.3066 L19.3143,-1660.2220 L22.2143,-1660.2220 L22.2143,-1660.2220 L22.2143,-1651.1374 L19.3143,-1651.1374 L19.3143,-1651.1374 L19.3143,-1642.0527 L22.2143,-1642.0527 L22.2143,-1642.0527 L22.2143,-1632.9681 L19.3143,-1632.9681 L19.3143,-1632.9681 L19.3143,-1623.8835 L22.2143,-1623.8835 L22.2143,-1623.8835 L22.2143,-1614.7989 L19.3143,-1614.7989 L19.3143,-1614.7989 L19.3143,-1605.7143 L22.2143,-1605.7143"></path>
	<path d="M22.2143,-1735.6143 L22.2143,-1729.7143 L29.6878,-1729.7143 L29.6878,-1735.6143 L29.6878,-1735.6143 L37.1612,-1735.6143 L37.1612,-1729.7143 L37.1612,-1729.7143 L44.6347,-1729.7143 L44.6347,-1735.6143 L44.6347,-1735.6143 L52.1082,-1735.6143 L52.1082,-1729.7143 L52.1082,-1729.7143 L59.5816,-1729.7143 L59.5816,-1735.6143 L59.5816,-1735.6143 L67.0551,-1735.6143 L67.0551,-1729.7143 L67.0551,-1729.7143 L74.5286,-1729.7143 L74.5286,-1735.6143 L74.5286,-1735.6143 L77.4286,-1735.6143 L77.4286,-1744.6989 L74.5286,-1744.6989 L74.5286,-1744.6989 L74.5286,-1753.7835 L77.4286,-1753.7835 L77.4286,-1753.7835 L77.4286,-1762.8681 L74.5286,-1762.8681 L74.5286,-1762.8681 L74.5286,-1771.9527 L77.4286,-1771.9527 L77.4286,-1771.9527 L77.4286,-1781.0374 L74.5286,-1781.0374 L74.5286,-1781.0374 L74.5286,-1790.1220 L77.4286,-1790.1220 L77.4286,-1790.1220 L77.4286,-1799.2066 L74.5286,-1799.2066 L74.5286,-1799.2066 L74.5286,-1808.2912 L77.4286,-1808.2912 L77.4286,-1808.2912 L77.4286,-1817.3758 L74.5286,-1817.3758 L74.5286,-1817.3758 L74.5286,-1826.4604 L77.4286,-1826.4604 L77.4286,-1826.4604 L77.4286,-1835.5451 L74.5286,-1835.5451 L74.5286,-1835.5451 L74.5286,-1844.6297 L77.4286,-1844.6297 L77.4286,-1844.6297 L77.4286,-1853.7143 L74.5286,-1853.7143 L74.5286,-1853.7143 L22.2143,-1853.7143 L22.2143,-1853.7143 L22.2143,-1735.6143"></path>
	<path d="M22.2143,-1865.5143 L22.2143,-1859.6143 L29.6878,-1859.6143 L29.6878,-1865.5143 L29.6878,-1865.5143 L37.1612,-1865.5143 L37.1612,-1859.6143 L37.1612,-1859.6143 L44.6347,-1859.6143 L44.6347,-1865.5143 L44.6347,-1865.5143 L52.1082,-1865.5143 L52.1082,-1859.6143 L52.1082,-1859.6143 L59.5816,-1859.6143 L59.5816,-1865.5143 L59.5816,-1865.5143 L67.0551,-1865.5143 L67.0551,-1859.6143 L67.0551,-1859.6143 L74.5286,-1859.6143 L74.5286,-1865.5143 L77.4286,-1865.5143 L77.4286,-1859.6143 L84.9020,-1859.6143 L84.9020,-1865.5143 L84.9020,-1865.5143 L92.3755,-1865.5143 L92.3755,-1859.6143 L92.3755,-1859.6143 L99.8490,-1859.6143 L99.8490,-1865.5143 L99.8490,-1865.5143 L107.3224,-1865.5143 L107.3224,-1859.6143 L107.3224,-1859.6143 L114.7959,-1859.6143 L114.7959,-1865.5143 L114.7959,-1865.5143 L122.2694,-1865.5143 L122.2694,-1859.6143 L122.2694,-1859.6143 L129.7429,-1859.6143 L129.7429,-1865.5143 L132.6429,-1865.5143 L132.6429,-1859.6143 L140.1163,-1859.6143 L140.1163,-1865.5143 L140.1163,-1865.5143 L147.5898,-1865.5143 L147.5898,-1859.6143 L147.5898,-1859.6143 L155.0633,-1859.6143 L155.0633,-1865.5143 L155.0633,-1865.5143 L162.5367,-1865.5143 L162.5367,-1859.6143 L162.5367,-1859.6143 L170.0102,-1859.6143 L170.0102,-1865.5143 L170.0102,-1865.5143 L177.4837,-1865.5143 L177.4837,-1859.6143 L177.4837,-1859.6143 L184.9571,-1859.6143 L184.9571,-1865.5143 L187.8571,-1865.5143 L187.8571,-1859.6143 L195.3306,-1859.6143 L195.3306,-1865.5143 L195.3306,-1865.5143 L202.8041,-1865.5143 L202.8041,-1859.6143 L202.8041,-1859.6143 L210.2776,-1859.6143 L210.2776,-1865.5143 L210.2776,-1865.5143 L217.7510,-1865.5143 L217.7510,-1859.6143 L217.7510,-1859.6143 L225.2245,-1859.6143 L225.2245,-1865.5143 L225.2245,-1865.5143 L232.6980,-1865.5143 L232.6980,-1859.6143 L232.6980,-1859.6143 L240.1714,-1859.6143 L240.1714,-1865.5143 L240.1714,-1865.5143 L243.0714,-1865.5143 L243.0714,-1874.5989 L240.1714,-1874.5989 L240.1714,-1874.5989 L240.1714,-1883.6835 L243.0714,-1883.6835 L243.0714,-1883.6835 L243.0714,-1892.7681 L240.1714,-1892.7681 L240.1714,-1892.7681 L240.1714,-1901.8527 L243.0714,-1901.8527 L243.0714,-1901.8527 L243.0714,-1910.9374 L240.1714,-1910.9374 L240.1714,-1910.9374 L240.1714,-1920.0220 L243.0714,-1920.0220 L243.0714,-1920.0220 L243.0714,-1929.1066 L240.1714,-1929.1066 L240.1714,-1929.1066 L240.1714,-1938.1912 L243.0714,-1938.1912 L243.0714,-1938.1912 L243.0714,-1947.2758 L240.1714,-1947.2758 L240.1714,-1947.2758 L240.1714,-1956.3604 L243.0714,-1956.3604 L243.0714,-1956.3604 L243.0714,-1965.4451 L240.1714,-1965.4451 L240.1714,-1965.4451 L240.1714,-1974.5297 L243.0714,-1974.5297 L243.0714,-1974.5297 L243.0714,-1983.6143 L240.1714,-1983.6143 L240.1714,-1983.6143 L22.2143,-1983.6143 L22.2143,-1983.6143 L22.2143,-1974.5297 L22.2143,-1965.4451 L19.3143,-1965.4451 L19.3143,-1965.4451 L19.3143,-1956.3604 L22.2143,-1956.3604 L22.2143,-1956.3604 L22.2143,-1947.2758 L19.3143,-1947.2758 L19.3143,-1947.2758 L19.3143,-1938.1912 L22.2143,-1938.1912 L22.2143,-1938.1912 L22.2143,-1929.1066 L19.3143,-1929.1066 L19.3143,-1929.1066 L19.3143,-1920.0220 L22.2143,-1920.0220 L22.2143,-1920.0220 L22.2143,-1910.9374 L19.3143,-1910.9374 L19.3143,-1910.9374 L19.3143,-1901.8527 L22.2143,-1901.8527 L22.2143,-1901.8527 L22.2143,-1892.7681 L19.3143,-1892.7681 L19.3143,-1892.7681 L19.3143,-1883.6835 L22.2143,-1883.6835 L22.2143,-1883.6835 L22.2143,-1874.5989 L22.2143,-1865.5143"></path>
	<path d="M184.9571,-1874.5989 L187.8571,-1874.5989 L187.8571,-1883.6835 L184.9571,-1883.6835 L184.9571,-1874.5989"></path>
	<path d="M184.9571,-1892.7681 L187.8571,-1892.7681 L187.8571,-1901.8527 L184.9571,-1901.8527 L184.9571,-1892.7681"></path>
	<path d="M184.9571,-1910.9374 L187.8571,-1910.9374 L187.8571,-1920.0220 L184.9571,-1920.0220 L184.9571,-1910.9374"></path>
	<path d="M184.9571,-1929.1066 L187.8571,-1929.1066 L187.8571,-1938.1912 L184.9571,-1938.1912 L184.9571,-1929.1066"></path>
	<path d="M184.9571,-1947.2758 L187.8571,-1947.2758 L187.8571,-1956.3604 L184.9571,-1956.3604 L184.9571,-1947.2758"></path>
	<path d="M184.9571,-1965.4451 L187.8571,-1965.4451 L187.8571,-1974.5297 L184.9571,-1974.5297 L184.9571,-1965.4451"></path>
	<path d="M22.2143,-1995.4143 L22.2143,-1989.5143 L29.6878,-1989.5143 L29.6878,-1995.4143 L29.6878,-1995.4143 L37.1612,-1995.4143 L37.1612,-1989.5143 L37.1612,-1989.5143 L44.6347,-1989.5143 L44.6347,-1995.4143 L44.6347,-1995.4143 L52.1082,-1995.4143 L52.1082,-1989.5143 L52.1082,-1989.5143 L59.5816,-1989.5143 L59.5816,-1995.4143 L59.5816,-1995.4143 L67.0551,-1995.4143 L67.0551,-1989.5143 L67.0551,-1989.5143 L74.5286,-1989.5143 L74.5286,-1995.4143 L77.4286,-1995.4143 L77.4286,-1989.5143 L84.9020,-1989.5143 L84.9020,-1995.4143 L84.9020,-1995.4143 L92.3755,-1995.4143 L92.3755,-1989.5143 L92.3755,-1989.5143 L99.8490,-1989.5143 L99.8490,-1995.4143 L99.8490,-1995.4143 L107.3224,-1995.4143 L107.3224,-1989.5143 L107.3224,-1989.5143 L114.7959,-1989.5143 L114.7959,-1995.4143 L114.7959,-1995.4143 L122.2694,-1995.4143 L122.2694,-1989.5143 L122.2694,-1989.5143 L129.7429,-1989.5143 L129.7429,-1995.4143 L129.7429,-1995.4143 L129.7429,-2113.5143 L129.7429,-2113.5143 L22.2143,-2113.5143 L22.2143,-2113.5143 L19.3143,-2113.5143 L19.3143,-2104.4297 L22.2143,-2104.4297 L22.2143,-2104.4297 L22.2143,-2095.3451 L19.3143,-2095.3451 L19.3143,-2095.3451 L19.3143,-2086.2604 L22.2143,-2086.2604 L22.2143,-2086.2604 L22.2143,-2077.1758 L19.3143,-2077.1758 L19.3143,-2077.1758 L19.3143,-2068.0912 L22.2143,-2068.0912 L22.2143,-2068.0912 L22.2143,-2059.0066 L19.3143,-2059.0066 L19.3143,-2059.0066 L19.3143,-2049.9220 L22.2143,-2049.9220 L22.2143,-2049.9220 L22.2143,-2040.8374 L19.3143,-2040.8374 L19.3143,-2040.8374 L19.3143,-2031.7527 L22.2143,-2031.7527 L22.2143,-2031.7527 L22.2143,-2022.6681 L19.3143,-2022.6681 L19.3143,-2022.6681 L19.3143,-2013.5835 L22.2143,-2013.5835 L22.2143,-2013.5835 L22.2143,-2004.4989 L19.3143,-2004.4989 L19.3143,-2004.4989 L19.3143,-1995.4143 L22.2143,-1995.4143"></path>
	<path d="M22.2143,-2125.3143 L22.2143,-2119.4143 L29.6878,-2119.4143 L29.6878,-2125.3143 L29.6878,-2125.3143 L37.1612,-2125.3143 L37.1612,-2119.4143 L37.1612,-2119.4143 L44.6347,-2119.4143 L44.6347,-2125.3143 L44.6347,-2125.3143 L52.1082,-2125.3143 L52.1082,-2119.4143 L52.1082,-2119.4143 L59.5816,-2119.4143 L59.5816,-2125.3143 L59.5816,-2125.3143 L67.0551,-2125.3143 L67.0551,-2119.4143 L67.0551,-2119.4143 L74.5286,-2119.4143 L74.5286,-2125.3143 L77.4286,-2125.3143 L77.4286,-2119.4143 L84.9020,-2119.4143 L84.9020,-2125.3143 L84.9020,-2125.3143 L92.3755,-2125.3143 L92.3755,-2119.4143 L92.3755,-2119.4143 L99.8490,-2119.4143 L99.8490,-2125.3143 L99.8490,-2125.3143 L107.3224,-2125.3143 L107.3224,-2119.4143 L107.3224,-2119.4143 L114.7959,-2119.4143 L114.7959,-2125.3143 L114.7959,-2125.3143 L122.2694,-2125.3143 L122.2694,-2119.4143 L122.2694,-2119.4143 L129.7429,-2119.4143 L129.7429,-2125.3143 L132.6429,-2125.3143 L132.6429,-2119.4143 L140.1163,-2119.4143 L140.1163,-2125.3143 L140.1163,-2125.3143 L147.5898,-2125.3143 L147.5898,-2119.4143 L147.5898,-2119.4143 L155.0633,-2119.4143 L155.0633,-2125.3143 L155.0633,-2125.3143 L162.5367,-2125.3143 L162.5367,-2119.4143 L162.5367,-2119.4143 L170.0102,-2119.4143 L170.0102,-2125.3143 L170.0102,-2125.3143 L177.4837,-2125.3143 L177.4837,-2119.4143 L177.4837,-2119.4143 L184.9571,-2119.4143 L184.9571,-2125.3143 L187.8571,-2125.3143 L187.8571,-2119.4143 L195.3306,-2119.4143 L195.3306,-2125.3143 L195.3306,-2125.3143 L202.8041,-2125.3143 L202.8041,-2119.4143 L202.8041,-2119.4143 L210.2776,-2119.4143 L210.2776,-2125.3143 L210.2776,-2125.3143 L217.7510,-2125.3143 L217.7510,-2119.4143 L217.7510,-2119.4143 L225.2245,-2119.4143 L225.2245,-2125.3143 L225.2245,-2125.3143 L232.6980,-2125.3143 L232.6980,-2119.4143 L232.6980,-2119.4143 L240.1714,-2119.4143 L240.1714,-2125.3143 L240.1714,-2125.3143 L243.0714,-2125.3143 L243.0714,-2134.3989 L240.1714,-2134.3989 L240.1714,-2134.3989 L240.1714,-2143.4835 L243.0714,-2143.4835 L243.0714,-2143.4835 L243.0714,-2152.5681 L240.1714,-2152.5681 L240.1714,-2152.5681 L240.1714,-2161.6527 L243.0714,-2161.6527 L243.0714,-2161.6527 L243.0714,-2170.7374 L240.1714,-2170.7374 L240.1714,-2170.7374 L240.1714,-2179.8220 L243.0714,-2179.8220 L243.0714,-2179.8220 L243.0714,-2188.9066 L240.1714,-2188.9066 L240.1714,-2188.9066 L240.1714,-2197.9912 L243.0714,-2197.9912 L243.0714,-2197.9912 L243.0714,-2207.0758 L240.1714,-2207.0758 L240.1714,-2207.0758 L240.1714,-2216.1604 L243.0714,-2216.1604 L243.0714,-2216.1604 L243.0714,-2225.2451 L240.1714,-2225.2451 L240.1714,-2225.2451 L240.1714,-2234.3297 L243.0714,-2234.3297 L243.0714,-2234.3297 L243.0714,-2243.4143 L240.1714,-2243.4143 L240.1714,-2243.4143 L22.2143,-2243.4143 L22.2143,-2243.4143 L19.3143,-2243.4143 L19.3143,-2234.3297 L22.2143,-2234.3297 L22.2143,-2234.3297 L22.2143,-2225.2451 L19.3143,-2225.2451 L19.3143,-2225.2451 L19.3143,-2216.1604 L22.2143,-2216.1604 L22.2143,-2216.1604 L22.2143,-2207.0758 L19.3143,-2207.0758 L19.3143,-2207.0758 L19.3143,-2197.9912 L22.2143,-2197.9912 L22.2143,-2197.9912 L22.2143,-2188.9066 L19.3143,-2188.9066 L19.3143,-2188.9066 L19.3143,-2179.8220 L22.2143,-2179.8220 L22.2143,-2179.8220 L22.2143,-2170.7374 L19.3143,-2170.7374 L19.3143,-2170.7374 L19.3143,-2161.6527 L22.2143,-2161.6527 L22.2143,-2161.6527 L22.2143,-2152.5681 L19.3143,-2152.5681 L19.3143,-2152.5681 L19.3143,-2143.4835 L22.2143,-2143.4835 L22.2143,-2143.4835 L22.2143,-2134.3989 L19.3143,-2134.3989 L19.3143,-2134.3989 L19.3143,-2125.3143 L22.2143,-2125.3143"></path>
	<path d="M22.2143,-2255.2143 L22.2143,-2249.3143 L29.6878,-2249.3143 L29.6878,-2255.2143 L29.6878,-2255.2143 L37.1612,-2255.2143 L37.1612,-2249.3143 L37.1612,-2249.3143 L44.6347,-2249.3143 L44.6347,-2255.2143 L44.6347,-2255.2143 L52.1082,-2255.2143 L52.1082,-2249.3143 L52.1082,-2249.3143 L59.5816,-2249.3143 L59.5816,-2255.2143 L59.5816,-2255.2143 L67.0551,-2255.2143 L67.0551,-2249.3143 L67.0551,-2249.3143 L74.5286,-2249.3143 L74.5286,-2255.2143 L74.5286,-2255.2143 L77.4286,-2255.2143 L77.4286,-2264.2989 L74.5286,-2264.2989 L74.5286,-2264.2989 L74.5286,-2273.3835 L77.4286,-2273.3835 L77.4286,-2273.3835 L77.4286,-2282.4681 L74.5286,-2282.4681 L74.5286,-2282.4681 L74.5286,-2291.5527 L77.4286,-2291.5527 L77.4286,-2291.5527 L77.4286,-2300.6374 L74.5286,-2300.6374 L74.5286,-2300.6374 L74.5286,-2309.7220 L77.4286,-2309.7220 L77.4286,-2309.7220 L77.4286,-2318.8066 L74.5286,-2318.8066 L74.5286,-2318.8066 L74.5286,-2327.8912 L77.4286,-2327.8912 L77.4286,-2327.8912 L77.4286,-2336.9758 L74.5286,-2336.9758 L74.5286,-2336.9758 L74.5286,-2346.0604 L77.4286,-2346.0604 L77.4286,-2346.0604 L77.4286,-2355.1451 L74.5286,-2355.1451 L74.5286,-2355.1451 L74.5286,-2364.2297 L77.4286,-2364.2297 L77.4286,-2364.2297 L77.4286,-2373.3143 L74.5286,-2373.3143 L74.5286,-2373.3143 L22.2143,-2373.3143 L22.2143,-2373.3143 L19.3143,-2373.3143 L19.3143,-2364.2297 L22.2143,-2364.2297 L22.2143,-2364.2297 L22.2143,-2355.1451 L19.3143,-2355.1451 L19.3143,-2355.1451 L19.3143,-2346.0604 L22.2143,-2346.0604 L22.2143,-2346.0604 L22.2143,-2336.9758 L19.3143,-2336.9758 L19.3143,-2336.9758 L19.3143,-2327.8912 L22.2143,-2327.8912 L22.2143,-2327.8912 L22.2143,-2318.8066 L19.3143,-2318.8066 L19.3143,-2318.8066 L19.3143,-2309.7220 L22.2143,-2309.7220 L22.2143,-2309.7220 L22.2143,-2300.6374 L19.3143,-2300.6374 L19.3143,-2300.6374 L19.3143,-2291.5527 L22.2143,-2291.5527 L22.2143,-2291.5527 L22.2143,-2282.4681 L19.3143,-2282.4681 L19.3143,-2282.4681 L19.3143,-2273.3835 L22.2143,-2273.3835 L22.2143,-2273.3835 L22.2143,-2264.2989 L19.3143,-2264.2989 L19.3143,-2264.2989 L19.3143,-2255.2143 L22.2143,-2255.2143"></path>
</g>
</svg>