<?xml version="1.0" encoding="utf-8"?>
<svg xmlns="http://www.w3.org/2000/svg" width="279.0000mm" height="2588.1000mm" viewBox="19.3000 -2629.0000 279.0000 2588.1000">
<g>
	<path d="M22.3000,-46.8000 L22.3000,-40.9000 L29.7571,-40.9000 L29.7571,-46.8000 L29.7571,-46.8000 L37.2143,-46.8000 L37.2143,-40.9000 L37.2143,-40.9000 L44.6714,-40.9000 L44.6714,-46.8000 L44.6714,-46.8000 L52.1286,-46.8000 L52.1286,-40.9000 L52.1286,-40.9000 L59.5857,-40.9000 L59.5857,-46.8000 L59.5857,-46.8000 L67.0429,-46.8000 L67.0429,-40.9000 L67.0429,-40.9000 L74.5000,-40.9000 L74.5000,-46.8000 L77.5000,-46.8000 L77.5000,-40.9000 L84.9571,-40.9000 L84.9571,-46.8000 L84.9571,-46.8000 L92.4143,-46.8000 L92.4143,-40.9000 L92.4143,-40.9000 L99.8714,-40.9000 L99.8714,-46.8000 L99.8714,-46.8000 L107.3286,-46.8000 L107.3286,-40.9000 L107.3286,-40.9000 L114.7857,-40.9000 L114.7857,-46.8000 L114.7857,-46.8000 L122.2429,-46.8000 L122.2429,-40.9000 L122.2429,-40.9000 L129.7000,-40.9000 L129.7000,-46.8000 L132.7000,-46.8000 L132.7000,-40.9000 L140.1571,-40.9000 L140.1571,-46.8000 L140.1571,-46.8000 L147.6143,-46.8000 L147.6143,-40.9000 L147.6143,-40.9000 L155.0714,-40.9000 L155.0714,-46.8000 L155.0714,-46.8000 L162.5286,-46.8000 L162.5286,-40.9000 L162.5286,-40.9000 L169.9857,-40.9000 L169.9857,-46.8000 L169.9857,-46.8000 L177.4429,-46.8000 L177.4429,-40.9000 L177.4429,-40.9000 L184.9000,-40.9000 L184.9000,-46.8000 L187.9000,-46.8000 L187.9000,-40.9000 L195.3571,-40.9000 L195.3571,-46.8000 L195.3571,-46.8000 L202.8143,-46.8000 L202.8143,-40.9000 L202.8143,-40.9000 L210.2714,-40.9000 L210.2714,-46.8000 L210.2714,-46.8000 L217.7286,-46.8000 L217.7286,-40.9000 L217.7286,-40.9000 L225.1857,-40.9000 L225.1857,-46.8000 L225.1857,-46.8000 L232.6429,-46.8000 L232.6429,-40.9000 L232.6429,-40.9000 L240.1000,-40.9000 L240.1000,-46.8000 L243.1000,-46.8000 L243.1000,-40.9000 L250.5571,-40.9000 L250.5571,-46.8000 L250.5571,-46.8000 L258.0143,-46.8000 L258.0143,-40.9000 L258.0143,-40.9000 L265.4714,-40.9000 L265.4714,-46.8000 L265.4714,-46.8000 L272.9286,-46.8000 L272.9286,-40.9000 L272.9286,-40.9000 L280.3857,-40.9000 L280.3857,-46.8000 L280.3857,-46.8000 L287.8429,-46.8000 L287.8429,-40.9000 L287.8429,-40.9000 L295.3000,-40.9000 L295.3000,-46.8000 L295.3000,-46.8000 L295.3000,-55.8692 L298.3000,-55.8692 L298.3000,-55.8692 L298.3000,-64.9385 L295.3000,-64.9385 L295.3000,-64.9385 L295.3000,-74.0077 L298.3000,-74.0077 L298.3000,-74.0077 L298.3000,-83.0769 L295.3000,-83.0769 L295.3000,-83.0769 L295.3000,-92.1462 L298.3000,-92.1462 L298.3000,-92.1462 L298.3000,-101.2154 L295.3000,-101.2154 L295.3000,-101.2154 L295.3000,-110.2846 L298.3000,-110.2846 L298.3000,-110.2846 L298.3000,-119.3538 L295.3000,-119.3538 L295.3000,-119.3538 L295.3000,-128.4231 L298.3000,-128.4231 L298.3000,-128.4231 L298.3000,-137.4923 L295.3000,-137.4923 L295.3000,-137.4923 L295.3000,-146.5615 L298.3000,-146.5615 L298.3000,-146.5615 L298.3000,-155.6308 L295.3000,-155.6308 L295.3000,-155.6308 L295.3000,-164.7000 L295.3000,-164.7000 L22.3000,-164.7000 L22.3000,-164.7000 L22.3000,-155.6308 L19.3000,-155.6308 L19.3000,-155.6308 L19.3000,-146.5615 L22.3000,-146.5615 L22.3000,-146.5615 L22.3000,-137.4923 L19.3000,-137.4923 L19.3000,-137.4923 L19.3000,-128.4231 L22.3000,-128.4231 L22.3000,-128.4231 L22.3000,-119.3538 L19.3000,-119.3538 L19.3000,-119.3538 L19.3000,-110.2846 L22.3000,-110.2846 L22.3000,-110.2846 L22.3000,-101.2154 L19.3000,-101.2154 L19.3000,-101.2154 L19.3000,-92.1462 L22.3000,-92.1462 L22.3000,-92.1462 L22.3000,-83.0769 L19.3000,-83.0769 L19.3000,-83.0769 L19.3000,-74.0077 L22.3000,-74.0077 L22.3000,-74.0077 L22.3000,-64.9385 L19.3000,-64.9385 L19.3000,-64.9385 L19.3000,-55.8692 L22.3000,-55.8692 L22.3000,-55.8692 L22.3000,-46.8000"></path>
	<path d="M129.7000,-64.9385 L132.7000,-64.9385 L132.7000,-74.0077 L129.7000,-74.0077 L129.7000,-64.9385"></path>
	<path d="M129.7000,-83.0769 L132.7000,-83.0769 L132.7000,-92.1462 L129.7000,-92.1462 L129.7000,-83.0769"></path>
	<path d="M129.7000,-101.2154 L132.7000,-101.2154 L132.7000,-110.2846 L129.7000,-110.2846 L129.7000,-101.2154"></path>
	<path d="M129.7000,-119.3538 L132.7000,-119.3538 L132.7000,-128.4231 L129.7000,-128.4231 L129.7000,-119.3538"></path>
	<path d="M129.7000,-137.4923 L132.7000,-137.4923 L132.7000,-146.5615 L129.7000,-146.5615 L129.7000,-137.4923"></path>
	<path d="M22.3000,-176.5000 L22.3000,-170.6000 L29.7571,-170.6000 L29.7571,-176.5000 L29.7571,-176.5000 L37.2143,-176.5000 L37.2143,-170.6000 L37.2143,-170.6000 L44.6714,-170.6000 L44.6714,-176.5000 L44.6714,-176.5000 L52.1286,-176.5000 L52.1286,-170.6000 L52.1286,-170.6000 L59.5857,-170.6000 L59.5857,-176.5000 L59.5857,-176.5000 L67.0429,-176.5000 L67.0429,-170.6000 L67.0429,-170.6000 L74.5000,-170.6000 L74.5000,-176.5000 L77.5000,-176.5000 L77.5000,-170.6000 L84.9571,-170.6000 L84.9571,-176.5000 L84.9571,-176.5000 L92.4143,-176.5000 L92.4143,-170.6000 L92.4143,-170.6000 L99.8714,-170.6000 L99.8714,-176.5000 L99.8714,-176.5000 L107.3286,-176.5000 L107.3286,-170.6000 L107.3286,-170.6000 L114.7857,-170.6000 L114.7857,-176.5000 L114.7857,-176.5000 L122.2429,-176.5000 L122.2429,-170.6000 L122.2429,-170.6000 L129.7000,-170.6000 L129.7000,-176.5000 L129.7000,-176.5000 L129.7000,-185.5692 L132.7000,-185.5692 L132.7000,-185.5692 L132.7000,-194.6385 L129.7000,-194.6385 L129.7000,-194.6385 L129.7000,-203.7077 L132.7000,-203.7077 L132.7000,-203.7077 L132.7000,-212.7769 L129.7000,-212.7769 L129.7000,-212.7769 L129.7000,-221.8462 L132.7000,-221.8462 L132.7000,-221.8462 L132.7000,-230.9154 L129.7000,-230.9154 L129.7000,-230.9154 L129.7000,-239.9846 L132.7000,-239.9846 L132.7000,-239.9846 L132.7000,-249.0538 L129.7000,-249.0538 L129.7000,-249.0538 L129.7000,-258.1231 L132.7000,-258.1231 L132.7000,-258.1231 L132.7000,-267.1923 L129.7000,-267.1923 L129.7000,-267.1923 L129.7000,-276.2615 L132.7000,-276.2615 L132.7000,-276.2615 L132.7000,-285.3308 L129.7000,-285.3308 L129.7000,-285.3308 L129.7000,-294.4000 L129.7000,-294.4000 L22.3000,-294.4000 L22.3000,-294.4000 L22.3000,-285.3308 L19.3000,-285.3308 L19.3000,-285.3308 L19.3000,-276.2615 L22.3000,-276.2615 L22.3000,-276.2615 L22.3000,-267.1923 L19.3000,-267.1923 L19.3000,-267.1923 L19.3000,-258.1231 L22.3000,-258.1231 L22.3000,-258.1231 L22.3000,-249.0538 L19.3000,-249.0538 L19.3000,-249.0538 L19.3000,-239.9846 L22.3000,-239.9846 L22.3000,-239.9846 L22.3000,-230.9154 L19.3000,-230.9154 L19.3000,-230.9154 L19.3000,-221.8462 L22.3000,-221.8462 L22.3000,-221.8462 L22.3000,-212.7769 L19.3000,-212.7769 L19.3000,-212.7769 L19.3000,-203.7077 L22.3000,-203.7077 L22.3000,-203.7077 L22.3000,-194.6385 L19.3000,-194.6385 L19.3000,-194.6385 L19.3000,-185.5692 L22.3000,-185.5692 L22.3000,-185.5692 L22.3000,-176.5000"></path>
	<path d="M22.3000,-306.2000 L22.3000,-300.3000 L29.7571,-300.3000 L29.7571,-306.2000 L29.7571,-306.2000 L37.2143,-306.2000 L37.2143,-300.3000 L37.2143,-300.3000 L44.6714,-300.3000 L44.6714,-306.2000 L44.6714,-306.2000 L52.1286,-306.2000 L52.1286,-300.3000 L52.1286,-300.3000 L59.5857,-300.3000 L59.5857,-306.2000 L59.5857,-306.2000 L67.0429,-306.2000 L67.0429,-300.3000 L67.0429,-300.3000 L74.5000,-300.3000 L74.5000,-306.2000 L77.5000,-306.2000 L77.5000,-300.3000 L84.9571,-300.3000 L84.9571,-306.2000 L84.9571,-306.2000 L92.4143,-306.2000 L92.4143,-300.3000 L92.4143,-300.3000 L99.8714,-300.3000 L99.8714,-306.2000 L99.8714,-306.2000 L107.3286,-306.2000 L107.3286,-300.3000 L107.3286,-300.3000 L114.7857,-300.3000 L114.7857,-306.2000 L114.7857,-306.2000 L122.2429,-306.2000 L122.2429,-300.3000 L122.2429,-300.3000 L129.7000,-300.3000 L129.7000,-306.2000 L129.7000,-306.2000 L129.7000,-424.1000 L129.7000,-424.1000 L22.3000,-424.1000 L22.3000,-424.1000 L22.3000,-415.0308 L19.3000,-415.0308 L19.3000,-415.0308 L19.3000,-405.9615 L22.3000,-405.9615 L22.3000,-405.9615 L22.3000,-396.8923 L19.3000,-396.8923 L19.3000,-396.8923 L19.3000,-387.8231 L22.3000,-387.8231 L22.3000,-387.8231 L22.3000,-378.7538 L19.3000,-378.7538 L19.3000,-378.7538 L19.3000,-369.6846 L22.3000,-369.6846 L22.3000,-369.6846 L22.3000,-360.6154 L19.3000,-360.6154 L19.3000,-360.6154 L19.3000,-351.5462 L22.3000,-351.5462 L22.3000,-351.5462 L22.3000,-342.4769 L19.3000,-342.4769 L19.3000,-342.4769 L19.3000,-333.4077 L22.3000,-333.4077 L22.3000,-333.4077 L22.3000,-324.3385 L19.3000,-324.3385 L19.3000,-324.3385 L19.3000,-315.2692 L22.3000,-315.2692 L22.3000,-315.2692 L22.3000,-306.2000"></path>
	<path d="M22.3000,-435.9000 L22.3000,-430.0000 L29.7571,-430.0000 L29.7571,-435.9000 L29.7571,-435.9000 L37.2143,-435.9000 L37.2143,-430.0000 L37.2143,-430.0000 L44.6714,-430.0000 L44.6714,-435.9000 L44.6714,-435.9000 L52.1286,-435.9000 L52.1286,-430.0000 L52.1286,-430.0000 L59.5857,-430.0000 L59.5857,-435.9000 L59.5857,-435.9000 L67.0429,-435.9000 L67.0429,-430.0000 L67.0429,-430.0000 L74.5000,-430.0000 L74.5000,-435.9000 L77.5000,-435.9000 L77.5000,-430.0000 L84.9571,-430.0000 L84.9571,-435.9000 L84.9571,-435.9000 L92.4143,-435.9000 L92.4143,-430.0000 L92.4143,-430.0000 L99.8714,-430.0000 L99.8714,-435.9000 L99.8714,-435.9000 L107.3286,-435.9000 L107.3286,-430.0000 L107.3286,-430.0000 L114.7857,-430.0000 L114.7857,-435.9000 L114.7857,-435.9000 L122.2429,-435.9000 L122.2429,-430.0000 L122.2429,-430.0000 L129.7000,-430.0000 L129.7000,-435.9000 L129.7000,-435.9000 L129.7000,-553.8000 L129.7000,-553.8000 L22.3000,-553.8000 L22.3000,-553.8000 L22.3000,-544.7308 L19.3000,-544.7308 L19.3000,-544.7308 L19.3000,-535.6615 L22.3000,-535.6615 L22.3000,-535.6615 L22.3000,-526.5923 L19.3000,-526.5923 L19.3000,-526.5923 L19.3000,-517.5231 L22.3000,-517.5231 L22.3000,-517.5231 L22.3000,-508.4538 L19.3000,-508.4538 L19.3000,-508.4538 L19.3000,-499.3846 L22.3000,-499.3846 L22.3000,-499.3846 L22.3000,-490.3154 L19.3000,-490.3154 L19.3000,-490.3154 L19.3000,-481.2462 L22.3000,-481.2462 L22.3000,-481.2462 L22.3000,-472.1769 L19.3000,-472.1769 L19.3000,-472.1769 L19.3000,-463.1077 L22.3000,-463.1077 L22.3000,-463.1077 L22.3000,-454.0385 L19.3000,-454.0385 L19.3000,-454.0385 L19.3000,-444.9692 L22.3000,-444.9692 L22.3000,-444.9692 L22.3000,-435.9000"></path>
	<path d="M74.5000,-454.0385 L77.5000,-454.0385 L77.5000,-463.1077 L74.5000,-463.1077 L74.5000,-454.0385"></path>
	<path d="M74.5000,-472.1769 L77.5000,-472.1769 L77.5000,-481.2462 L74.5000,-481.2462 L74.5000,-472.1769"></path>
	<path d="M74.5000,-490.3154 L77.5000,-490.3154 L77.5000,-499.3846 L74.5000,-499.3846 L74.5000,-490.3154"></path>
	<path d="M74.5000,-508.4538 L77.5000,-508.4538 L77.5000,-517.5231 L74.5000,-517.5231 L74.5000,-508.4538"></path>
	<path d="M74.5000,-526.5923 L77.5000,-526.5923 L77.5000,-535.6615 L74.5000,-535.6615 L74.5000,-526.5923"></path>
	<path d="M22.3000,-565.6000 L22.3000,-559.7000 L29.7571,-559.7000 L29.7571,-565.6000 L29.7571,-565.6000 L37.2143,-565.6000 L37.2143,-559.7000 L37.2143,-559.7000 L44.6714,-559.7000 L44.6714,-565.6000 L44.6714,-565.6000 L52.1286,-565.6000 L52.1286,-559.7000 L52.1286,-559.7000 L59.5857,-559.7000 L59.5857,-565.6000 L59.5857,-565.6000 L67.0429,-565.6000 L67.0429,-559.7000 L67.0429,-559.7000 L74.5000,-559.7000 L74.5000,-565.6000 L77.5000,-565.6000 L77.5000,-559.7000 L84.9571,-559.7000 L84.9571,-565.6000 L84.9571,-565.6000 L92.4143,-565.6000 L92.4143,-559.7000 L92.4143,-559.7000 L99.8714,-559.7000 L99.8714,-565.6000 L99.8714,-565.6000 L107.3286,-565.6000 L107.3286,-559.7000 L107.3286,-559.7000 L114.7857,-559.7000 L114.7857,-565.6000 L114.7857,-565.6000 L122.2429,-565.6000 L122.2429,-559.7000 L122.2429,-559.7000 L129.7000,-559.7000 L129.7000,-565.6000 L129.7000,-565.6000 L129.7000,-574.6692 L132.7000,-574.6692 L132.7000,-574.6692 L132.7000,-583.7385 L129.7000,-583.7385 L129.7000,-583.7385 L129.7000,-592.8077 L132.7000,-592.8077 L132.7000,-592.8077 L132.7000,-601.8769 L129.7000,-601.8769 L129.7000,-601.8769 L129.7000,-610.9462 L132.7000,-610.9462 L132.7000,-610.9462 L132.7000,-620.0154 L129.7000,-620.0154 L129.7000,-620.0154 L129.7000,-629.0846 L132.7000,-629.0846 L132.7000,-629.0846 L132.7000,-638.1538 L129.7000,-638.1538 L129.7000,-638.1538 L129.7000,-647.2231 L132.7000,-647.2231 L132.7000,-647.2231 L132.7000,-656.2923 L129.7000,-656.2923 L129.7000,-656.2923 L129.7000,-665.3615 L132.7000,-665.3615 L132.7000,-665.3615 L132.7000,-674.4308 L129.7000,-674.4308 L129.7000,-674.4308 L129.7000,-683.5000 L129.7000,-683.5000 L22.3000,-683.5000 L22.3000,-683.5000 L22.3000,-674.4308 L19.3000,-674.4308 L19.3000,-674.4308 L19.3000,-665.3615 L22.3000,-665.3615 L22.3000,-665.3615 L22.3000,-656.2923 L19.3000,-656.2923 L19.3000,-656.2923 L19.3000,-647.2231 L22.3000,-647.2231 L22.3000,-647.2231 L22.3000,-638.1538 L19.3000,-638.1538 L19.3000,-638.1538 L19.3000,-629.0846 L22.3000,-629.0846 L22.3000,-629.0846 L22.3000,-620.0154 L19.3000,-620.0154 L19.3000,-620.0154 L19.3000,-610.9462 L22.3000,-610.9462 L22.3000,-610.9462 L22.3000,-601.8769 L19.3000,-601.8769 L19.3000,-601.8769 L19.3000,-592.8077 L22.3000,-592.8077 L22.3000,-592.8077 L22.3000,-583.7385 L19.3000,-583.7385 L19.3000,-583.7385 L19.3000,-574.6692 L22.3000,-574.6692 L22.3000,-574.6692 L22.3000,-565.6000"></path>
	<path d="M22.3000,-695.3000 L22.3000,-689.4000 L29.7571,-689.4000 L29.7571,-695.3000 L29.7571,-695.3000 L37.2143,-695.3000 L37.2143,-689.4000 L37.2143,-689.4000 L44.6714,-689.4000 L44.6714,-695.3000 L44.6714,-695.3000 L52.1286,-695.3000 L52.1286,-689.4000 L52.1286,-689.4000 L59.5857,-689.4000 L59.5857,-695.3000 L59.5857,-695.3000 L67.0429,-695.3000 L67.0429,-689.4000 L67.0429,-689.4000 L74.5000,-689.4000 L74.5000,-695.3000 L74.5000,-695.3000 L74.5000,-813.2000 L74.5000,-813.2000 L22.3000,-813.2000 L22.3000,-813.2000 L22.3000,-804.1308 L19.3000,-804.1308 L19.3000,-804.1308 L19.3000,-795.0615 L22.3000,-795.0615 L22.3000,-795.0615 L22.3000,-785.9923 L19.3000,-785.9923 L19.3000,-785.9923 L19.3000,-776.9231 L22.3000,-776.9231 L22.3000,-776.9231 L22.3000,-767.8538 L19.3000,-767.8538 L19.3000,-767.8538 L19.3000,-758.7846 L22.3000,-758.7846 L22.3000,-758.7846 L22.3000,-749.7154 L19.3000,-749.7154 L19.3000,-749.7154 L19.3000,-740.6462 L22.3000,-740.6462 L22.3000,-740.6462 L22.3000,-731.5769 L19.3000,-731.5769 L19.3000,-731.5769 L19.3000,-722.5077 L22.3000,-722.5077 L22.3000,-722.5077 L22.3000,-713.4385 L19.3000,-713.4385 L19.3000,-713.4385 L19.3000,-704.3692 L22.3000,-704.3692 L22.3000,-704.3692 L22.3000,-695.3000"></path>
	<path d="M22.3000,-825.0000 L22.3000,-819.1000 L29.7571,-819.1000 L29.7571,-825.0000 L29.7571,-825.0000 L37.2143,-825.0000 L37.2143,-819.1000 L37.2143,-819.1000 L44.6714,-819.1000 L44.6714,-825.0000 L44.6714,-825.0000 L52.1286,-825.0000 L52.1286,-819.1000 L52.1286,-819.1000 L59.5857,-819.1000 L59.5857,-825.0000 L59.5857,-825.0000 L67.0429,-825.0000 L67.0429,-819.1000 L67.0429,-819.1000 L74.5000,-819.1000 L74.5000,-825.0000 L77.5000,-825.0000 L77.5000,-819.1000 L84.9571,-819.1000 L84.9571,-825.0000 L84.9571,-825.0000 L92.4143,-825.0000 L92.4143,-819.1000 L92.4143,-819.1000 L99.8714,-819.1000 L99.8714,-825.0000 L99.8714,-825.0000 L107.3286,-825.0000 L107.3286,-819.1000 L107.3286,-819.1000 L114.7857,-819.1000 L114.7857,-825.0000 L114.7857,-825.0000 L122.2429,-825.0000 L122.2429,-819.1000 L122.2429,-819.1000 L129.7000,-819.1000 L129.7000,-825.0000 L132.7000,-825.0000 L132.7000,-819.1000 L140.1571,-819.1000 L140.1571,-825.0000 L140.1571,-825.0000 L147.6143,-825.0000 L147.6143,-819.1000 L147.6143,-819.1000 L155.0714,-819.1000 L155.0714,-825.0000 L155.0714,-825.0000 L162.5286,-825.0000 L162.5286,-819.1000 L162.5286,-819.1000 L169.9857,-819.1000 L169.9857,-825.0000 L169.9857,-825.0000 L177.4429,-825.0000 L177.4429,-819.1000 L177.4429,-819.1000 L184.9000,-819.1000 L184.9000,-825.0000 L187.9000,-825.0000 L187.9000,-819.1000 L195.3571,-819.1000 L195.3571,-825.0000 L195.3571,-825.0000 L202.8143,-825.0000 L202.8143,-819.1000 L202.8143,-819.1000 L210.2714,-819.1000 L210.2714,-825.0000 L210.2714,-825.0000 L217.7286,-825.0000 L217.7286,-819.1000 L217.7286,-819.1000 L225.1857,-819.1000 L225.1857,-825.0000 L225.1857,-825.0000 L232.6429,-825.0000 L232.6429,-819.1000 L232.6429,-819.1000 L240.1000,-819.1000 L240.1000,-825.0000 L243.1000,-825.0000 L243.1000,-819.1000 L250.5571,-819.1000 L250.5571,-825.0000 L250.5571,-825.0000 L258.0143,-825.0000 L258.0143,-819.1000 L258.0143,-819.1000 L265.4714,-819.1000 L265.4714,-825.0000 L265.4714,-825.0000 L272.9286,-825.0000 L272.9286,-819.1000 L272.9286,-819.1000 L280.3857,-819.1000 L280.3857,-825.0000 L280.3857,-825.0000 L287.8429,-825.0000 L287.8429,-819.1000 L287.8429,-819.1000 L295.3000,-819.1000 L295.3000,-825.0000 L295.3000,-825.0000 L295.3000,-834.0692 L298.3000,-834.0692 L298.3000,-834.0692 L298.3000,-843.1385 L295.3000,-843.1385 L295.3000,-843.1385 L295.3000,-852.2077 L298.3000,-852.2077 L298.3000,-852.2077 L298.3000,-861.2769 L295.3000,-861.2769 L295.3000,-861.2769 L295.3000,-870.3462 L298.3000,-870.3462 L298.3000,-870.3462 L298.3000,-879.4154 L295.3000,-879.4154 L295.3000,-879.4154 L295.3000,-888.4846 L298.3000,-888.4846 L298.3000,-888.4846 L298.3000,-897.5538 L295.3000,-897.5538 L295.3000,-897.5538 L295.3000,-906.6231 L298.3000,-906.6231 L298.3000,-906.6231 L298.3000,-915.6923 L295.3000,-915.6923 L295.3000,-915.6923 L295.3000,-924.7615 L298.3000,-924.7615 L298.3000,-924.7615 L298.3000,-933.8308 L295.3000,-933.8308 L295.3000,-933.8308 L295.3000,-942.9000 L295.3000,-942.9000 L22.3000,-942.9000 L22.3000,-942.9000 L22.3000,-933.8308 L19.3000,-933.8308 L19.3000,-933.8308 L19.3000,-924.7615 L22.3000,-924.7615 L22.3000,-924.7615 L22.3000,-915.6923 L19.3000,-915.6923 L19.3000,-915.6923 L19.3000,-906.6231 L22.3000,-906.6231 L22.3000,-906.6231 L22.3000,-897.5538 L19.3000,-897.5538 L19.3000,-897.5538 L19.3000,-888.4846 L22.3000,-888.4846 L22.3000,-888.4846 L22.3000,-879.4154 L19.3000,-879.4154 L19.3000,-879.4154 L19.3000,-870.3462 L22.3000,-870.3462 L22.3000,-870.3462 L22.3000,-861.2769 L19.3000,-861.2769 L19.3000,-861.2769 L19.3000,-852.2077 L22.3000,-852.2077 L22.3000,-852.2077 L22.3000,-843.1385 L19.3000,-843.1385 L19.3000,-843.1385 L19.3000,-834.0692 L22.3000,-834.0692 L22.3000,-834.0692 L22.3000,-825.0000"></path>
	<path d="M129.7000,-843.1385 L132.7000,-843.1385 L132.7000,-852.2077 L129.7000,-852.2077 L129.7000,-843.1385"></path>
	<path d="M129.7000,-861.2769 L132.7000,-861.2769 L132.7000,-870.3462 L129.7000,-870.3462 L129.7000,-861.2769"></path>
	<path d="M129.7000,-879.4154 L132.7000,-879.4154 L132.7000,-888.4846 L129.7000,-888.4846 L129.7000,-879.4154"></path>
	<path d="M129.7000,-897.5538 L132.7000,-897.5538 L132.7000,-906.6231 L129.7000,-906.6231 L129.7000,-897.5538"></path>
	<path d="M129.7000,-915.6923 L132.7000,-915.6923 L132.7000,-924.7615 L129.7000,-924.7615 L129.7000,-915.6923"></path>
	<path d="M184.9000,-843.1385 L187.9000,-843.1385 L187.9000,-852.2077 L184.9000,-852.2077 L184.9000,-843.1385"></path>
	<path d="M184.9000,-861.2769 L187.9000,-861.2769 L187.9000,-870.3462 L184.9000,-870.3462 L184.9000,-861.2769"></path>
	<path d="M184.9000,-879.4154 L187.9000,-879.4154 L187.9000,-888.4846 L184.9000,-888.4846 L184.9000,-879.4154"></path>
	<path d="M184.9000,-897.5538 L187.9000,-897.5538 L187.9000,-906.6231 L184.9000,-906.6231 L184.9000,-897.5538"></path>
	<path d="M184.9000,-915.6923 L187.9000,-915.6923 L187.9000,-924.7615 L184.9000,-924.7615 L184.9000,-915.6923"></path>
	<path d="M22.3000,-954.7000 L22.3000,-948.8000 L29.7571,-948.8000 L29.7571,-954.7000 L29.7571,-954.7000 L37.2143,-954.7000 L37.2143,-948.8000 L37.2143,-948.8000 L44.6714,-948.8000 L44.6714,-954.7000 L44.6714,-954.7000 L52.1286,-954.7000 L52.1286,-948.8000 L52.1286,-948.8000 L59.5857,-948.8000 L59.5857,-954.7000 L59.5857,-954.7000 L67.0429,-954.7000 L67.0429,-948.8000 L67.0429,-948.8000 L74.5000,-948.8000 L74.5000,-954.7000 L77.5000,-954.7000 L77.5000,-948.8000 L84.9571,-948.8000 L84.9571,-954.7000 L84.9571,-954.7000 L92.4143,-954.7000 L92.4143,-948.8000 L92.4143,-948.8000 L99.8714,-948.8000 L99.8714,-954.7000 L99.8714,-954.7000 L107.3286,-954.7000 L107.3286,-948.8000 L107.3286,-948.8000 L114.7857,-948.8000 L114.7857,-954.7000 L114.7857,-954.7000 L122.2429,-954.7000 L122.2429,-948.8000 L122.2429,-948.8000 L129.7000,-948.8000 L129.7000,-954.7000 L129.7000,-954.7000 L129.7000,-1072.6000 L129.7000,-1072.6000 L22.3000,-1072.6000 L22.3000,-1072.6000 L19.3000,-1072.6000 L19.3000,-1063.5308 L22.3000,-1063.5308 L22.3000,-1063.5308 L22.3000,-1054.4615 L19.3000,-1054.4615 L19.3000,-1054.4615 L19.3000,-1045.3923 L22.3000,-1045.3923 L22.3000,-1045.3923 L22.3000,-1036.3231 L19.3000,-1036.3231 L19.3000,-1036.3231 L19.3000,-1027.2538 L22.3000,-1027.2538 L22.3000,-1027.2538 L22.3000,-1018.1846 L19.3000,-1018.1846 L19.3000,-1018.1846 L19.3000,-1009.1154 L22.3000,-1009.1154 L22.3000,-1009.1154 L22.3000,-1000.0462 L19.3000,-1000.0462 L19.3000,-1000.0462 L19.3000,-990.9769 L22.3000,-990.9769 L22.3000,-990.9769 L22.3000,-981.9077 L19.3000,-981.9077 L19.3000,-981.9077 L19.3000,-972.8385 L22.3000,-972.8385 L22.3000,-972.8385 L22.3000,-963.7692 L19.3000,-963.7692 L19.3000,-963.7692 L19.3000,-954.7000 L22.3000,-954.7000"></path>
	<path d="M22.3000,-1084.4000 L22.3000,-1078.5000 L29.7571,-1078.5000 L29.7571,-1084.4000 L29.7571,-1084.4000 L37.2143,-1084.4000 L37.2143,-1078.5000 L37.2143,-1078.5000 L44.6714,-1078.5000 L44.6714,-1084.4000 L44.6714,-1084.4000 L52.1286,-1084.4000 L52.1286,-1078.5000 L52.1286,-1078.5000 L59.5857,-1078.5000 L59.5857,-1084.4000 L59.5857,-1084.4000 L67.0429,-1084.4000 L67.0429,-1078.5000 L67.0429,-1078.5000 L74.5000,-1078.5000 L74.5000,-1084.4000 L74.5000,-1084.4000 L74.5000,-1202.3000 L74.5000,-1202.3000 L22.3000,-1202.3000 L22.3000,-1202.3000 L22.3000,-1084.4000"></path>
	<path d="M22.3000,-1214.1000 L22.3000,-1208.2000 L29.7571,-1208.2000 L29.7571,-1214.1000 L29.7571,-1214.1000 L37.2143,-1214.1000 L37.2143,-1208.2000 L37.2143,-1208.2000 L44.6714,-1208.2000 L44.6714,-1214.1000 L44.6714,-1214.1000 L52.1286,-1214.1000 L52.1286,-1208.2000 L52.1286,-1208.2000 L59.5857,-1208.2000 L59.5857,-1214.1000 L59.5857,-1214.1000 L67.0429,-1214.1000 L67.0429,-1208.2000 L67.0429,-1208.2000 L74.5000,-1208.2000 L74.5000,-1214.1000 L77.5000,-1214.1000 L77.5000,-1208.2000 L84.9571,-1208.2000 L84.9571,-1214.1000 L84.9571,-1214.1000 L92.4143,-1214.1000 L92.4143,-1208.2000 L92.4143,-1208.2000 L99.8714,-1208.2000 L99.8714,-1214.1000 L99.8714,-1214.1000 L107.3286,-1214.1000 L107.3286,-1208.2000 L107.3286,-1208.2000 L114.7857,-1208.2000 L114.7857,-1214.1000 L114.7857,-1214.1000 L122.2429,-1214.1000 L122.2429,-1208.2000 L122.2429,-1208.2000 L129.7000,-1208.2000 L129.7000,-1214.1000 L129.7000,-1214.1000 L132.7000,-1214.1000 L132.7000,-1223.1692 L129.7000,-1223.1692 L129.7000,-1223.1692 L129.7000,-1232.2385 L132.7000,-1232.2385 L132.7000,-1232.2385 L132.7000,-1241.3077 L129.7000,-1241.3077 L129.7000,-1241.3077 L129.7000,-1250.3769 L132.7000,-1250.3769 L132.7000,-1250.3769 L132.7000,-1259.4462 L129.7000,-1259.4462 L129.7000,-1259.4462 L129.7000,-1268.5154 L132.7000,-1268.5154 L132.7000,-1268.5154 L132.7000,-1277.5846 L129.7000,-1277.5846 L129.7000,-1277.5846 L129.7000,-1286.6538 L132.7000,-1286.6538 L132.7000,-1286.6538 L132.7000,-1295.7231 L129.7000,-1295.7231 L129.7000,-1295.7231 L129.7000,-1304.7923 L132.7000,-1304.7923 L132.7000,-1304.7923 L132.7000,-1313.8615 L129.7000,-1313.8615 L129.7000,-1313.8615 L129.7000,-1322.9308 L132.7000,-1322.9308 L132.7000,-1322.9308 L132.7000,-1332.0000 L129.7000,-1332.0000 L129.7000,-1332.0000 L22.3000,-1332.0000 L22.3000,-1332.0000 L22.3000,-1214.1000"></path>
	<path d="M22.3000,-1343.8000 L22.3000,-1337.9000 L29.7571,-1337.9000 L29.7571,-1343.8000 L29.7571,-1343.8000 L37.2143,-1343.8000 L37.2143,-1337.9000 L37.2143,-1337.9000 L44.6714,-1337.9000 L44.6714,-1343.8000 L44.6714,-1343.8000 L52.1286,-1343.8000 L52.1286,-1337.9000 L52.1286,-1337.9000 L59.5857,-1337.9000 L59.5857,-1343.8000 L59.5857,-1343.8000 L67.0429,-1343.8000 L67.0429,-1337.9000 L67.0429,-1337.9000 L74.5000,-1337.9000 L74.5000,-1343.8000 L77.5000,-1343.8000 L77.5000,-1337.9000 L84.9571,-1337.9000 L84.9571,-1343.8000 L84.9571,-1343.8000 L92.4143,-1343.8000 L92.4143,-1337.9000 L92.4143,-1337.9000 L99.8714,-1337.9000 L99.8714,-1343.8000 L99.8714,-1343.8000 L107.3286,-1343.8000 L107.3286,-1337.9000 L107.3286,-1337.9000 L114.7857,-1337.9000 L114.7857,-1343.8000 L114.7857,-1343.8000 L122.2429,-1343.8000 L122.2429,-1337.9000 L122.2429,-1337.9000 L129.7000,-1337.9000 L129.7000,-1343.8000 L132.7000,-1343.8000 L132.7000,-1337.9000 L140.1571,-1337.9000 L140.1571,-1343.8000 L140.1571,-1343.8000 L147.6143,-1343.8000 L147.6143,-1337.9000 L147.6143,-1337.9000 L155.0714,-1337.9000 L155.0714,-1343.8000 L155.0714,-1343.8000 L162.5286,-1343.8000 L162.5286,-1337.9000 L162.5286,-1337.9000 L169.9857,-1337.9000 L169.9857,-1343.8000 L169.9857,-1343.8000 L177.4429,-1343.8000 L177.4429,-1337.9000 L177.4429,-1337.9000 L184.9000,-1337.9000 L184.9000,-1343.8000 L187.9000,-1343.8000 L187.9000,-1337.9000 L195.3571,-1337.9000 L195.3571,-1343.8000 L195.3571,-1343.8000 L202.8143,-1343.8000 L202.8143,-1337.9000 L202.8143,-1337.9000 L210.2714,-1337.9000 L210.2714,-1343.8000 L210.2714,-1343.8000 L217.7286,-1343.8000 L217.7286,-1337.9000 L217.7286,-1337.9000 L225.1857,-1337.9000 L225.1857,-1343.8000 L225.1857,-1343.8000 L232.6429,-1343.8000 L232.6429,-1337.9000 L232.6429,-1337.9000 L240.1000,-1337.9000 L240.1000,-1343.8000 L243.1000,-1343.8000 L243.1000,-1337.9000 L250.5571,-1337.9000 L250.5571,-1343.8000 L250.5571,-1343.8000 L258.0143,-1343.8000 L258.0143,-1337.9000 L258.0143,-1337.9000 L265.4714,-1337.9000 L265.4714,-1343.8000 L265.4714,-1343.8000 L272.9286,-1343.8000 L272.9286,-1337.9000 L272.9286,-1337.9000 L280.3857,-1337.9000 L280.3857,-1343.8000 L280.3857,-1343.8000 L287.8429,-1343.8000 L287.8429,-1337.9000 L287.8429,-1337.9000 L295.3000,-1337.9000 L295.3000,-1343.8000 L295.3000,-1343.8000 L295.3000,-1461.7000 L295.3000,-1461.7000 L22.3000,-1461.7000 L22.3000,-1461.7000 L22.3000,-1343.8000"></path>
	<path d="M74.5000,-1352.8692 L77.5000,-1352.8692 L77.5000,-1361.9385 L74.5000,-1361.9385 L74.5000,-1352.8692"></path>
	<path d="M74.5000,-1371.0077 L77.5000,-1371.0077 L77.5000,-1380.0769 L74.5000,-1380.0769 L74.5000,-1371.0077"></path>
	<path d="M74.5000,-1389.1462 L77.5000,-1389.1462 L77.5000,-1398.2154 L74.5000,-1398.2154 L74.5000,-1389.1462"></path>
	<path d="M74.5000,-1407.2846 L77.5000,-1407.2846 L77.5000,-1416.3538 L74.5000,-1416.3538 L74.5000,-1407.2846"></path>
	<path d="M74.5000,-1425.4231 L77.5000,-1425.4231 L77.5000,-1434.4923 L74.5000,-1434.4923 L74.5000,-1425.4231"></path>
	<path d="M74.5000,-1443.5615 L77.5000,-1443.5615 L77.5000,-1452.6308 L74.5000,-1452.6308 L74.5000,-1443.5615"></path>
	<path d="M129.7000,-1352.8692 L132.7000,-1352.8692 L132.7000,-1361.9385 L129.7000,-1361.9385 L129.7000,-1352.8692"></path>
	<path d="M129.7000,-1371.0077 L132.7000,-1371.0077 L132.7000,-1380.0769 L129.7000,-1380.0769 L129.7000,-1371.0077"></path>
	<path d="M129.7000,-1389.1462 L132.7000,-1389.1462 L132.7000,-1398.2154 L129.7000,-1398.2154 L129.7000,-1389.1462"></path>
	<path d="M129.7000,-1407.2846 L132.7000,-1407.2846 L132.7000,-1416.3538 L129.7000,-1416.3538 L129.7000,-1407.2846"></path>
	<path d="M129.7000,-1425.4231 L132.7000,-1425.4231 L132.7000,-1434.4923 L129.7000,-1434.4923 L129.7000,-1425.4231"></path>
	<path d="M129.7000,-1443.5615 L132.7000,-1443.5615 L132.7000,-1452.6308 L129.7000,-1452.6308 L129.7000,-1443.5615"></path>
	<path d="M22.3000,-1473.5000 L22.3000,-1467.6000 L29.7571,-1467.6000 L29.7571,-1473.5000 L29.7571,-1473.5000 L37.2143,-1473.5000 L37.2143,-1467.6000 L37.2143,-1467.6000 L44.6714,-1467.6000 L44.6714,-1473.5000 L44.6714,-1473.5000 L52.1286,-1473.5000 L52.1286,-1467.6000 L52.1286,-1467.6000 L59.5857,-1467.6000 L59.5857,-1473.5000 L59.5857,-1473.5000 L67.0429,-1473.5000 L67.0429,-1467.6000 L67.0429,-1467.6000 L74.5000,-1467.6000 L74.5000,-1473.5000 L74.5000,-1473.5000 L77.5000,-1473.5000 L77.5000,-1482.5692 L74.5000,-1482.5692 L74.5000,-1482.5692 L74.5000,-1491.6385 L77.5000,-1491.6385 L77.5000,-1491.6385 L77.5000,-1500.7077 L74.5000,-1500.7077 L74.5000,-1500.7077 L74.5000,-1509.7769 L77.5000,-1509.7769 L77.5000,-1509.7769 L77.5000,-1518.8462 L74.5000,-1518.8462 L74.5000,-1518.8462 L74.5000,-1527.9154 L77.5000,-1527.9154 L77.5000,-1527.9154 L77.5000,-1536.9846 L74.5000,-1536.9846 L74.5000,-1536.9846 L74.5000,-1546.0538 L77.5000,-1546.0538 L77.5000,-1546.0538 L77.5000,-1555.1231 L74.5000,-1555.1231 L74.5000,-1555.1231 L74.5000,-1564.1923 L77.5000,-1564.1923 L77.5000,-1564.1923 L77.5000,-1573.2615 L74.5000,-1573.2615 L74.5000,-1573.2615 L74.5000,-1582.3308 L77.5000,-1582.3308 L77.5000,-1582.3308 L77.5000,-1591.4000 L74.5000,-1591.4000 L74.5000,-1591.4000 L22.3000,-1591.4000 L22.3000,-1591.4000 L22.3000,-1582.3308 L22.3000,-1573.2615 L19.3000,-1573.2615 L19.3000,-1573.2615 L19.3000,-1564.1923 L22.3000,-1564.1923 L22.3000,-1564.1923 L22.3000,-1555.1231 L19.3000,-1555.1231 L19.3000,-1555.1231 L19.3000,-1546.0538 L22.3000,-1546.0538 L22.3000,-1546.0538 L22.3000,-1536.9846 L19.3000,-1536.9846 L19.3000,-1536.9846 L19.3000,-1527.9154 L22.3000,-1527.9154 L22.3000,-1527.9154 L22.3000,-1518.8462 L19.3000,-1518.8462 L19.3000,-1518.8462 L19.3000,-1509.7769 L22.3000,-1509.7769 L22.3000,-1509.7769 L22.3000,-1500.7077 L19.3000,-1500.7077 L19.3000,-1500.7077 L19.3000,-1491.6385 L22.3000,-1491.6385 L22.3000,-1491.6385 L22.3000,-1482.5692 L22.3000,-1473.5000"></path>
	<path d="M22.3000,-1603.2000 L22.3000,-1597.3000 L29.7571,-1597.3000 L29.7571,-1603.2000 L29.7571,-1603.2000 L37.2143,-1603.2000 L37.2143,-1597.3000 L37.2143,-1597.3000 L44.6714,-1597.3000 L44.6714,-1603.2000 L44.6714,-1603.2000 L52.1286,-1603.2000 L52.1286,-1597.3000 L52.1286,-1597.3000 L59.5857,-1597.3000 L59.5857,-1603.2000 L59.5857,-1603.2000 L67.0429,-1603.2000 L67.0429,-1597.3000 L67.0429,-1597.3000 L74.5000,-1597.3000 L74.5000,-1603.2000 L74.5000,-1603.2000 L74.5000,-1721.1000 L74.5000,-1721.1000 L22.3000,-1721.1000 L22.3000,-1721.1000 L22.3000,-1712.0308 L22.3000,-1702.9615 L19.3000,-1702.9615 L19.3000,-1702.9615 L19.3000,-1693.8923 L22.3000,-1693.8923 L22.3000,-1693.8923 L22.3000,-1684.8231 L19.3000,-1684.8231 L19.3000,-1684.8231 L19.3000,-1675.7538 L22.3000,-1675.7538 L22.3000,-1675.7538 L22.3000,-1666.6846 L19.3000,-1666.6846 L19.3000,-1666.6846 L19.3000,-1657.6154 L22.3000,-1657.6154 L22.3000,-1657.6154 L22.3000,-1648.5462 L19.3000,-1648.5462 L19.3000,-1648.5462 L19.3000,-1639.4769 L22.3000,-1639.4769 L22.3000,-1639.4769 L22.3000,-1630.4077 L19.3000,-1630.4077 L19.3000,-1630.4077 L19.3000,-1621.3385 L22.3000,-1621.3385 L22.3000,-1621.3385 L22.3000,-1612.2692 L22.3000,-1603.2000"></path>
	<path d="M22.3000,-1732.9000 L22.3000,-1727.0000 L29.7571,-1727.0000 L29.7571,-1732.9000 L29.7571,-1732.9000 L37.2143,-1732.9000 L37.2143,-1727.0000 L37.2143,-1727.0000 L44.6714,-1727.0000 L44.6714,-1732.9000 L44.6714,-1732.9000 L52.1286,-1732.9000 L52.1286,-1727.0000 L52.1286,-1727.0000 L59.5857,-1727.0000 L59.5857,-1732.9000 L59.5857,-1732.9000 L67.0429,-1732.9000 L67.0429,-1727.0000 L67.0429,-1727.0000 L74.5000,-1727.0000 L74.5000,-1732.9000 L77.5000,-1732.9000 L77.5000,-1727.0000 L84.9571,-1727.0000 L84.9571,-1732.9000 L84.9571,-1732.9000 L92.4143,-1732.9000 L92.4143,-1727.0000 L92.4143,-1727.0000 L99.8714,-1727.0000 L99.8714,-1732.9000 L99.8714,-1732.9000 L107.3286,-1732.9000 L107.3286,-1727.0000 L107.3286,-1727.0000 L114.7857,-1727.0000 L114.7857,-1732.9000 L114.7857,-1732.9000 L122.2429,-1732.9000 L122.2429,-1727.0000 L122.2429,-1727.0000 L129.7000,-1727.0000 L129.7000,-1732.9000 L129.7000,-1732.9000 L129.7000,-1741.9692 L129.7000,-1751.0385 L132.7000,-1751.0385 L132.7000,-1751.0385 L132.7000,-1760.1077 L129.7000,-1760.1077 L129.7000,-1760.1077 L129.7000,-1769.1769 L132.7000,-1769.1769 L132.7000,-1769.1769 L132.7000,-1778.2462 L129.7000,-1778.2462 L129.7000,-1778.2462 L129.7000,-1787.3154 L132.7000,-1787.3154 L132.7000,-1787.3154 L132.7000,-1796.3846 L129.7000,-1796.3846 L129.7000,-1796.3846 L129.7000,-1805.4538 L132.7000,-1805.4538 L132.7000,-1805.4538 L132.7000,-1814.5231 L129.7000,-1814.5231 L129.7000,-1814.5231 L129.7000,-1823.5923 L132.7000,-1823.5923 L132.7000,-1823.5923 L132.7000,-1832.6615 L129.7000,-1832.6615 L129.7000,-1832.6615 L129.7000,-1841.7308 L129.7000,-1850.8000 L129.7000,-1850.8000 L22.3000,-1850.8000 L22.3000,-1850.8000 L22.3000,-1732.9000"></path>
	<path d="M22.3000,-1862.6000 L22.3000,-1856.7000 L29.7571,-1856.7000 L29.7571,-1862.6000 L29.7571,-1862.6000 L37.2143,-1862.6000 L37.2143,-1856.7000 L37.2143,-1856.7000 L44.6714,-1856.7000 L44.6714,-1862.6000 L44.6714,-1862.6000 L52.1286,-1862.6000 L52.1286,-1856.7000 L52.1286,-1856.7000 L59.5857,-1856.7000 L59.5857,-1862.6000 L59.5857,-1862.6000 L67.0429,-1862.6000 L67.0429,-1856.7000 L67.0429,-1856.7000 L74.5000,-1856.7000 L74.5000,-1862.6000 L74.5000,-1862.6000 L77.5000,-1862.6000 L77.5000,-1871.6692 L74.5000,-1871.6692 L74.5000,-1871.6692 L74.5000,-1880.7385 L77.5000,-1880.7385 L77.5000,-1880.7385 L77.5000,-1889.8077 L74.5000,-1889.8077 L74.5000,-1889.8077 L74.5000,-1898.8769 L77.5000,-1898.8769 L77.5000,-1898.8769 L77.5000,-1907.9462 L74.5000,-1907.9462 L74.5000,-1907.9462 L74.5000,-1917.0154 L77.5000,-1917.0154 L77.5000,-1917.0154 L77.5000,-1926.0846 L74.5000,-1926.0846 L74.5000,-1926.0846 L74.5000,-1935.1538 L77.5000,-1935.1538 L77.5000,-1935.1538 L77.5000,-1944.2231 L74.5000,-1944.2231 L74.5000,-1944.2231 L74.5000,-1953.2923 L77.5000,-1953.2923 L77.5000,-1953.2923 L77.5000,-1962.3615 L74.5000,-1962.3615 L74.5000,-1962.3615 L74.5000,-1971.4308 L77.5000,-1971.4308 L77.5000,-1971.4308 L77.5000,-1980.5000 L74.5000,-1980.5000 L74.5000,-1980.5000 L22.3000,-1980.5000 L22.3000,-1980.5000 L22.3000,-1862.6000"></path>
	<path d="M22.3000,-1992.3000 L22.3000,-1986.4000 L29.7571,-1986.4000 L29.7571,-1992.3000 L29.7571,-1992.3000 L37.2143,-1992.3000 L37.2143,-1986.4000 L37.2143,-1986.4000 L44.6714,-1986.4000 L44.6714,-1992.3000 L44.6714,-1992.3000 L52.1286,-1992.3000 L52.1286,-1986.4000 L52.1286,-1986.4000 L59.5857,-1986.4000 L59.5857,-1992.3000 L59.5857,-1992.3000 L67.0429,-1992.3000 L67.0429,-1986.4000 L67.0429,-1986.4000 L74.5000,-1986.4000 L74.5000,-1992.3000 L74.5000,-1992.3000 L74.5000,-2001.3692 L74.5000,-2010.4385 L77.5000,-2010.4385 L77.5000,-2010.4385 L77.5000,-2019.5077 L74.5000,-2019.5077 L74.5000,-2019.5077 L74.5000,-2028.5769 L77.5000,-2028.5769 L77.5000,-2028.5769 L77.5000,-2037.6462 L74.5000,-2037.6462 L74.5000,-2037.6462 L74.5000,-2046.7154 L77.5000,-2046.7154 L77.5000,-2046.7154 L77.5000,-2055.7846 L74.5000,-2055.7846 L74.5000,-2055.7846 L74.5000,-2064.8538 L77.5000,-2064.8538 L77.5000,-2064.8538 L77.5000,-2073.9231 L74.5000,-2073.9231 L74.5000,-2073.9231 L74.5000,-2082.9923 L77.5000,-2082.9923 L77.5000,-2082.9923 L77.5000,-2092.0615 L74.5000,-2092.0615 L74.5000,-2092.0615 L74.5000,-2101.1308 L74.5000,-2110.2000 L74.5000,-2110.2000 L22.3000,-2110.2000 L22.3000,-2110.2000 L19.3000,-2110.2000 L19.3000,-2101.1308 L22.3000,-2101.1308 L22.3000,-2101.1308 L22.3000,-2092.0615 L19.3000,-2092.0615 L19.3000,-2092.0615 L19.3000,-2082.9923 L22.3000,-2082.9923 L22.3000,-2082.9923 L22.3000,-2073.9231 L19.3000,-2073.9231 L19.3000,-2073.9231 L19.3000,-2064.8538 L22.3000,-2064.8538 L22.3000,-2064.8538 L22.3000,-2055.7846 L19.3000,-2055.7846 L19.3000,-2055.7846 L19.3000,-2046.7154 L22.3000,-2046.7154 L22.3000,-2046.7154 L22.3000,-2037.6462 L19.3000,-2037.6462 L19.3000,-2037.6462 L19.3000,-2028.5769 L22.3000,-2028.5769 L22.3000,-2028.5769 L22.3000,-2019.5077 L19.3000,-2019.5077 L19.3000,-2019.5077 L19.3000,-2010.4385 L22.3000,-2010.4385 L22.3000,-2010.4385 L22.3000,-2001.3692 L19.3000,-2001.3692 L19.3000,-2001.3692 L19.3000,-1992.3000 L22.3000,-1992.3000"></path>
	<path d="M22.3000,-2122.0000 L22.3000,-2116.1000 L29.7571,-2116.1000 L29.7571,-2122.0000 L29.7571,-2122.0000 L37.2143,-2122.0000 L37.2143,-2116.1000 L37.2143,-2116.1000 L44.6714,-2116.1000 L44.6714,-2122.0000 L44.6714,-2122.0000 L52.1286,-2122.0000 L52.1286,-2116.1000 L52.1286,-2116.1000 L59.5857,-2116.1000 L59.5857,-2122.0000 L59.5857,-2122.0000 L67.0429,-2122.0000 L67.0429,-2116.1000 L67.0429,-2116.1000 L74.5000,-2116.1000 L74.5000,-2122.0000 L77.5000,-2122.0000 L77.5000,-2116.1000 L84.9571,-2116.1000 L84.9571,-2122.0000 L84.9571,-2122.0000 L92.4143,-2122.0000 L92.4143,-2116.1000 L92.4143,-2116.1000 L99.8714,-2116.1000 L99.8714,-2122.0000 L99.8714,-2122.0000 L107.3286,-2122.0000 L107.3286,-2116.1000 L107.3286,-2116.1000 L114.7857,-2116.1000 L114.7857,-2122.0000 L114.7857,-2122.0000 L122.2429,-2122.0000 L122.2429,-2116.1000 L122.2429,-2116.1000 L129.7000,-2116.1000 L129.7000,-2122.0000 L132.7000,-2122.0000 L132.7000,-2116.1000 L140.1571,-2116.1000 L140.1571,-2122.0000 L140.1571,-2122.0000 L147.6143,-2122.0000 L147.6143,-2116.1000 L147.6143,-2116.1000 L155.0714,-2116.1000 L155.0714,-2122.0000 L155.0714,-2122.0000 L162.5286,-2122.0000 L162.5286,-2116.1000 L162.5286,-2116.1000 L169.9857,-2116.1000 L169.9857,-2122.0000 L169.9857,-2122.0000 L177.4429,-2122.0000 L177.4429,-2116.1000 L177.4429,-2116.1000 L184.9000,-2116.1000 L184.9000,-2122.0000 L184.9000,-2122.0000 L184.9000,-2239.9000 L184.9000,-2239.9000 L22.3000,-2239.9000 L22.3000,-2239.9000 L19.3000,-2239.9000 L19.3000,-2230.8308 L22.3000,-2230.8308 L22.3000,-2230.8308 L22.3000,-2221.7615 L19.3000,-2221.7615 L19.3000,-2221.7615 L19.3000,-2212.6923 L22.3000,-2212.6923 L22.3000,-2212.6923 L22.3000,-2203.6231 L19.3000,-2203.6231 L19.3000,-2203.6231 L19.3000,-2194.5538 L22.3000,-2194.5538 L22.3000,-2194.5538 L22.3000,-2185.4846 L19.3000,-2185.4846 L19.3000,-2185.4846 L19.3000,-2176.4154 L22.3000,-2176.4154 L22.3000,-2176.4154 L22.3000,-2167.3462 L19.3000,-2167.3462 L19.3000,-2167.3462 L19.3000,-2158.2769 L22.3000,-2158.2769 L22.3000,-2158.2769 L22.3000,-2149.2077 L19.3000,-2149.2077 L19.3000,-2149.2077 L19.3000,-2140.1385 L22.3000,-2140.1385 L22.3000,-2140.1385 L22.3000,-2131.0692 L19.3000,-2131.0692 L19.3000,-2131.0692 L19.3000,-2122.0000 L22.3000,-2122.0000"></path>
	<path d="M22.3000,-2251.7000 L22.3000,-2245.8000 L29.7571,-2245.8000 L29.7571,-2251.7000 L29.7571,-2251.7000 L37.2143,-2251.7000 L37.2143,-2245.8000 L37.2143,-2245.8000 L44.6714,-2245.8000 L44.6714,-2251.7000 L44.6714,-2251.7000 L52.1286,-2251.7000 L52.1286,-2245.8000 L52.1286,-2245.8000 L59.5857,-2245.8000 L59.5857,-2251.7000 L59.5857,-2251.7000 L67.0429,-2251.7000 L67.0429,-2245.8000 L67.0429,-2245.8000 L74.5000,-2245.8000 L74.5000,-2251.7000 L77.5000,-2251.7000 L77.5000,-2245.8000 L84.9571,-2245.8000 L84.9571,-2251.7000 L84.9571,-2251.7000 L92.4143,-2251.7000 L92.4143,-2245.8000 L92.4143,-2245.8000 L99.8714,-2245.8000 L99.8714,-2251.7000 L99.8714,-2251.7000 L107.3286,-2251.7000 L107.3286,-2245.8000 L107.3286,-2245.8000 L114.7857,-2245.8000 L114.7857,-2251.7000 L114.7857,-2251.7000 L122.2429,-2251.7000 L122.2429,-2245.8000 L122.2429,-2245.8000 L129.7000,-2245.8000 L129.7000,-2251.7000 L129.7000,-2251.7000 L129.7000,-2369.6000 L129.7000,-2369.6000 L22.3000,-2369.6000 L22.3000,-2369.6000 L19.3000,-2369.6000 L19.3000,-2360.5308 L22.3000,-2360.5308 L22.3000,-2360.5308 L22.3000,-2351.4615 L19.3000,-2351.4615 L19.3000,-2351.4615 L19.3000,-2342.3923 L22.3000,-2342.3923 L22.3000,-2342.3923 L22.3000,-2333.3231 L19.3000,-2333.3231 L19.3000,-2333.3231 L19.3000,-2324.2538 L22.3000,-2324.2538 L22.3000,-2324.2538 L22.3000,-2315.1846 L19.3000,-2315.1846 L19.3000,-2315.1846 L19.3000,-2306.1154 L22.3000,-2306.1154 L22.3000,-2306.1154 L22.3000,-2297.0462 L19.3000,-2297.0462 L19.3000,-2297.0462 L19.3000,-2287.9769 L22.3000,-2287.9769 L22.3000,-2287.9769 L22.3000,-2278.9077 L19.3000,-2278.9077 L19.3000,-2278.9077 L19.3000,-2269.8385 L22.3000,-2269.8385 L22.3000,-2269.8385 L22.3000,-2260.7692 L19.3000,-2260.7692 L19.3000,-2260.7692 L19.3000,-2251.7000 L22.3000,-2251.7000"></path>
	<path d="M22.3000,-2381.4000 L22.3000,-2375.5000 L29.7571,-2375.5000 L29.7571,-2381.4000 L29.7571,-2381.4000 L37.2143,-2381.4000 L37.2143,-2375.5000 L37.2143,-2375.5000 L44.6714,-2375.5000 L44.6714,-2381.4000 L44.6714,-2381.4000 L52.1286,-2381.4000 L52.1286,-2375.5000 L52.1286,-2375.5000 L59.5857,-2375.5000 L59.5857,-2381.4000 L59.5857,-2381.4000 L67.0429,-2381.4000 L67.0429,-2375.5000 L67.0429,-2375.5000 L74.5000,-2375.5000 L74.5000,-2381.4000 L77.5000,-2381.4000 L77.5000,-2375.5000 L84.9571,-2375.5000 L84.9571,-2381.4000 L84.9571,-2381.4000 L92.4143,-2381.4000 L92.4143,-2375.5000 L92.4143,-2375.5000 L99.8714,-2375.5000 L99.8714,-2381.4000 L99.8714,-2381.4000 L107.3286,-2381.4000 L107.3286,-2375.5000 L107.3286,-2375.5000 L114.7857,-2375.5000 L114.7857,-2381.4000 L114.7857,-2381.4000 L122.2429,-2381.4000 L122.2429,-2375.5000 L122.2429,-2375.5000 L129.7000,-2375.5000 L129.7000,-2381.4000 L129.7000,-2381.4000 L132.7000,-2381.4000 L132.7000,-2390.4692 L129.7000,-2390.4692 L129.7000,-2390.4692 L129.7000,-2399.5385 L132.7000,-2399.5385 L132.7000,-2399.5385 L132.7000,-2408.6077 L129.7000,-2408.6077 L129.7000,-2408.6077 L129.7000,-2417.6769 L132.7000,-2417.6769 L132.7000,-2417.6769 L132.7000,-2426.7462 L129.7000,-2426.7462 L129.7000,-2426.7462 L129.7000,-2435.8154 L132.7000,-2435.8154 L132.7000,-2435.8154 L132.7000,-2444.8846 L129.7000,-2444.8846 L129.7000,-2444.8846 L129.7000,-2453.9538 L132.7000,-2453.9538 L132.7000,-2453.9538 L132.7000,-2463.0231 L129.7000,-2463.0231 L129.7000,-2463.0231 L129.7000,-2472.0923 L132.7000,-2472.0923 L132.7000,-2472.0923 L132.7000,-2481.1615 L129.7000,-2481.1615 L129.7000,-2481.1615 L129.7000,-2490.2308 L132.7000,-2490.2308 L132.7000,-2490.2308 L132.7000,-2499.3000 L129.7000,-2499.3000 L129.7000,-2499.3000 L22.3000,-2499.3000 L22.3000,-2499.3000 L22.3000,-2381.4000"></path>
	<path d="M22.3000,-2511.1000 L22.3000,-2505.2000 L29.7571,-2505.2000 L29.7571,-2511.1000 L29.7571,-2511.1000 L37.2143,-2511.1000 L37.2143,-2505.2000 L37.2143,-2505.2000 L44.6714,-2505.2000 L44.6714,-2511.1000 L44.6714,-2511.1000 L52.1286,-2511.1000 L52.1286,-2505.2000 L52.1286,-2505.2000 L59.5857,-2505.2000 L59.5857,-2511.1000 L59.5857,-2511.1000 L67.0429,-2511.1000 L67.0429,-2505.2000 L67.0429,-2505.2000 L74.5000,-2505.2000 L74.5000,-2511.1000 L74.5000,-2511.1000 L77.5000,-2511.1000 L77.5000,-2520.1692 L74.5000,-2520.1692 L74.5000,-2520.1692 L74.5000,-2529.2385 L77.5000,-2529.2385 L77.5000,-2529.2385 L77.5000,-2538.3077 L74.5000,-2538.3077 L74.5000,-2538.3077 L74.5000,-2547.3769 L77.5000,-2547.3769 L77.5000,-2547.3769 L77.5000,-2556.4462 L74.5000,-2556.4462 L74.5000,-2556.4462 L74.5000,-2565.5154 L77.5000,-2565.5154 L77.5000,-2565.5154 L77.5000,-2574.5846 L74.5000,-2574.5846 L74.5000,-2574.5846 L74.5000,-2583.6538 L77.5000,-2583.6538 L77.5000,-2583.6538 L77.5000,-2592.7231 L74.5000,-2592.7231 L74.5000,-2592.7231 L74.5000,-2601.7923 L77.5000,-2601.7923 L77.5000,-2601.7923 L77.5000,-2610.8615 L74.5000,-2610.8615 L74.5000,-2610.8615 L74.5000,-2619.9308 L77.5000,-2619.9308 L77.5000,-2619.9308 L77.5000,-2629.0000 L74.5000,-2629.0000 L74.5000,-2629.0000 L22.3000,-2629.0000 L22.3000,-2629.0000 L22.3000,-2511.1000"></path>
</g>
</svg>