<?xml version="1.0" encoding="utf-8"?>
<svg xmlns="http://www.w3.org/2000/svg" width="334.1857mm" height="1812.7000mm" viewBox="19.3143 -1853.7143 334.1857 1812.7000">
<g>
	<path d="M22.2143,-46.9143 L22.2143,-41.0143 L29.6878,-41.0143 L29.6878,-46.9143 L29.6878,-46.9143 L37.1612,-46.9143 L37.1612,-41.0143 L37.1612,-41.0143 L44.6347,-41.0143 L44.6347,-46.9143 L44.6347,-46.9143 L52.1082,-46.9143 L52.1082,-41.0143 L52.1082,-41.0143 L59.5816,-41.0143 L59.5816,-46.9143 L59.5816,-46.9143 L67.0551,-46.9143 L67.0551,-41.0143 L67.0551,-41.0143 L74.5286,-41.0143 L74.5286,-46.9143 L77.4286,-46.9143 L77.4286,-41.0143 L84.9020,-41.0143 L84.9020,-46.9143 L84.9020,-46.9143 L92.3755,-46.9143 L92.3755,-41.0143 L92.3755,-41.0143 L99.8490,-41.0143 L99.8490,-46.9143 L99.8490,-46.9143 L107.3224,-46.9143 L107.3224,-41.0143 L107.3224,-41.0143 L114.7959,-41.0143 L114.7959,-46.9143 L114.7959,-46.9143 L122.2694,-46.9143 L122.2694,-41.0143 L122.2694,-41.0143 L129.7429,-41.0143 L129.7429,-46.9143 L132.6429,-46.9143 L132.6429,-41.0143 L140.1163,-41.0143 L140.1163,-46.9143 L140.1163,-46.9143 L147.5898,-46.9143 L147.5898,-41.0143 L147.5898,-41.0143 L155.0633,-41.0143 L155.0633,-46.9143 L155.0633,-46.9143 L162.5367,-46.9143 L162.5367,-41.0143 L162.5367,-41.0143 L170.0102,-41.0143 L170.0102,-46.9143 L170.0102,-46.9143 L177.4837,-46.9143 L177.4837,-41.0143 L177.4837,-41.0143 L184.9571,-41.0143 L184.9571,-46.9143 L187.8571,-46.9143 L187.8571,-41.0143 L195.3306,-41.0143 L195.3306,-46.9143 L195.3306,-46.9143 L202.8041,-46.9143 L202.8041,-41.0143 L202.8041,-41.0143 L210.2776,-41.0143 L210.2776,-46.9143 L210.2776,-46.9143 L217.7510,-46.9143 L217.7510,-41.0143 L217.7510,-41.0143 L225.2245,-41.0143 L225.2245,-46.9143 L225.2245,-46.9143 L232.6980,-46.9143 L232.6980,-41.0143 L232.6980,-41.0143 L240.1714,-41.0143 L240.1714,-46.9143 L243.0714,-46.9143 L243.0714,-41.0143 L250.5449,-41.0143 L250.5449,-46.9143 L250.5449,-46.9143 L258.0184,-46.9143 L258.0184,-41.0143 L258.0184,-41.0143 L265.4918,-41.0143 L265.4918,-46.9143 L265.4918,-46.9143 L272.9653,-46.9143 L272.9653,-41.0143 L272.9653,-41.0143 L280.4388,-41.0143 L280.4388,-46.9143 L280.4388,-46.9143 L287.9122,-46.9143 L287.9122,-41.0143 L287.9122,-41.0143 L295.3857,-41.0143 L295.3857,-46.9143 L295.3857,-46.9143 L295.3857,-165.0143 L295.3857,-165.0143 L22.2143,-165.0143 L22.2143,-165.0143 L22.2143,-155.9297 L19.3143,-155.9297 L19.3143,-155.9297 L19.3143,-146.8451 L22.2143,-146.8451 L22.2143,-146.8451 L22.2143,-137.7604 L19.3143,-137.7604 L19.3143,-137.7604 L19.3143,-128.6758 L22.2143,-128.6758 L22.2143,-128.6758 L22.2143,-119.5912 L19.3143,-119.5912 L19.3143,-119.5912 L19.3143,-110.5066 L22.2143,-110.5066 L22.2143,-110.5066 L22.2143,-101.4220 L19.3143,-101.4220 L19.3143,-101.4220 L19.3143,-92.3374 L22.2143,-92.3374 L22.2143,-92.3374 L22.2143,-83.2527 L19.3143,-83.2527 L19.3143,-83.2527 L19.3143,-74.1681 L22.2143,-74.1681 L22.2143,-74.1681 L22.2143,-65.0835 L19.3143,-65.0835 L19.3143,-65.0835 L19.3143,-55.9989 L22.2143,-55.9989 L22.2143,-55.9989 L22.2143,-46.9143"></path>
	<path d="M129.7429,-65.0835 L132.6429,-65.0835 L132.6429,-74.1681 L129.7429,-74.1681 L129.7429,-65.0835"></path>
	<path d="M129.7429,-83.2527 L132.6429,-83.2527 L132.6429,-92.3374 L129.7429,-92.3374 L129.7429,-83.2527"></path>
	<path d="M129.7429,-101.4220 L132.6429,-101.4220 L132.6429,-110.5066 L129.7429,-110.5066 L129.7429,-101.4220"></path>
	<path d="M129.7429,-119.5912 L132.6429,-119.5912 L132.6429,-128.6758 L129.7429,-128.6758 L129.7429,-119.5912"></path>
	<path d="M129.7429,-137.7604 L132.6429,-137.7604 L132.6429,-146.8451 L129.7429,-146.8451 L129.7429,-137.7604"></path>
	<path d="M22.2143,-176.8143 L22.2143,-170.9143 L29.6878,-170.9143 L29.6878,-176.8143 L29.6878,-176.8143 L37.1612,-176.8143 L37.1612,-170.9143 L37.1612,-170.9143 L44.6347,-170.9143 L44.6347,-176.8143 L44.6347,-176.8143 L52.1082,-176.8143 L52.1082,-170.9143 L52.1082,-170.9143 L59.5816,-170.9143 L59.5816,-176.8143 L59.5816,-176.8143 L67.0551,-176.8143 L67.0551,-170.9143 L67.0551,-170.9143 L74.5286,-170.9143 L74.5286,-176.8143 L77.4286,-176.8143 L77.4286,-170.9143 L84.9020,-170.9143 L84.9020,-176.8143 L84.9020,-176.8143 L92.3755,-176.8143 L92.3755,-170.9143 L92.3755,-170.9143 L99.8490,-170.9143 L99.8490,-176.8143 L99.8490,-176.8143 L107.3224,-176.8143 L107.3224,-170.9143 L107.3224,-170.9143 L114.7959,-170.9143 L114.7959,-176.8143 L114.7959,-176.8143 L122.2694,-176.8143 L122.2694,-170.9143 L122.2694,-170.9143 L129.7429,-170.9143 L129.7429,-176.8143 L129.7429,-176.8143 L129.7429,-185.8989 L132.6429,-185.8989 L132.6429,-185.8989 L132.6429,-194.9835 L129.7429,-194.9835 L129.7429,-194.9835 L129.7429,-204.0681 L132.6429,-204.0681 L132.6429,-204.0681 L132.6429,-213.1527 L129.7429,-213.1527 L129.7429,-213.1527 L129.7429,-222.2374 L132.6429,-222.2374 L132.6429,-222.2374 L132.6429,-231.3220 L129.7429,-231.3220 L129.7429,-231.3220 L129.7429,-240.4066 L132.6429,-240.4066 L132.6429,-240.4066 L132.6429,-249.4912 L129.7429,-249.4912 L129.7429,-249.4912 L129.7429,-258.5758 L132.6429,-258.5758 L132.6429,-258.5758 L132.6429,-267.6604 L129.7429,-267.6604 L129.7429,-267.6604 L129.7429,-276.7451 L132.6429,-276.7451 L132.6429,-276.7451 L132.6429,-285.8297 L129.7429,-285.8297 L129.7429,-285.8297 L129.7429,-294.9143 L129.7429,-294.9143 L22.2143,-294.9143 L22.2143,-294.9143 L22.2143,-285.8297 L19.3143,-285.8297 L19.3143,-285.8297 L19.3143,-276.7451 L22.2143,-276.7451 L22.2143,-276.7451 L22.2143,-267.6604 L19.3143,-267.6604 L19.3143,-267.6604 L19.3143,-258.5758 L22.2143,-258.5758 L22.2143,-258.5758 L22.2143,-249.4912 L19.3143,-249.4912 L19.3143,-249.4912 L19.3143,-240.4066 L22.2143,-240.4066 L22.2143,-240.4066 L22.2143,-231.3220 L19.3143,-231.3220 L19.3143,-231.3220 L19.3143,-222.2374 L22.2143,-222.2374 L22.2143,-222.2374 L22.2143,-213.1527 L19.3143,-213.1527 L19.3143,-213.1527 L19.3143,-204.0681 L22.2143,-204.0681 L22.2143,-204.0681 L22.2143,-194.9835 L19.3143,-194.9835 L19.3143,-194.9835 L19.3143,-185.8989 L22.2143,-185.8989 L22.2143,-185.8989 L22.2143,-176.8143"></path>
	<path d="M22.2143,-306.7143 L22.2143,-300.8143 L29.6878,-300.8143 L29.6878,-306.7143 L29.6878,-306.7143 L37.1612,-306.7143 L37.1612,-300.8143 L37.1612,-300.8143 L44.6347,-300.8143 L44.6347,-306.7143 L44.6347,-306.7143 L52.1082,-306.7143 L52.1082,-300.8143 L52.1082,-300.8143 L59.5816,-300.8143 L59.5816,-306.7143 L59.5816,-306.7143 L67.0551,-306.7143 L67.0551,-300.8143 L67.0551,-300.8143 L74.5286,-300.8143 L74.5286,-306.7143 L77.4286,-306.7143 L77.4286,-300.8143 L84.9020,-300.8143 L84.9020,-306.7143 L84.9020,-306.7143 L92.3755,-306.7143 L92.3755,-300.8143 L92.3755,-300.8143 L99.8490,-300.8143 L99.8490,-306.7143 L99.8490,-306.7143 L107.3224,-306.7143 L107.3224,-300.8143 L107.3224,-300.8143 L114.7959,-300.8143 L114.7959,-306.7143 L114.7959,-306.7143 L122.2694,-306.7143 L122.2694,-300.8143 L122.2694,-300.8143 L129.7429,-300.8143 L129.7429,-306.7143 L132.6429,-306.7143 L132.6429,-300.8143 L140.1163,-300.8143 L140.1163,-306.7143 L140.1163,-306.7143 L147.5898,-306.7143 L147.5898,-300.8143 L147.5898,-300.8143 L155.0633,-300.8143 L155.0633,-306.7143 L155.0633,-306.7143 L162.5367,-306.7143 L162.5367,-300.8143 L162.5367,-300.8143 L170.0102,-300.8143 L170.0102,-306.7143 L170.0102,-306.7143 L177.4837,-306.7143 L177.4837,-300.8143 L177.4837,-300.8143 L184.9571,-300.8143 L184.9571,-306.7143 L184.9571,-306.7143 L184.9571,-315.7989 L187.8571,-315.7989 L187.8571,-315.7989 L187.8571,-324.8835 L184.9571,-324.8835 L184.9571,-324.8835 L184.9571,-333.9681 L187.8571,-333.9681 L187.8571,-333.9681 L187.8571,-343.0527 L184.9571,-343.0527 L184.9571,-343.0527 L184.9571,-352.1374 L187.8571,-352.1374 L187.8571,-352.1374 L187.8571,-361.2220 L184.9571,-361.2220 L184.9571,-361.2220 L184.9571,-370.3066 L187.8571,-370.3066 L187.8571,-370.3066 L187.8571,-379.3912 L184.9571,-379.3912 L184.9571,-379.3912 L184.9571,-388.4758 L187.8571,-388.4758 L187.8571,-388.4758 L187.8571,-397.5604 L184.9571,-397.5604 L184.9571,-397.5604 L184.9571,-406.6451 L187.8571,-406.6451 L187.8571,-406.6451 L187.8571,-415.7297 L184.9571,-415.7297 L184.9571,-415.7297 L184.9571,-424.8143 L184.9571,-424.8143 L22.2143,-424.8143 L22.2143,-424.8143 L22.2143,-415.7297 L19.3143,-415.7297 L19.3143,-415.7297 L19.3143,-406.6451 L22.2143,-406.6451 L22.2143,-406.6451 L22.2143,-397.5604 L19.3143,-397.5604 L19.3143,-397.5604 L19.3143,-388.4758 L22.2143,-388.4758 L22.2143,-388.4758 L22.2143,-379.3912 L19.3143,-379.3912 L19.3143,-379.3912 L19.3143,-370.3066 L22.2143,-370.3066 L22.2143,-370.3066 L22.2143,-361.2220 L19.3143,-361.2220 L19.3143,-361.2220 L19.3143,-352.1374 L22.2143,-352.1374 L22.2143,-352.1374 L22.2143,-343.0527 L19.3143,-343.0527 L19.3143,-343.0527 L19.3143,-333.9681 L22.2143,-333.9681 L22.2143,-333.9681 L22.2143,-324.8835 L19.3143,-324.8835 L19.3143,-324.8835 L19.3143,-315.7989 L22.2143,-315.7989 L22.2143,-315.7989 L22.2143,-306.7143"></path>
	<path d="M22.2143,-436.6143 L22.2143,-430.7143 L29.6878,-430.7143 L29.6878,-436.6143 L29.6878,-436.6143 L37.1612,-436.6143 L37.1612,-430.7143 L37.1612,-430.7143 L44.6347,-430.7143 L44.6347,-436.6143 L44.6347,-436.6143 L52.1082,-436.6143 L52.1082,-430.7143 L52.1082,-430.7143 L59.5816,-430.7143 L59.5816,-436.6143 L59.5816,-436.6143 L67.0551,-436.6143 L67.0551,-430.7143 L67.0551,-430.7143 L74.5286,-430.7143 L74.5286,-436.6143 L74.5286,-436.6143 L74.5286,-445.6989 L77.4286,-445.6989 L77.4286,-445.6989 L77.4286,-454.7835 L74.5286,-454.7835 L74.5286,-454.7835 L74.5286,-463.8681 L77.4286,-463.8681 L77.4286,-463.8681 L77.4286,-472.9527 L74.5286,-472.9527 L74.5286,-472.9527 L74.5286,-482.0374 L77.4286,-482.0374 L77.4286,-482.0374 L77.4286,-491.1220 L74.5286,-491.1220 L74.5286,-491.1220 L74.5286,-500.2066 L77.4286,-500.2066 L77.4286,-500.2066 L77.4286,-509.2912 L74.5286,-509.2912 L74.5286,-509.2912 L74.5286,-518.3758 L77.4286,-518.3758 L77.4286,-518.3758 L77.4286,-527.4604 L74.5286,-527.4604 L74.5286,-527.4604 L74.5286,-536.5451 L77.4286,-536.5451 L77.4286,-536.5451 L77.4286,-545.6297 L74.5286,-545.6297 L74.5286,-545.6297 L74.5286,-554.7143 L74.5286,-554.7143 L22.2143,-554.7143 L22.2143,-554.7143 L22.2143,-436.6143"></path>
	<path d="M22.2143,-566.5143 L22.2143,-560.6143 L29.6878,-560.6143 L29.6878,-566.5143 L29.6878,-566.5143 L37.1612,-566.5143 L37.1612,-560.6143 L37.1612,-560.6143 L44.6347,-560.6143 L44.6347,-566.5143 L44.6347,-566.5143 L52.1082,-566.5143 L52.1082,-560.6143 L52.1082,-560.6143 L59.5816,-560.6143 L59.5816,-566.5143 L59.5816,-566.5143 L67.0551,-566.5143 L67.0551,-560.6143 L67.0551,-560.6143 L74.5286,-560.6143 L74.5286,-566.5143 L77.4286,-566.5143 L77.4286,-560.6143 L84.9020,-560.6143 L84.9020,-566.5143 L84.9020,-566.5143 L92.3755,-566.5143 L92.3755,-560.6143 L92.3755,-560.6143 L99.8490,-560.6143 L99.8490,-566.5143 L99.8490,-566.5143 L107.3224,-566.5143 L107.3224,-560.6143 L107.3224,-560.6143 L114.7959,-560.6143 L114.7959,-566.5143 L114.7959,-566.5143 L122.2694,-566.5143 L122.2694,-560.6143 L122.2694,-560.6143 L129.7429,-560.6143 L129.7429,-566.5143 L129.7429,-566.5143 L129.7429,-575.5989 L132.6429,-575.5989 L132.6429,-575.5989 L132.6429,-584.6835 L129.7429,-584.6835 L129.7429,-584.6835 L129.7429,-593.7681 L132.6429,-593.7681 L132.6429,-593.7681 L132.6429,-602.8527 L129.7429,-602.8527 L129.7429,-602.8527 L129.7429,-611.9374 L132.6429,-611.9374 L132.6429,-611.9374 L132.6429,-621.0220 L129.7429,-621.0220 L129.7429,-621.0220 L129.7429,-630.1066 L132.6429,-630.1066 L132.6429,-630.1066 L132.6429,-639.1912 L129.7429,-639.1912 L129.7429,-639.1912 L129.7429,-648.2758 L132.6429,-648.2758 L132.6429,-648.2758 L132.6429,-657.3604 L129.7429,-657.3604 L129.7429,-657.3604 L129.7429,-666.4451 L132.6429,-666.4451 L132.6429,-666.4451 L132.6429,-675.5297 L129.7429,-675.5297 L129.7429,-675.5297 L129.7429,-684.6143 L129.7429,-684.6143 L22.2143,-684.6143 L22.2143,-684.6143 L22.2143,-675.5297 L19.3143,-675.5297 L19.3143,-675.5297 L19.3143,-666.4451 L22.2143,-666.4451 L22.2143,-666.4451 L22.2143,-657.3604 L19.3143,-657.3604 L19.3143,-657.3604 L19.3143,-648.2758 L22.2143,-648.2758 L22.2143,-648.2758 L22.2143,-639.1912 L19.3143,-639.1912 L19.3143,-639.1912 L19.3143,-630.1066 L22.2143,-630.1066 L22.2143,-630.1066 L22.2143,-621.0220 L19.3143,-621.0220 L19.3143,-621.0220 L19.3143,-611.9374 L22.2143,-611.9374 L22.2143,-611.9374 L22.2143,-602.8527 L19.3143,-602.8527 L19.3143,-602.8527 L19.3143,-593.7681 L22.2143,-593.7681 L22.2143,-593.7681 L22.2143,-584.6835 L19.3143,-584.6835 L19.3143,-584.6835 L19.3143,-575.5989 L22.2143,-575.5989 L22.2143,-575.5989 L22.2143,-566.5143"></path>
	<path d="M22.2143,-696.4143 L22.2143,-690.5143 L29.6878,-690.5143 L29.6878,-696.4143 L29.6878,-696.4143 L37.1612,-696.4143 L37.1612,-690.5143 L37.1612,-690.5143 L44.6347,-690.5143 L44.6347,-696.4143 L44.6347,-696.4143 L52.1082,-696.4143 L52.1082,-690.5143 L52.1082,-690.5143 L59.5816,-690.5143 L59.5816,-696.4143 L59.5816,-696.4143 L67.0551,-696.4143 L67.0551,-690.5143 L67.0551,-690.5143 L74.5286,-690.5143 L74.5286,-696.4143 L77.4286,-696.4143 L77.4286,-690.5143 L84.9020,-690.5143 L84.9020,-696.4143 L84.9020,-696.4143 L92.3755,-696.4143 L92.3755,-690.5143 L92.3755,-690.5143 L99.8490,-690.5143 L99.8490,-696.4143 L99.8490,-696.4143 L107.3224,-696.4143 L107.3224,-690.5143 L107.3224,-690.5143 L114.7959,-690.5143 L114.7959,-696.4143 L114.7959,-696.4143 L122.2694,-696.4143 L122.2694,-690.5143 L122.2694,-690.5143 L129.7429,-690.5143 L129.7429,-696.4143 L132.6429,-696.4143 L132.6429,-690.5143 L140.1163,-690.5143 L140.1163,-696.4143 L140.1163,-696.4143 L147.5898,-696.4143 L147.5898,-690.5143 L147.5898,-690.5143 L155.0633,-690.5143 L155.0633,-696.4143 L155.0633,-696.4143 L162.5367,-696.4143 L162.5367,-690.5143 L162.5367,-690.5143 L170.0102,-690.5143 L170.0102,-696.4143 L170.0102,-696.4143 L177.4837,-696.4143 L177.4837,-690.5143 L177.4837,-690.5143 L184.9571,-690.5143 L184.9571,-696.4143 L187.8571,-696.4143 L187.8571,-690.5143 L195.3306,-690.5143 L195.3306,-696.4143 L195.3306,-696.4143 L202.8041,-696.4143 L202.8041,-690.5143 L202.8041,-690.5143 L210.2776,-690.5143 L210.2776,-696.4143 L210.2776,-696.4143 L217.7510,-696.4143 L217.7510,-690.5143 L217.7510,-690.5143 L225.2245,-690.5143 L225.2245,-696.4143 L225.2245,-696.4143 L232.6980,-696.4143 L232.6980,-690.5143 L232.6980,-690.5143 L240.1714,-690.5143 L240.1714,-696.4143 L243.0714,-696.4143 L243.0714,-690.5143 L250.5449,-690.5143 L250.5449,-696.4143 L250.5449,-696.4143 L258.0184,-696.4143 L258.0184,-690.5143 L258.0184,-690.5143 L265.4918,-690.5143 L265.4918,-696.4143 L265.4918,-696.4143 L272.9653,-696.4143 L272.9653,-690.5143 L272.9653,-690.5143 L280.4388,-690.5143 L280.4388,-696.4143 L280.4388,-696.4143 L287.9122,-696.4143 L287.9122,-690.5143 L287.9122,-690.5143 L295.3857,-690.5143 L295.3857,-696.4143 L295.3857,-696.4143 L295.3857,-705.4989 L298.2857,-705.4989 L298.2857,-705.4989 L298.2857,-714.5835 L295.3857,-714.5835 L295.3857,-714.5835 L295.3857,-723.6681 L298.2857,-723.6681 L298.2857,-723.6681 L298.2857,-732.7527 L295.3857,-732.7527 L295.3857,-732.7527 L295.3857,-741.8374 L298.2857,-741.8374 L298.2857,-741.8374 L298.2857,-750.9220 L295.3857,-750.9220 L295.3857,-750.9220 L295.3857,-760.0066 L298.2857,-760.0066 L298.2857,-760.0066 L298.2857,-769.0912 L295.3857,-769.0912 L295.3857,-769.0912 L295.3857,-778.1758 L298.2857,-778.1758 L298.2857,-778.1758 L298.2857,-787.2604 L295.3857,-787.2604 L295.3857,-787.2604 L295.3857,-796.3451 L298.2857,-796.3451 L298.2857,-796.3451 L298.2857,-805.4297 L295.3857,-805.4297 L295.3857,-805.4297 L295.3857,-814.5143 L295.3857,-814.5143 L22.2143,-814.5143 L22.2143,-814.5143 L22.2143,-696.4143"></path>
	<path d="M184.9571,-714.5835 L187.8571,-714.5835 L187.8571,-723.6681 L184.9571,-723.6681 L184.9571,-714.5835"></path>
	<path d="M184.9571,-732.7527 L187.8571,-732.7527 L187.8571,-741.8374 L184.9571,-741.8374 L184.9571,-732.7527"></path>
	<path d="M184.9571,-750.9220 L187.8571,-750.9220 L187.8571,-760.0066 L184.9571,-760.0066 L184.9571,-750.9220"></path>
	<path d="M184.9571,-769.0912 L187.8571,-769.0912 L187.8571,-778.1758 L184.9571,-778.1758 L184.9571,-769.0912"></path>
	<path d="M184.9571,-787.2604 L187.8571,-787.2604 L187.8571,-796.3451 L184.9571,-796.3451 L184.9571,-787.2604"></path>
	<path d="M22.2143,-826.3143 L22.2143,-820.4143 L29.6878,-820.4143 L29.6878,-826.3143 L29.6878,-826.3143 L37.1612,-826.3143 L37.1612,-820.4143 L37.1612,-820.4143 L44.6347,-820.4143 L44.6347,-826.3143 L44.6347,-826.3143 L52.1082,-826.3143 L52.1082,-820.4143 L52.1082,-820.4143 L59.5816,-820.4143 L59.5816,-826.3143 L59.5816,-826.3143 L67.0551,-826.3143 L67.0551,-820.4143 L67.0551,-820.4143 L74.5286,-820.4143 L74.5286,-826.3143 L77.4286,-826.3143 L77.4286,-820.4143 L84.9020,-820.4143 L84.9020,-826.3143 L84.9020,-826.3143 L92.3755,-826.3143 L92.3755,-820.4143 L92.3755,-820.4143 L99.8490,-820.4143 L99.8490,-826.3143 L99.8490,-826.3143 L107.3224,-826.3143 L107.3224,-820.4143 L107.3224,-820.4143 L114.7959,-820.4143 L114.7959,-826.3143 L114.7959,-826.3143 L122.2694,-826.3143 L122.2694,-820.4143 L122.2694,-820.4143 L129.7429,-820.4143 L129.7429,-826.3143 L132.6429,-826.3143 L132.6429,-820.4143 L140.1163,-820.4143 L140.1163,-826.3143 L140.1163,-826.3143 L147.5898,-826.3143 L147.5898,-820.4143 L147.5898,-820.4143 L155.0633,-820.4143 L155.0633,-826.3143 L155.0633,-826.3143 L162.5367,-826.3143 L162.5367,-820.4143 L162.5367,-820.4143 L170.0102,-820.4143 L170.0102,-826.3143 L170.0102,-826.3143 L177.4837,-826.3143 L177.4837,-820.4143 L177.4837,-820.4143 L184.9571,-820.4143 L184.9571,-826.3143 L187.8571,-826.3143 L187.8571,-820.4143 L195.3306,-820.4143 L195.3306,-826.3143 L195.3306,-826.3143 L202.8041,-826.3143 L202.8041,-820.4143 L202.8041,-820.4143 L210.2776,-820.4143 L210.2776,-826.3143 L210.2776,-826.3143 L217.7510,-826.3143 L217.7510,-820.4143 L217.7510,-820.4143 L225.2245,-820.4143 L225.2245,-826.3143 L225.2245,-826.3143 L232.6980,-826.3143 L232.6980,-820.4143 L232.6980,-820.4143 L240.1714,-820.4143 L240.1714,-826.3143 L243.0714,-826.3143 L243.0714,-820.4143 L250.5449,-820.4143 L250.5449,-826.3143 L250.5449,-826.3143 L258.0184,-826.3143 L258.0184,-820.4143 L258.0184,-820.4143 L265.4918,-820.4143 L265.4918,-826.3143 L265.4918,-826.3143 L272.9653,-826.3143 L272.9653,-820.4143 L272.9653,-820.4143 L280.4388,-820.4143 L280.4388,-826.3143 L280.4388,-826.3143 L287.9122,-826.3143 L287.9122,-820.4143 L287.9122,-820.4143 L295.3857,-820.4143 L295.3857,-826.3143 L298.2857,-826.3143 L298.2857,-820.4143 L305.7592,-820.4143 L305.7592,-826.3143 L305.7592,-826.3143 L313.2327,-826.3143 L313.2327,-820.4143 L313.2327,-820.4143 L320.7061,-820.4143 L320.7061,-826.3143 L320.7061,-826.3143 L328.1796,-826.3143 L328.1796,-820.4143 L328.1796,-820.4143 L335.6531,-820.4143 L335.6531,-826.3143 L335.6531,-826.3143 L343.1265,-826.3143 L343.1265,-820.4143 L343.1265,-820.4143 L350.6000,-820.4143 L350.6000,-826.3143 L350.6000,-826.3143 L353.5000,-826.3143 L353.5000,-835.3989 L350.6000,-835.3989 L350.6000,-835.3989 L350.6000,-844.4835 L353.5000,-844.4835 L353.5000,-844.4835 L353.5000,-853.5681 L350.6000,-853.5681 L350.6000,-853.5681 L350.6000,-862.6527 L353.5000,-862.6527 L353.5000,-862.6527 L353.5000,-871.7374 L350.6000,-871.7374 L350.6000,-871.7374 L350.6000,-880.8220 L353.5000,-880.8220 L353.5000,-880.8220 L353.5000,-889.9066 L350.6000,-889.9066 L350.6000,-889.9066 L350.6000,-898.9912 L353.5000,-898.9912 L353.5000,-898.9912 L353.5000,-908.0758 L350.6000,-908.0758 L350.6000,-908.0758 L350.6000,-917.1604 L353.5000,-917.1604 L353.5000,-917.1604 L353.5000,-926.2451 L350.6000,-926.2451 L350.6000,-926.2451 L350.6000,-935.3297 L353.5000,-935.3297 L353.5000,-935.3297 L353.5000,-944.4143 L350.6000,-944.4143 L350.6000,-944.4143 L22.2143,-944.4143 L22.2143,-944.4143 L19.3143,-944.4143 L19.3143,-935.3297 L22.2143,-935.3297 L22.2143,-935.3297 L22.2143,-926.2451 L19.3143,-926.2451 L19.3143,-926.2451 L19.3143,-917.1604 L22.2143,-917.1604 L22.2143,-917.1604 L22.2143,-908.0758 L19.3143,-908.0758 L19.3143,-908.0758 L19.3143,-898.9912 L22.2143,-898.9912 L22.2143,-898.9912 L22.2143,-889.9066 L19.3143,-889.9066 L19.3143,-889.9066 L19.3143,-880.8220 L22.2143,-880.8220 L22.2143,-880.8220 L22.2143,-871.7374 L19.3143,-871.7374 L19.3143,-871.7374 L19.3143,-862.6527 L22.2143,-862.6527 L22.2143,-862.6527 L22.2143,-853.5681 L19.3143,-853.5681 L19.3143,-853.5681 L19.3143,-844.4835 L22.2143,-844.4835 L22.2143,-844.4835 L22.2143,-835.3989 L19.3143,-835.3989 L19.3143,-835.3989 L19.3143,-826.3143 L22.2143,-826.3143"></path>
	<path d="M22.2143,-956.2143 L22.2143,-950.3143 L29.6878,-950.3143 L29.6878,-956.2143 L29.6878,-956.2143 L37.1612,-956.2143 L37.1612,-950.3143 L37.1612,-950.3143 L44.6347,-950.3143 L44.6347,-956.2143 L44.6347,-956.2143 L52.1082,-956.2143 L52.1082,-950.3143 L52.1082,-950.3143 L59.5816,-950.3143 L59.5816,-956.2143 L59.5816,-956.2143 L67.0551,-956.2143 L67.0551,-950.3143 L67.0551,-950.3143 L74.5286,-950.3143 L74.5286,-956.2143 L77.4286,-956.2143 L77.4286,-950.3143 L84.9020,-950.3143 L84.9020,-956.2143 L84.9020,-956.2143 L92.3755,-956.2143 L92.3755,-950.3143 L92.3755,-950.3143 L99.8490,-950.3143 L99.8490,-956.2143 L99.8490,-956.2143 L107.3224,-956.2143 L107.3224,-950.3143 L107.3224,-950.3143 L114.7959,-950.3143 L114.7959,-956.2143 L114.7959,-956.2143 L122.2694,-956.2143 L122.2694,-950.3143 L122.2694,-950.3143 L129.7429,-950.3143 L129.7429,-956.2143 L132.6429,-956.2143 L132.6429,-950.3143 L140.1163,-950.3143 L140.1163,-956.2143 L140.1163,-956.2143 L147.5898,-956.2143 L147.5898,-950.3143 L147.5898,-950.3143 L155.0633,-950.3143 L155.0633,-956.2143 L155.0633,-956.2143 L162.5367,-956.2143 L162.5367,-950.3143 L162.5367,-950.3143 L170.0102,-950.3143 L170.0102,-956.2143 L170.0102,-956.2143 L177.4837,-956.2143 L177.4837,-950.3143 L177.4837,-950.3143 L184.9571,-950.3143 L184.9571,-956.2143 L187.8571,-956.2143 L187.8571,-950.3143 L195.3306,-950.3143 L195.3306,-956.2143 L195.3306,-956.2143 L202.8041,-956.2143 L202.8041,-950.3143 L202.8041,-950.3143 L210.2776,-950.3143 L210.2776,-956.2143 L210.2776,-956.2143 L217.7510,-956.2143 L217.7510,-950.3143 L217.7510,-950.3143 L225.2245,-950.3143 L225.2245,-956.2143 L225.2245,-956.2143 L232.6980,-956.2143 L232.6980,-950.3143 L232.6980,-950.3143 L240.1714,-950.3143 L240.1714,-956.2143 L240.1714,-956.2143 L240.1714,-1074.3143 L240.1714,-1074.3143 L22.2143,-1074.3143 L22.2143,-1074.3143 L22.2143,-956.2143"></path>
	<path d="M129.7429,-965.2989 L132.6429,-965.2989 L132.6429,-974.3835 L129.7429,-974.3835 L129.7429,-965.2989"></path>
	<path d="M129.7429,-983.4681 L132.6429,-983.4681 L132.6429,-992.5527 L129.7429,-992.5527 L129.7429,-983.4681"></path>
	<path d="M129.7429,-1001.6374 L132.6429,-1001.6374 L132.6429,-1010.7220 L129.7429,-1010.7220 L129.7429,-1001.6374"></path>
	<path d="M129.7429,-1019.8066 L132.6429,-1019.8066 L132.6429,-1028.8912 L129.7429,-1028.8912 L129.7429,-1019.8066"></path>
	<path d="M129.7429,-1037.9758 L132.6429,-1037.9758 L132.6429,-1047.0604 L129.7429,-1047.0604 L129.7429,-1037.9758"></path>
	<path d="M129.7429,-1056.1451 L132.6429,-1056.1451 L132.6429,-1065.2297 L129.7429,-1065.2297 L129.7429,-1056.1451"></path>
	<path d="M22.2143,-1086.1143 L22.2143,-1080.2143 L29.6878,-1080.2143 L29.6878,-1086.1143 L29.6878,-1086.1143 L37.1612,-1086.1143 L37.1612,-1080.2143 L37.1612,-1080.2143 L44.6347,-1080.2143 L44.6347,-1086.1143 L44.6347,-1086.1143 L52.1082,-1086.1143 L52.1082,-1080.2143 L52.1082,-1080.2143 L59.5816,-1080.2143 L59.5816,-1086.1143 L59.5816,-1086.1143 L67.0551,-1086.1143 L67.0551,-1080.2143 L67.0551,-1080.2143 L74.5286,-1080.2143 L74.5286,-1086.1143 L77.4286,-1086.1143 L77.4286,-1080.2143 L84.9020,-1080.2143 L84.9020,-1086.1143 L84.9020,-1086.1143 L92.3755,-1086.1143 L92.3755,-1080.2143 L92.3755,-1080.2143 L99.8490,-1080.2143 L99.8490,-1086.1143 L99.8490,-1086.1143 L107.3224,-1086.1143 L107.3224,-1080.2143 L107.3224,-1080.2143 L114.7959,-1080.2143 L114.7959,-1086.1143 L114.7959,-1086.1143 L122.2694,-1086.1143 L122.2694,-1080.2143 L122.2694,-1080.2143 L129.7429,-1080.2143 L129.7429,-1086.1143 L129.7429,-1086.1143 L129.7429,-1204.2143 L129.7429,-1204.2143 L22.2143,-1204.2143 L22.2143,-1204.2143 L22.2143,-1195.1297 L22.2143,-1186.0451 L19.3143,-1186.0451 L19.3143,-1186.0451 L19.3143,-1176.9604 L22.2143,-1176.9604 L22.2143,-1176.9604 L22.2143,-1167.8758 L19.3143,-1167.8758 L19.3143,-1167.8758 L19.3143,-1158.7912 L22.2143,-1158.7912 L22.2143,-1158.7912 L22.2143,-1149.7066 L19.3143,-1149.7066 L19.3143,-1149.7066 L19.3143,-1140.6220 L22.2143,-1140.6220 L22.2143,-1140.6220 L22.2143,-1131.5374 L19.3143,-1131.5374 L19.3143,-1131.5374 L19.3143,-1122.4527 L22.2143,-1122.4527 L22.2143,-1122.4527 L22.2143,-1113.3681 L19.3143,-1113.3681 L19.3143,-1113.3681 L19.3143,-1104.2835 L22.2143,-1104.2835 L22.2143,-1104.2835 L22.2143,-1095.1989 L22.2143,-1086.1143"></path>
	<path d="M22.2143,-1216.0143 L22.2143,-1210.1143 L29.6878,-1210.1143 L29.6878,-1216.0143 L29.6878,-1216.0143 L37.1612,-1216.0143 L37.1612,-1210.1143 L37.1612,-1210.1143 L44.6347,-1210.1143 L44.6347,-1216.0143 L44.6347,-1216.0143 L52.1082,-1216.0143 L52.1082,-1210.1143 L52.1082,-1210.1143 L59.5816,-1210.1143 L59.5816,-1216.0143 L59.5816,-1216.0143 L67.0551,-1216.0143 L67.0551,-1210.1143 L67.0551,-1210.1143 L74.5286,-1210.1143 L74.5286,-1216.0143 L74.5286,-1216.0143 L77.4286,-1216.0143 L77.4286,-1225.0989 L74.5286,-1225.0989 L74.5286,-1225.0989 L74.5286,-1234.1835 L77.4286,-1234.1835 L77.4286,-1234.1835 L77.4286,-1243.2681 L74.5286,-1243.2681 L74.5286,-1243.2681 L74.5286,-1252.3527 L77.4286,-1252.3527 L77.4286,-1252.3527 L77.4286,-1261.4374 L74.5286,-1261.4374 L74.5286,-1261.4374 L74.5286,-1270.5220 L77.4286,-1270.5220 L77.4286,-1270.5220 L77.4286,-1279.6066 L74.5286,-1279.6066 L74.5286,-1279.6066 L74.5286,-1288.6912 L77.4286,-1288.6912 L77.4286,-1288.6912 L77.4286,-1297.7758 L74.5286,-1297.7758 L74.5286,-1297.7758 L74.5286,-1306.8604 L77.4286,-1306.8604 L77.4286,-1306.8604 L77.4286,-1315.9451 L74.5286,-1315.9451 L74.5286,-1315.9451 L74.5286,-1325.0297 L77.4286,-1325.0297 L77.4286,-1325.0297 L77.4286,-1334.1143 L74.5286,-1334.1143 L74.5286,-1334.1143 L22.2143,-1334.1143 L22.2143,-1334.1143 L22.2143,-1216.0143"></path>
	<path d="M22.2143,-1345.9143 L22.2143,-1340.0143 L29.6878,-1340.0143 L29.6878,-1345.9143 L29.6878,-1345.9143 L37.1612,-1345.9143 L37.1612,-1340.0143 L37.1612,-1340.0143 L44.6347,-1340.0143 L44.6347,-1345.9143 L44.6347,-1345.9143 L52.1082,-1345.9143 L52.1082,-1340.0143 L52.1082,-1340.0143 L59.5816,-1340.0143 L59.5816,-1345.9143 L59.5816,-1345.9143 L67.0551,-1345.9143 L67.0551,-1340.0143 L67.0551,-1340.0143 L74.5286,-1340.0143 L74.5286,-1345.9143 L74.5286,-1345.9143 L74.5286,-1464.0143 L74.5286,-1464.0143 L22.2143,-1464.0143 L22.2143,-1464.0143 L19.3143,-1464.0143 L19.3143,-1454.9297 L22.2143,-1454.9297 L22.2143,-1454.9297 L22.2143,-1445.8451 L19.3143,-1445.8451 L19.3143,-1445.8451 L19.3143,-1436.7604 L22.2143,-1436.7604 L22.2143,-1436.7604 L22.2143,-1427.6758 L19.3143,-1427.6758 L19.3143,-1427.6758 L19.3143,-1418.5912 L22.2143,-1418.5912 L22.2143,-1418.5912 L22.2143,-1409.5066 L19.3143,-1409.5066 L19.3143,-1409.5066 L19.3143,-1400.4220 L22.2143,-1400.4220 L22.2143,-1400.4220 L22.2143,-1391.3374 L19.3143,-1391.3374 L19.3143,-1391.3374 L19.3143,-1382.2527 L22.2143,-1382.2527 L22.2143,-1382.2527 L22.2143,-1373.1681 L19.3143,-1373.1681 L19.3143,-1373.1681 L19.3143,-1364.0835 L22.2143,-1364.0835 L22.2143,-1364.0835 L22.2143,-1354.9989 L19.3143,-1354.9989 L19.3143,-1354.9989 L19.3143,-1345.9143 L22.2143,-1345.9143"></path>
	<path d="M22.2143,-1475.8143 L22.2143,-1469.9143 L29.6878,-1469.9143 L29.6878,-1475.8143 L29.6878,-1475.8143 L37.1612,-1475.8143 L37.1612,-1469.9143 L37.1612,-1469.9143 L44.6347,-1469.9143 L44.6347,-1475.8143 L44.6347,-1475.8143 L52.1082,-1475.8143 L52.1082,-1469.9143 L52.1082,-1469.9143 L59.5816,-1469.9143 L59.5816,-1475.8143 L59.5816,-1475.8143 L67.0551,-1475.8143 L67.0551,-1469.9143 L67.0551,-1469.9143 L74.5286,-1469.9143 L74.5286,-1475.8143 L77.4286,-1475.8143 L77.4286,-1469.9143 L84.9020,-1469.9143 L84.9020,-1475.8143 L84.9020,-1475.8143 L92.3755,-1475.8143 L92.3755,-1469.9143 L92.3755,-1469.9143 L99.8490,-1469.9143 L99.8490,-1475.8143 L99.8490,-1475.8143 L107.3224,-1475.8143 L107.3224,-1469.9143 L107.3224,-1469.9143 L114.7959,-1469.9143 L114.7959,-1475.8143 L114.7959,-1475.8143 L122.2694,-1475.8143 L122.2694,-1469.9143 L122.2694,-1469.9143 L129.7429,-1469.9143 L129.7429,-1475.8143 L132.6429,-1475.8143 L132.6429,-1469.9143 L140.1163,-1469.9143 L140.1163,-1475.8143 L140.1163,-1475.8143 L147.5898,-1475.8143 L147.5898,-1469.9143 L147.5898,-1469.9143 L155.0633,-1469.9143 L155.0633,-1475.8143 L155.0633,-1475.8143 L162.5367,-1475.8143 L162.5367,-1469.9143 L162.5367,-1469.9143 L170.0102,-1469.9143 L170.0102,-1475.8143 L170.0102,-1475.8143 L177.4837,-1475.8143 L177.4837,-1469.9143 L177.4837,-1469.9143 L184.9571,-1469.9143 L184.9571,-1475.8143 L184.9571,-1475.8143 L184.9571,-1484.8989 L184.9571,-1493.9835 L187.8571,-1493.9835 L187.8571,-1493.9835 L187.8571,-1503.0681 L184.9571,-1503.0681 L184.9571,-1503.0681 L184.9571,-1512.1527 L187.8571,-1512.1527 L187.8571,-1512.1527 L187.8571,-1521.2374 L184.9571,-1521.2374 L184.9571,-1521.2374 L184.9571,-1530.3220 L187.8571,-1530.3220 L187.8571,-1530.3220 L187.8571,-1539.4066 L184.9571,-1539.4066 L184.9571,-1539.4066 L184.9571,-1548.4912 L187.8571,-1548.4912 L187.8571,-1548.4912 L187.8571,-1557.5758 L184.9571,-1557.5758 L184.9571,-1557.5758 L184.9571,-1566.6604 L187.8571,-1566.6604 L187.8571,-1566.6604 L187.8571,-1575.7451 L184.9571,-1575.7451 L184.9571,-1575.7451 L184.9571,-1584.8297 L184.9571,-1593.9143 L184.9571,-1593.9143 L22.2143,-1593.9143 L22.2143,-1593.9143 L19.3143,-1593.9143 L19.3143,-1584.8297 L22.2143,-1584.8297 L22.2143,-1584.8297 L22.2143,-1575.7451 L19.3143,-1575.7451 L19.3143,-1575.7451 L19.3143,-1566.6604 L22.2143,-1566.6604 L22.2143,-1566.6604 L22.2143,-1557.5758 L19.3143,-1557.5758 L19.3143,-1557.5758 L19.3143,-1548.4912 L22.2143,-1548.4912 L22.2143,-1548.4912 L22.2143,-1539.4066 L19.3143,-1539.4066 L19.3143,-1539.4066 L19.3143,-1530.3220 L22.2143,-1530.3220 L22.2143,-1530.3220 L22.2143,-1521.2374 L19.3143,-1521.2374 L19.3143,-1521.2374 L19.3143,-1512.1527 L22.2143,-1512.1527 L22.2143,-1512.1527 L22.2143,-1503.0681 L19.3143,-1503.0681 L19.3143,-1503.0681 L19.3143,-1493.9835 L22.2143,-1493.9835 L22.2143,-1493.9835 L22.2143,-1484.8989 L19.3143,-1484.8989 L19.3143,-1484.8989 L19.3143,-1475.8143 L22.2143,-1475.8143"></path>
	<path d="M22.2143,-1605.7143 L22.2143,-1599.8143 L29.6878,-1599.8143 L29.6878,-1605.7143 L29.6878,-1605.7143 L37.1612,-1605.7143 L37.1612,-1599.8143 L37.1612,-1599.8143 L44.6347,-1599.8143 L44.6347,-1605.7143 L44.6347,-1605.7143 L52.1082,-1605.7143 L52.1082,-1599.8143 L52.1082,-1599.8143 L59.5816,-1599.8143 L59.5816,-1605.7143 L59.5816,-1605.7143 L67.0551,-1605.7143 L67.0551,-1599.8143 L67.0551,-1599.8143 L74.5286,-1599.8143 L74.5286,-1605.7143 L77.4286,-1605.7143 L77.4286,-1599.8143 L84.9020,-1599.8143 L84.9020,-1605.7143 L84.9020,-1605.7143 L92.3755,-1605.7143 L92.3755,-1599.8143 L92.3755,-1599.8143 L99.8490,-1599.8143 L99.8490,-1605.7143 L99.8490,-1605.7143 L107.3224,-1605.7143 L107.3224,-1599.8143 L107.3224,-1599.8143 L114.7959,-1599.8143 L114.7959,-1605.7143 L114.7959,-1605.7143 L122.2694,-1605.7143 L122.2694,-1599.8143 L122.2694,-1599.8143 L129.7429,-1599.8143 L129.7429,-1605.7143 L132.6429,-1605.7143 L132.6429,-1599.8143 L140.1163,-1599.8143 L140.1163,-1605.7143 L140.1163,-1605.7143 L147.5898,-1605.7143 L147.5898,-1599.8143 L147.5898,-1599.8143 L155.0633,-1599.8143 L155.0633,-1605.7143 L155.0633,-1605.7143 L162.5367,-1605.7143 L162.5367,-1599.8143 L162.5367,-1599.8143 L170.0102,-1599.8143 L170.0102,-1605.7143 L170.0102,-1605.7143 L177.4837,-1605.7143 L177.4837,-1599.8143 L177.4837,-1599.8143 L184.9571,-1599.8143 L184.9571,-1605.7143 L187.8571,-1605.7143 L187.8571,-1599.8143 L195.3306,-1599.8143 L195.3306,-1605.7143 L195.3306,-1605.7143 L202.8041,-1605.7143 L202.8041,-1599.8143 L202.8041,-1599.8143 L210.2776,-1599.8143 L210.2776,-1605.7143 L210.2776,-1605.7143 L217.7510,-1605.7143 L217.7510,-1599.8143 L217.7510,-1599.8143 L225.2245,-1599.8143 L225.2245,-1605.7143 L225.2245,-1605.7143 L232.6980,-1605.7143 L232.6980,-1599.8143 L232.6980,-1599.8143 L240.1714,-1599.8143 L240.1714,-1605.7143 L240.1714,-1605.7143 L240.1714,-1723.8143 L240.1714,-1723.8143 L22.2143,-1723.8143 L22.2143,-1723.8143 L22.2143,-1605.7143"></path>
	<path d="M74.5286,-1614.7989 L77.4286,-1614.7989 L77.4286,-1623.8835 L74.5286,-1623.8835 L74.5286,-1614.7989"></path>
	<path d="M74.5286,-1632.9681 L77.4286,-1632.9681 L77.4286,-1642.0527 L74.5286,-1642.0527 L74.5286,-1632.9681"></path>
	<path d="M74.5286,-1651.1374 L77.4286,-1651.1374 L77.4286,-1660.2220 L74.5286,-1660.2220 L74.5286,-1651.1374"></path>
	<path d="M74.5286,-1669.3066 L77.4286,-1669.3066 L77.4286,-1678.3912 L74.5286,-1678.3912 L74.5286,-1669.3066"></path>
	<path d="M74.5286,-1687.4758 L77.4286,-1687.4758 L77.4286,-1696.5604 L74.5286,-1696.5604 L74.5286,-1687.4758"></path>
	<path d="M74.5286,-1705.6451 L77.4286,-1705.6451 L77.4286,-1714.7297 L74.5286,-1714.7297 L74.5286,-1705.6451"></path>
	<path d="M22.2143,-1735.6143 L22.2143,-1729.7143 L29.6878,-1729.7143 L29.6878,-1735.6143 L29.6878,-1735.6143 L37.1612,-1735.6143 L37.1612,-1729.7143 L37.1612,-1729.7143 L44.6347,-1729.7143 L44.6347,-1735.6143 L44.6347,-1735.6143 L52.1082,-1735.6143 L52.1082,-1729.7143 L52.1082,-1729.7143 L59.5816,-1729.7143 L59.5816,-1735.6143 L59.5816,-1735.6143 L67.0551,-1735.6143 L67.0551,-1729.7143 L67.0551,-1729.7143 L74.5286,-1729.7143 L74.5286,-1735.6143 L77.4286,-1735.6143 L77.4286,-1729.7143 L84.9020,-1729.7143 L84.9020,-1735.6143 L84.9020,-1735.6143 L92.3755,-1735.6143 L92.3755,-1729.7143 L92.3755,-1729.7143 L99.8490,-1729.7143 L99.8490,-1735.6143 L99.8490,-1735.6143 L107.3224,-1735.6143 L107.3224,-1729.7143 L107.3224,-1729.7143 L114.7959,-1729.7143 L114.7959,-1735.6143 L114.7959,-1735.6143 L122.2694,-1735.6143 L122.2694,-1729.7143 L122.2694,-1729.7143 L129.7429,-1729.7143 L129.7429,-1735.6143 L132.6429,-1735.6143 L132.6429,-1729.7143 L140.1163,-1729.7143 L140.1163,-1735.6143 L140.1163,-1735.6143 L147.5898,-1735.6143 L147.5898,-1729.7143 L147.5898,-1729.7143 L155.0633,-1729.7143 L155.0633,-1735.6143 L155.0633,-1735.6143 L162.5367,-1735.6143 L162.5367,-1729.7143 L162.5367,-1729.7143 L170.0102,-1729.7143 L170.0102,-1735.6143 L170.0102,-1735.6143 L177.4837,-1735.6143 L177.4837,-1729.7143 L177.4837,-1729.7143 L184.9571,-1729.7143 L184.9571,-1735.6143 L187.8571,-1735.6143 L187.8571,-1729.7143 L195.3306,-1729.7143 L195.3306,-1735.6143 L195.3306,-1735.6143 L202.8041,-1735.6143 L202.8041,-1729.7143 L202.8041,-1729.7143 L210.2776,-1729.7143 L210.2776,-1735.6143 L210.2776,-1735.6143 L217.7510,-1735.6143 L217.7510,-1729.7143 L217.7510,-1729.7143 L225.2245,-1729.7143 L225.2245,-1735.6143 L225.2245,-1735.6143 L232.6980,-1735.6143 L232.6980,-1729.7143 L232.6980,-1729.7143 L240.1714,-1729.7143 L240.1714,-1735.6143 L243.0714,-1735.6143 L243.0714,-1729.7143 L250.5449,-1729.7143 L250.5449,-1735.6143 L250.5449,-1735.6143 L258.0184,-1735.6143 L258.0184,-1729.7143 L258.0184,-1729.7143 L265.4918,-1729.7143 L265.4918,-1735.6143 L265.4918,-1735.6143 L272.9653,-1735.6143 L272.9653,-1729.7143 L272.9653,-1729.7143 L280.4388,-1729.7143 L280.4388,-1735.6143 L280.4388,-1735.6143 L287.9122,-1735.6143 L287.9122,-1729.7143 L287.9122,-1729.7143 L295.3857,-1729.7143 L295.3857,-1735.6143 L298.2857,-1735.6143 L298.2857,-1729.7143 L305.7592,-1729.7143 L305.7592,-1735.6143 L305.7592,-1735.6143 L313.2327,-1735.6143 L313.2327,-1729.7143 L313.2327,-1729.7143 L320.7061,-1729.7143 L320.7061,-1735.6143 L320.7061,-1735.6143 L328.1796,-1735.6143 L328.1796,-1729.7143 L328.1796,-1729.7143 L335.6531,-1729.7143 L335.6531,-1735.6143 L335.6531,-1735.6143 L343.1265,-1735.6143 L343.1265,-1729.7143 L343.1265,-1729.7143 L350.6000,-1729.7143 L350.6000,-1735.6143 L350.6000,-1735.6143 L353.5000,-1735.6143 L353.5000,-1744.6989 L350.6000,-1744.6989 L350.6000,-1744.6989 L350.6000,-1753.7835 L353.5000,-1753.7835 L353.5000,-1753.7835 L353.5000,-1762.8681 L350.6000,-1762.8681 L350.6000,-1762.8681 L350.6000,-1771.9527 L353.5000,-1771.9527 L353.5000,-1771.9527 L353.5000,-1781.0374 L350.6000,-1781.0374 L350.6000,-1781.0374 L350.6000,-1790.1220 L353.5000,-1790.1220 L353.5000,-1790.1220 L353.5000,-1799.2066 L350.6000,-1799.2066 L350.6000,-1799.2066 L350.6000,-1808.2912 L353.5000,-1808.2912 L353.5000,-1808.2912 L353.5000,-1817.3758 L350.6000,-1817.3758 L350.6000,-1817.3758 L350.6000,-1826.4604 L353.5000,-1826.4604 L353.5000,-1826.4604 L353.5000,-1835.5451 L350.6000,-1835.5451 L350.6000,-1835.5451 L350.6000,-1844.6297 L353.5000,-1844.6297 L353.5000,-1844.6297 L353.5000,-1853.7143 L350.6000,-1853.7143 L350.6000,-1853.7143 L22.2143,-1853.7143 L22.2143,-1853.7143 L19.3143,-1853.7143 L19.3143,-1844.6297 L22.2143,-1844.6297 L22.2143,-1844.6297 L22.2143,-1835.5451 L19.3143,-1835.5451 L19.3143,-1835.5451 L19.3143,-1826.4604 L22.2143,-1826.4604 L22.2143,-1826.4604 L22.2143,-1817.3758 L19.3143,-1817.3758 L19.3143,-1817.3758 L19.3143,-1808.2912 L22.2143,-1808.2912 L22.2143,-1808.2912 L22.2143,-1799.2066 L19.3143,-1799.2066 L19.3143,-1799.2066 L19.3143,-1790.1220 L22.2143,-1790.1220 L22.2143,-1790.1220 L22.2143,-1781.0374 L19.3143,-1781.0374 L19.3143,-1781.0374 L19.3143,-1771.9527 L22.2143,-1771.9527 L22.2143,-1771.9527 L22.2143,-1762.8681 L19.3143,-1762.8681 L19.3143,-1762.8681 L19.3143,-1753.7835 L22.2143,-1753.7835 L22.2143,-1753.7835 L22.2143,-1744.6989 L19.3143,-1744.6989 L19.3143,-1744.6989 L19.3143,-1735.6143 L22.2143,-1735.6143"></path>
</g>
</svg>