<?xml version="1.0" encoding="utf-8"?>
<svg xmlns="http://www.w3.org/2000/svg" width="278.9714mm" height="2332.3000mm" viewBox="19.3143 -2373.3143 278.9714 2332.3000">
<g>
	<path d="M22.2143,-46.9143 L22.2143,-41.0143 L29.6878,-41.0143 L29.6878,-46.9143 L29.6878,-46.9143 L37.1612,-46.9143 L37.1612,-41.0143 L37.1612,-41.0143 L44.6347,-41.0143 L44.6347,-46.9143 L44.6347,-46.9143 L52.1082,-46.9143 L52.1082,-41.0143 L52.1082,-41.0143 L59.5816,-41.0143 L59.5816,-46.9143 L59.5816,-46.9143 L67.0551,-46.9143 L67.0551,-41.0143 L67.0551,-41.0143 L74.5286,-41.0143 L74.5286,-46.9143 L77.4286,-46.9143 L77.4286,-41.0143 L84.9020,-41.0143 L84.9020,-46.9143 L84.9020,-46.9143 L92.3755,-46.9143 L92.3755,-41.0143 L92.3755,-41.0143 L99.8490,-41.0143 L99.8490,-46.9143 L99.8490,-46.9143 L107.3224,-46.9143 L107.3224,-41.0143 L107.3224,-41.0143 L114.7959,-41.0143 L114.7959,-46.9143 L114.7959,-46.9143 L122.2694,-46.9143 L122.2694,-41.0143 L122.2694,-41.0143 L129.7429,-41.0143 L129.7429,-46.9143 L132.6429,-46.9143 L132.6429,-41.0143 L140.1163,-41.0143 L140.1163,-46.9143 L140.1163,-46.9143 L147.5898,-46.9143 L147.5898,-41.0143 L147.5898,-41.0143 L155.0633,-41.0143 L155.0633,-46.9143 L155.0633,-46.9143 L162.5367,-46.9143 L162.5367,-41.0143 L162.5367,-41.0143 L170.0102,-41.0143 L170.0102,-46.9143 L170.0102,-46.9143 L177.4837,-46.9143 L177.4837,-41.0143 L177.4837,-41.0143 L184.9571,-41.0143 L184.9571,-46.9143 L187.8571,-46.9143 L187.8571,-41.0143 L195.3306,-41.0143 L195.3306,-46.9143 L195.3306,-46.9143 L202.8041,-46.9143 L202.8041,-41.0143 L202.8041,-41.0143 L210.2776,-41.0143 L210.2776,-46.9143 L210.2776,-46.9143 L217.7510,-46.9143 L217.7510,-41.0143 L217.7510,-41.0143 L225.2245,-41.0143 L225.2245,-46.9143 L225.2245,-46.9143 L232.6980,-46.9143 L232.6980,-41.0143 L232.6980,-41.0143 L240.1714,-41.0143 L240.1714,-46.9143 L243.0714,-46.9143 L243.0714,-41.0143 L250.5449,-41.0143 L250.5449,-46.9143 L250.5449,-46.9143 L258.0184,-46.9143 L258.0184,-41.0143 L258.0184,-41.0143 L265.4918,-41.0143 L265.4918,-46.9143 L265.4918,-46.9143 L272.9653,-46.9143 L272.9653,-41.0143 L272.9653,-41.0143 L280.4388,-41.0143 L280.4388,-46.9143 L280.4388,-46.9143 L287.9122,-46.9143 L287.9122,-41.0143 L287.9122,-41.0143 L295.3857,-41.0143 L295.3857,-46.9143 L295.3857,-46.9143 L295.3857,-55.9989 L298.2857,-55.9989 L298.2857,-55.9989 L298.2857,-65.0835 L295.3857,-65.0835 L295.3857,-65.0835 L295.3857,-74.1681 L298.2857,-74.1681 L298.2857,-74.1681 L298.2857,-83.2527 L295.3857,-83.2527 L295.3857,-83.2527 L295.3857,-92.3374 L298.2857,-92.3374 L298.2857,-92.3374 L298.2857,-101.4220 L295.3857,-101.4220 L295.3857,-101.4220 L295.3857,-110.5066 L298.2857,-110.5066 L298.2857,-110.5066 L298.2857,-119.5912 L295.3857,-119.5912 L295.3857,-119.5912 L295.3857,-128.6758 L298.2857,-128.6758 L298.2857,-128.6758 L298.2857,-137.7604 L295.3857,-137.7604 L295.3857,-137.7604 L295.3857,-146.8451 L298.2857,-146.8451 L298.2857,-146.8451 L298.2857,-155.9297 L295.3857,-155.9297 L295.3857,-155.9297 L295.3857,-165.0143 L295.3857,-165.0143 L22.2143,-165.0143 L22.2143,-165.0143 L22.2143,-155.9297 L19.3143,-155.9297 L19.3143,-155.9297 L19.3143,-146.8451 L22.2143,-146.8451 L22.2143,-146.8451 L22.2143,-137.7604 L19.3143,-137.7604 L19.3143,-137.7604 L19.3143,-128.6758 L22.2143,-128.6758 L22.2143,-128.6758 L22.2143,-119.5912 L19.3143,-119.5912 L19.3143,-119.5912 L19.3143,-110.5066 L22.2143,-110.5066 L22.2143,-110.5066 L22.2143,-101.4220 L19.3143,-101.4220 L19.3143,-101.4220 L19.3143,-92.3374 L22.2143,-92.3374 L22.2143,-92.3374 L22.2143,-83.2527 L19.3143,-83.2527 L19.3143,-83.2527 L19.3143,-74.1681 L22.2143,-74.1681 L22.2143,-74.1681 L22.2143,-65.0835 L19.3143,-65.0835 L19.3143,-65.0835 L19.3143,-55.9989 L22.2143,-55.9989 L22.2143,-55.9989 L22.2143,-46.9143"></path>
	<path d="M184.9571,-65.0835 L187.8571,-65.0835 L187.8571,-74.1681 L184.9571,-74.1681 L184.9571,-65.0835"></path>
	<path d="M184.9571,-83.2527 L187.8571,-83.2527 L187.8571,-92.3374 L184.9571,-92.3374 L184.9571,-83.2527"></path>
	<path d="M184.9571,-101.4220 L187.8571,-101.4220 L187.8571,-110.5066 L184.9571,-110.5066 L184.9571,-101.4220"></path>
	<path d="M184.9571,-119.5912 L187.8571,-119.5912 L187.8571,-128.6758 L184.9571,-128.6758 L184.9571,-119.5912"></path>
	<path d="M184.9571,-137.7604 L187.8571,-137.7604 L187.8571,-146.8451 L184.9571,-146.8451 L184.9571,-137.7604"></path>
	<path d="M22.2143,-176.8143 L22.2143,-170.9143 L29.6878,-170.9143 L29.6878,-176.8143 L29.6878,-176.8143 L37.1612,-176.8143 L37.1612,-170.9143 L37.1612,-170.9143 L44.6347,-170.9143 L44.6347,-176.8143 L44.6347,-176.8143 L52.1082,-176.8143 L52.1082,-170.9143 L52.1082,-170.9143 L59.5816,-170.9143 L59.5816,-176.8143 L59.5816,-176.8143 L67.0551,-176.8143 L67.0551,-170.9143 L67.0551,-170.9143 L74.5286,-170.9143 L74.5286,-176.8143 L74.5286,-176.8143 L74.5286,-185.8989 L77.4286,-185.8989 L77.4286,-185.8989 L77.4286,-194.9835 L74.5286,-194.9835 L74.5286,-194.9835 L74.5286,-204.0681 L77.4286,-204.0681 L77.4286,-204.0681 L77.4286,-213.1527 L74.5286,-213.1527 L74.5286,-213.1527 L74.5286,-222.2374 L77.4286,-222.2374 L77.4286,-222.2374 L77.4286,-231.3220 L74.5286,-231.3220 L74.5286,-231.3220 L74.5286,-240.4066 L77.4286,-240.4066 L77.4286,-240.4066 L77.4286,-249.4912 L74.5286,-249.4912 L74.5286,-249.4912 L74.5286,-258.5758 L77.4286,-258.5758 L77.4286,-258.5758 L77.4286,-267.6604 L74.5286,-267.6604 L74.5286,-267.6604 L74.5286,-276.7451 L77.4286,-276.7451 L77.4286,-276.7451 L77.4286,-285.8297 L74.5286,-285.8297 L74.5286,-285.8297 L74.5286,-294.9143 L74.5286,-294.9143 L22.2143,-294.9143 L22.2143,-294.9143 L22.2143,-285.8297 L19.3143,-285.8297 L19.3143,-285.8297 L19.3143,-276.7451 L22.2143,-276.7451 L22.2143,-276.7451 L22.2143,-267.6604 L19.3143,-267.6604 L19.3143,-267.6604 L19.3143,-258.5758 L22.2143,-258.5758 L22.2143,-258.5758 L22.2143,-249.4912 L19.3143,-249.4912 L19.3143,-249.4912 L19.3143,-240.4066 L22.2143,-240.4066 L22.2143,-240.4066 L22.2143,-231.3220 L19.3143,-231.3220 L19.3143,-231.3220 L19.3143,-222.2374 L22.2143,-222.2374 L22.2143,-222.2374 L22.2143,-213.1527 L19.3143,-213.1527 L19.3143,-213.1527 L19.3143,-204.0681 L22.2143,-204.0681 L22.2143,-204.0681 L22.2143,-194.9835 L19.3143,-194.9835 L19.3143,-194.9835 L19.3143,-185.8989 L22.2143,-185.8989 L22.2143,-185.8989 L22.2143,-176.8143"></path>
	<path d="M22.2143,-306.7143 L22.2143,-300.8143 L29.6878,-300.8143 L29.6878,-306.7143 L29.6878,-306.7143 L37.1612,-306.7143 L37.1612,-300.8143 L37.1612,-300.8143 L44.6347,-300.8143 L44.6347,-306.7143 L44.6347,-306.7143 L52.1082,-306.7143 L52.1082,-300.8143 L52.1082,-300.8143 L59.5816,-300.8143 L59.5816,-306.7143 L59.5816,-306.7143 L67.0551,-306.7143 L67.0551,-300.8143 L67.0551,-300.8143 L74.5286,-300.8143 L74.5286,-306.7143 L74.5286,-306.7143 L74.5286,-315.7989 L77.4286,-315.7989 L77.4286,-315.7989 L77.4286,-324.8835 L74.5286,-324.8835 L74.5286,-324.8835 L74.5286,-333.9681 L77.4286,-333.9681 L77.4286,-333.9681 L77.4286,-343.0527 L74.5286,-343.0527 L74.5286,-343.0527 L74.5286,-352.1374 L77.4286,-352.1374 L77.4286,-352.1374 L77.4286,-361.2220 L74.5286,-361.2220 L74.5286,-361.2220 L74.5286,-370.3066 L77.4286,-370.3066 L77.4286,-370.3066 L77.4286,-379.3912 L74.5286,-379.3912 L74.5286,-379.3912 L74.5286,-388.4758 L77.4286,-388.4758 L77.4286,-388.4758 L77.4286,-397.5604 L74.5286,-397.5604 L74.5286,-397.5604 L74.5286,-406.6451 L77.4286,-406.6451 L77.4286,-406.6451 L77.4286,-415.7297 L74.5286,-415.7297 L74.5286,-415.7297 L74.5286,-424.8143 L74.5286,-424.8143 L22.2143,-424.8143 L22.2143,-424.8143 L22.2143,-306.7143"></path>
	<path d="M22.2143,-436.6143 L22.2143,-430.7143 L29.6878,-430.7143 L29.6878,-436.6143 L29.6878,-436.6143 L37.1612,-436.6143 L37.1612,-430.7143 L37.1612,-430.7143 L44.6347,-430.7143 L44.6347,-436.6143 L44.6347,-436.6143 L52.1082,-436.6143 L52.1082,-430.7143 L52.1082,-430.7143 L59.5816,-430.7143 L59.5816,-436.6143 L59.5816,-436.6143 L67.0551,-436.6143 L67.0551,-430.7143 L67.0551,-430.7143 L74.5286,-430.7143 L74.5286,-436.6143 L77.4286,-436.6143 L77.4286,-430.7143 L84.9020,-430.7143 L84.9020,-436.6143 L84.9020,-436.6143 L92.3755,-436.6143 L92.3755,-430.7143 L92.3755,-430.7143 L99.8490,-430.7143 L99.8490,-436.6143 L99.8490,-436.6143 L107.3224,-436.6143 L107.3224,-430.7143 L107.3224,-430.7143 L114.7959,-430.7143 L114.7959,-436.6143 L114.7959,-436.6143 L122.2694,-436.6143 L122.2694,-430.7143 L122.2694,-430.7143 L129.7429,-430.7143 L129.7429,-436.6143 L129.7429,-436.6143 L129.7429,-445.6989 L132.6429,-445.6989 L132.6429,-445.6989 L132.6429,-454.7835 L129.7429,-454.7835 L129.7429,-454.7835 L129.7429,-463.8681 L132.6429,-463.8681 L132.6429,-463.8681 L132.6429,-472.9527 L129.7429,-472.9527 L129.7429,-472.9527 L129.7429,-482.0374 L132.6429,-482.0374 L132.6429,-482.0374 L132.6429,-491.1220 L129.7429,-491.1220 L129.7429,-491.1220 L129.7429,-500.2066 L132.6429,-500.2066 L132.6429,-500.2066 L132.6429,-509.2912 L129.7429,-509.2912 L129.7429,-509.2912 L129.7429,-518.3758 L132.6429,-518.3758 L132.6429,-518.3758 L132.6429,-527.4604 L129.7429,-527.4604 L129.7429,-527.4604 L129.7429,-536.5451 L132.6429,-536.5451 L132.6429,-536.5451 L132.6429,-545.6297 L129.7429,-545.6297 L129.7429,-545.6297 L129.7429,-554.7143 L129.7429,-554.7143 L22.2143,-554.7143 L22.2143,-554.7143 L22.2143,-545.6297 L19.3143,-545.6297 L19.3143,-545.6297 L19.3143,-536.5451 L22.2143,-536.5451 L22.2143,-536.5451 L22.2143,-527.4604 L19.3143,-527.4604 L19.3143,-527.4604 L19.3143,-518.3758 L22.2143,-518.3758 L22.2143,-518.3758 L22.2143,-509.2912 L19.3143,-509.2912 L19.3143,-509.2912 L19.3143,-500.2066 L22.2143,-500.2066 L22.2143,-500.2066 L22.2143,-491.1220 L19.3143,-491.1220 L19.3143,-491.1220 L19.3143,-482.0374 L22.2143,-482.0374 L22.2143,-482.0374 L22.2143,-472.9527 L19.3143,-472.9527 L19.3143,-472.9527 L19.3143,-463.8681 L22.2143,-463.8681 L22.2143,-463.8681 L22.2143,-454.7835 L19.3143,-454.7835 L19.3143,-454.7835 L19.3143,-445.6989 L22.2143,-445.6989 L22.2143,-445.6989 L22.2143,-436.6143"></path>
	<path d="M22.2143,-566.5143 L22.2143,-560.6143 L29.6878,-560.6143 L29.6878,-566.5143 L29.6878,-566.5143 L37.1612,-566.5143 L37.1612,-560.6143 L37.1612,-560.6143 L44.6347,-560.6143 L44.6347,-566.5143 L44.6347,-566.5143 L52.1082,-566.5143 L52.1082,-560.6143 L52.1082,-560.6143 L59.5816,-560.6143 L59.5816,-566.5143 L59.5816,-566.5143 L67.0551,-566.5143 L67.0551,-560.6143 L67.0551,-560.6143 L74.5286,-560.6143 L74.5286,-566.5143 L74.5286,-566.5143 L74.5286,-684.6143 L74.5286,-684.6143 L22.2143,-684.6143 L22.2143,-684.6143 L22.2143,-675.5297 L19.3143,-675.5297 L19.3143,-675.5297 L19.3143,-666.4451 L22.2143,-666.4451 L22.2143,-666.4451 L22.2143,-657.3604 L19.3143,-657.3604 L19.3143,-657.3604 L19.3143,-648.2758 L22.2143,-648.2758 L22.2143,-648.2758 L22.2143,-639.1912 L19.3143,-639.1912 L19.3143,-639.1912 L19.3143,-630.1066 L22.2143,-630.1066 L22.2143,-630.1066 L22.2143,-621.0220 L19.3143,-621.0220 L19.3143,-621.0220 L19.3143,-611.9374 L22.2143,-611.9374 L22.2143,-611.9374 L22.2143,-602.8527 L19.3143,-602.8527 L19.3143,-602.8527 L19.3143,-593.7681 L22.2143,-593.7681 L22.2143,-593.7681 L22.2143,-584.6835 L19.3143,-584.6835 L19.3143,-584.6835 L19.3143,-575.5989 L22.2143,-575.5989 L22.2143,-575.5989 L22.2143,-566.5143"></path>
	<path d="M22.2143,-696.4143 L22.2143,-690.5143 L29.6878,-690.5143 L29.6878,-696.4143 L29.6878,-696.4143 L37.1612,-696.4143 L37.1612,-690.5143 L37.1612,-690.5143 L44.6347,-690.5143 L44.6347,-696.4143 L44.6347,-696.4143 L52.1082,-696.4143 L52.1082,-690.5143 L52.1082,-690.5143 L59.5816,-690.5143 L59.5816,-696.4143 L59.5816,-696.4143 L67.0551,-696.4143 L67.0551,-690.5143 L67.0551,-690.5143 L74.5286,-690.5143 L74.5286,-696.4143 L77.4286,-696.4143 L77.4286,-690.5143 L84.9020,-690.5143 L84.9020,-696.4143 L84.9020,-696.4143 L92.3755,-696.4143 L92.3755,-690.5143 L92.3755,-690.5143 L99.8490,-690.5143 L99.8490,-696.4143 L99.8490,-696.4143 L107.3224,-696.4143 L107.3224,-690.5143 L107.3224,-690.5143 L114.7959,-690.5143 L114.7959,-696.4143 L114.7959,-696.4143 L122.2694,-696.4143 L122.2694,-690.5143 L122.2694,-690.5143 L129.7429,-690.5143 L129.7429,-696.4143 L129.7429,-696.4143 L129.7429,-705.4989 L132.6429,-705.4989 L132.6429,-705.4989 L132.6429,-714.5835 L129.7429,-714.5835 L129.7429,-714.5835 L129.7429,-723.6681 L132.6429,-723.6681 L132.6429,-723.6681 L132.6429,-732.7527 L129.7429,-732.7527 L129.7429,-732.7527 L129.7429,-741.8374 L132.6429,-741.8374 L132.6429,-741.8374 L132.6429,-750.9220 L129.7429,-750.9220 L129.7429,-750.9220 L129.7429,-760.0066 L132.6429,-760.0066 L132.6429,-760.0066 L132.6429,-769.0912 L129.7429,-769.0912 L129.7429,-769.0912 L129.7429,-778.1758 L132.6429,-778.1758 L132.6429,-778.1758 L132.6429,-787.2604 L129.7429,-787.2604 L129.7429,-787.2604 L129.7429,-796.3451 L132.6429,-796.3451 L132.6429,-796.3451 L132.6429,-805.4297 L129.7429,-805.4297 L129.7429,-805.4297 L129.7429,-814.5143 L129.7429,-814.5143 L22.2143,-814.5143 L22.2143,-814.5143 L22.2143,-805.4297 L19.3143,-805.4297 L19.3143,-805.4297 L19.3143,-796.3451 L22.2143,-796.3451 L22.2143,-796.3451 L22.2143,-787.2604 L19.3143,-787.2604 L19.3143,-787.2604 L19.3143,-778.1758 L22.2143,-778.1758 L22.2143,-778.1758 L22.2143,-769.0912 L19.3143,-769.0912 L19.3143,-769.0912 L19.3143,-760.0066 L22.2143,-760.0066 L22.2143,-760.0066 L22.2143,-750.9220 L19.3143,-750.9220 L19.3143,-750.9220 L19.3143,-741.8374 L22.2143,-741.8374 L22.2143,-741.8374 L22.2143,-732.7527 L19.3143,-732.7527 L19.3143,-732.7527 L19.3143,-723.6681 L22.2143,-723.6681 L22.2143,-723.6681 L22.2143,-714.5835 L19.3143,-714.5835 L19.3143,-714.5835 L19.3143,-705.4989 L22.2143,-705.4989 L22.2143,-705.4989 L22.2143,-696.4143"></path>
	<path d="M22.2143,-826.3143 L22.2143,-820.4143 L29.6878,-820.4143 L29.6878,-826.3143 L29.6878,-826.3143 L37.1612,-826.3143 L37.1612,-820.4143 L37.1612,-820.4143 L44.6347,-820.4143 L44.6347,-826.3143 L44.6347,-826.3143 L52.1082,-826.3143 L52.1082,-820.4143 L52.1082,-820.4143 L59.5816,-820.4143 L59.5816,-826.3143 L59.5816,-826.3143 L67.0551,-826.3143 L67.0551,-820.4143 L67.0551,-820.4143 L74.5286,-820.4143 L74.5286,-826.3143 L77.4286,-826.3143 L77.4286,-820.4143 L84.9020,-820.4143 L84.9020,-826.3143 L84.9020,-826.3143 L92.3755,-826.3143 L92.3755,-820.4143 L92.3755,-820.4143 L99.8490,-820.4143 L99.8490,-826.3143 L99.8490,-826.3143 L107.3224,-826.3143 L107.3224,-820.4143 L107.3224,-820.4143 L114.7959,-820.4143 L114.7959,-826.3143 L114.7959,-826.3143 L122.2694,-826.3143 L122.2694,-820.4143 L122.2694,-820.4143 L129.7429,-820.4143 L129.7429,-826.3143 L129.7429,-826.3143 L129.7429,-944.4143 L129.7429,-944.4143 L22.2143,-944.4143 L22.2143,-944.4143 L22.2143,-935.3297 L19.3143,-935.3297 L19.3143,-935.3297 L19.3143,-926.2451 L22.2143,-926.2451 L22.2143,-926.2451 L22.2143,-917.1604 L19.3143,-917.1604 L19.3143,-917.1604 L19.3143,-908.0758 L22.2143,-908.0758 L22.2143,-908.0758 L22.2143,-898.9912 L19.3143,-898.9912 L19.3143,-898.9912 L19.3143,-889.9066 L22.2143,-889.9066 L22.2143,-889.9066 L22.2143,-880.8220 L19.3143,-880.8220 L19.3143,-880.8220 L19.3143,-871.7374 L22.2143,-871.7374 L22.2143,-871.7374 L22.2143,-862.6527 L19.3143,-862.6527 L19.3143,-862.6527 L19.3143,-853.5681 L22.2143,-853.5681 L22.2143,-853.5681 L22.2143,-844.4835 L19.3143,-844.4835 L19.3143,-844.4835 L19.3143,-835.3989 L22.2143,-835.3989 L22.2143,-835.3989 L22.2143,-826.3143"></path>
	<path d="M22.2143,-956.2143 L22.2143,-950.3143 L29.6878,-950.3143 L29.6878,-956.2143 L29.6878,-956.2143 L37.1612,-956.2143 L37.1612,-950.3143 L37.1612,-950.3143 L44.6347,-950.3143 L44.6347,-956.2143 L44.6347,-956.2143 L52.1082,-956.2143 L52.1082,-950.3143 L52.1082,-950.3143 L59.5816,-950.3143 L59.5816,-956.2143 L59.5816,-956.2143 L67.0551,-956.2143 L67.0551,-950.3143 L67.0551,-950.3143 L74.5286,-950.3143 L74.5286,-956.2143 L77.4286,-956.2143 L77.4286,-950.3143 L84.9020,-950.3143 L84.9020,-956.2143 L84.9020,-956.2143 L92.3755,-956.2143 L92.3755,-950.3143 L92.3755,-950.3143 L99.8490,-950.3143 L99.8490,-956.2143 L99.8490,-956.2143 L107.3224,-956.2143 L107.3224,-950.3143 L107.3224,-950.3143 L114.7959,-950.3143 L114.7959,-956.2143 L114.7959,-956.2143 L122.2694,-956.2143 L122.2694,-950.3143 L122.2694,-950.3143 L129.7429,-950.3143 L129.7429,-956.2143 L132.6429,-956.2143 L132.6429,-950.3143 L140.1163,-950.3143 L140.1163,-956.2143 L140.1163,-956.2143 L147.5898,-956.2143 L147.5898,-950.3143 L147.5898,-950.3143 L155.0633,-950.3143 L155.0633,-956.2143 L155.0633,-956.2143 L162.5367,-956.2143 L162.5367,-950.3143 L162.5367,-950.3143 L170.0102,-950.3143 L170.0102,-956.2143 L170.0102,-956.2143 L177.4837,-956.2143 L177.4837,-950.3143 L177.4837,-950.3143 L184.9571,-950.3143 L184.9571,-956.2143 L187.8571,-956.2143 L187.8571,-950.3143 L195.3306,-950.3143 L195.3306,-956.2143 L195.3306,-956.2143 L202.8041,-956.2143 L202.8041,-950.3143 L202.8041,-950.3143 L210.2776,-950.3143 L210.2776,-956.2143 L210.2776,-956.2143 L217.7510,-956.2143 L217.7510,-950.3143 L217.7510,-950.3143 L225.2245,-950.3143 L225.2245,-956.2143 L225.2245,-956.2143 L232.6980,-956.2143 L232.6980,-950.3143 L232.6980,-950.3143 L240.1714,-950.3143 L240.1714,-956.2143 L243.0714,-956.2143 L243.0714,-950.3143 L250.5449,-950.3143 L250.5449,-956.2143 L250.5449,-956.2143 L258.0184,-956.2143 L258.0184,-950.3143 L258.0184,-950.3143 L265.4918,-950.3143 L265.4918,-956.2143 L265.4918,-956.2143 L272.9653,-956.2143 L272.9653,-950.3143 L272.9653,-950.3143 L280.4388,-950.3143 L280.4388,-956.2143 L280.4388,-956.2143 L287.9122,-956.2143 L287.9122,-950.3143 L287.9122,-950.3143 L295.3857,-950.3143 L295.3857,-956.2143 L295.3857,-956.2143 L295.3857,-965.2989 L298.2857,-965.2989 L298.2857,-965.2989 L298.2857,-974.3835 L295.3857,-974.3835 L295.3857,-974.3835 L295.3857,-983.4681 L298.2857,-983.4681 L298.2857,-983.4681 L298.2857,-992.5527 L295.3857,-992.5527 L295.3857,-992.5527 L295.3857,-1001.6374 L298.2857,-1001.6374 L298.2857,-1001.6374 L298.2857,-1010.7220 L295.3857,-1010.7220 L295.3857,-1010.7220 L295.3857,-1019.8066 L298.2857,-1019.8066 L298.2857,-1019.8066 L298.2857,-1028.8912 L295.3857,-1028.8912 L295.3857,-1028.8912 L295.3857,-1037.9758 L298.2857,-1037.9758 L298.2857,-1037.9758 L298.2857,-1047.0604 L295.3857,-1047.0604 L295.3857,-1047.0604 L295.3857,-1056.1451 L298.2857,-1056.1451 L298.2857,-1056.1451 L298.2857,-1065.2297 L295.3857,-1065.2297 L295.3857,-1065.2297 L295.3857,-1074.3143 L295.3857,-1074.3143 L22.2143,-1074.3143 L22.2143,-1074.3143 L22.2143,-956.2143"></path>
	<path d="M74.5286,-974.3835 L77.4286,-974.3835 L77.4286,-983.4681 L74.5286,-983.4681 L74.5286,-974.3835"></path>
	<path d="M74.5286,-992.5527 L77.4286,-992.5527 L77.4286,-1001.6374 L74.5286,-1001.6374 L74.5286,-992.5527"></path>
	<path d="M74.5286,-1010.7220 L77.4286,-1010.7220 L77.4286,-1019.8066 L74.5286,-1019.8066 L74.5286,-1010.7220"></path>
	<path d="M74.5286,-1028.8912 L77.4286,-1028.8912 L77.4286,-1037.9758 L74.5286,-1037.9758 L74.5286,-1028.8912"></path>
	<path d="M74.5286,-1047.0604 L77.4286,-1047.0604 L77.4286,-1056.1451 L74.5286,-1056.1451 L74.5286,-1047.0604"></path>
	<path d="M22.2143,-1086.1143 L22.2143,-1080.2143 L29.6878,-1080.2143 L29.6878,-1086.1143 L29.6878,-1086.1143 L37.1612,-1086.1143 L37.1612,-1080.2143 L37.1612,-1080.2143 L44.6347,-1080.2143 L44.6347,-1086.1143 L44.6347,-1086.1143 L52.1082,-1086.1143 L52.1082,-1080.2143 L52.1082,-1080.2143 L59.5816,-1080.2143 L59.5816,-1086.1143 L59.5816,-1086.1143 L67.0551,-1086.1143 L67.0551,-1080.2143 L67.0551,-1080.2143 L74.5286,-1080.2143 L74.5286,-1086.1143 L77.4286,-1086.1143 L77.4286,-1080.2143 L84.9020,-1080.2143 L84.9020,-1086.1143 L84.9020,-1086.1143 L92.3755,-1086.1143 L92.3755,-1080.2143 L92.3755,-1080.2143 L99.8490,-1080.2143 L99.8490,-1086.1143 L99.8490,-1086.1143 L107.3224,-1086.1143 L107.3224,-1080.2143 L107.3224,-1080.2143 L114.7959,-1080.2143 L114.7959,-1086.1143 L114.7959,-1086.1143 L122.2694,-1086.1143 L122.2694,-1080.2143 L122.2694,-1080.2143 L129.7429,-1080.2143 L129.7429,-1086.1143 L132.6429,-1086.1143 L132.6429,-1080.2143 L140.1163,-1080.2143 L140.1163,-1086.1143 L140.1163,-1086.1143 L147.5898,-1086.1143 L147.5898,-1080.2143 L147.5898,-1080.2143 L155.0633,-1080.2143 L155.0633,-1086.1143 L155.0633,-1086.1143 L162.5367,-1086.1143 L162.5367,-1080.2143 L162.5367,-1080.2143 L170.0102,-1080.2143 L170.0102,-1086.1143 L170.0102,-1086.1143 L177.4837,-1086.1143 L177.4837,-1080.2143 L177.4837,-1080.2143 L184.9571,-1080.2143 L184.9571,-1086.1143 L184.9571,-1086.1143 L187.8571,-1086.1143 L187.8571,-1095.1989 L184.9571,-1095.1989 L184.9571,-1095.1989 L184.9571,-1104.2835 L187.8571,-1104.2835 L187.8571,-1104.2835 L187.8571,-1113.3681 L184.9571,-1113.3681 L184.9571,-1113.3681 L184.9571,-1122.4527 L187.8571,-1122.4527 L187.8571,-1122.4527 L187.8571,-1131.5374 L184.9571,-1131.5374 L184.9571,-1131.5374 L184.9571,-1140.6220 L187.8571,-1140.6220 L187.8571,-1140.6220 L187.8571,-1149.7066 L184.9571,-1149.7066 L184.9571,-1149.7066 L184.9571,-1158.7912 L187.8571,-1158.7912 L187.8571,-1158.7912 L187.8571,-1167.8758 L184.9571,-1167.8758 L184.9571,-1167.8758 L184.9571,-1176.9604 L187.8571,-1176.9604 L187.8571,-1176.9604 L187.8571,-1186.0451 L184.9571,-1186.0451 L184.9571,-1186.0451 L184.9571,-1195.1297 L187.8571,-1195.1297 L187.8571,-1195.1297 L187.8571,-1204.2143 L184.9571,-1204.2143 L184.9571,-1204.2143 L22.2143,-1204.2143 L22.2143,-1204.2143 L19.3143,-1204.2143 L19.3143,-1195.1297 L22.2143,-1195.1297 L22.2143,-1195.1297 L22.2143,-1186.0451 L19.3143,-1186.0451 L19.3143,-1186.0451 L19.3143,-1176.9604 L22.2143,-1176.9604 L22.2143,-1176.9604 L22.2143,-1167.8758 L19.3143,-1167.8758 L19.3143,-1167.8758 L19.3143,-1158.7912 L22.2143,-1158.7912 L22.2143,-1158.7912 L22.2143,-1149.7066 L19.3143,-1149.7066 L19.3143,-1149.7066 L19.3143,-1140.6220 L22.2143,-1140.6220 L22.2143,-1140.6220 L22.2143,-1131.5374 L19.3143,-1131.5374 L19.3143,-1131.5374 L19.3143,-1122.4527 L22.2143,-1122.4527 L22.2143,-1122.4527 L22.2143,-1113.3681 L19.3143,-1113.3681 L19.3143,-1113.3681 L19.3143,-1104.2835 L22.2143,-1104.2835 L22.2143,-1104.2835 L22.2143,-1095.1989 L19.3143,-1095.1989 L19.3143,-1095.1989 L19.3143,-1086.1143 L22.2143,-1086.1143"></path>
	<path d="M22.2143,-1216.0143 L22.2143,-1210.1143 L29.6878,-1210.1143 L29.6878,-1216.0143 L29.6878,-1216.0143 L37.1612,-1216.0143 L37.1612,-1210.1143 L37.1612,-1210.1143 L44.6347,-1210.1143 L44.6347,-1216.0143 L44.6347,-1216.0143 L52.1082,-1216.0143 L52.1082,-1210.1143 L52.1082,-1210.1143 L59.5816,-1210.1143 L59.5816,-1216.0143 L59.5816,-1216.0143 L67.0551,-1216.0143 L67.0551,-1210.1143 L67.0551,-1210.1143 L74.5286,-1210.1143 L74.5286,-1216.0143 L77.4286,-1216.0143 L77.4286,-1210.1143 L84.9020,-1210.1143 L84.9020,-1216.0143 L84.9020,-1216.0143 L92.3755,-1216.0143 L92.3755,-1210.1143 L92.3755,-1210.1143 L99.8490,-1210.1143 L99.8490,-1216.0143 L99.8490,-1216.0143 L107.3224,-1216.0143 L107.3224,-1210.1143 L107.3224,-1210.1143 L114.7959,-1210.1143 L114.7959,-1216.0143 L114.7959,-1216.0143 L122.2694,-1216.0143 L122.2694,-1210.1143 L122.2694,-1210.1143 L129.7429,-1210.1143 L129.7429,-1216.0143 L129.7429,-1216.0143 L129.7429,-1334.1143 L129.7429,-1334.1143 L22.2143,-1334.1143 L22.2143,-1334.1143 L19.3143,-1334.1143 L19.3143,-1325.0297 L22.2143,-1325.0297 L22.2143,-1325.0297 L22.2143,-1315.9451 L19.3143,-1315.9451 L19.3143,-1315.9451 L19.3143,-1306.8604 L22.2143,-1306.8604 L22.2143,-1306.8604 L22.2143,-1297.7758 L19.3143,-1297.7758 L19.3143,-1297.7758 L19.3143,-1288.6912 L22.2143,-1288.6912 L22.2143,-1288.6912 L22.2143,-1279.6066 L19.3143,-1279.6066 L19.3143,-1279.6066 L19.3143,-1270.5220 L22.2143,-1270.5220 L22.2143,-1270.5220 L22.2143,-1261.4374 L19.3143,-1261.4374 L19.3143,-1261.4374 L19.3143,-1252.3527 L22.2143,-1252.3527 L22.2143,-1252.3527 L22.2143,-1243.2681 L19.3143,-1243.2681 L19.3143,-1243.2681 L19.3143,-1234.1835 L22.2143,-1234.1835 L22.2143,-1234.1835 L22.2143,-1225.0989 L19.3143,-1225.0989 L19.3143,-1225.0989 L19.3143,-1216.0143 L22.2143,-1216.0143"></path>
	<path d="M22.2143,-1345.9143 L22.2143,-1340.0143 L29.6878,-1340.0143 L29.6878,-1345.9143 L29.6878,-1345.9143 L37.1612,-1345.9143 L37.1612,-1340.0143 L37.1612,-1340.0143 L44.6347,-1340.0143 L44.6347,-1345.9143 L44.6347,-1345.9143 L52.1082,-1345.9143 L52.1082,-1340.0143 L52.1082,-1340.0143 L59.5816,-1340.0143 L59.5816,-1345.9143 L59.5816,-1345.9143 L67.0551,-1345.9143 L67.0551,-1340.0143 L67.0551,-1340.0143 L74.5286,-1340.0143 L74.5286,-1345.9143 L77.4286,-1345.9143 L77.4286,-1340.0143 L84.9020,-1340.0143 L84.9020,-1345.9143 L84.9020,-1345.9143 L92.3755,-1345.9143 L92.3755,-1340.0143 L92.3755,-1340.0143 L99.8490,-1340.0143 L99.8490,-1345.9143 L99.8490,-1345.9143 L107.3224,-1345.9143 L107.3224,-1340.0143 L107.3224,-1340.0143 L114.7959,-1340.0143 L114.7959,-1345.9143 L114.7959,-1345.9143 L122.2694,-1345.9143 L122.2694,-1340.0143 L122.2694,-1340.0143 L129.7429,-1340.0143 L129.7429,-1345.9143 L129.7429,-1345.9143 L132.6429,-1345.9143 L132.6429,-1354.9989 L129.7429,-1354.9989 L129.7429,-1354.9989 L129.7429,-1364.0835 L132.6429,-1364.0835 L132.6429,-1364.0835 L132.6429,-1373.1681 L129.7429,-1373.1681 L129.7429,-1373.1681 L129.7429,-1382.2527 L132.6429,-1382.2527 L132.6429,-1382.2527 L132.6429,-1391.3374 L129.7429,-1391.3374 L129.7429,-1391.3374 L129.7429,-1400.4220 L132.6429,-1400.4220 L132.6429,-1400.4220 L132.6429,-1409.5066 L129.7429,-1409.5066 L129.7429,-1409.5066 L129.7429,-1418.5912 L132.6429,-1418.5912 L132.6429,-1418.5912 L132.6429,-1427.6758 L129.7429,-1427.6758 L129.7429,-1427.6758 L129.7429,-1436.7604 L132.6429,-1436.7604 L132.6429,-1436.7604 L132.6429,-1445.8451 L129.7429,-1445.8451 L129.7429,-1445.8451 L129.7429,-1454.9297 L132.6429,-1454.9297 L132.6429,-1454.9297 L132.6429,-1464.0143 L129.7429,-1464.0143 L129.7429,-1464.0143 L22.2143,-1464.0143 L22.2143,-1464.0143 L22.2143,-1345.9143"></path>
	<path d="M22.2143,-1475.8143 L22.2143,-1469.9143 L29.6878,-1469.9143 L29.6878,-1475.8143 L29.6878,-1475.8143 L37.1612,-1475.8143 L37.1612,-1469.9143 L37.1612,-1469.9143 L44.6347,-1469.9143 L44.6347,-1475.8143 L44.6347,-1475.8143 L52.1082,-1475.8143 L52.1082,-1469.9143 L52.1082,-1469.9143 L59.5816,-1469.9143 L59.5816,-1475.8143 L59.5816,-1475.8143 L67.0551,-1475.8143 L67.0551,-1469.9143 L67.0551,-1469.9143 L74.5286,-1469.9143 L74.5286,-1475.8143 L77.4286,-1475.8143 L77.4286,-1469.9143 L84.9020,-1469.9143 L84.9020,-1475.8143 L84.9020,-1475.8143 L92.3755,-1475.8143 L92.3755,-1469.9143 L92.3755,-1469.9143 L99.8490,-1469.9143 L99.8490,-1475.8143 L99.8490,-1475.8143 L107.3224,-1475.8143 L107.3224,-1469.9143 L107.3224,-1469.9143 L114.7959,-1469.9143 L114.7959,-1475.8143 L114.7959,-1475.8143 L122.2694,-1475.8143 L122.2694,-1469.9143 L122.2694,-1469.9143 L129.7429,-1469.9143 L129.7429,-1475.8143 L129.7429,-1475.8143 L129.7429,-1484.8989 L129.7429,-1493.9835 L132.6429,-1493.9835 L132.6429,-1493.9835 L132.6429,-1503.0681 L129.7429,-1503.0681 L129.7429,-1503.0681 L129.7429,-1512.1527 L132.6429,-1512.1527 L132.6429,-1512.1527 L132.6429,-1521.2374 L129.7429,-1521.2374 L129.7429,-1521.2374 L129.7429,-1530.3220 L132.6429,-1530.3220 L132.6429,-1530.3220 L132.6429,-1539.4066 L129.7429,-1539.4066 L129.7429,-1539.4066 L129.7429,-1548.4912 L132.6429,-1548.4912 L132.6429,-1548.4912 L132.6429,-1557.5758 L129.7429,-1557.5758 L129.7429,-1557.5758 L129.7429,-1566.6604 L132.6429,-1566.6604 L132.6429,-1566.6604 L132.6429,-1575.7451 L129.7429,-1575.7451 L129.7429,-1575.7451 L129.7429,-1584.8297 L129.7429,-1593.9143 L129.7429,-1593.9143 L22.2143,-1593.9143 L22.2143,-1593.9143 L22.2143,-1475.8143"></path>
	<path d="M22.2143,-1605.7143 L22.2143,-1599.8143 L29.6878,-1599.8143 L29.6878,-1605.7143 L29.6878,-1605.7143 L37.1612,-1605.7143 L37.1612,-1599.8143 L37.1612,-1599.8143 L44.6347,-1599.8143 L44.6347,-1605.7143 L44.6347,-1605.7143 L52.1082,-1605.7143 L52.1082,-1599.8143 L52.1082,-1599.8143 L59.5816,-1599.8143 L59.5816,-1605.7143 L59.5816,-1605.7143 L67.0551,-1605.7143 L67.0551,-1599.8143 L67.0551,-1599.8143 L74.5286,-1599.8143 L74.5286,-1605.7143 L77.4286,-1605.7143 L77.4286,-1599.8143 L84.9020,-1599.8143 L84.9020,-1605.7143 L84.9020,-1605.7143 L92.3755,-1605.7143 L92.3755,-1599.8143 L92.3755,-1599.8143 L99.8490,-1599.8143 L99.8490,-1605.7143 L99.8490,-1605.7143 L107.3224,-1605.7143 L107.3224,-1599.8143 L107.3224,-1599.8143 L114.7959,-1599.8143 L114.7959,-1605.7143 L114.7959,-1605.7143 L122.2694,-1605.7143 L122.2694,-1599.8143 L122.2694,-1599.8143 L129.7429,-1599.8143 L129.7429,-1605.7143 L132.6429,-1605.7143 L132.6429,-1599.8143 L140.1163,-1599.8143 L140.1163,-1605.7143 L140.1163,-1605.7143 L147.5898,-1605.7143 L147.5898,-1599.8143 L147.5898,-1599.8143 L155.0633,-1599.8143 L155.0633,-1605.7143 L155.0633,-1605.7143 L162.5367,-1605.7143 L162.5367,-1599.8143 L162.5367,-1599.8143 L170.0102,-1599.8143 L170.0102,-1605.7143 L170.0102,-1605.7143 L177.4837,-1605.7143 L177.4837,-1599.8143 L177.4837,-1599.8143 L184.9571,-1599.8143 L184.9571,-1605.7143 L187.8571,-1605.7143 L187.8571,-1599.8143 L195.3306,-1599.8143 L195.3306,-1605.7143 L195.3306,-1605.7143 L202.8041,-1605.7143 L202.8041,-1599.8143 L202.8041,-1599.8143 L210.2776,-1599.8143 L210.2776,-1605.7143 L210.2776,-1605.7143 L217.7510,-1605.7143 L217.7510,-1599.8143 L217.7510,-1599.8143 L225.2245,-1599.8143 L225.2245,-1605.7143 L225.2245,-1605.7143 L232.6980,-1605.7143 L232.6980,-1599.8143 L232.6980,-1599.8143 L240.1714,-1599.8143 L240.1714,-1605.7143 L243.0714,-1605.7143 L243.0714,-1599.8143 L250.5449,-1599.8143 L250.5449,-1605.7143 L250.5449,-1605.7143 L258.0184,-1605.7143 L258.0184,-1599.8143 L258.0184,-1599.8143 L265.4918,-1599.8143 L265.4918,-1605.7143 L265.4918,-1605.7143 L272.9653,-1605.7143 L272.9653,-1599.8143 L272.9653,-1599.8143 L280.4388,-1599.8143 L280.4388,-1605.7143 L280.4388,-1605.7143 L287.9122,-1605.7143 L287.9122,-1599.8143 L287.9122,-1599.8143 L295.3857,-1599.8143 L295.3857,-1605.7143 L295.3857,-1605.7143 L298.2857,-1605.7143 L298.2857,-1614.7989 L295.3857,-1614.7989 L295.3857,-1614.7989 L295.3857,-1623.8835 L298.2857,-1623.8835 L298.2857,-1623.8835 L298.2857,-1632.9681 L295.3857,-1632.9681 L295.3857,-1632.9681 L295.3857,-1642.0527 L298.2857,-1642.0527 L298.2857,-1642.0527 L298.2857,-1651.1374 L295.3857,-1651.1374 L295.3857,-1651.1374 L295.3857,-1660.2220 L298.2857,-1660.2220 L298.2857,-1660.2220 L298.2857,-1669.3066 L295.3857,-1669.3066 L295.3857,-1669.3066 L295.3857,-1678.3912 L298.2857,-1678.3912 L298.2857,-1678.3912 L298.2857,-1687.4758 L295.3857,-1687.4758 L295.3857,-1687.4758 L295.3857,-1696.5604 L298.2857,-1696.5604 L298.2857,-1696.5604 L298.2857,-1705.6451 L295.3857,-1705.6451 L295.3857,-1705.6451 L295.3857,-1714.7297 L298.2857,-1714.7297 L298.2857,-1714.7297 L298.2857,-1723.8143 L295.3857,-1723.8143 L295.3857,-1723.8143 L22.2143,-1723.8143 L22.2143,-1723.8143 L22.2143,-1605.7143"></path>
	<path d="M184.9571,-1614.7989 L187.8571,-1614.7989 L187.8571,-1623.8835 L184.9571,-1623.8835 L184.9571,-1614.7989"></path>
	<path d="M184.9571,-1632.9681 L187.8571,-1632.9681 L187.8571,-1642.0527 L184.9571,-1642.0527 L184.9571,-1632.9681"></path>
	<path d="M184.9571,-1651.1374 L187.8571,-1651.1374 L187.8571,-1660.2220 L184.9571,-1660.2220 L184.9571,-1651.1374"></path>
	<path d="M184.9571,-1669.3066 L187.8571,-1669.3066 L187.8571,-1678.3912 L184.9571,-1678.3912 L184.9571,-1669.3066"></path>
	<path d="M184.9571,-1687.4758 L187.8571,-1687.4758 L187.8571,-1696.5604 L184.9571,-1696.5604 L184.9571,-1687.4758"></path>
	<path d="M184.9571,-1705.6451 L187.8571,-1705.6451 L187.8571,-1714.7297 L184.9571,-1714.7297 L184.9571,-1705.6451"></path>
	<path d="M22.2143,-1735.6143 L22.2143,-1729.7143 L29.6878,-1729.7143 L29.6878,-1735.6143 L29.6878,-1735.6143 L37.1612,-1735.6143 L37.1612,-1729.7143 L37.1612,-1729.7143 L44.6347,-1729.7143 L44.6347,-1735.6143 L44.6347,-1735.6143 L52.1082,-1735.6143 L52.1082,-1729.7143 L52.1082,-1729.7143 L59.5816,-1729.7143 L59.5816,-1735.6143 L59.5816,-1735.6143 L67.0551,-1735.6143 L67.0551,-1729.7143 L67.0551,-1729.7143 L74.5286,-1729.7143 L74.5286,-1735.6143 L77.4286,-1735.6143 L77.4286,-1729.7143 L84.9020,-1729.7143 L84.9020,-1735.6143 L84.9020,-1735.6143 L92.3755,-1735.6143 L92.3755,-1729.7143 L92.3755,-1729.7143 L99.8490,-1729.7143 L99.8490,-1735.6143 L99.8490,-1735.6143 L107.3224,-1735.6143 L107.3224,-1729.7143 L107.3224,-1729.7143 L114.7959,-1729.7143 L114.7959,-1735.6143 L114.7959,-1735.6143 L122.2694,-1735.6143 L122.2694,-1729.7143 L122.2694,-1729.7143 L129.7429,-1729.7143 L129.7429,-1735.6143 L129.7429,-1735.6143 L129.7429,-1853.7143 L129.7429,-1853.7143 L22.2143,-1853.7143 L22.2143,-1853.7143 L22.2143,-1844.6297 L22.2143,-1835.5451 L19.3143,-1835.5451 L19.3143,-1835.5451 L19.3143,-1826.4604 L22.2143,-1826.4604 L22.2143,-1826.4604 L22.2143,-1817.3758 L19.3143,-1817.3758 L19.3143,-1817.3758 L19.3143,-1808.2912 L22.2143,-1808.2912 L22.2143,-1808.2912 L22.2143,-1799.2066 L19.3143,-1799.2066 L19.3143,-1799.2066 L19.3143,-1790.1220 L22.2143,-1790.1220 L22.2143,-1790.1220 L22.2143,-1781.0374 L19.3143,-1781.0374 L19.3143,-1781.0374 L19.3143,-1771.9527 L22.2143,-1771.9527 L22.2143,-1771.9527 L22.2143,-1762.8681 L19.3143,-1762.8681 L19.3143,-1762.8681 L19.3143,-1753.7835 L22.2143,-1753.7835 L22.2143,-1753.7835 L22.2143,-1744.6989 L22.2143,-1735.6143"></path>
	<path d="M22.2143,-1865.5143 L22.2143,-1859.6143 L29.6878,-1859.6143 L29.6878,-1865.5143 L29.6878,-1865.5143 L37.1612,-1865.5143 L37.1612,-1859.6143 L37.1612,-1859.6143 L44.6347,-1859.6143 L44.6347,-1865.5143 L44.6347,-1865.5143 L52.1082,-1865.5143 L52.1082,-1859.6143 L52.1082,-1859.6143 L59.5816,-1859.6143 L59.5816,-1865.5143 L59.5816,-1865.5143 L67.0551,-1865.5143 L67.0551,-1859.6143 L67.0551,-1859.6143 L74.5286,-1859.6143 L74.5286,-1865.5143 L74.5286,-1865.5143 L77.4286,-1865.5143 L77.4286,-1874.5989 L74.5286,-1874.5989 L74.5286,-1874.5989 L74.5286,-1883.6835 L77.4286,-1883.6835 L77.4286,-1883.6835 L77.4286,-1892.7681 L74.5286,-1892.7681 L74.5286,-1892.7681 L74.5286,-1901.8527 L77.4286,-1901.8527 L77.4286,-1901.8527 L77.4286,-1910.9374 L74.5286,-1910.9374 L74.5286,-1910.9374 L74.5286,-1920.0220 L77.4286,-1920.0220 L77.4286,-1920.0220 L77.4286,-1929.1066 L74.5286,-1929.1066 L74.5286,-1929.1066 L74.5286,-1938.1912 L77.4286,-1938.1912 L77.4286,-1938.1912 L77.4286,-1947.2758 L74.5286,-1947.2758 L74.5286,-1947.2758 L74.5286,-1956.3604 L77.4286,-1956.3604 L77.4286,-1956.3604 L77.4286,-1965.4451 L74.5286,-1965.4451 L74.5286,-1965.4451 L74.5286,-1974.5297 L77.4286,-1974.5297 L77.4286,-1974.5297 L77.4286,-1983.6143 L74.5286,-1983.6143 L74.5286,-1983.6143 L22.2143,-1983.6143 L22.2143,-1983.6143 L22.2143,-1865.5143"></path>
	<path d="M22.2143,-1995.4143 L22.2143,-1989.5143 L29.6878,-1989.5143 L29.6878,-1995.4143 L29.6878,-1995.4143 L37.1612,-1995.4143 L37.1612,-1989.5143 L37.1612,-1989.5143 L44.6347,-1989.5143 L44.6347,-1995.4143 L44.6347,-1995.4143 L52.1082,-1995.4143 L52.1082,-1989.5143 L52.1082,-1989.5143 L59.5816,-1989.5143 L59.5816,-1995.4143 L59.5816,-1995.4143 L67.0551,-1995.4143 L67.0551,-1989.5143 L67.0551,-1989.5143 L74.5286,-1989.5143 L74.5286,-1995.4143 L77.4286,-1995.4143 L77.4286,-1989.5143 L84.9020,-1989.5143 L84.9020,-1995.4143 L84.9020,-1995.4143 L92.3755,-1995.4143 L92.3755,-1989.5143 L92.3755,-1989.5143 L99.8490,-1989.5143 L99.8490,-1995.4143 L99.8490,-1995.4143 L107.3224,-1995.4143 L107.3224,-1989.5143 L107.3224,-1989.5143 L114.7959,-1989.5143 L114.7959,-1995.4143 L114.7959,-1995.4143 L122.2694,-1995.4143 L122.2694,-1989.5143 L122.2694,-1989.5143 L129.7429,-1989.5143 L129.7429,-1995.4143 L132.6429,-1995.4143 L132.6429,-1989.5143 L140.1163,-1989.5143 L140.1163,-1995.4143 L140.1163,-1995.4143 L147.5898,-1995.4143 L147.5898,-1989.5143 L147.5898,-1989.5143 L155.0633,-1989.5143 L155.0633,-1995.4143 L155.0633,-1995.4143 L162.5367,-1995.4143 L162.5367,-1989.5143 L162.5367,-1989.5143 L170.0102,-1989.5143 L170.0102,-1995.4143 L170.0102,-1995.4143 L177.4837,-1995.4143 L177.4837,-1989.5143 L177.4837,-1989.5143 L184.9571,-1989.5143 L184.9571,-1995.4143 L184.9571,-1995.4143 L187.8571,-1995.4143 L187.8571,-2004.4989 L184.9571,-2004.4989 L184.9571,-2004.4989 L184.9571,-2013.5835 L187.8571,-2013.5835 L187.8571,-2013.5835 L187.8571,-2022.6681 L184.9571,-2022.6681 L184.9571,-2022.6681 L184.9571,-2031.7527 L187.8571,-2031.7527 L187.8571,-2031.7527 L187.8571,-2040.8374 L184.9571,-2040.8374 L184.9571,-2040.8374 L184.9571,-2049.9220 L187.8571,-2049.9220 L187.8571,-2049.9220 L187.8571,-2059.0066 L184.9571,-2059.0066 L184.9571,-2059.0066 L184.9571,-2068.0912 L187.8571,-2068.0912 L187.8571,-2068.0912 L187.8571,-2077.1758 L184.9571,-2077.1758 L184.9571,-2077.1758 L184.9571,-2086.2604 L187.8571,-2086.2604 L187.8571,-2086.2604 L187.8571,-2095.3451 L184.9571,-2095.3451 L184.9571,-2095.3451 L184.9571,-2104.4297 L187.8571,-2104.4297 L187.8571,-2104.4297 L187.8571,-2113.5143 L184.9571,-2113.5143 L184.9571,-2113.5143 L22.2143,-2113.5143 L22.2143,-2113.5143 L22.2143,-1995.4143"></path>
	<path d="M129.7429,-2004.4989 L132.6429,-2004.4989 L132.6429,-2013.5835 L129.7429,-2013.5835 L129.7429,-2004.4989"></path>
	<path d="M129.7429,-2022.6681 L132.6429,-2022.6681 L132.6429,-2031.7527 L129.7429,-2031.7527 L129.7429,-2022.6681"></path>
	<path d="M129.7429,-2040.8374 L132.6429,-2040.8374 L132.6429,-2049.9220 L129.7429,-2049.9220 L129.7429,-2040.8374"></path>
	<path d="M129.7429,-2059.0066 L132.6429,-2059.0066 L132.6429,-2068.0912 L129.7429,-2068.0912 L129.7429,-2059.0066"></path>
	<path d="M129.7429,-2077.1758 L132.6429,-2077.1758 L132.6429,-2086.2604 L129.7429,-2086.2604 L129.7429,-2077.1758"></path>
	<path d="M129.7429,-2095.3451 L132.6429,-2095.3451 L132.6429,-2104.4297 L129.7429,-2104.4297 L129.7429,-2095.3451"></path>
	<path d="M22.2143,-2125.3143 L22.2143,-2119.4143 L29.6878,-2119.4143 L29.6878,-2125.3143 L29.6878,-2125.3143 L37.1612,-2125.3143 L37.1612,-2119.4143 L37.1612,-2119.4143 L44.6347,-2119.4143 L44.6347,-2125.3143 L44.6347,-2125.3143 L52.1082,-2125.3143 L52.1082,-2119.4143 L52.1082,-2119.4143 L59.5816,-2119.4143 L59.5816,-2125.3143 L59.5816,-2125.3143 L67.0551,-2125.3143 L67.0551,-2119.4143 L67.0551,-2119.4143 L74.5286,-2119.4143 L74.5286,-2125.3143 L77.4286,-2125.3143 L77.4286,-2119.4143 L84.9020,-2119.4143 L84.9020,-2125.3143 L84.9020,-2125.3143 L92.3755,-2125.3143 L92.3755,-2119.4143 L92.3755,-2119.4143 L99.8490,-2119.4143 L99.8490,-2125.3143 L99.8490,-2125.3143 L107.3224,-2125.3143 L107.3224,-2119.4143 L107.3224,-2119.4143 L114.7959,-2119.4143 L114.7959,-2125.3143 L114.7959,-2125.3143 L122.2694,-2125.3143 L122.2694,-2119.4143 L122.2694,-2119.4143 L129.7429,-2119.4143 L129.7429,-2125.3143 L132.6429,-2125.3143 L132.6429,-2119.4143 L140.1163,-2119.4143 L140.1163,-2125.3143 L140.1163,-2125.3143 L147.5898,-2125.3143 L147.5898,-2119.4143 L147.5898,-2119.4143 L155.0633,-2119.4143 L155.0633,-2125.3143 L155.0633,-2125.3143 L162.5367,-2125.3143 L162.5367,-2119.4143 L162.5367,-2119.4143 L170.0102,-2119.4143 L170.0102,-2125.3143 L170.0102,-2125.3143 L177.4837,-2125.3143 L177.4837,-2119.4143 L177.4837,-2119.4143 L184.9571,-2119.4143 L184.9571,-2125.3143 L184.9571,-2125.3143 L184.9571,-2243.4143 L184.9571,-2243.4143 L22.2143,-2243.4143 L22.2143,-2243.4143 L19.3143,-2243.4143 L19.3143,-2234.3297 L22.2143,-2234.3297 L22.2143,-2234.3297 L22.2143,-2225.2451 L19.3143,-2225.2451 L19.3143,-2225.2451 L19.3143,-2216.1604 L22.2143,-2216.1604 L22.2143,-2216.1604 L22.2143,-2207.0758 L19.3143,-2207.0758 L19.3143,-2207.0758 L19.3143,-2197.9912 L22.2143,-2197.9912 L22.2143,-2197.9912 L22.2143,-2188.9066 L19.3143,-2188.9066 L19.3143,-2188.9066 L19.3143,-2179.8220 L22.2143,-2179.8220 L22.2143,-2179.8220 L22.2143,-2170.7374 L19.3143,-2170.7374 L19.3143,-2170.7374 L19.3143,-2161.6527 L22.2143,-2161.6527 L22.2143,-2161.6527 L22.2143,-2152.5681 L19.3143,-2152.5681 L19.3143,-2152.5681 L19.3143,-2143.4835 L22.2143,-2143.4835 L22.2143,-2143.4835 L22.2143,-2134.3989 L19.3143,-2134.3989 L19.3143,-2134.3989 L19.3143,-2125.3143 L22.2143,-2125.3143"></path>
	<path d="M22.2143,-2255.2143 L22.2143,-2249.3143 L29.6878,-2249.3143 L29.6878,-2255.2143 L29.6878,-2255.2143 L37.1612,-2255.2143 L37.1612,-2249.3143 L37.1612,-2249.3143 L44.6347,-2249.3143 L44.6347,-2255.2143 L44.6347,-2255.2143 L52.1082,-2255.2143 L52.1082,-2249.3143 L52.1082,-2249.3143 L59.5816,-2249.3143 L59.5816,-2255.2143 L59.5816,-2255.2143 L67.0551,-2255.2143 L67.0551,-2249.3143 L67.0551,-2249.3143 L74.5286,-2249.3143 L74.5286,-2255.2143 L77.4286,-2255.2143 L77.4286,-2249.3143 L84.9020,-2249.3143 L84.9020,-2255.2143 L84.9020,-2255.2143 L92.3755,-2255.2143 L92.3755,-2249.3143 L92.3755,-2249.3143 L99.8490,-2249.3143 L99.8490,-2255.2143 L99.8490,-2255.2143 L107.3224,-2255.2143 L107.3224,-2249.3143 L107.3224,-2249.3143 L114.7959,-2249.3143 L114.7959,-2255.2143 L114.7959,-2255.2143 L122.2694,-2255.2143 L122.2694,-2249.3143 L122.2694,-2249.3143 L129.7429,-2249.3143 L129.7429,-2255.2143 L129.7429,-2255.2143 L132.6429,-2255.2143 L132.6429,-2264.2989 L129.7429,-2264.2989 L129.7429,-2264.2989 L129.7429,-2273.3835 L132.6429,-2273.3835 L132.6429,-2273.3835 L132.6429,-2282.4681 L129.7429,-2282.4681 L129.7429,-2282.4681 L129.7429,-2291.5527 L132.6429,-2291.5527 L132.6429,-2291.5527 L132.6429,-2300.6374 L129.7429,-2300.6374 L129.7429,-2300.6374 L129.7429,-2309.7220 L132.6429,-2309.7220 L132.6429,-2309.7220 L132.6429,-2318.8066 L129.7429,-2318.8066 L129.7429,-2318.8066 L129.7429,-2327.8912 L132.6429,-2327.8912 L132.6429,-2327.8912 L132.6429,-2336.9758 L129.7429,-2336.9758 L129.7429,-2336.9758 L129.7429,-2346.0604 L132.6429,-2346.0604 L132.6429,-2346.0604 L132.6429,-2355.1451 L129.7429,-2355.1451 L129.7429,-2355.1451 L129.7429,-2364.2297 L132.6429,-2364.2297 L132.6429,-2364.2297 L132.6429,-2373.3143 L129.7429,-2373.3143 L129.7429,-2373.3143 L22.2143,-2373.3143 L22.2143,-2373.3143 L19.3143,-2373.3143 L19.3143,-2364.2297 L22.2143,-2364.2297 L22.2143,-2364.2297 L22.2143,-2355.1451 L19.3143,-2355.1451 L19.3143,-2355.1451 L19.3143,-2346.0604 L22.2143,-2346.0604 L22.2143,-2346.0604 L22.2143,-2336.9758 L19.3143,-2336.9758 L19.3143,-2336.9758 L19.3143,-2327.8912 L22.2143,-2327.8912 L22.2143,-2327.8912 L22.2143,-2318.8066 L19.3143,-2318.8066 L19.3143,-2318.8066 L19.3143,-2309.7220 L22.2143,-2309.7220 L22.2143,-2309.7220 L22.2143,-2300.6374 L19.3143,-2300.6374 L19.3143,-2300.6374 L19.3143,-2291.5527 L22.2143,-2291.5527 L22.2143,-2291.5527 L22.2143,-2282.4681 L19.3143,-2282.4681 L19.3143,-2282.4681 L19.3143,-2273.3835 L22.2143,-2273.3835 L22.2143,-2273.3835 L22.2143,-2264.2989 L19.3143,-2264.2989 L19.3143,-2264.2989 L19.3143,-2255.2143 L22.2143,-2255.2143"></path>
</g>
</svg>