<?xml version="1.0" encoding="utf-8"?>
<svg xmlns="http://www.w3.org/2000/svg" width="278.9714mm" height="2851.9000mm" viewBox="19.3143 -2892.9143 278.9714 2851.9000">
<g>
	<path d="M22.2143,-46.9143 L22.2143,-41.0143 L29.6878,-41.0143 L29.6878,-46.9143 L29.6878,-46.9143 L37.1612,-46.9143 L37.1612,-41.0143 L37.1612,-41.0143 L44.6347,-41.0143 L44.6347,-46.9143 L44.6347,-46.9143 L52.1082,-46.9143 L52.1082,-41.0143 L52.1082,-41.0143 L59.5816,-41.0143 L59.5816,-46.9143 L59.5816,-46.9143 L67.0551,-46.9143 L67.0551,-41.0143 L67.0551,-41.0143 L74.5286,-41.0143 L74.5286,-46.9143 L77.4286,-46.9143 L77.4286,-41.0143 L84.9020,-41.0143 L84.9020,-46.9143 L84.9020,-46.9143 L92.3755,-46.9143 L92.3755,-41.0143 L92.3755,-41.0143 L99.8490,-41.0143 L99.8490,-46.9143 L99.8490,-46.9143 L107.3224,-46.9143 L107.3224,-41.0143 L107.3224,-41.0143 L114.7959,-41.0143 L114.7959,-46.9143 L114.7959,-46.9143 L122.2694,-46.9143 L122.2694,-41.0143 L122.2694,-41.0143 L129.7429,-41.0143 L129.7429,-46.9143 L132.6429,-46.9143 L132.6429,-41.0143 L140.1163,-41.0143 L140.1163,-46.9143 L140.1163,-46.9143 L147.5898,-46.9143 L147.5898,-41.0143 L147.5898,-41.0143 L155.0633,-41.0143 L155.0633,-46.9143 L155.0633,-46.9143 L162.5367,-46.9143 L162.5367,-41.0143 L162.5367,-41.0143 L170.0102,-41.0143 L170.0102,-46.9143 L170.0102,-46.9143 L177.4837,-46.9143 L177.4837,-41.0143 L177.4837,-41.0143 L184.9571,-41.0143 L184.9571,-46.9143 L187.8571,-46.9143 L187.8571,-41.0143 L195.3306,-41.0143 L195.3306,-46.9143 L195.3306,-46.9143 L202.8041,-46.9143 L202.8041,-41.0143 L202.8041,-41.0143 L210.2776,-41.0143 L210.2776,-46.9143 L210.2776,-46.9143 L217.7510,-46.9143 L217.7510,-41.0143 L217.7510,-41.0143 L225.2245,-41.0143 L225.2245,-46.9143 L225.2245,-46.9143 L232.6980,-46.9143 L232.6980,-41.0143 L232.6980,-41.0143 L240.1714,-41.0143 L240.1714,-46.9143 L243.0714,-46.9143 L243.0714,-41.0143 L250.5449,-41.0143 L250.5449,-46.9143 L250.5449,-46.9143 L258.0184,-46.9143 L258.0184,-41.0143 L258.0184,-41.0143 L265.4918,-41.0143 L265.4918,-46.9143 L265.4918,-46.9143 L272.9653,-46.9143 L272.9653,-41.0143 L272.9653,-41.0143 L280.4388,-41.0143 L280.4388,-46.9143 L280.4388,-46.9143 L287.9122,-46.9143 L287.9122,-41.0143 L287.9122,-41.0143 L295.3857,-41.0143 L295.3857,-46.9143 L295.3857,-46.9143 L295.3857,-55.9989 L298.2857,-55.9989 L298.2857,-55.9989 L298.2857,-65.0835 L295.3857,-65.0835 L295.3857,-65.0835 L295.3857,-74.1681 L298.2857,-74.1681 L298.2857,-74.1681 L298.2857,-83.2527 L295.3857,-83.2527 L295.3857,-83.2527 L295.3857,-92.3374 L298.2857,-92.3374 L298.2857,-92.3374 L298.2857,-101.4220 L295.3857,-101.4220 L295.3857,-101.4220 L295.3857,-110.5066 L298.2857,-110.5066 L298.2857,-110.5066 L298.2857,-119.5912 L295.3857,-119.5912 L295.3857,-119.5912 L295.3857,-128.6758 L298.2857,-128.6758 L298.2857,-128.6758 L298.2857,-137.7604 L295.3857,-137.7604 L295.3857,-137.7604 L295.3857,-146.8451 L298.2857,-146.8451 L298.2857,-146.8451 L298.2857,-155.9297 L295.3857,-155.9297 L295.3857,-155.9297 L295.3857,-165.0143 L295.3857,-165.0143 L22.2143,-165.0143 L22.2143,-165.0143 L22.2143,-155.9297 L19.3143,-155.9297 L19.3143,-155.9297 L19.3143,-146.8451 L22.2143,-146.8451 L22.2143,-146.8451 L22.2143,-137.7604 L19.3143,-137.7604 L19.3143,-137.7604 L19.3143,-128.6758 L22.2143,-128.6758 L22.2143,-128.6758 L22.2143,-119.5912 L19.3143,-119.5912 L19.3143,-119.5912 L19.3143,-110.5066 L22.2143,-110.5066 L22.2143,-110.5066 L22.2143,-101.4220 L19.3143,-101.4220 L19.3143,-101.4220 L19.3143,-92.3374 L22.2143,-92.3374 L22.2143,-92.3374 L22.2143,-83.2527 L19.3143,-83.2527 L19.3143,-83.2527 L19.3143,-74.1681 L22.2143,-74.1681 L22.2143,-74.1681 L22.2143,-65.0835 L19.3143,-65.0835 L19.3143,-65.0835 L19.3143,-55.9989 L22.2143,-55.9989 L22.2143,-55.9989 L22.2143,-46.9143"></path>
	<path d="M22.2143,-176.8143 L22.2143,-170.9143 L29.6878,-170.9143 L29.6878,-176.8143 L29.6878,-176.8143 L37.1612,-176.8143 L37.1612,-170.9143 L37.1612,-170.9143 L44.6347,-170.9143 L44.6347,-176.8143 L44.6347,-176.8143 L52.1082,-176.8143 L52.1082,-170.9143 L52.1082,-170.9143 L59.5816,-170.9143 L59.5816,-176.8143 L59.5816,-176.8143 L67.0551,-176.8143 L67.0551,-170.9143 L67.0551,-170.9143 L74.5286,-170.9143 L74.5286,-176.8143 L77.4286,-176.8143 L77.4286,-170.9143 L84.9020,-170.9143 L84.9020,-176.8143 L84.9020,-176.8143 L92.3755,-176.8143 L92.3755,-170.9143 L92.3755,-170.9143 L99.8490,-170.9143 L99.8490,-176.8143 L99.8490,-176.8143 L107.3224,-176.8143 L107.3224,-170.9143 L107.3224,-170.9143 L114.7959,-170.9143 L114.7959,-176.8143 L114.7959,-176.8143 L122.2694,-176.8143 L122.2694,-170.9143 L122.2694,-170.9143 L129.7429,-170.9143 L129.7429,-176.8143 L132.6429,-176.8143 L132.6429,-170.9143 L140.1163,-170.9143 L140.1163,-176.8143 L140.1163,-176.8143 L147.5898,-176.8143 L147.5898,-170.9143 L147.5898,-170.9143 L155.0633,-170.9143 L155.0633,-176.8143 L155.0633,-176.8143 L162.5367,-176.8143 L162.5367,-170.9143 L162.5367,-170.9143 L170.0102,-170.9143 L170.0102,-176.8143 L170.0102,-176.8143 L177.4837,-176.8143 L177.4837,-170.9143 L177.4837,-170.9143 L184.9571,-170.9143 L184.9571,-176.8143 L184.9571,-176.8143 L184.9571,-294.9143 L184.9571,-294.9143 L22.2143,-294.9143 L22.2143,-294.9143 L22.2143,-285.8297 L19.3143,-285.8297 L19.3143,-285.8297 L19.3143,-276.7451 L22.2143,-276.7451 L22.2143,-276.7451 L22.2143,-267.6604 L19.3143,-267.6604 L19.3143,-267.6604 L19.3143,-258.5758 L22.2143,-258.5758 L22.2143,-258.5758 L22.2143,-249.4912 L19.3143,-249.4912 L19.3143,-249.4912 L19.3143,-240.4066 L22.2143,-240.4066 L22.2143,-240.4066 L22.2143,-231.3220 L19.3143,-231.3220 L19.3143,-231.3220 L19.3143,-222.2374 L22.2143,-222.2374 L22.2143,-222.2374 L22.2143,-213.1527 L19.3143,-213.1527 L19.3143,-213.1527 L19.3143,-204.0681 L22.2143,-204.0681 L22.2143,-204.0681 L22.2143,-194.9835 L19.3143,-194.9835 L19.3143,-194.9835 L19.3143,-185.8989 L22.2143,-185.8989 L22.2143,-185.8989 L22.2143,-176.8143"></path>
	<path d="M129.7429,-194.9835 L132.6429,-194.9835 L132.6429,-204.0681 L129.7429,-204.0681 L129.7429,-194.9835"></path>
	<path d="M129.7429,-213.1527 L132.6429,-213.1527 L132.6429,-222.2374 L129.7429,-222.2374 L129.7429,-213.1527"></path>
	<path d="M129.7429,-231.3220 L132.6429,-231.3220 L132.6429,-240.4066 L129.7429,-240.4066 L129.7429,-231.3220"></path>
	<path d="M129.7429,-249.4912 L132.6429,-249.4912 L132.6429,-258.5758 L129.7429,-258.5758 L129.7429,-249.4912"></path>
	<path d="M129.7429,-267.6604 L132.6429,-267.6604 L132.6429,-276.7451 L129.7429,-276.7451 L129.7429,-267.6604"></path>
	<path d="M22.2143,-306.7143 L22.2143,-300.8143 L29.6878,-300.8143 L29.6878,-306.7143 L29.6878,-306.7143 L37.1612,-306.7143 L37.1612,-300.8143 L37.1612,-300.8143 L44.6347,-300.8143 L44.6347,-306.7143 L44.6347,-306.7143 L52.1082,-306.7143 L52.1082,-300.8143 L52.1082,-300.8143 L59.5816,-300.8143 L59.5816,-306.7143 L59.5816,-306.7143 L67.0551,-306.7143 L67.0551,-300.8143 L67.0551,-300.8143 L74.5286,-300.8143 L74.5286,-306.7143 L74.5286,-306.7143 L74.5286,-315.7989 L77.4286,-315.7989 L77.4286,-315.7989 L77.4286,-324.8835 L74.5286,-324.8835 L74.5286,-324.8835 L74.5286,-333.9681 L77.4286,-333.9681 L77.4286,-333.9681 L77.4286,-343.0527 L74.5286,-343.0527 L74.5286,-343.0527 L74.5286,-352.1374 L77.4286,-352.1374 L77.4286,-352.1374 L77.4286,-361.2220 L74.5286,-361.2220 L74.5286,-361.2220 L74.5286,-370.3066 L77.4286,-370.3066 L77.4286,-370.3066 L77.4286,-379.3912 L74.5286,-379.3912 L74.5286,-379.3912 L74.5286,-388.4758 L77.4286,-388.4758 L77.4286,-388.4758 L77.4286,-397.5604 L74.5286,-397.5604 L74.5286,-397.5604 L74.5286,-406.6451 L77.4286,-406.6451 L77.4286,-406.6451 L77.4286,-415.7297 L74.5286,-415.7297 L74.5286,-415.7297 L74.5286,-424.8143 L74.5286,-424.8143 L22.2143,-424.8143 L22.2143,-424.8143 L22.2143,-306.7143"></path>
	<path d="M22.2143,-436.6143 L22.2143,-430.7143 L29.6878,-430.7143 L29.6878,-436.6143 L29.6878,-436.6143 L37.1612,-436.6143 L37.1612,-430.7143 L37.1612,-430.7143 L44.6347,-430.7143 L44.6347,-436.6143 L44.6347,-436.6143 L52.1082,-436.6143 L52.1082,-430.7143 L52.1082,-430.7143 L59.5816,-430.7143 L59.5816,-436.6143 L59.5816,-436.6143 L67.0551,-436.6143 L67.0551,-430.7143 L67.0551,-430.7143 L74.5286,-430.7143 L74.5286,-436.6143 L74.5286,-436.6143 L74.5286,-445.6989 L77.4286,-445.6989 L77.4286,-445.6989 L77.4286,-454.7835 L74.5286,-454.7835 L74.5286,-454.7835 L74.5286,-463.8681 L77.4286,-463.8681 L77.4286,-463.8681 L77.4286,-472.9527 L74.5286,-472.9527 L74.5286,-472.9527 L74.5286,-482.0374 L77.4286,-482.0374 L77.4286,-482.0374 L77.4286,-491.1220 L74.5286,-491.1220 L74.5286,-491.1220 L74.5286,-500.2066 L77.4286,-500.2066 L77.4286,-500.2066 L77.4286,-509.2912 L74.5286,-509.2912 L74.5286,-509.2912 L74.5286,-518.3758 L77.4286,-518.3758 L77.4286,-518.3758 L77.4286,-527.4604 L74.5286,-527.4604 L74.5286,-527.4604 L74.5286,-536.5451 L77.4286,-536.5451 L77.4286,-536.5451 L77.4286,-545.6297 L74.5286,-545.6297 L74.5286,-545.6297 L74.5286,-554.7143 L74.5286,-554.7143 L22.2143,-554.7143 L22.2143,-554.7143 L22.2143,-436.6143"></path>
	<path d="M22.2143,-566.5143 L22.2143,-560.6143 L29.6878,-560.6143 L29.6878,-566.5143 L29.6878,-566.5143 L37.1612,-566.5143 L37.1612,-560.6143 L37.1612,-560.6143 L44.6347,-560.6143 L44.6347,-566.5143 L44.6347,-566.5143 L52.1082,-566.5143 L52.1082,-560.6143 L52.1082,-560.6143 L59.5816,-560.6143 L59.5816,-566.5143 L59.5816,-566.5143 L67.0551,-566.5143 L67.0551,-560.6143 L67.0551,-560.6143 L74.5286,-560.6143 L74.5286,-566.5143 L77.4286,-566.5143 L77.4286,-560.6143 L84.9020,-560.6143 L84.9020,-566.5143 L84.9020,-566.5143 L92.3755,-566.5143 L92.3755,-560.6143 L92.3755,-560.6143 L99.8490,-560.6143 L99.8490,-566.5143 L99.8490,-566.5143 L107.3224,-566.5143 L107.3224,-560.6143 L107.3224,-560.6143 L114.7959,-560.6143 L114.7959,-566.5143 L114.7959,-566.5143 L122.2694,-566.5143 L122.2694,-560.6143 L122.2694,-560.6143 L129.7429,-560.6143 L129.7429,-566.5143 L129.7429,-566.5143 L129.7429,-575.5989 L132.6429,-575.5989 L132.6429,-575.5989 L132.6429,-584.6835 L129.7429,-584.6835 L129.7429,-584.6835 L129.7429,-593.7681 L132.6429,-593.7681 L132.6429,-593.7681 L132.6429,-602.8527 L129.7429,-602.8527 L129.7429,-602.8527 L129.7429,-611.9374 L132.6429,-611.9374 L132.6429,-611.9374 L132.6429,-621.0220 L129.7429,-621.0220 L129.7429,-621.0220 L129.7429,-630.1066 L132.6429,-630.1066 L132.6429,-630.1066 L132.6429,-639.1912 L129.7429,-639.1912 L129.7429,-639.1912 L129.7429,-648.2758 L132.6429,-648.2758 L132.6429,-648.2758 L132.6429,-657.3604 L129.7429,-657.3604 L129.7429,-657.3604 L129.7429,-666.4451 L132.6429,-666.4451 L132.6429,-666.4451 L132.6429,-675.5297 L129.7429,-675.5297 L129.7429,-675.5297 L129.7429,-684.6143 L129.7429,-684.6143 L22.2143,-684.6143 L22.2143,-684.6143 L22.2143,-566.5143"></path>
	<path d="M22.2143,-696.4143 L22.2143,-690.5143 L29.6878,-690.5143 L29.6878,-696.4143 L29.6878,-696.4143 L37.1612,-696.4143 L37.1612,-690.5143 L37.1612,-690.5143 L44.6347,-690.5143 L44.6347,-696.4143 L44.6347,-696.4143 L52.1082,-696.4143 L52.1082,-690.5143 L52.1082,-690.5143 L59.5816,-690.5143 L59.5816,-696.4143 L59.5816,-696.4143 L67.0551,-696.4143 L67.0551,-690.5143 L67.0551,-690.5143 L74.5286,-690.5143 L74.5286,-696.4143 L77.4286,-696.4143 L77.4286,-690.5143 L84.9020,-690.5143 L84.9020,-696.4143 L84.9020,-696.4143 L92.3755,-696.4143 L92.3755,-690.5143 L92.3755,-690.5143 L99.8490,-690.5143 L99.8490,-696.4143 L99.8490,-696.4143 L107.3224,-696.4143 L107.3224,-690.5143 L107.3224,-690.5143 L114.7959,-690.5143 L114.7959,-696.4143 L114.7959,-696.4143 L122.2694,-696.4143 L122.2694,-690.5143 L122.2694,-690.5143 L129.7429,-690.5143 L129.7429,-696.4143 L132.6429,-696.4143 L132.6429,-690.5143 L140.1163,-690.5143 L140.1163,-696.4143 L140.1163,-696.4143 L147.5898,-696.4143 L147.5898,-690.5143 L147.5898,-690.5143 L155.0633,-690.5143 L155.0633,-696.4143 L155.0633,-696.4143 L162.5367,-696.4143 L162.5367,-690.5143 L162.5367,-690.5143 L170.0102,-690.5143 L170.0102,-696.4143 L170.0102,-696.4143 L177.4837,-696.4143 L177.4837,-690.5143 L177.4837,-690.5143 L184.9571,-690.5143 L184.9571,-696.4143 L184.9571,-696.4143 L184.9571,-705.4989 L187.8571,-705.4989 L187.8571,-705.4989 L187.8571,-714.5835 L184.9571,-714.5835 L184.9571,-714.5835 L184.9571,-723.6681 L187.8571,-723.6681 L187.8571,-723.6681 L187.8571,-732.7527 L184.9571,-732.7527 L184.9571,-732.7527 L184.9571,-741.8374 L187.8571,-741.8374 L187.8571,-741.8374 L187.8571,-750.9220 L184.9571,-750.9220 L184.9571,-750.9220 L184.9571,-760.0066 L187.8571,-760.0066 L187.8571,-760.0066 L187.8571,-769.0912 L184.9571,-769.0912 L184.9571,-769.0912 L184.9571,-778.1758 L187.8571,-778.1758 L187.8571,-778.1758 L187.8571,-787.2604 L184.9571,-787.2604 L184.9571,-787.2604 L184.9571,-796.3451 L187.8571,-796.3451 L187.8571,-796.3451 L187.8571,-805.4297 L184.9571,-805.4297 L184.9571,-805.4297 L184.9571,-814.5143 L184.9571,-814.5143 L22.2143,-814.5143 L22.2143,-814.5143 L22.2143,-805.4297 L19.3143,-805.4297 L19.3143,-805.4297 L19.3143,-796.3451 L22.2143,-796.3451 L22.2143,-796.3451 L22.2143,-787.2604 L19.3143,-787.2604 L19.3143,-787.2604 L19.3143,-778.1758 L22.2143,-778.1758 L22.2143,-778.1758 L22.2143,-769.0912 L19.3143,-769.0912 L19.3143,-769.0912 L19.3143,-760.0066 L22.2143,-760.0066 L22.2143,-760.0066 L22.2143,-750.9220 L19.3143,-750.9220 L19.3143,-750.9220 L19.3143,-741.8374 L22.2143,-741.8374 L22.2143,-741.8374 L22.2143,-732.7527 L19.3143,-732.7527 L19.3143,-732.7527 L19.3143,-723.6681 L22.2143,-723.6681 L22.2143,-723.6681 L22.2143,-714.5835 L19.3143,-714.5835 L19.3143,-714.5835 L19.3143,-705.4989 L22.2143,-705.4989 L22.2143,-705.4989 L22.2143,-696.4143"></path>
	<path d="M74.5286,-714.5835 L77.4286,-714.5835 L77.4286,-723.6681 L74.5286,-723.6681 L74.5286,-714.5835"></path>
	<path d="M74.5286,-732.7527 L77.4286,-732.7527 L77.4286,-741.8374 L74.5286,-741.8374 L74.5286,-732.7527"></path>
	<path d="M74.5286,-750.9220 L77.4286,-750.9220 L77.4286,-760.0066 L74.5286,-760.0066 L74.5286,-750.9220"></path>
	<path d="M74.5286,-769.0912 L77.4286,-769.0912 L77.4286,-778.1758 L74.5286,-778.1758 L74.5286,-769.0912"></path>
	<path d="M74.5286,-787.2604 L77.4286,-787.2604 L77.4286,-796.3451 L74.5286,-796.3451 L74.5286,-787.2604"></path>
	<path d="M22.2143,-826.3143 L22.2143,-820.4143 L29.6878,-820.4143 L29.6878,-826.3143 L29.6878,-826.3143 L37.1612,-826.3143 L37.1612,-820.4143 L37.1612,-820.4143 L44.6347,-820.4143 L44.6347,-826.3143 L44.6347,-826.3143 L52.1082,-826.3143 L52.1082,-820.4143 L52.1082,-820.4143 L59.5816,-820.4143 L59.5816,-826.3143 L59.5816,-826.3143 L67.0551,-826.3143 L67.0551,-820.4143 L67.0551,-820.4143 L74.5286,-820.4143 L74.5286,-826.3143 L74.5286,-826.3143 L74.5286,-835.3989 L77.4286,-835.3989 L77.4286,-835.3989 L77.4286,-844.4835 L74.5286,-844.4835 L74.5286,-844.4835 L74.5286,-853.5681 L77.4286,-853.5681 L77.4286,-853.5681 L77.4286,-862.6527 L74.5286,-862.6527 L74.5286,-862.6527 L74.5286,-871.7374 L77.4286,-871.7374 L77.4286,-871.7374 L77.4286,-880.8220 L74.5286,-880.8220 L74.5286,-880.8220 L74.5286,-889.9066 L77.4286,-889.9066 L77.4286,-889.9066 L77.4286,-898.9912 L74.5286,-898.9912 L74.5286,-898.9912 L74.5286,-908.0758 L77.4286,-908.0758 L77.4286,-908.0758 L77.4286,-917.1604 L74.5286,-917.1604 L74.5286,-917.1604 L74.5286,-926.2451 L77.4286,-926.2451 L77.4286,-926.2451 L77.4286,-935.3297 L74.5286,-935.3297 L74.5286,-935.3297 L74.5286,-944.4143 L74.5286,-944.4143 L22.2143,-944.4143 L22.2143,-944.4143 L22.2143,-935.3297 L19.3143,-935.3297 L19.3143,-935.3297 L19.3143,-926.2451 L22.2143,-926.2451 L22.2143,-926.2451 L22.2143,-917.1604 L19.3143,-917.1604 L19.3143,-917.1604 L19.3143,-908.0758 L22.2143,-908.0758 L22.2143,-908.0758 L22.2143,-898.9912 L19.3143,-898.9912 L19.3143,-898.9912 L19.3143,-889.9066 L22.2143,-889.9066 L22.2143,-889.9066 L22.2143,-880.8220 L19.3143,-880.8220 L19.3143,-880.8220 L19.3143,-871.7374 L22.2143,-871.7374 L22.2143,-871.7374 L22.2143,-862.6527 L19.3143,-862.6527 L19.3143,-862.6527 L19.3143,-853.5681 L22.2143,-853.5681 L22.2143,-853.5681 L22.2143,-844.4835 L19.3143,-844.4835 L19.3143,-844.4835 L19.3143,-835.3989 L22.2143,-835.3989 L22.2143,-835.3989 L22.2143,-826.3143"></path>
	<path d="M22.2143,-956.2143 L22.2143,-950.3143 L29.6878,-950.3143 L29.6878,-956.2143 L29.6878,-956.2143 L37.1612,-956.2143 L37.1612,-950.3143 L37.1612,-950.3143 L44.6347,-950.3143 L44.6347,-956.2143 L44.6347,-956.2143 L52.1082,-956.2143 L52.1082,-950.3143 L52.1082,-950.3143 L59.5816,-950.3143 L59.5816,-956.2143 L59.5816,-956.2143 L67.0551,-956.2143 L67.0551,-950.3143 L67.0551,-950.3143 L74.5286,-950.3143 L74.5286,-956.2143 L74.5286,-956.2143 L74.5286,-965.2989 L77.4286,-965.2989 L77.4286,-965.2989 L77.4286,-974.3835 L74.5286,-974.3835 L74.5286,-974.3835 L74.5286,-983.4681 L77.4286,-983.4681 L77.4286,-983.4681 L77.4286,-992.5527 L74.5286,-992.5527 L74.5286,-992.5527 L74.5286,-1001.6374 L77.4286,-1001.6374 L77.4286,-1001.6374 L77.4286,-1010.7220 L74.5286,-1010.7220 L74.5286,-1010.7220 L74.5286,-1019.8066 L77.4286,-1019.8066 L77.4286,-1019.8066 L77.4286,-1028.8912 L74.5286,-1028.8912 L74.5286,-1028.8912 L74.5286,-1037.9758 L77.4286,-1037.9758 L77.4286,-1037.9758 L77.4286,-1047.0604 L74.5286,-1047.0604 L74.5286,-1047.0604 L74.5286,-1056.1451 L77.4286,-1056.1451 L77.4286,-1056.1451 L77.4286,-1065.2297 L74.5286,-1065.2297 L74.5286,-1065.2297 L74.5286,-1074.3143 L74.5286,-1074.3143 L22.2143,-1074.3143 L22.2143,-1074.3143 L22.2143,-1065.2297 L19.3143,-1065.2297 L19.3143,-1065.2297 L19.3143,-1056.1451 L22.2143,-1056.1451 L22.2143,-1056.1451 L22.2143,-1047.0604 L19.3143,-1047.0604 L19.3143,-1047.0604 L19.3143,-1037.9758 L22.2143,-1037.9758 L22.2143,-1037.9758 L22.2143,-1028.8912 L19.3143,-1028.8912 L19.3143,-1028.8912 L19.3143,-1019.8066 L22.2143,-1019.8066 L22.2143,-1019.8066 L22.2143,-1010.7220 L19.3143,-1010.7220 L19.3143,-1010.7220 L19.3143,-1001.6374 L22.2143,-1001.6374 L22.2143,-1001.6374 L22.2143,-992.5527 L19.3143,-992.5527 L19.3143,-992.5527 L19.3143,-983.4681 L22.2143,-983.4681 L22.2143,-983.4681 L22.2143,-974.3835 L19.3143,-974.3835 L19.3143,-974.3835 L19.3143,-965.2989 L22.2143,-965.2989 L22.2143,-965.2989 L22.2143,-956.2143"></path>
	<path d="M22.2143,-1086.1143 L22.2143,-1080.2143 L29.6878,-1080.2143 L29.6878,-1086.1143 L29.6878,-1086.1143 L37.1612,-1086.1143 L37.1612,-1080.2143 L37.1612,-1080.2143 L44.6347,-1080.2143 L44.6347,-1086.1143 L44.6347,-1086.1143 L52.1082,-1086.1143 L52.1082,-1080.2143 L52.1082,-1080.2143 L59.5816,-1080.2143 L59.5816,-1086.1143 L59.5816,-1086.1143 L67.0551,-1086.1143 L67.0551,-1080.2143 L67.0551,-1080.2143 L74.5286,-1080.2143 L74.5286,-1086.1143 L74.5286,-1086.1143 L74.5286,-1095.1989 L77.4286,-1095.1989 L77.4286,-1095.1989 L77.4286,-1104.2835 L74.5286,-1104.2835 L74.5286,-1104.2835 L74.5286,-1113.3681 L77.4286,-1113.3681 L77.4286,-1113.3681 L77.4286,-1122.4527 L74.5286,-1122.4527 L74.5286,-1122.4527 L74.5286,-1131.5374 L77.4286,-1131.5374 L77.4286,-1131.5374 L77.4286,-1140.6220 L74.5286,-1140.6220 L74.5286,-1140.6220 L74.5286,-1149.7066 L77.4286,-1149.7066 L77.4286,-1149.7066 L77.4286,-1158.7912 L74.5286,-1158.7912 L74.5286,-1158.7912 L74.5286,-1167.8758 L77.4286,-1167.8758 L77.4286,-1167.8758 L77.4286,-1176.9604 L74.5286,-1176.9604 L74.5286,-1176.9604 L74.5286,-1186.0451 L77.4286,-1186.0451 L77.4286,-1186.0451 L77.4286,-1195.1297 L74.5286,-1195.1297 L74.5286,-1195.1297 L74.5286,-1204.2143 L74.5286,-1204.2143 L22.2143,-1204.2143 L22.2143,-1204.2143 L22.2143,-1086.1143"></path>
	<path d="M22.2143,-1216.0143 L22.2143,-1210.1143 L29.6878,-1210.1143 L29.6878,-1216.0143 L29.6878,-1216.0143 L37.1612,-1216.0143 L37.1612,-1210.1143 L37.1612,-1210.1143 L44.6347,-1210.1143 L44.6347,-1216.0143 L44.6347,-1216.0143 L52.1082,-1216.0143 L52.1082,-1210.1143 L52.1082,-1210.1143 L59.5816,-1210.1143 L59.5816,-1216.0143 L59.5816,-1216.0143 L67.0551,-1216.0143 L67.0551,-1210.1143 L67.0551,-1210.1143 L74.5286,-1210.1143 L74.5286,-1216.0143 L77.4286,-1216.0143 L77.4286,-1210.1143 L84.9020,-1210.1143 L84.9020,-1216.0143 L84.9020,-1216.0143 L92.3755,-1216.0143 L92.3755,-1210.1143 L92.3755,-1210.1143 L99.8490,-1210.1143 L99.8490,-1216.0143 L99.8490,-1216.0143 L107.3224,-1216.0143 L107.3224,-1210.1143 L107.3224,-1210.1143 L114.7959,-1210.1143 L114.7959,-1216.0143 L114.7959,-1216.0143 L122.2694,-1216.0143 L122.2694,-1210.1143 L122.2694,-1210.1143 L129.7429,-1210.1143 L129.7429,-1216.0143 L132.6429,-1216.0143 L132.6429,-1210.1143 L140.1163,-1210.1143 L140.1163,-1216.0143 L140.1163,-1216.0143 L147.5898,-1216.0143 L147.5898,-1210.1143 L147.5898,-1210.1143 L155.0633,-1210.1143 L155.0633,-1216.0143 L155.0633,-1216.0143 L162.5367,-1216.0143 L162.5367,-1210.1143 L162.5367,-1210.1143 L170.0102,-1210.1143 L170.0102,-1216.0143 L170.0102,-1216.0143 L177.4837,-1216.0143 L177.4837,-1210.1143 L177.4837,-1210.1143 L184.9571,-1210.1143 L184.9571,-1216.0143 L187.8571,-1216.0143 L187.8571,-1210.1143 L195.3306,-1210.1143 L195.3306,-1216.0143 L195.3306,-1216.0143 L202.8041,-1216.0143 L202.8041,-1210.1143 L202.8041,-1210.1143 L210.2776,-1210.1143 L210.2776,-1216.0143 L210.2776,-1216.0143 L217.7510,-1216.0143 L217.7510,-1210.1143 L217.7510,-1210.1143 L225.2245,-1210.1143 L225.2245,-1216.0143 L225.2245,-1216.0143 L232.6980,-1216.0143 L232.6980,-1210.1143 L232.6980,-1210.1143 L240.1714,-1210.1143 L240.1714,-1216.0143 L243.0714,-1216.0143 L243.0714,-1210.1143 L250.5449,-1210.1143 L250.5449,-1216.0143 L250.5449,-1216.0143 L258.0184,-1216.0143 L258.0184,-1210.1143 L258.0184,-1210.1143 L265.4918,-1210.1143 L265.4918,-1216.0143 L265.4918,-1216.0143 L272.9653,-1216.0143 L272.9653,-1210.1143 L272.9653,-1210.1143 L280.4388,-1210.1143 L280.4388,-1216.0143 L280.4388,-1216.0143 L287.9122,-1216.0143 L287.9122,-1210.1143 L287.9122,-1210.1143 L295.3857,-1210.1143 L295.3857,-1216.0143 L295.3857,-1216.0143 L295.3857,-1225.0989 L298.2857,-1225.0989 L298.2857,-1225.0989 L298.2857,-1234.1835 L295.3857,-1234.1835 L295.3857,-1234.1835 L295.3857,-1243.2681 L298.2857,-1243.2681 L298.2857,-1243.2681 L298.2857,-1252.3527 L295.3857,-1252.3527 L295.3857,-1252.3527 L295.3857,-1261.4374 L298.2857,-1261.4374 L298.2857,-1261.4374 L298.2857,-1270.5220 L295.3857,-1270.5220 L295.3857,-1270.5220 L295.3857,-1279.6066 L298.2857,-1279.6066 L298.2857,-1279.6066 L298.2857,-1288.6912 L295.3857,-1288.6912 L295.3857,-1288.6912 L295.3857,-1297.7758 L298.2857,-1297.7758 L298.2857,-1297.7758 L298.2857,-1306.8604 L295.3857,-1306.8604 L295.3857,-1306.8604 L295.3857,-1315.9451 L298.2857,-1315.9451 L298.2857,-1315.9451 L298.2857,-1325.0297 L295.3857,-1325.0297 L295.3857,-1325.0297 L295.3857,-1334.1143 L295.3857,-1334.1143 L22.2143,-1334.1143 L22.2143,-1334.1143 L22.2143,-1216.0143"></path>
	<path d="M74.5286,-1234.1835 L77.4286,-1234.1835 L77.4286,-1243.2681 L74.5286,-1243.2681 L74.5286,-1234.1835"></path>
	<path d="M74.5286,-1252.3527 L77.4286,-1252.3527 L77.4286,-1261.4374 L74.5286,-1261.4374 L74.5286,-1252.3527"></path>
	<path d="M74.5286,-1270.5220 L77.4286,-1270.5220 L77.4286,-1279.6066 L74.5286,-1279.6066 L74.5286,-1270.5220"></path>
	<path d="M74.5286,-1288.6912 L77.4286,-1288.6912 L77.4286,-1297.7758 L74.5286,-1297.7758 L74.5286,-1288.6912"></path>
	<path d="M74.5286,-1306.8604 L77.4286,-1306.8604 L77.4286,-1315.9451 L74.5286,-1315.9451 L74.5286,-1306.8604"></path>
	<path d="M240.1714,-1234.1835 L243.0714,-1234.1835 L243.0714,-1243.2681 L240.1714,-1243.2681 L240.1714,-1234.1835"></path>
	<path d="M240.1714,-1252.3527 L243.0714,-1252.3527 L243.0714,-1261.4374 L240.1714,-1261.4374 L240.1714,-1252.3527"></path>
	<path d="M240.1714,-1270.5220 L243.0714,-1270.5220 L243.0714,-1279.6066 L240.1714,-1279.6066 L240.1714,-1270.5220"></path>
	<path d="M240.1714,-1288.6912 L243.0714,-1288.6912 L243.0714,-1297.7758 L240.1714,-1297.7758 L240.1714,-1288.6912"></path>
	<path d="M240.1714,-1306.8604 L243.0714,-1306.8604 L243.0714,-1315.9451 L240.1714,-1315.9451 L240.1714,-1306.8604"></path>
	<path d="M22.2143,-1345.9143 L22.2143,-1340.0143 L29.6878,-1340.0143 L29.6878,-1345.9143 L29.6878,-1345.9143 L37.1612,-1345.9143 L37.1612,-1340.0143 L37.1612,-1340.0143 L44.6347,-1340.0143 L44.6347,-1345.9143 L44.6347,-1345.9143 L52.1082,-1345.9143 L52.1082,-1340.0143 L52.1082,-1340.0143 L59.5816,-1340.0143 L59.5816,-1345.9143 L59.5816,-1345.9143 L67.0551,-1345.9143 L67.0551,-1340.0143 L67.0551,-1340.0143 L74.5286,-1340.0143 L74.5286,-1345.9143 L77.4286,-1345.9143 L77.4286,-1340.0143 L84.9020,-1340.0143 L84.9020,-1345.9143 L84.9020,-1345.9143 L92.3755,-1345.9143 L92.3755,-1340.0143 L92.3755,-1340.0143 L99.8490,-1340.0143 L99.8490,-1345.9143 L99.8490,-1345.9143 L107.3224,-1345.9143 L107.3224,-1340.0143 L107.3224,-1340.0143 L114.7959,-1340.0143 L114.7959,-1345.9143 L114.7959,-1345.9143 L122.2694,-1345.9143 L122.2694,-1340.0143 L122.2694,-1340.0143 L129.7429,-1340.0143 L129.7429,-1345.9143 L132.6429,-1345.9143 L132.6429,-1340.0143 L140.1163,-1340.0143 L140.1163,-1345.9143 L140.1163,-1345.9143 L147.5898,-1345.9143 L147.5898,-1340.0143 L147.5898,-1340.0143 L155.0633,-1340.0143 L155.0633,-1345.9143 L155.0633,-1345.9143 L162.5367,-1345.9143 L162.5367,-1340.0143 L162.5367,-1340.0143 L170.0102,-1340.0143 L170.0102,-1345.9143 L170.0102,-1345.9143 L177.4837,-1345.9143 L177.4837,-1340.0143 L177.4837,-1340.0143 L184.9571,-1340.0143 L184.9571,-1345.9143 L184.9571,-1345.9143 L184.9571,-1464.0143 L184.9571,-1464.0143 L22.2143,-1464.0143 L22.2143,-1464.0143 L19.3143,-1464.0143 L19.3143,-1454.9297 L22.2143,-1454.9297 L22.2143,-1454.9297 L22.2143,-1445.8451 L19.3143,-1445.8451 L19.3143,-1445.8451 L19.3143,-1436.7604 L22.2143,-1436.7604 L22.2143,-1436.7604 L22.2143,-1427.6758 L19.3143,-1427.6758 L19.3143,-1427.6758 L19.3143,-1418.5912 L22.2143,-1418.5912 L22.2143,-1418.5912 L22.2143,-1409.5066 L19.3143,-1409.5066 L19.3143,-1409.5066 L19.3143,-1400.4220 L22.2143,-1400.4220 L22.2143,-1400.4220 L22.2143,-1391.3374 L19.3143,-1391.3374 L19.3143,-1391.3374 L19.3143,-1382.2527 L22.2143,-1382.2527 L22.2143,-1382.2527 L22.2143,-1373.1681 L19.3143,-1373.1681 L19.3143,-1373.1681 L19.3143,-1364.0835 L22.2143,-1364.0835 L22.2143,-1364.0835 L22.2143,-1354.9989 L19.3143,-1354.9989 L19.3143,-1354.9989 L19.3143,-1345.9143 L22.2143,-1345.9143"></path>
	<path d="M22.2143,-1475.8143 L22.2143,-1469.9143 L29.6878,-1469.9143 L29.6878,-1475.8143 L29.6878,-1475.8143 L37.1612,-1475.8143 L37.1612,-1469.9143 L37.1612,-1469.9143 L44.6347,-1469.9143 L44.6347,-1475.8143 L44.6347,-1475.8143 L52.1082,-1475.8143 L52.1082,-1469.9143 L52.1082,-1469.9143 L59.5816,-1469.9143 L59.5816,-1475.8143 L59.5816,-1475.8143 L67.0551,-1475.8143 L67.0551,-1469.9143 L67.0551,-1469.9143 L74.5286,-1469.9143 L74.5286,-1475.8143 L77.4286,-1475.8143 L77.4286,-1469.9143 L84.9020,-1469.9143 L84.9020,-1475.8143 L84.9020,-1475.8143 L92.3755,-1475.8143 L92.3755,-1469.9143 L92.3755,-1469.9143 L99.8490,-1469.9143 L99.8490,-1475.8143 L99.8490,-1475.8143 L107.3224,-1475.8143 L107.3224,-1469.9143 L107.3224,-1469.9143 L114.7959,-1469.9143 L114.7959,-1475.8143 L114.7959,-1475.8143 L122.2694,-1475.8143 L122.2694,-1469.9143 L122.2694,-1469.9143 L129.7429,-1469.9143 L129.7429,-1475.8143 L129.7429,-1475.8143 L129.7429,-1593.9143 L129.7429,-1593.9143 L22.2143,-1593.9143 L22.2143,-1593.9143 L19.3143,-1593.9143 L19.3143,-1584.8297 L22.2143,-1584.8297 L22.2143,-1584.8297 L22.2143,-1575.7451 L19.3143,-1575.7451 L19.3143,-1575.7451 L19.3143,-1566.6604 L22.2143,-1566.6604 L22.2143,-1566.6604 L22.2143,-1557.5758 L19.3143,-1557.5758 L19.3143,-1557.5758 L19.3143,-1548.4912 L22.2143,-1548.4912 L22.2143,-1548.4912 L22.2143,-1539.4066 L19.3143,-1539.4066 L19.3143,-1539.4066 L19.3143,-1530.3220 L22.2143,-1530.3220 L22.2143,-1530.3220 L22.2143,-1521.2374 L19.3143,-1521.2374 L19.3143,-1521.2374 L19.3143,-1512.1527 L22.2143,-1512.1527 L22.2143,-1512.1527 L22.2143,-1503.0681 L19.3143,-1503.0681 L19.3143,-1503.0681 L19.3143,-1493.9835 L22.2143,-1493.9835 L22.2143,-1493.9835 L22.2143,-1484.8989 L19.3143,-1484.8989 L19.3143,-1484.8989 L19.3143,-1475.8143 L22.2143,-1475.8143"></path>
	<path d="M22.2143,-1605.7143 L22.2143,-1599.8143 L29.6878,-1599.8143 L29.6878,-1605.7143 L29.6878,-1605.7143 L37.1612,-1605.7143 L37.1612,-1599.8143 L37.1612,-1599.8143 L44.6347,-1599.8143 L44.6347,-1605.7143 L44.6347,-1605.7143 L52.1082,-1605.7143 L52.1082,-1599.8143 L52.1082,-1599.8143 L59.5816,-1599.8143 L59.5816,-1605.7143 L59.5816,-1605.7143 L67.0551,-1605.7143 L67.0551,-1599.8143 L67.0551,-1599.8143 L74.5286,-1599.8143 L74.5286,-1605.7143 L77.4286,-1605.7143 L77.4286,-1599.8143 L84.9020,-1599.8143 L84.9020,-1605.7143 L84.9020,-1605.7143 L92.3755,-1605.7143 L92.3755,-1599.8143 L92.3755,-1599.8143 L99.8490,-1599.8143 L99.8490,-1605.7143 L99.8490,-1605.7143 L107.3224,-1605.7143 L107.3224,-1599.8143 L107.3224,-1599.8143 L114.7959,-1599.8143 L114.7959,-1605.7143 L114.7959,-1605.7143 L122.2694,-1605.7143 L122.2694,-1599.8143 L122.2694,-1599.8143 L129.7429,-1599.8143 L129.7429,-1605.7143 L132.6429,-1605.7143 L132.6429,-1599.8143 L140.1163,-1599.8143 L140.1163,-1605.7143 L140.1163,-1605.7143 L147.5898,-1605.7143 L147.5898,-1599.8143 L147.5898,-1599.8143 L155.0633,-1599.8143 L155.0633,-1605.7143 L155.0633,-1605.7143 L162.5367,-1605.7143 L162.5367,-1599.8143 L162.5367,-1599.8143 L170.0102,-1599.8143 L170.0102,-1605.7143 L170.0102,-1605.7143 L177.4837,-1605.7143 L177.4837,-1599.8143 L177.4837,-1599.8143 L184.9571,-1599.8143 L184.9571,-1605.7143 L184.9571,-1605.7143 L184.9571,-1614.7989 L184.9571,-1623.8835 L187.8571,-1623.8835 L187.8571,-1623.8835 L187.8571,-1632.9681 L184.9571,-1632.9681 L184.9571,-1632.9681 L184.9571,-1642.0527 L187.8571,-1642.0527 L187.8571,-1642.0527 L187.8571,-1651.1374 L184.9571,-1651.1374 L184.9571,-1651.1374 L184.9571,-1660.2220 L187.8571,-1660.2220 L187.8571,-1660.2220 L187.8571,-1669.3066 L184.9571,-1669.3066 L184.9571,-1669.3066 L184.9571,-1678.3912 L187.8571,-1678.3912 L187.8571,-1678.3912 L187.8571,-1687.4758 L184.9571,-1687.4758 L184.9571,-1687.4758 L184.9571,-1696.5604 L187.8571,-1696.5604 L187.8571,-1696.5604 L187.8571,-1705.6451 L184.9571,-1705.6451 L184.9571,-1705.6451 L184.9571,-1714.7297 L184.9571,-1723.8143 L184.9571,-1723.8143 L22.2143,-1723.8143 L22.2143,-1723.8143 L19.3143,-1723.8143 L19.3143,-1714.7297 L22.2143,-1714.7297 L22.2143,-1714.7297 L22.2143,-1705.6451 L19.3143,-1705.6451 L19.3143,-1705.6451 L19.3143,-1696.5604 L22.2143,-1696.5604 L22.2143,-1696.5604 L22.2143,-1687.4758 L19.3143,-1687.4758 L19.3143,-1687.4758 L19.3143,-1678.3912 L22.2143,-1678.3912 L22.2143,-1678.3912 L22.2143,-1669.3066 L19.3143,-1669.3066 L19.3143,-1669.3066 L19.3143,-1660.2220 L22.2143,-1660.2220 L22.2143,-1660.2220 L22.2143,-1651.1374 L19.3143,-1651.1374 L19.3143,-1651.1374 L19.3143,-1642.0527 L22.2143,-1642.0527 L22.2143,-1642.0527 L22.2143,-1632.9681 L19.3143,-1632.9681 L19.3143,-1632.9681 L19.3143,-1623.8835 L22.2143,-1623.8835 L22.2143,-1623.8835 L22.2143,-1614.7989 L19.3143,-1614.7989 L19.3143,-1614.7989 L19.3143,-1605.7143 L22.2143,-1605.7143"></path>
	<path d="M22.2143,-1735.6143 L22.2143,-1729.7143 L29.6878,-1729.7143 L29.6878,-1735.6143 L29.6878,-1735.6143 L37.1612,-1735.6143 L37.1612,-1729.7143 L37.1612,-1729.7143 L44.6347,-1729.7143 L44.6347,-1735.6143 L44.6347,-1735.6143 L52.1082,-1735.6143 L52.1082,-1729.7143 L52.1082,-1729.7143 L59.5816,-1729.7143 L59.5816,-1735.6143 L59.5816,-1735.6143 L67.0551,-1735.6143 L67.0551,-1729.7143 L67.0551,-1729.7143 L74.5286,-1729.7143 L74.5286,-1735.6143 L77.4286,-1735.6143 L77.4286,-1729.7143 L84.9020,-1729.7143 L84.9020,-1735.6143 L84.9020,-1735.6143 L92.3755,-1735.6143 L92.3755,-1729.7143 L92.3755,-1729.7143 L99.8490,-1729.7143 L99.8490,-1735.6143 L99.8490,-1735.6143 L107.3224,-1735.6143 L107.3224,-1729.7143 L107.3224,-1729.7143 L114.7959,-1729.7143 L114.7959,-1735.6143 L114.7959,-1735.6143 L122.2694,-1735.6143 L122.2694,-1729.7143 L122.2694,-1729.7143 L129.7429,-1729.7143 L129.7429,-1735.6143 L129.7429,-1735.6143 L129.7429,-1744.6989 L129.7429,-1753.7835 L132.6429,-1753.7835 L132.6429,-1753.7835 L132.6429,-1762.8681 L129.7429,-1762.8681 L129.7429,-1762.8681 L129.7429,-1771.9527 L132.6429,-1771.9527 L132.6429,-1771.9527 L132.6429,-1781.0374 L129.7429,-1781.0374 L129.7429,-1781.0374 L129.7429,-1790.1220 L132.6429,-1790.1220 L132.6429,-1790.1220 L132.6429,-1799.2066 L129.7429,-1799.2066 L129.7429,-1799.2066 L129.7429,-1808.2912 L132.6429,-1808.2912 L132.6429,-1808.2912 L132.6429,-1817.3758 L129.7429,-1817.3758 L129.7429,-1817.3758 L129.7429,-1826.4604 L132.6429,-1826.4604 L132.6429,-1826.4604 L132.6429,-1835.5451 L129.7429,-1835.5451 L129.7429,-1835.5451 L129.7429,-1844.6297 L129.7429,-1853.7143 L129.7429,-1853.7143 L22.2143,-1853.7143 L22.2143,-1853.7143 L22.2143,-1735.6143"></path>
	<path d="M22.2143,-1865.5143 L22.2143,-1859.6143 L29.6878,-1859.6143 L29.6878,-1865.5143 L29.6878,-1865.5143 L37.1612,-1865.5143 L37.1612,-1859.6143 L37.1612,-1859.6143 L44.6347,-1859.6143 L44.6347,-1865.5143 L44.6347,-1865.5143 L52.1082,-1865.5143 L52.1082,-1859.6143 L52.1082,-1859.6143 L59.5816,-1859.6143 L59.5816,-1865.5143 L59.5816,-1865.5143 L67.0551,-1865.5143 L67.0551,-1859.6143 L67.0551,-1859.6143 L74.5286,-1859.6143 L74.5286,-1865.5143 L74.5286,-1865.5143 L74.5286,-1983.6143 L74.5286,-1983.6143 L22.2143,-1983.6143 L22.2143,-1983.6143 L19.3143,-1983.6143 L19.3143,-1974.5297 L22.2143,-1974.5297 L22.2143,-1974.5297 L22.2143,-1965.4451 L19.3143,-1965.4451 L19.3143,-1965.4451 L19.3143,-1956.3604 L22.2143,-1956.3604 L22.2143,-1956.3604 L22.2143,-1947.2758 L19.3143,-1947.2758 L19.3143,-1947.2758 L19.3143,-1938.1912 L22.2143,-1938.1912 L22.2143,-1938.1912 L22.2143,-1929.1066 L19.3143,-1929.1066 L19.3143,-1929.1066 L19.3143,-1920.0220 L22.2143,-1920.0220 L22.2143,-1920.0220 L22.2143,-1910.9374 L19.3143,-1910.9374 L19.3143,-1910.9374 L19.3143,-1901.8527 L22.2143,-1901.8527 L22.2143,-1901.8527 L22.2143,-1892.7681 L19.3143,-1892.7681 L19.3143,-1892.7681 L19.3143,-1883.6835 L22.2143,-1883.6835 L22.2143,-1883.6835 L22.2143,-1874.5989 L19.3143,-1874.5989 L19.3143,-1874.5989 L19.3143,-1865.5143 L22.2143,-1865.5143"></path>
	<path d="M22.2143,-1995.4143 L22.2143,-1989.5143 L29.6878,-1989.5143 L29.6878,-1995.4143 L29.6878,-1995.4143 L37.1612,-1995.4143 L37.1612,-1989.5143 L37.1612,-1989.5143 L44.6347,-1989.5143 L44.6347,-1995.4143 L44.6347,-1995.4143 L52.1082,-1995.4143 L52.1082,-1989.5143 L52.1082,-1989.5143 L59.5816,-1989.5143 L59.5816,-1995.4143 L59.5816,-1995.4143 L67.0551,-1995.4143 L67.0551,-1989.5143 L67.0551,-1989.5143 L74.5286,-1989.5143 L74.5286,-1995.4143 L74.5286,-1995.4143 L77.4286,-1995.4143 L77.4286,-2004.4989 L74.5286,-2004.4989 L74.5286,-2004.4989 L74.5286,-2013.5835 L77.4286,-2013.5835 L77.4286,-2013.5835 L77.4286,-2022.6681 L74.5286,-2022.6681 L74.5286,-2022.6681 L74.5286,-2031.7527 L77.4286,-2031.7527 L77.4286,-2031.7527 L77.4286,-2040.8374 L74.5286,-2040.8374 L74.5286,-2040.8374 L74.5286,-2049.9220 L77.4286,-2049.9220 L77.4286,-2049.9220 L77.4286,-2059.0066 L74.5286,-2059.0066 L74.5286,-2059.0066 L74.5286,-2068.0912 L77.4286,-2068.0912 L77.4286,-2068.0912 L77.4286,-2077.1758 L74.5286,-2077.1758 L74.5286,-2077.1758 L74.5286,-2086.2604 L77.4286,-2086.2604 L77.4286,-2086.2604 L77.4286,-2095.3451 L74.5286,-2095.3451 L74.5286,-2095.3451 L74.5286,-2104.4297 L77.4286,-2104.4297 L77.4286,-2104.4297 L77.4286,-2113.5143 L74.5286,-2113.5143 L74.5286,-2113.5143 L22.2143,-2113.5143 L22.2143,-2113.5143 L22.2143,-2104.4297 L22.2143,-2095.3451 L19.3143,-2095.3451 L19.3143,-2095.3451 L19.3143,-2086.2604 L22.2143,-2086.2604 L22.2143,-2086.2604 L22.2143,-2077.1758 L19.3143,-2077.1758 L19.3143,-2077.1758 L19.3143,-2068.0912 L22.2143,-2068.0912 L22.2143,-2068.0912 L22.2143,-2059.0066 L19.3143,-2059.0066 L19.3143,-2059.0066 L19.3143,-2049.9220 L22.2143,-2049.9220 L22.2143,-2049.9220 L22.2143,-2040.8374 L19.3143,-2040.8374 L19.3143,-2040.8374 L19.3143,-2031.7527 L22.2143,-2031.7527 L22.2143,-2031.7527 L22.2143,-2022.6681 L19.3143,-2022.6681 L19.3143,-2022.6681 L19.3143,-2013.5835 L22.2143,-2013.5835 L22.2143,-2013.5835 L22.2143,-2004.4989 L22.2143,-1995.4143"></path>
	<path d="M22.2143,-2125.3143 L22.2143,-2119.4143 L29.6878,-2119.4143 L29.6878,-2125.3143 L29.6878,-2125.3143 L37.1612,-2125.3143 L37.1612,-2119.4143 L37.1612,-2119.4143 L44.6347,-2119.4143 L44.6347,-2125.3143 L44.6347,-2125.3143 L52.1082,-2125.3143 L52.1082,-2119.4143 L52.1082,-2119.4143 L59.5816,-2119.4143 L59.5816,-2125.3143 L59.5816,-2125.3143 L67.0551,-2125.3143 L67.0551,-2119.4143 L67.0551,-2119.4143 L74.5286,-2119.4143 L74.5286,-2125.3143 L74.5286,-2125.3143 L77.4286,-2125.3143 L77.4286,-2134.3989 L74.5286,-2134.3989 L74.5286,-2134.3989 L74.5286,-2143.4835 L77.4286,-2143.4835 L77.4286,-2143.4835 L77.4286,-2152.5681 L74.5286,-2152.5681 L74.5286,-2152.5681 L74.5286,-2161.6527 L77.4286,-2161.6527 L77.4286,-2161.6527 L77.4286,-2170.7374 L74.5286,-2170.7374 L74.5286,-2170.7374 L74.5286,-2179.8220 L77.4286,-2179.8220 L77.4286,-2179.8220 L77.4286,-2188.9066 L74.5286,-2188.9066 L74.5286,-2188.9066 L74.5286,-2197.9912 L77.4286,-2197.9912 L77.4286,-2197.9912 L77.4286,-2207.0758 L74.5286,-2207.0758 L74.5286,-2207.0758 L74.5286,-2216.1604 L77.4286,-2216.1604 L77.4286,-2216.1604 L77.4286,-2225.2451 L74.5286,-2225.2451 L74.5286,-2225.2451 L74.5286,-2234.3297 L77.4286,-2234.3297 L77.4286,-2234.3297 L77.4286,-2243.4143 L74.5286,-2243.4143 L74.5286,-2243.4143 L22.2143,-2243.4143 L22.2143,-2243.4143 L19.3143,-2243.4143 L19.3143,-2234.3297 L22.2143,-2234.3297 L22.2143,-2234.3297 L22.2143,-2225.2451 L19.3143,-2225.2451 L19.3143,-2225.2451 L19.3143,-2216.1604 L22.2143,-2216.1604 L22.2143,-2216.1604 L22.2143,-2207.0758 L19.3143,-2207.0758 L19.3143,-2207.0758 L19.3143,-2197.9912 L22.2143,-2197.9912 L22.2143,-2197.9912 L22.2143,-2188.9066 L19.3143,-2188.9066 L19.3143,-2188.9066 L19.3143,-2179.8220 L22.2143,-2179.8220 L22.2143,-2179.8220 L22.2143,-2170.7374 L19.3143,-2170.7374 L19.3143,-2170.7374 L19.3143,-2161.6527 L22.2143,-2161.6527 L22.2143,-2161.6527 L22.2143,-2152.5681 L19.3143,-2152.5681 L19.3143,-2152.5681 L19.3143,-2143.4835 L22.2143,-2143.4835 L22.2143,-2143.4835 L22.2143,-2134.3989 L19.3143,-2134.3989 L19.3143,-2134.3989 L19.3143,-2125.3143 L22.2143,-2125.3143"></path>
	<path d="M22.2143,-2255.2143 L22.2143,-2249.3143 L29.6878,-2249.3143 L29.6878,-2255.2143 L29.6878,-2255.2143 L37.1612,-2255.2143 L37.1612,-2249.3143 L37.1612,-2249.3143 L44.6347,-2249.3143 L44.6347,-2255.2143 L44.6347,-2255.2143 L52.1082,-2255.2143 L52.1082,-2249.3143 L52.1082,-2249.3143 L59.5816,-2249.3143 L59.5816,-2255.2143 L59.5816,-2255.2143 L67.0551,-2255.2143 L67.0551,-2249.3143 L67.0551,-2249.3143 L74.5286,-2249.3143 L74.5286,-2255.2143 L74.5286,-2255.2143 L77.4286,-2255.2143 L77.4286,-2264.2989 L74.5286,-2264.2989 L74.5286,-2264.2989 L74.5286,-2273.3835 L77.4286,-2273.3835 L77.4286,-2273.3835 L77.4286,-2282.4681 L74.5286,-2282.4681 L74.5286,-2282.4681 L74.5286,-2291.5527 L77.4286,-2291.5527 L77.4286,-2291.5527 L77.4286,-2300.6374 L74.5286,-2300.6374 L74.5286,-2300.6374 L74.5286,-2309.7220 L77.4286,-2309.7220 L77.4286,-2309.7220 L77.4286,-2318.8066 L74.5286,-2318.8066 L74.5286,-2318.8066 L74.5286,-2327.8912 L77.4286,-2327.8912 L77.4286,-2327.8912 L77.4286,-2336.9758 L74.5286,-2336.9758 L74.5286,-2336.9758 L74.5286,-2346.0604 L77.4286,-2346.0604 L77.4286,-2346.0604 L77.4286,-2355.1451 L74.5286,-2355.1451 L74.5286,-2355.1451 L74.5286,-2364.2297 L77.4286,-2364.2297 L77.4286,-2364.2297 L77.4286,-2373.3143 L74.5286,-2373.3143 L74.5286,-2373.3143 L22.2143,-2373.3143 L22.2143,-2373.3143 L19.3143,-2373.3143 L19.3143,-2364.2297 L22.2143,-2364.2297 L22.2143,-2364.2297 L22.2143,-2355.1451 L19.3143,-2355.1451 L19.3143,-2355.1451 L19.3143,-2346.0604 L22.2143,-2346.0604 L22.2143,-2346.0604 L22.2143,-2336.9758 L19.3143,-2336.9758 L19.3143,-2336.9758 L19.3143,-2327.8912 L22.2143,-2327.8912 L22.2143,-2327.8912 L22.2143,-2318.8066 L19.3143,-2318.8066 L19.3143,-2318.8066 L19.3143,-2309.7220 L22.2143,-2309.7220 L22.2143,-2309.7220 L22.2143,-2300.6374 L19.3143,-2300.6374 L19.3143,-2300.6374 L19.3143,-2291.5527 L22.2143,-2291.5527 L22.2143,-2291.5527 L22.2143,-2282.4681 L19.3143,-2282.4681 L19.3143,-2282.4681 L19.3143,-2273.3835 L22.2143,-2273.3835 L22.2143,-2273.3835 L22.2143,-2264.2989 L19.3143,-2264.2989 L19.3143,-2264.2989 L19.3143,-2255.2143 L22.2143,-2255.2143"></path>
	<path d="M22.2143,-2385.1143 L22.2143,-2379.2143 L29.6878,-2379.2143 L29.6878,-2385.1143 L29.6878,-2385.1143 L37.1612,-2385.1143 L37.1612,-2379.2143 L37.1612,-2379.2143 L44.6347,-2379.2143 L44.6347,-2385.1143 L44.6347,-2385.1143 L52.1082,-2385.1143 L52.1082,-2379.2143 L52.1082,-2379.2143 L59.5816,-2379.2143 L59.5816,-2385.1143 L59.5816,-2385.1143 L67.0551,-2385.1143 L67.0551,-2379.2143 L67.0551,-2379.2143 L74.5286,-2379.2143 L74.5286,-2385.1143 L77.4286,-2385.1143 L77.4286,-2379.2143 L84.9020,-2379.2143 L84.9020,-2385.1143 L84.9020,-2385.1143 L92.3755,-2385.1143 L92.3755,-2379.2143 L92.3755,-2379.2143 L99.8490,-2379.2143 L99.8490,-2385.1143 L99.8490,-2385.1143 L107.3224,-2385.1143 L107.3224,-2379.2143 L107.3224,-2379.2143 L114.7959,-2379.2143 L114.7959,-2385.1143 L114.7959,-2385.1143 L122.2694,-2385.1143 L122.2694,-2379.2143 L122.2694,-2379.2143 L129.7429,-2379.2143 L129.7429,-2385.1143 L129.7429,-2385.1143 L129.7429,-2394.1989 L129.7429,-2403.2835 L132.6429,-2403.2835 L132.6429,-2403.2835 L132.6429,-2412.3681 L129.7429,-2412.3681 L129.7429,-2412.3681 L129.7429,-2421.4527 L132.6429,-2421.4527 L132.6429,-2421.4527 L132.6429,-2430.5374 L129.7429,-2430.5374 L129.7429,-2430.5374 L129.7429,-2439.6220 L132.6429,-2439.6220 L132.6429,-2439.6220 L132.6429,-2448.7066 L129.7429,-2448.7066 L129.7429,-2448.7066 L129.7429,-2457.7912 L132.6429,-2457.7912 L132.6429,-2457.7912 L132.6429,-2466.8758 L129.7429,-2466.8758 L129.7429,-2466.8758 L129.7429,-2475.9604 L132.6429,-2475.9604 L132.6429,-2475.9604 L132.6429,-2485.0451 L129.7429,-2485.0451 L129.7429,-2485.0451 L129.7429,-2494.1297 L129.7429,-2503.2143 L129.7429,-2503.2143 L22.2143,-2503.2143 L22.2143,-2503.2143 L22.2143,-2385.1143"></path>
	<path d="M74.5286,-2394.1989 L77.4286,-2394.1989 L77.4286,-2403.2835 L74.5286,-2403.2835 L74.5286,-2394.1989"></path>
	<path d="M74.5286,-2412.3681 L77.4286,-2412.3681 L77.4286,-2421.4527 L74.5286,-2421.4527 L74.5286,-2412.3681"></path>
	<path d="M74.5286,-2430.5374 L77.4286,-2430.5374 L77.4286,-2439.6220 L74.5286,-2439.6220 L74.5286,-2430.5374"></path>
	<path d="M74.5286,-2448.7066 L77.4286,-2448.7066 L77.4286,-2457.7912 L74.5286,-2457.7912 L74.5286,-2448.7066"></path>
	<path d="M74.5286,-2466.8758 L77.4286,-2466.8758 L77.4286,-2475.9604 L74.5286,-2475.9604 L74.5286,-2466.8758"></path>
	<path d="M74.5286,-2485.0451 L77.4286,-2485.0451 L77.4286,-2494.1297 L74.5286,-2494.1297 L74.5286,-2485.0451"></path>
	<path d="M22.2143,-2515.0143 L22.2143,-2509.1143 L29.6878,-2509.1143 L29.6878,-2515.0143 L29.6878,-2515.0143 L37.1612,-2515.0143 L37.1612,-2509.1143 L37.1612,-2509.1143 L44.6347,-2509.1143 L44.6347,-2515.0143 L44.6347,-2515.0143 L52.1082,-2515.0143 L52.1082,-2509.1143 L52.1082,-2509.1143 L59.5816,-2509.1143 L59.5816,-2515.0143 L59.5816,-2515.0143 L67.0551,-2515.0143 L67.0551,-2509.1143 L67.0551,-2509.1143 L74.5286,-2509.1143 L74.5286,-2515.0143 L77.4286,-2515.0143 L77.4286,-2509.1143 L84.9020,-2509.1143 L84.9020,-2515.0143 L84.9020,-2515.0143 L92.3755,-2515.0143 L92.3755,-2509.1143 L92.3755,-2509.1143 L99.8490,-2509.1143 L99.8490,-2515.0143 L99.8490,-2515.0143 L107.3224,-2515.0143 L107.3224,-2509.1143 L107.3224,-2509.1143 L114.7959,-2509.1143 L114.7959,-2515.0143 L114.7959,-2515.0143 L122.2694,-2515.0143 L122.2694,-2509.1143 L122.2694,-2509.1143 L129.7429,-2509.1143 L129.7429,-2515.0143 L132.6429,-2515.0143 L132.6429,-2509.1143 L140.1163,-2509.1143 L140.1163,-2515.0143 L140.1163,-2515.0143 L147.5898,-2515.0143 L147.5898,-2509.1143 L147.5898,-2509.1143 L155.0633,-2509.1143 L155.0633,-2515.0143 L155.0633,-2515.0143 L162.5367,-2515.0143 L162.5367,-2509.1143 L162.5367,-2509.1143 L170.0102,-2509.1143 L170.0102,-2515.0143 L170.0102,-2515.0143 L177.4837,-2515.0143 L177.4837,-2509.1143 L177.4837,-2509.1143 L184.9571,-2509.1143 L184.9571,-2515.0143 L184.9571,-2515.0143 L184.9571,-2633.1143 L184.9571,-2633.1143 L22.2143,-2633.1143 L22.2143,-2633.1143 L19.3143,-2633.1143 L19.3143,-2624.0297 L22.2143,-2624.0297 L22.2143,-2624.0297 L22.2143,-2614.9451 L19.3143,-2614.9451 L19.3143,-2614.9451 L19.3143,-2605.8604 L22.2143,-2605.8604 L22.2143,-2605.8604 L22.2143,-2596.7758 L19.3143,-2596.7758 L19.3143,-2596.7758 L19.3143,-2587.6912 L22.2143,-2587.6912 L22.2143,-2587.6912 L22.2143,-2578.6066 L19.3143,-2578.6066 L19.3143,-2578.6066 L19.3143,-2569.5220 L22.2143,-2569.5220 L22.2143,-2569.5220 L22.2143,-2560.4374 L19.3143,-2560.4374 L19.3143,-2560.4374 L19.3143,-2551.3527 L22.2143,-2551.3527 L22.2143,-2551.3527 L22.2143,-2542.2681 L19.3143,-2542.2681 L19.3143,-2542.2681 L19.3143,-2533.1835 L22.2143,-2533.1835 L22.2143,-2533.1835 L22.2143,-2524.0989 L19.3143,-2524.0989 L19.3143,-2524.0989 L19.3143,-2515.0143 L22.2143,-2515.0143"></path>
	<path d="M129.7429,-2524.0989 L132.6429,-2524.0989 L132.6429,-2533.1835 L129.7429,-2533.1835 L129.7429,-2524.0989"></path>
	<path d="M129.7429,-2542.2681 L132.6429,-2542.2681 L132.6429,-2551.3527 L129.7429,-2551.3527 L129.7429,-2542.2681"></path>
	<path d="M129.7429,-2560.4374 L132.6429,-2560.4374 L132.6429,-2569.5220 L129.7429,-2569.5220 L129.7429,-2560.4374"></path>
	<path d="M129.7429,-2578.6066 L132.6429,-2578.6066 L132.6429,-2587.6912 L129.7429,-2587.6912 L129.7429,-2578.6066"></path>
	<path d="M129.7429,-2596.7758 L132.6429,-2596.7758 L132.6429,-2605.8604 L129.7429,-2605.8604 L129.7429,-2596.7758"></path>
	<path d="M129.7429,-2614.9451 L132.6429,-2614.9451 L132.6429,-2624.0297 L129.7429,-2624.0297 L129.7429,-2614.9451"></path>
	<path d="M22.2143,-2644.9143 L22.2143,-2639.0143 L29.6878,-2639.0143 L29.6878,-2644.9143 L29.6878,-2644.9143 L37.1612,-2644.9143 L37.1612,-2639.0143 L37.1612,-2639.0143 L44.6347,-2639.0143 L44.6347,-2644.9143 L44.6347,-2644.9143 L52.1082,-2644.9143 L52.1082,-2639.0143 L52.1082,-2639.0143 L59.5816,-2639.0143 L59.5816,-2644.9143 L59.5816,-2644.9143 L67.0551,-2644.9143 L67.0551,-2639.0143 L67.0551,-2639.0143 L74.5286,-2639.0143 L74.5286,-2644.9143 L74.5286,-2644.9143 L74.5286,-2763.0143 L74.5286,-2763.0143 L22.2143,-2763.0143 L22.2143,-2763.0143 L19.3143,-2763.0143 L19.3143,-2753.9297 L22.2143,-2753.9297 L22.2143,-2753.9297 L22.2143,-2744.8451 L19.3143,-2744.8451 L19.3143,-2744.8451 L19.3143,-2735.7604 L22.2143,-2735.7604 L22.2143,-2735.7604 L22.2143,-2726.6758 L19.3143,-2726.6758 L19.3143,-2726.6758 L19.3143,-2717.5912 L22.2143,-2717.5912 L22.2143,-2717.5912 L22.2143,-2708.5066 L19.3143,-2708.5066 L19.3143,-2708.5066 L19.3143,-2699.4220 L22.2143,-2699.4220 L22.2143,-2699.4220 L22.2143,-2690.3374 L19.3143,-2690.3374 L19.3143,-2690.3374 L19.3143,-2681.2527 L22.2143,-2681.2527 L22.2143,-2681.2527 L22.2143,-2672.1681 L19.3143,-2672.1681 L19.3143,-2672.1681 L19.3143,-2663.0835 L22.2143,-2663.0835 L22.2143,-2663.0835 L22.2143,-2653.9989 L19.3143,-2653.9989 L19.3143,-2653.9989 L19.3143,-2644.9143 L22.2143,-2644.9143"></path>
	<path d="M22.2143,-2774.8143 L22.2143,-2768.9143 L29.6878,-2768.9143 L29.6878,-2774.8143 L29.6878,-2774.8143 L37.1612,-2774.8143 L37.1612,-2768.9143 L37.1612,-2768.9143 L44.6347,-2768.9143 L44.6347,-2774.8143 L44.6347,-2774.8143 L52.1082,-2774.8143 L52.1082,-2768.9143 L52.1082,-2768.9143 L59.5816,-2768.9143 L59.5816,-2774.8143 L59.5816,-2774.8143 L67.0551,-2774.8143 L67.0551,-2768.9143 L67.0551,-2768.9143 L74.5286,-2768.9143 L74.5286,-2774.8143 L74.5286,-2774.8143 L77.4286,-2774.8143 L77.4286,-2783.8989 L74.5286,-2783.8989 L74.5286,-2783.8989 L74.5286,-2792.9835 L77.4286,-2792.9835 L77.4286,-2792.9835 L77.4286,-2802.0681 L74.5286,-2802.0681 L74.5286,-2802.0681 L74.5286,-2811.1527 L77.4286,-2811.1527 L77.4286,-2811.1527 L77.4286,-2820.2374 L74.5286,-2820.2374 L74.5286,-2820.2374 L74.5286,-2829.3220 L77.4286,-2829.3220 L77.4286,-2829.3220 L77.4286,-2838.4066 L74.5286,-2838.4066 L74.5286,-2838.4066 L74.5286,-2847.4912 L77.4286,-2847.4912 L77.4286,-2847.4912 L77.4286,-2856.5758 L74.5286,-2856.5758 L74.5286,-2856.5758 L74.5286,-2865.6604 L77.4286,-2865.6604 L77.4286,-2865.6604 L77.4286,-2874.7451 L74.5286,-2874.7451 L74.5286,-2874.7451 L74.5286,-2883.8297 L77.4286,-2883.8297 L77.4286,-2883.8297 L77.4286,-2892.9143 L74.5286,-2892.9143 L74.5286,-2892.9143 L22.2143,-2892.9143 L22.2143,-2892.9143 L22.2143,-2774.8143"></path>
</g>
</svg>