<?xml version="1.0" encoding="utf-8"?>
<svg xmlns="http://www.w3.org/2000/svg" width="578.2000mm" height="388.4000mm" viewBox="0.5000 -990.2000 578.2000 388.4000">
<g>
	<path d="M1.9750,-990.2000 L1.9490,-990.1998 L1.9229,-990.1991 L1.8969,-990.1979 L1.8710,-990.1963 L1.8450,-990.1943 L1.8191,-990.1917 L1.7932,-990.1888 L1.7674,-990.1853 L1.7417,-990.1814 L1.7160,-990.1771 L1.6904,-990.1723 L1.6649,-990.1670 L1.6395,-990.1613 L1.6142,-990.1552 L1.5891,-990.1486 L1.5640,-990.1416 L1.5391,-990.1341 L1.5143,-990.1262 L1.4896,-990.1178 L1.4651,-990.1091 L1.4407,-990.0998 L1.4166,-990.0902 L1.3926,-990.0801 L1.3687,-990.0696 L1.3451,-990.0587 L1.3217,-990.0474 L1.2984,-990.0357 L1.2754,-990.0235 L1.2526,-990.0110 L1.2300,-989.9980 L1.2076,-989.9847 L1.1855,-989.9709 L1.1637,-989.9568 L1.1421,-989.9423 L1.1207,-989.9274 L1.0996,-989.9121 L1.0788,-989.8965 L1.0583,-989.8805 L1.0380,-989.8642 L1.0181,-989.8474 L0.9984,-989.8304 L0.9790,-989.8130 L0.9600,-989.7952 L0.9413,-989.7771 L0.9229,-989.7587 L0.9048,-989.7400 L0.8870,-989.7210 L0.8696,-989.7016 L0.8526,-989.6819 L0.8358,-989.6620 L0.8195,-989.6417 L0.8035,-989.6212 L0.7879,-989.6004 L0.7726,-989.5793 L0.7577,-989.5579 L0.7432,-989.5363 L0.7291,-989.5145 L0.7153,-989.4924 L0.7020,-989.4700 L0.6890,-989.4474 L0.6765,-989.4246 L0.6643,-989.4016 L0.6526,-989.3783 L0.6413,-989.3549 L0.6304,-989.3313 L0.6199,-989.3074 L0.6098,-989.2834 L0.6002,-989.2593 L0.5909,-989.2349 L0.5822,-989.2104 L0.5738,-989.1857 L0.5659,-989.1609 L0.5584,-989.1360 L0.5514,-989.1109 L0.5448,-989.0858 L0.5387,-989.0605 L0.5330,-989.0351 L0.5277,-989.0096 L0.5229,-988.9840 L0.5186,-988.9583 L0.5147,-988.9326 L0.5112,-988.9068 L0.5083,-988.8809 L0.5057,-988.8550 L0.5037,-988.8290 L0.5021,-988.8031 L0.5009,-988.7771 L0.5002,-988.7510 L0.5000,-988.7250 L0.5000,-603.2750 L0.5002,-603.2490 L0.5009,-603.2229 L0.5021,-603.1969 L0.5037,-603.1710 L0.5057,-603.1450 L0.5083,-603.1191 L0.5112,-603.0932 L0.5147,-603.0674 L0.5186,-603.0417 L0.5229,-603.0160 L0.5277,-602.9904 L0.5330,-602.9649 L0.5387,-602.9395 L0.5448,-602.9142 L0.5514,-602.8891 L0.5584,-602.8640 L0.5659,-602.8391 L0.5738,-602.8143 L0.5822,-602.7896 L0.5909,-602.7651 L0.6002,-602.7407 L0.6098,-602.7166 L0.6199,-602.6926 L0.6304,-602.6687 L0.6413,-602.6451 L0.6526,-602.6217 L0.6643,-602.5984 L0.6765,-602.5754 L0.6890,-602.5526 L0.7020,-602.5300 L0.7153,-602.5076 L0.7291,-602.4855 L0.7432,-602.4637 L0.7577,-602.4421 L0.7726,-602.4207 L0.7879,-602.3996 L0.8035,-602.3788 L0.8195,-602.3583 L0.8358,-602.3380 L0.8526,-602.3181 L0.8696,-602.2984 L0.8870,-602.2790 L0.9048,-602.2600 L0.9229,-602.2413 L0.9413,-602.2229 L0.9600,-602.2048 L0.9790,-602.1870 L0.9984,-602.1696 L1.0181,-602.1526 L1.0380,-602.1358 L1.0583,-602.1195 L1.0788,-602.1035 L1.0996,-602.0879 L1.1207,-602.0726 L1.1421,-602.0577 L1.1637,-602.0432 L1.1855,-602.0291 L1.2076,-602.0153 L1.2300,-602.0020 L1.2526,-601.9890 L1.2754,-601.9765 L1.2984,-601.9643 L1.3217,-601.9526 L1.3451,-601.9413 L1.3687,-601.9304 L1.3926,-601.9199 L1.4166,-601.9098 L1.4407,-601.9002 L1.4651,-601.8909 L1.4896,-601.8822 L1.5143,-601.8738 L1.5391,-601.8659 L1.5640,-601.8584 L1.5891,-601.8514 L1.6142,-601.8448 L1.6395,-601.8387 L1.6649,-601.8330 L1.6904,-601.8277 L1.7160,-601.8229 L1.7417,-601.8186 L1.7674,-601.8147 L1.7932,-601.8112 L1.8191,-601.8083 L1.8450,-601.8057 L1.8710,-601.8037 L1.8969,-601.8021 L1.9229,-601.8009 L1.9490,-601.8002 L1.9750,-601.8000 L178.0250,-601.8000 L178.0510,-601.8002 L178.0771,-601.8009 L178.1031,-601.8021 L178.1290,-601.8037 L178.1550,-601.8057 L178.1809,-601.8083 L178.2068,-601.8112 L178.2326,-601.8147 L178.2583,-601.8186 L178.2840,-601.8229 L178.3096,-601.8277 L178.3351,-601.8330 L178.3605,-601.8387 L178.3858,-601.8448 L178.4109,-601.8514 L178.4360,-601.8584 L178.4609,-601.8659 L178.4857,-601.8738 L178.5104,-601.8822 L178.5349,-601.8909 L178.5593,-601.9002 L178.5834,-601.9098 L178.6074,-601.9199 L178.6313,-601.9304 L178.6549,-601.9413 L178.6783,-601.9526 L178.7016,-601.9643 L178.7246,-601.9765 L178.7474,-601.9890 L178.7700,-602.0020 L178.7924,-602.0153 L178.8145,-602.0291 L178.8363,-602.0432 L178.8579,-602.0577 L178.8793,-602.0726 L178.9004,-602.0879 L178.9212,-602.1035 L178.9417,-602.1195 L178.9620,-602.1358 L178.9819,-602.1526 L179.0016,-602.1696 L179.0210,-602.1870 L179.0400,-602.2048 L179.0587,-602.2229 L179.0771,-602.2413 L179.0952,-602.2600 L179.1130,-602.2790 L179.1304,-602.2984 L179.1474,-602.3181 L179.1642,-602.3380 L179.1805,-602.3583 L179.1965,-602.3788 L179.2121,-602.3996 L179.2274,-602.4207 L179.2423,-602.4421 L179.2568,-602.4637 L179.2709,-602.4855 L179.2847,-602.5076 L179.2980,-602.5300 L179.3110,-602.5526 L179.3235,-602.5754 L179.3357,-602.5984 L179.3474,-602.6217 L179.3587,-602.6451 L179.3696,-602.6687 L179.3801,-602.6926 L179.3902,-602.7166 L179.3998,-602.7407 L179.4091,-602.7651 L179.4178,-602.7896 L179.4262,-602.8143 L179.4341,-602.8391 L179.4416,-602.8640 L179.4486,-602.8891 L179.4552,-602.9142 L179.4613,-602.9395 L179.4670,-602.9649 L179.4723,-602.9904 L179.4771,-603.0160 L179.4814,-603.0417 L179.4853,-603.0674 L179.4888,-603.0932 L179.4917,-603.1191 L179.4943,-603.1450 L179.4963,-603.1710 L179.4979,-603.1969 L179.4991,-603.2229 L179.4998,-603.2490 L179.5000,-603.2750 L179.5000,-988.7250 L179.4998,-988.7510 L179.4991,-988.7771 L179.4979,-988.8031 L179.4963,-988.8290 L179.4943,-988.8550 L179.4917,-988.8809 L179.4888,-988.9068 L179.4853,-988.9326 L179.4814,-988.9583 L179.4771,-988.9840 L179.4723,-989.0096 L179.4670,-989.0351 L179.4613,-989.0605 L179.4552,-989.0858 L179.4486,-989.1109 L179.4416,-989.1360 L179.4341,-989.1609 L179.4262,-989.1857 L179.4178,-989.2104 L179.4091,-989.2349 L179.3998,-989.2593 L179.3902,-989.2834 L179.3801,-989.3074 L179.3696,-989.3313 L179.3587,-989.3549 L179.3474,-989.3783 L179.3357,-989.4016 L179.3235,-989.4246 L179.3110,-989.4474 L179.2980,-989.4700 L179.2847,-989.4924 L179.2709,-989.5145 L179.2568,-989.5363 L179.2423,-989.5579 L179.2274,-989.5793 L179.2121,-989.6004 L179.1965,-989.6212 L179.1805,-989.6417 L179.1642,-989.6620 L179.1474,-989.6819 L179.1304,-989.7016 L179.1130,-989.7210 L179.0952,-989.7400 L179.0771,-989.7587 L179.0587,-989.7771 L179.0400,-989.7952 L179.0210,-989.8130 L179.0016,-989.8304 L178.9819,-989.8474 L178.9620,-989.8642 L178.9417,-989.8805 L178.9212,-989.8965 L178.9004,-989.9121 L178.8793,-989.9274 L178.8579,-989.9423 L178.8363,-989.9568 L178.8145,-989.9709 L178.7924,-989.9847 L178.7700,-989.9980 L178.7474,-990.0110 L178.7246,-990.0235 L178.7016,-990.0357 L178.6783,-990.0474 L178.6549,-990.0587 L178.6313,-990.0696 L178.6074,-990.0801 L178.5834,-990.0902 L178.5593,-990.0998 L178.5349,-990.1091 L178.5104,-990.1178 L178.4857,-990.1262 L178.4609,-990.1341 L178.4360,-990.1416 L178.4109,-990.1486 L178.3858,-990.1552 L178.3605,-990.1613 L178.3351,-990.1670 L178.3096,-990.1723 L178.2840,-990.1771 L178.2583,-990.1814 L178.2326,-990.1853 L178.2068,-990.1888 L178.1809,-990.1917 L178.1550,-990.1943 L178.1290,-990.1963 L178.1031,-990.1979 L178.0771,-990.1991 L178.0510,-990.1998 L178.0250,-990.2000 L1.9750,-990.2000"></path>
	<path d="M188.8750,-990.2000 L188.8490,-990.1998 L188.8229,-990.1991 L188.7969,-990.1979 L188.7710,-990.1963 L188.7450,-990.1943 L188.7191,-990.1917 L188.6932,-990.1888 L188.6674,-990.1853 L188.6417,-990.1814 L188.6160,-990.1771 L188.5904,-990.1723 L188.5649,-990.1670 L188.5395,-990.1613 L188.5142,-990.1552 L188.4891,-990.1486 L188.4640,-990.1416 L188.4391,-990.1341 L188.4143,-990.1262 L188.3896,-990.1178 L188.3651,-990.1091 L188.3407,-990.0998 L188.3166,-990.0902 L188.2926,-990.0801 L188.2687,-990.0696 L188.2451,-990.0587 L188.2217,-990.0474 L188.1984,-990.0357 L188.1754,-990.0235 L188.1526,-990.0110 L188.1300,-989.9980 L188.1076,-989.9847 L188.0855,-989.9709 L188.0637,-989.9568 L188.0421,-989.9423 L188.0207,-989.9274 L187.9996,-989.9121 L187.9788,-989.8965 L187.9583,-989.8805 L187.9380,-989.8642 L187.9181,-989.8474 L187.8984,-989.8304 L187.8790,-989.8130 L187.8600,-989.7952 L187.8413,-989.7771 L187.8229,-989.7587 L187.8048,-989.7400 L187.7870,-989.7210 L187.7696,-989.7016 L187.7526,-989.6819 L187.7358,-989.6620 L187.7195,-989.6417 L187.7035,-989.6212 L187.6879,-989.6004 L187.6726,-989.5793 L187.6577,-989.5579 L187.6432,-989.5363 L187.6291,-989.5145 L187.6153,-989.4924 L187.6020,-989.4700 L187.5890,-989.4474 L187.5765,-989.4246 L187.5643,-989.4016 L187.5526,-989.3783 L187.5413,-989.3549 L187.5304,-989.3313 L187.5199,-989.3074 L187.5098,-989.2834 L187.5002,-989.2593 L187.4909,-989.2349 L187.4822,-989.2104 L187.4738,-989.1857 L187.4659,-989.1609 L187.4584,-989.1360 L187.4514,-989.1109 L187.4448,-989.0858 L187.4387,-989.0605 L187.4330,-989.0351 L187.4277,-989.0096 L187.4229,-988.9840 L187.4186,-988.9583 L187.4147,-988.9326 L187.4112,-988.9068 L187.4083,-988.8809 L187.4057,-988.8550 L187.4037,-988.8290 L187.4021,-988.8031 L187.4009,-988.7771 L187.4002,-988.7510 L187.4000,-988.7250 L187.4000,-603.2750 L187.4002,-603.2490 L187.4009,-603.2229 L187.4021,-603.1969 L187.4037,-603.1710 L187.4057,-603.1450 L187.4083,-603.1191 L187.4112,-603.0932 L187.4147,-603.0674 L187.4186,-603.0417 L187.4229,-603.0160 L187.4277,-602.9904 L187.4330,-602.9649 L187.4387,-602.9395 L187.4448,-602.9142 L187.4514,-602.8891 L187.4584,-602.8640 L187.4659,-602.8391 L187.4738,-602.8143 L187.4822,-602.7896 L187.4909,-602.7651 L187.5002,-602.7407 L187.5098,-602.7166 L187.5199,-602.6926 L187.5304,-602.6687 L187.5413,-602.6451 L187.5526,-602.6217 L187.5643,-602.5984 L187.5765,-602.5754 L187.5890,-602.5526 L187.6020,-602.5300 L187.6153,-602.5076 L187.6291,-602.4855 L187.6432,-602.4637 L187.6577,-602.4421 L187.6726,-602.4207 L187.6879,-602.3996 L187.7035,-602.3788 L187.7195,-602.3583 L187.7358,-602.3380 L187.7526,-602.3181 L187.7696,-602.2984 L187.7870,-602.2790 L187.8048,-602.2600 L187.8229,-602.2413 L187.8413,-602.2229 L187.8600,-602.2048 L187.8790,-602.1870 L187.8984,-602.1696 L187.9181,-602.1526 L187.9380,-602.1358 L187.9583,-602.1195 L187.9788,-602.1035 L187.9996,-602.0879 L188.0207,-602.0726 L188.0421,-602.0577 L188.0637,-602.0432 L188.0855,-602.0291 L188.1076,-602.0153 L188.1300,-602.0020 L188.1526,-601.9890 L188.1754,-601.9765 L188.1984,-601.9643 L188.2217,-601.9526 L188.2451,-601.9413 L188.2687,-601.9304 L188.2926,-601.9199 L188.3166,-601.9098 L188.3407,-601.9002 L188.3651,-601.8909 L188.3896,-601.8822 L188.4143,-601.8738 L188.4391,-601.8659 L188.4640,-601.8584 L188.4891,-601.8514 L188.5142,-601.8448 L188.5395,-601.8387 L188.5649,-601.8330 L188.5904,-601.8277 L188.6160,-601.8229 L188.6417,-601.8186 L188.6674,-601.8147 L188.6932,-601.8112 L188.7191,-601.8083 L188.7450,-601.8057 L188.7710,-601.8037 L188.7969,-601.8021 L188.8229,-601.8009 L188.8490,-601.8002 L188.8750,-601.8000 L577.2250,-601.8000 L577.2510,-601.8002 L577.2771,-601.8009 L577.3031,-601.8021 L577.3290,-601.8037 L577.3550,-601.8057 L577.3809,-601.8083 L577.4068,-601.8112 L577.4326,-601.8147 L577.4583,-601.8186 L577.4840,-601.8229 L577.5096,-601.8277 L577.5351,-601.8330 L577.5605,-601.8387 L577.5858,-601.8448 L577.6109,-601.8514 L577.6360,-601.8584 L577.6609,-601.8659 L577.6857,-601.8738 L577.7104,-601.8822 L577.7349,-601.8909 L577.7593,-601.9002 L577.7834,-601.9098 L577.8074,-601.9199 L577.8313,-601.9304 L577.8549,-601.9413 L577.8783,-601.9526 L577.9016,-601.9643 L577.9246,-601.9765 L577.9474,-601.9890 L577.9700,-602.0020 L577.9924,-602.0153 L578.0145,-602.0291 L578.0363,-602.0432 L578.0579,-602.0577 L578.0793,-602.0726 L578.1004,-602.0879 L578.1212,-602.1035 L578.1417,-602.1195 L578.1620,-602.1358 L578.1819,-602.1526 L578.2016,-602.1696 L578.2210,-602.1870 L578.2400,-602.2048 L578.2587,-602.2229 L578.2771,-602.2413 L578.2952,-602.2600 L578.3130,-602.2790 L578.3304,-602.2984 L578.3474,-602.3181 L578.3642,-602.3380 L578.3805,-602.3583 L578.3965,-602.3788 L578.4121,-602.3996 L578.4274,-602.4207 L578.4423,-602.4421 L578.4568,-602.4637 L578.4709,-602.4855 L578.4847,-602.5076 L578.4980,-602.5300 L578.5110,-602.5526 L578.5235,-602.5754 L578.5357,-602.5984 L578.5474,-602.6217 L578.5587,-602.6451 L578.5696,-602.6687 L578.5801,-602.6926 L578.5902,-602.7166 L578.5998,-602.7407 L578.6091,-602.7651 L578.6178,-602.7896 L578.6262,-602.8143 L578.6341,-602.8391 L578.6416,-602.8640 L578.6486,-602.8891 L578.6552,-602.9142 L578.6613,-602.9395 L578.6670,-602.9649 L578.6723,-602.9904 L578.6771,-603.0160 L578.6814,-603.0417 L578.6853,-603.0674 L578.6888,-603.0932 L578.6917,-603.1191 L578.6943,-603.1450 L578.6963,-603.1710 L578.6979,-603.1969 L578.6991,-603.2229 L578.6998,-603.2490 L578.7000,-603.2750 L578.7000,-988.7250 L578.6998,-988.7510 L578.6991,-988.7771 L578.6979,-988.8031 L578.6963,-988.8290 L578.6943,-988.8550 L578.6917,-988.8809 L578.6888,-988.9068 L578.6853,-988.9326 L578.6814,-988.9583 L578.6771,-988.9840 L578.6723,-989.0096 L578.6670,-989.0351 L578.6613,-989.0605 L578.6552,-989.0858 L578.6486,-989.1109 L578.6416,-989.1360 L578.6341,-989.1609 L578.6262,-989.1857 L578.6178,-989.2104 L578.6091,-989.2349 L578.5998,-989.2593 L578.5902,-989.2834 L578.5801,-989.3074 L578.5696,-989.3313 L578.5587,-989.3549 L578.5474,-989.3783 L578.5357,-989.4016 L578.5235,-989.4246 L578.5110,-989.4474 L578.4980,-989.4700 L578.4847,-989.4924 L578.4709,-989.5145 L578.4568,-989.5363 L578.4423,-989.5579 L578.4274,-989.5793 L578.4121,-989.6004 L578.3965,-989.6212 L578.3805,-989.6417 L578.3642,-989.6620 L578.3474,-989.6819 L578.3304,-989.7016 L578.3130,-989.7210 L578.2952,-989.7400 L578.2771,-989.7587 L578.2587,-989.7771 L578.2400,-989.7952 L578.2210,-989.8130 L578.2016,-989.8304 L578.1819,-989.8474 L578.1620,-989.8642 L578.1417,-989.8805 L578.1212,-989.8965 L578.1004,-989.9121 L578.0793,-989.9274 L578.0579,-989.9423 L578.0363,-989.9568 L578.0145,-989.9709 L577.9924,-989.9847 L577.9700,-989.9980 L577.9474,-990.0110 L577.9246,-990.0235 L577.9016,-990.0357 L577.8783,-990.0474 L577.8549,-990.0587 L577.8313,-990.0696 L577.8074,-990.0801 L577.7834,-990.0902 L577.7593,-990.0998 L577.7349,-990.1091 L577.7104,-990.1178 L577.6857,-990.1262 L577.6609,-990.1341 L577.6360,-990.1416 L577.6109,-990.1486 L577.5858,-990.1552 L577.5605,-990.1613 L577.5351,-990.1670 L577.5096,-990.1723 L577.4840,-990.1771 L577.4583,-990.1814 L577.4326,-990.1853 L577.4068,-990.1888 L577.3809,-990.1917 L577.3550,-990.1943 L577.3290,-990.1963 L577.3031,-990.1979 L577.2771,-990.1991 L577.2510,-990.1998 L577.2250,-990.2000 L188.8750,-990.2000"></path>
</g>
</svg>