<?xml version="1.0" encoding="utf-8"?>
<svg xmlns="http://www.w3.org/2000/svg" width="590.0000mm" height="401.2000mm" viewBox="-601.8000 11.8000 590.0000 401.2000">
<g>
	<path d="M-17.7000,17.7000 L-29.5000,17.7000 L-29.5000,11.8000 L-29.5000,11.8000 L-41.3000,11.8000 L-41.3000,17.7000 L-41.3000,17.7000 L-53.1000,17.7000 L-53.1000,11.8000 L-53.1000,11.8000 L-64.9000,11.8000 L-64.9000,17.7000 L-64.9000,17.7000 L-76.7000,17.7000 L-76.7000,11.8000 L-76.7000,11.8000 L-88.5000,11.8000 L-88.5000,17.7000 L-88.5000,17.7000 L-100.3000,17.7000 L-100.3000,11.8000 L-100.3000,11.8000 L-112.1000,11.8000 L-112.1000,17.7000 L-112.1000,17.7000 L-123.9000,17.7000 L-123.9000,11.8000 L-123.9000,11.8000 L-135.7000,11.8000 L-135.7000,17.7000 L-135.7000,17.7000 L-147.5000,17.7000 L-147.5000,11.8000 L-147.5000,11.8000 L-159.3000,11.8000 L-159.3000,17.7000 L-159.3000,17.7000 L-171.1000,17.7000 L-171.1000,11.8000 L-171.1000,11.8000 L-182.9000,11.8000 L-182.9000,17.7000 L-182.9000,17.7000 L-194.7000,17.7000 L-194.7000,11.8000 L-194.7000,11.8000 L-206.5000,11.8000 L-206.5000,17.7000 L-206.5000,17.7000 L-218.3000,17.7000 L-218.3000,11.8000 L-218.3000,11.8000 L-230.1000,11.8000 L-230.1000,17.7000 L-230.1000,17.7000 L-241.9000,17.7000 L-241.9000,11.8000 L-241.9000,11.8000 L-253.7000,11.8000 L-253.7000,17.7000 L-253.7000,17.7000 L-265.5000,17.7000 L-265.5000,11.8000 L-265.5000,11.8000 L-277.3000,11.8000 L-277.3000,17.7000 L-277.3000,17.7000 L-289.1000,17.7000 L-289.1000,11.8000 L-289.1000,11.8000 L-300.9000,11.8000 L-300.9000,17.7000 L-300.9000,17.7000 L-312.7000,17.7000 L-312.7000,11.8000 L-312.7000,11.8000 L-324.5000,11.8000 L-324.5000,17.7000 L-324.5000,17.7000 L-336.3000,17.7000 L-336.3000,11.8000 L-336.3000,11.8000 L-348.1000,11.8000 L-348.1000,17.7000 L-348.1000,17.7000 L-359.9000,17.7000 L-359.9000,11.8000 L-359.9000,11.8000 L-371.7000,11.8000 L-371.7000,17.7000 L-371.7000,17.7000 L-383.5000,17.7000 L-383.5000,11.8000 L-383.5000,11.8000 L-395.3000,11.8000 L-395.3000,17.7000 L-395.3000,17.7000 L-407.1000,17.7000 L-407.1000,11.8000 L-407.1000,11.8000 L-418.9000,11.8000 L-418.9000,17.7000 L-418.9000,17.7000 L-430.7000,17.7000 L-430.7000,11.8000 L-430.7000,11.8000 L-442.5000,11.8000 L-442.5000,17.7000 L-442.5000,17.7000 L-454.3000,17.7000 L-454.3000,11.8000 L-454.3000,11.8000 L-466.1000,11.8000 L-466.1000,17.7000 L-466.1000,17.7000 L-477.9000,17.7000 L-477.9000,11.8000 L-477.9000,11.8000 L-489.7000,11.8000 L-489.7000,17.7000 L-489.7000,17.7000 L-501.5000,17.7000 L-501.5000,11.8000 L-501.5000,11.8000 L-513.3000,11.8000 L-513.3000,17.7000 L-513.3000,17.7000 L-525.1000,17.7000 L-525.1000,11.8000 L-525.1000,11.8000 L-536.9000,11.8000 L-536.9000,17.7000 L-536.9000,17.7000 L-548.7000,17.7000 L-548.7000,11.8000 L-548.7000,11.8000 L-560.5000,11.8000 L-560.5000,17.7000 L-560.5000,17.7000 L-572.3000,17.7000 L-572.3000,11.8000 L-572.3000,11.8000 L-584.1000,11.8000 L-584.1000,17.7000 L-584.1000,17.7000 L-595.9000,17.7000 L-595.9000,17.7000 L-595.9000,29.5000 L-601.8000,29.5000 L-601.8000,29.5000 L-601.8000,41.3000 L-595.9000,41.3000 L-595.9000,41.3000 L-595.9000,53.1000 L-601.8000,53.1000 L-601.8000,53.1000 L-601.8000,64.9000 L-595.9000,64.9000 L-595.9000,64.9000 L-595.9000,76.7000 L-601.8000,76.7000 L-601.8000,76.7000 L-601.8000,88.5000 L-595.9000,88.5000 L-595.9000,88.5000 L-595.9000,100.3000 L-601.8000,100.3000 L-601.8000,100.3000 L-601.8000,112.1000 L-595.9000,112.1000 L-595.9000,112.1000 L-595.9000,123.9000 L-601.8000,123.9000 L-601.8000,123.9000 L-601.8000,135.7000 L-595.9000,135.7000 L-595.9000,135.7000 L-595.9000,147.5000 L-601.8000,147.5000 L-601.8000,147.5000 L-601.8000,159.3000 L-595.9000,159.3000 L-595.9000,159.3000 L-595.9000,171.1000 L-601.8000,171.1000 L-601.8000,171.1000 L-601.8000,182.9000 L-595.9000,182.9000 L-595.9000,182.9000 L-595.9000,194.7000 L-601.8000,194.7000 L-601.8000,194.7000 L-601.8000,206.5000 L-595.9000,206.5000 L-595.9000,206.5000 L-595.9000,218.3000 L-601.8000,218.3000 L-601.8000,218.3000 L-601.8000,230.1000 L-595.9000,230.1000 L-595.9000,230.1000 L-595.9000,241.9000 L-601.8000,241.9000 L-601.8000,241.9000 L-601.8000,253.7000 L-595.9000,253.7000 L-595.9000,253.7000 L-595.9000,265.5000 L-601.8000,265.5000 L-601.8000,265.5000 L-601.8000,277.3000 L-595.9000,277.3000 L-595.9000,277.3000 L-595.9000,289.1000 L-601.8000,289.1000 L-601.8000,289.1000 L-601.8000,300.9000 L-595.9000,300.9000 L-595.9000,300.9000 L-595.9000,312.7000 L-601.8000,312.7000 L-601.8000,312.7000 L-601.8000,324.5000 L-595.9000,324.5000 L-595.9000,324.5000 L-595.9000,336.3000 L-601.8000,336.3000 L-601.8000,336.3000 L-601.8000,348.1000 L-595.9000,348.1000 L-595.9000,348.1000 L-595.9000,359.9000 L-601.8000,359.9000 L-601.8000,359.9000 L-601.8000,371.7000 L-595.9000,371.7000 L-595.9000,371.7000 L-595.9000,383.5000 L-601.8000,383.5000 L-601.8000,383.5000 L-601.8000,395.3000 L-595.9000,395.3000 L-595.9000,395.3000 L-595.9000,407.1000 L-595.9000,407.1000 L-584.1000,407.1000 L-584.1000,413.0000 L-584.1000,413.0000 L-572.3000,413.0000 L-572.3000,407.1000 L-572.3000,407.1000 L-560.5000,407.1000 L-560.5000,413.0000 L-560.5000,413.0000 L-548.7000,413.0000 L-548.7000,407.1000 L-548.7000,407.1000 L-536.9000,407.1000 L-536.9000,413.0000 L-536.9000,413.0000 L-525.1000,413.0000 L-525.1000,407.1000 L-525.1000,407.1000 L-513.3000,407.1000 L-513.3000,413.0000 L-513.3000,413.0000 L-501.5000,413.0000 L-501.5000,407.1000 L-501.5000,407.1000 L-489.7000,407.1000 L-489.7000,413.0000 L-489.7000,413.0000 L-477.9000,413.0000 L-477.9000,407.1000 L-477.9000,407.1000 L-466.1000,407.1000 L-466.1000,413.0000 L-466.1000,413.0000 L-454.3000,413.0000 L-454.3000,407.1000 L-454.3000,407.1000 L-442.5000,407.1000 L-442.5000,413.0000 L-442.5000,413.0000 L-430.7000,413.0000 L-430.7000,407.1000 L-430.7000,407.1000 L-418.9000,407.1000 L-418.9000,413.0000 L-418.9000,413.0000 L-407.1000,413.0000 L-407.1000,407.1000 L-407.1000,407.1000 L-395.3000,407.1000 L-395.3000,413.0000 L-395.3000,413.0000 L-383.5000,413.0000 L-383.5000,407.1000 L-383.5000,407.1000 L-371.7000,407.1000 L-371.7000,413.0000 L-371.7000,413.0000 L-359.9000,413.0000 L-359.9000,407.1000 L-359.9000,407.1000 L-348.1000,407.1000 L-348.1000,413.0000 L-348.1000,413.0000 L-336.3000,413.0000 L-336.3000,407.1000 L-336.3000,407.1000 L-324.5000,407.1000 L-324.5000,413.0000 L-324.5000,413.0000 L-312.7000,413.0000 L-312.7000,407.1000 L-312.7000,407.1000 L-300.9000,407.1000 L-300.9000,413.0000 L-300.9000,413.0000 L-289.1000,413.0000 L-289.1000,407.1000 L-289.1000,407.1000 L-277.3000,407.1000 L-277.3000,413.0000 L-277.3000,413.0000 L-265.5000,413.0000 L-265.5000,407.1000 L-265.5000,407.1000 L-253.7000,407.1000 L-253.7000,413.0000 L-253.7000,413.0000 L-241.9000,413.0000 L-241.9000,407.1000 L-241.9000,407.1000 L-230.1000,407.1000 L-230.1000,413.0000 L-230.1000,413.0000 L-218.3000,413.0000 L-218.3000,407.1000 L-218.3000,407.1000 L-206.5000,407.1000 L-206.5000,413.0000 L-206.5000,413.0000 L-194.7000,413.0000 L-194.7000,407.1000 L-194.7000,407.1000 L-182.9000,407.1000 L-182.9000,413.0000 L-182.9000,413.0000 L-171.1000,413.0000 L-171.1000,407.1000 L-171.1000,407.1000 L-159.3000,407.1000 L-159.3000,413.0000 L-159.3000,413.0000 L-147.5000,413.0000 L-147.5000,407.1000 L-147.5000,407.1000 L-135.7000,407.1000 L-135.7000,413.0000 L-135.7000,413.0000 L-123.9000,413.0000 L-123.9000,407.1000 L-123.9000,407.1000 L-112.1000,407.1000 L-112.1000,413.0000 L-112.1000,413.0000 L-100.3000,413.0000 L-100.3000,407.1000 L-100.3000,407.1000 L-88.5000,407.1000 L-88.5000,413.0000 L-88.5000,413.0000 L-76.7000,413.0000 L-76.7000,407.1000 L-76.7000,407.1000 L-64.9000,407.1000 L-64.9000,413.0000 L-64.9000,413.0000 L-53.1000,413.0000 L-53.1000,407.1000 L-53.1000,407.1000 L-41.3000,407.1000 L-41.3000,413.0000 L-41.3000,413.0000 L-29.5000,413.0000 L-29.5000,407.1000 L-29.5000,407.1000 L-17.7000,407.1000 L-17.7000,407.1000 L-17.7000,395.3000 L-11.8000,395.3000 L-11.8000,395.3000 L-11.8000,383.5000 L-17.7000,383.5000 L-17.7000,383.5000 L-17.7000,371.7000 L-11.8000,371.7000 L-11.8000,371.7000 L-11.8000,359.9000 L-17.7000,359.9000 L-17.7000,359.9000 L-17.7000,348.1000 L-11.8000,348.1000 L-11.8000,348.1000 L-11.8000,336.3000 L-17.7000,336.3000 L-17.7000,336.3000 L-17.7000,324.5000 L-11.8000,324.5000 L-11.8000,324.5000 L-11.8000,312.7000 L-17.7000,312.7000 L-17.7000,312.7000 L-17.7000,300.9000 L-11.8000,300.9000 L-11.8000,300.9000 L-11.8000,289.1000 L-17.7000,289.1000 L-17.7000,289.1000 L-17.7000,277.3000 L-11.8000,277.3000 L-11.8000,277.3000 L-11.8000,265.5000 L-17.7000,265.5000 L-17.7000,265.5000 L-17.7000,253.7000 L-11.8000,253.7000 L-11.8000,253.7000 L-11.8000,241.9000 L-17.7000,241.9000 L-17.7000,241.9000 L-17.7000,230.1000 L-11.8000,230.1000 L-11.8000,230.1000 L-11.8000,218.3000 L-17.7000,218.3000 L-17.7000,218.3000 L-17.7000,206.5000 L-11.8000,206.5000 L-11.8000,206.5000 L-11.8000,194.7000 L-17.7000,194.7000 L-17.7000,194.7000 L-17.7000,182.9000 L-11.8000,182.9000 L-11.8000,182.9000 L-11.8000,171.1000 L-17.7000,171.1000 L-17.7000,171.1000 L-17.7000,159.3000 L-11.8000,159.3000 L-11.8000,159.3000 L-11.8000,147.5000 L-17.7000,147.5000 L-17.7000,147.5000 L-17.7000,135.7000 L-11.8000,135.7000 L-11.8000,135.7000 L-11.8000,123.9000 L-17.7000,123.9000 L-17.7000,123.9000 L-17.7000,112.1000 L-11.8000,112.1000 L-11.8000,112.1000 L-11.8000,100.3000 L-17.7000,100.3000 L-17.7000,100.3000 L-17.7000,88.5000 L-11.8000,88.5000 L-11.8000,88.5000 L-11.8000,76.7000 L-17.7000,76.7000 L-17.7000,76.7000 L-17.7000,64.9000 L-11.8000,64.9000 L-11.8000,64.9000 L-11.8000,53.1000 L-17.7000,53.1000 L-17.7000,53.1000 L-17.7000,41.3000 L-11.8000,41.3000 L-11.8000,41.3000 L-11.8000,29.5000 L-17.7000,29.5000 L-17.7000,29.5000 L-17.7000,17.7000 L-17.7000,17.7000"></path>
	<path d="M-559.4250,52.7000 L-559.4510,52.7002 L-559.4771,52.7009 L-559.5031,52.7021 L-559.5290,52.7037 L-559.5550,52.7057 L-559.5809,52.7083 L-559.6068,52.7112 L-559.6326,52.7147 L-559.6583,52.7186 L-559.6840,52.7229 L-559.7096,52.7277 L-559.7351,52.7330 L-559.7605,52.7387 L-559.7858,52.7448 L-559.8109,52.7514 L-559.8360,52.7584 L-559.8609,52.7659 L-559.8857,52.7738 L-559.9104,52.7822 L-559.9349,52.7909 L-559.9593,52.8002 L-559.9834,52.8098 L-560.0074,52.8199 L-560.0313,52.8304 L-560.0549,52.8413 L-560.0783,52.8526 L-560.1016,52.8643 L-560.1246,52.8765 L-560.1474,52.8890 L-560.1700,52.9020 L-560.1924,52.9153 L-560.2145,52.9291 L-560.2363,52.9432 L-560.2579,52.9577 L-560.2793,52.9726 L-560.3004,52.9879 L-560.3212,53.0035 L-560.3417,53.0195 L-560.3620,53.0358 L-560.3819,53.0526 L-560.4016,53.0696 L-560.4210,53.0870 L-560.4400,53.1048 L-560.4587,53.1229 L-560.4771,53.1413 L-560.4952,53.1600 L-560.5130,53.1790 L-560.5304,53.1984 L-560.5474,53.2181 L-560.5642,53.2380 L-560.5805,53.2583 L-560.5965,53.2788 L-560.6121,53.2996 L-560.6274,53.3207 L-560.6423,53.3421 L-560.6568,53.3637 L-560.6709,53.3855 L-560.6847,53.4076 L-560.6980,53.4300 L-560.7110,53.4526 L-560.7235,53.4754 L-560.7357,53.4984 L-560.7474,53.5217 L-560.7587,53.5451 L-560.7696,53.5687 L-560.7801,53.5926 L-560.7902,53.6166 L-560.7998,53.6407 L-560.8091,53.6651 L-560.8178,53.6896 L-560.8262,53.7143 L-560.8341,53.7391 L-560.8416,53.7640 L-560.8486,53.7891 L-560.8552,53.8142 L-560.8613,53.8395 L-560.8670,53.8649 L-560.8723,53.8904 L-560.8771,53.9160 L-560.8814,53.9417 L-560.8853,53.9674 L-560.8888,53.9932 L-560.8917,54.0191 L-560.8943,54.0450 L-560.8963,54.0710 L-560.8979,54.0969 L-560.8991,54.1229 L-560.8998,54.1490 L-560.9000,54.1750 L-560.9000,370.6250 L-560.8998,370.6510 L-560.8991,370.6771 L-560.8979,370.7031 L-560.8963,370.7290 L-560.8943,370.7550 L-560.8917,370.7809 L-560.8888,370.8068 L-560.8853,370.8326 L-560.8814,370.8583 L-560.8771,370.8840 L-560.8723,370.9096 L-560.8670,370.9351 L-560.8613,370.9605 L-560.8552,370.9858 L-560.8486,371.0109 L-560.8416,371.0360 L-560.8341,371.0609 L-560.8262,371.0857 L-560.8178,371.1104 L-560.8091,371.1349 L-560.7998,371.1593 L-560.7902,371.1834 L-560.7801,371.2074 L-560.7696,371.2313 L-560.7587,371.2549 L-560.7474,371.2783 L-560.7357,371.3016 L-560.7235,371.3246 L-560.7110,371.3474 L-560.6980,371.3700 L-560.6847,371.3924 L-560.6709,371.4145 L-560.6568,371.4363 L-560.6423,371.4579 L-560.6274,371.4793 L-560.6121,371.5004 L-560.5965,371.5212 L-560.5805,371.5417 L-560.5642,371.5620 L-560.5474,371.5819 L-560.5304,371.6016 L-560.5130,371.6210 L-560.4952,371.6400 L-560.4771,371.6587 L-560.4587,371.6771 L-560.4400,371.6952 L-560.4210,371.7130 L-560.4016,371.7304 L-560.3819,371.7474 L-560.3620,371.7642 L-560.3417,371.7805 L-560.3212,371.7965 L-560.3004,371.8121 L-560.2793,371.8274 L-560.2579,371.8423 L-560.2363,371.8568 L-560.2145,371.8709 L-560.1924,371.8847 L-560.1700,371.8980 L-560.1474,371.9110 L-560.1246,371.9235 L-560.1016,371.9357 L-560.0783,371.9474 L-560.0549,371.9587 L-560.0313,371.9696 L-560.0074,371.9801 L-559.9834,371.9902 L-559.9593,371.9998 L-559.9349,372.0091 L-559.9104,372.0178 L-559.8857,372.0262 L-559.8609,372.0341 L-559.8360,372.0416 L-559.8109,372.0486 L-559.7858,372.0552 L-559.7605,372.0613 L-559.7351,372.0670 L-559.7096,372.0723 L-559.6840,372.0771 L-559.6583,372.0814 L-559.6326,372.0853 L-559.6068,372.0888 L-559.5809,372.0917 L-559.5550,372.0943 L-559.5290,372.0963 L-559.5031,372.0979 L-559.4771,372.0991 L-559.4510,372.0998 L-559.4250,372.1000 L-54.1750,372.1000 L-54.1490,372.0998 L-54.1229,372.0991 L-54.0969,372.0979 L-54.0710,372.0963 L-54.0450,372.0943 L-54.0191,372.0917 L-53.9932,372.0888 L-53.9674,372.0853 L-53.9417,372.0814 L-53.9160,372.0771 L-53.8904,372.0723 L-53.8649,372.0670 L-53.8395,372.0613 L-53.8142,372.0552 L-53.7891,372.0486 L-53.7640,372.0416 L-53.7391,372.0341 L-53.7143,372.0262 L-53.6896,372.0178 L-53.6651,372.0091 L-53.6407,371.9998 L-53.6166,371.9902 L-53.5926,371.9801 L-53.5687,371.9696 L-53.5451,371.9587 L-53.5217,371.9474 L-53.4984,371.9357 L-53.4754,371.9235 L-53.4526,371.9110 L-53.4300,371.8980 L-53.4076,371.8847 L-53.3855,371.8709 L-53.3637,371.8568 L-53.3421,371.8423 L-53.3207,371.8274 L-53.2996,371.8121 L-53.2788,371.7965 L-53.2583,371.7805 L-53.2380,371.7642 L-53.2181,371.7474 L-53.1984,371.7304 L-53.1790,371.7130 L-53.1600,371.6952 L-53.1413,371.6771 L-53.1229,371.6587 L-53.1048,371.6400 L-53.0870,371.6210 L-53.0696,371.6016 L-53.0526,371.5819 L-53.0358,371.5620 L-53.0195,371.5417 L-53.0035,371.5212 L-52.9879,371.5004 L-52.9726,371.4793 L-52.9577,371.4579 L-52.9432,371.4363 L-52.9291,371.4145 L-52.9153,371.3924 L-52.9020,371.3700 L-52.8890,371.3474 L-52.8765,371.3246 L-52.8643,371.3016 L-52.8526,371.2783 L-52.8413,371.2549 L-52.8304,371.2313 L-52.8199,371.2074 L-52.8098,371.1834 L-52.8002,371.1593 L-52.7909,371.1349 L-52.7822,371.1104 L-52.7738,371.0857 L-52.7659,371.0609 L-52.7584,371.0360 L-52.7514,371.0109 L-52.7448,370.9858 L-52.7387,370.9605 L-52.7330,370.9351 L-52.7277,370.9096 L-52.7229,370.8840 L-52.7186,370.8583 L-52.7147,370.8326 L-52.7112,370.8068 L-52.7083,370.7809 L-52.7057,370.7550 L-52.7037,370.7290 L-52.7021,370.7031 L-52.7009,370.6771 L-52.7002,370.6510 L-52.7000,370.6250 L-52.7000,54.1750 L-52.7002,54.1490 L-52.7009,54.1229 L-52.7021,54.0969 L-52.7037,54.0710 L-52.7057,54.0450 L-52.7083,54.0191 L-52.7112,53.9932 L-52.7147,53.9674 L-52.7186,53.9417 L-52.7229,53.9160 L-52.7277,53.8904 L-52.7330,53.8649 L-52.7387,53.8395 L-52.7448,53.8142 L-52.7514,53.7891 L-52.7584,53.7640 L-52.7659,53.7391 L-52.7738,53.7143 L-52.7822,53.6896 L-52.7909,53.6651 L-52.8002,53.6407 L-52.8098,53.6166 L-52.8199,53.5926 L-52.8304,53.5687 L-52.8413,53.5451 L-52.8526,53.5217 L-52.8643,53.4984 L-52.8765,53.4754 L-52.8890,53.4526 L-52.9020,53.4300 L-52.9153,53.4076 L-52.9291,53.3855 L-52.9432,53.3637 L-52.9577,53.3421 L-52.9726,53.3207 L-52.9879,53.2996 L-53.0035,53.2788 L-53.0195,53.2583 L-53.0358,53.2380 L-53.0526,53.2181 L-53.0696,53.1984 L-53.0870,53.1790 L-53.1048,53.1600 L-53.1229,53.1413 L-53.1413,53.1229 L-53.1600,53.1048 L-53.1790,53.0870 L-53.1984,53.0696 L-53.2181,53.0526 L-53.2380,53.0358 L-53.2583,53.0195 L-53.2788,53.0035 L-53.2996,52.9879 L-53.3207,52.9726 L-53.3421,52.9577 L-53.3637,52.9432 L-53.3855,52.9291 L-53.4076,52.9153 L-53.4300,52.9020 L-53.4526,52.8890 L-53.4754,52.8765 L-53.4984,52.8643 L-53.5217,52.8526 L-53.5451,52.8413 L-53.5687,52.8304 L-53.5926,52.8199 L-53.6166,52.8098 L-53.6407,52.8002 L-53.6651,52.7909 L-53.6896,52.7822 L-53.7143,52.7738 L-53.7391,52.7659 L-53.7640,52.7584 L-53.7891,52.7514 L-53.8142,52.7448 L-53.8395,52.7387 L-53.8649,52.7330 L-53.8904,52.7277 L-53.9160,52.7229 L-53.9417,52.7186 L-53.9674,52.7147 L-53.9932,52.7112 L-54.0191,52.7083 L-54.0450,52.7057 L-54.0710,52.7037 L-54.0969,52.7021 L-54.1229,52.7009 L-54.1490,52.7002 L-54.1750,52.7000 L-559.4250,52.7000"></path>
</g>
</svg>