<?xml version="1.0" encoding="utf-8"?>
<svg xmlns="http://www.w3.org/2000/svg" width="288.6000mm" height="388.4000mm" viewBox="-306.3000 -388.4000 288.6000 388.4000">
<g>
	<path d="M-304.8250,-388.4000 L-304.8510,-388.3998 L-304.8771,-388.3991 L-304.9031,-388.3979 L-304.9290,-388.3963 L-304.9550,-388.3943 L-304.9809,-388.3917 L-305.0068,-388.3888 L-305.0326,-388.3853 L-305.0583,-388.3814 L-305.0840,-388.3771 L-305.1096,-388.3723 L-305.1351,-388.3670 L-305.1605,-388.3613 L-305.1858,-388.3552 L-305.2109,-388.3486 L-305.2360,-388.3416 L-305.2609,-388.3341 L-305.2857,-388.3262 L-305.3104,-388.3178 L-305.3349,-388.3091 L-305.3593,-388.2998 L-305.3834,-388.2902 L-305.4074,-388.2801 L-305.4313,-388.2696 L-305.4549,-388.2587 L-305.4783,-388.2474 L-305.5016,-388.2357 L-305.5246,-388.2235 L-305.5474,-388.2110 L-305.5700,-388.1980 L-305.5924,-388.1847 L-305.6145,-388.1709 L-305.6363,-388.1568 L-305.6579,-388.1423 L-305.6793,-388.1274 L-305.7004,-388.1121 L-305.7212,-388.0965 L-305.7417,-388.0805 L-305.7620,-388.0642 L-305.7819,-388.0474 L-305.8016,-388.0304 L-305.8210,-388.0130 L-305.8400,-387.9952 L-305.8587,-387.9771 L-305.8771,-387.9587 L-305.8952,-387.9400 L-305.9130,-387.9210 L-305.9304,-387.9016 L-305.9474,-387.8819 L-305.9642,-387.8620 L-305.9805,-387.8417 L-305.9965,-387.8212 L-306.0121,-387.8004 L-306.0274,-387.7793 L-306.0423,-387.7579 L-306.0568,-387.7363 L-306.0709,-387.7145 L-306.0847,-387.6924 L-306.0980,-387.6700 L-306.1110,-387.6474 L-306.1235,-387.6246 L-306.1357,-387.6016 L-306.1474,-387.5783 L-306.1587,-387.5549 L-306.1696,-387.5313 L-306.1801,-387.5074 L-306.1902,-387.4834 L-306.1998,-387.4593 L-306.2091,-387.4349 L-306.2178,-387.4104 L-306.2262,-387.3857 L-306.2341,-387.3609 L-306.2416,-387.3360 L-306.2486,-387.3109 L-306.2552,-387.2858 L-306.2613,-387.2605 L-306.2670,-387.2351 L-306.2723,-387.2096 L-306.2771,-387.1840 L-306.2814,-387.1583 L-306.2853,-387.1326 L-306.2888,-387.1068 L-306.2917,-387.0809 L-306.2943,-387.0550 L-306.2963,-387.0290 L-306.2979,-387.0031 L-306.2991,-386.9771 L-306.2998,-386.9510 L-306.3000,-386.9250 L-306.3000,-1.4750 L-306.2998,-1.4490 L-306.2991,-1.4229 L-306.2979,-1.3969 L-306.2963,-1.3710 L-306.2943,-1.3450 L-306.2917,-1.3191 L-306.2888,-1.2932 L-306.2853,-1.2674 L-306.2814,-1.2417 L-306.2771,-1.2160 L-306.2723,-1.1904 L-306.2670,-1.1649 L-306.2613,-1.1395 L-306.2552,-1.1142 L-306.2486,-1.0891 L-306.2416,-1.0640 L-306.2341,-1.0391 L-306.2262,-1.0143 L-306.2178,-0.9896 L-306.2091,-0.9651 L-306.1998,-0.9407 L-306.1902,-0.9166 L-306.1801,-0.8926 L-306.1696,-0.8687 L-306.1587,-0.8451 L-306.1474,-0.8217 L-306.1357,-0.7984 L-306.1235,-0.7754 L-306.1110,-0.7526 L-306.0980,-0.7300 L-306.0847,-0.7076 L-306.0709,-0.6855 L-306.0568,-0.6637 L-306.0423,-0.6421 L-306.0274,-0.6207 L-306.0121,-0.5996 L-305.9965,-0.5788 L-305.9805,-0.5583 L-305.9642,-0.5380 L-305.9474,-0.5181 L-305.9304,-0.4984 L-305.9130,-0.4790 L-305.8952,-0.4600 L-305.8771,-0.4413 L-305.8587,-0.4229 L-305.8400,-0.4048 L-305.8210,-0.3870 L-305.8016,-0.3696 L-305.7819,-0.3526 L-305.7620,-0.3358 L-305.7417,-0.3195 L-305.7212,-0.3035 L-305.7004,-0.2879 L-305.6793,-0.2726 L-305.6579,-0.2577 L-305.6363,-0.2432 L-305.6145,-0.2291 L-305.5924,-0.2153 L-305.5700,-0.2020 L-305.5474,-0.1890 L-305.5246,-0.1765 L-305.5016,-0.1643 L-305.4783,-0.1526 L-305.4549,-0.1413 L-305.4313,-0.1304 L-305.4074,-0.1199 L-305.3834,-0.1098 L-305.3593,-0.1002 L-305.3349,-0.0909 L-305.3104,-0.0822 L-305.2857,-0.0738 L-305.2609,-0.0659 L-305.2360,-0.0584 L-305.2109,-0.0514 L-305.1858,-0.0448 L-305.1605,-0.0387 L-305.1351,-0.0330 L-305.1096,-0.0277 L-305.0840,-0.0229 L-305.0583,-0.0186 L-305.0326,-0.0147 L-305.0068,-0.0112 L-304.9809,-0.0083 L-304.9550,-0.0057 L-304.9290,-0.0037 L-304.9031,-0.0021 L-304.8771,-0.0009 L-304.8510,-0.0002 L-304.8250,0.0000 L-19.1750,0.0000 L-19.1490,-0.0002 L-19.1229,-0.0009 L-19.0969,-0.0021 L-19.0710,-0.0037 L-19.0450,-0.0057 L-19.0191,-0.0083 L-18.9932,-0.0112 L-18.9674,-0.0147 L-18.9417,-0.0186 L-18.9160,-0.0229 L-18.8904,-0.0277 L-18.8649,-0.0330 L-18.8395,-0.0387 L-18.8142,-0.0448 L-18.7891,-0.0514 L-18.7640,-0.0584 L-18.7391,-0.0659 L-18.7143,-0.0738 L-18.6896,-0.0822 L-18.6651,-0.0909 L-18.6407,-0.1002 L-18.6166,-0.1098 L-18.5926,-0.1199 L-18.5687,-0.1304 L-18.5451,-0.1413 L-18.5217,-0.1526 L-18.4984,-0.1643 L-18.4754,-0.1765 L-18.4526,-0.1890 L-18.4300,-0.2020 L-18.4076,-0.2153 L-18.3855,-0.2291 L-18.3637,-0.2432 L-18.3421,-0.2577 L-18.3207,-0.2726 L-18.2996,-0.2879 L-18.2788,-0.3035 L-18.2583,-0.3195 L-18.2380,-0.3358 L-18.2181,-0.3526 L-18.1984,-0.3696 L-18.1790,-0.3870 L-18.1600,-0.4048 L-18.1413,-0.4229 L-18.1229,-0.4413 L-18.1048,-0.4600 L-18.0870,-0.4790 L-18.0696,-0.4984 L-18.0526,-0.5181 L-18.0358,-0.5380 L-18.0195,-0.5583 L-18.0035,-0.5788 L-17.9879,-0.5996 L-17.9726,-0.6207 L-17.9577,-0.6421 L-17.9432,-0.6637 L-17.9291,-0.6855 L-17.9153,-0.7076 L-17.9020,-0.7300 L-17.8890,-0.7526 L-17.8765,-0.7754 L-17.8643,-0.7984 L-17.8526,-0.8217 L-17.8413,-0.8451 L-17.8304,-0.8687 L-17.8199,-0.8926 L-17.8098,-0.9166 L-17.8002,-0.9407 L-17.7909,-0.9651 L-17.7822,-0.9896 L-17.7738,-1.0143 L-17.7659,-1.0391 L-17.7584,-1.0640 L-17.7514,-1.0891 L-17.7448,-1.1142 L-17.7387,-1.1395 L-17.7330,-1.1649 L-17.7277,-1.1904 L-17.7229,-1.2160 L-17.7186,-1.2417 L-17.7147,-1.2674 L-17.7112,-1.2932 L-17.7083,-1.3191 L-17.7057,-1.3450 L-17.7037,-1.3710 L-17.7021,-1.3969 L-17.7009,-1.4229 L-17.7002,-1.4490 L-17.7000,-1.4750 L-17.7000,-386.9250 L-17.7002,-386.9510 L-17.7009,-386.9771 L-17.7021,-387.0031 L-17.7037,-387.0290 L-17.7057,-387.0550 L-17.7083,-387.0809 L-17.7112,-387.1068 L-17.7147,-387.1326 L-17.7186,-387.1583 L-17.7229,-387.1840 L-17.7277,-387.2096 L-17.7330,-387.2351 L-17.7387,-387.2605 L-17.7448,-387.2858 L-17.7514,-387.3109 L-17.7584,-387.3360 L-17.7659,-387.3609 L-17.7738,-387.3857 L-17.7822,-387.4104 L-17.7909,-387.4349 L-17.8002,-387.4593 L-17.8098,-387.4834 L-17.8199,-387.5074 L-17.8304,-387.5313 L-17.8413,-387.5549 L-17.8526,-387.5783 L-17.8643,-387.6016 L-17.8765,-387.6246 L-17.8890,-387.6474 L-17.9020,-387.6700 L-17.9153,-387.6924 L-17.9291,-387.7145 L-17.9432,-387.7363 L-17.9577,-387.7579 L-17.9726,-387.7793 L-17.9879,-387.8004 L-18.0035,-387.8212 L-18.0195,-387.8417 L-18.0358,-387.8620 L-18.0526,-387.8819 L-18.0696,-387.9016 L-18.0870,-387.9210 L-18.1048,-387.9400 L-18.1229,-387.9587 L-18.1413,-387.9771 L-18.1600,-387.9952 L-18.1790,-388.0130 L-18.1984,-388.0304 L-18.2181,-388.0474 L-18.2380,-388.0642 L-18.2583,-388.0805 L-18.2788,-388.0965 L-18.2996,-388.1121 L-18.3207,-388.1274 L-18.3421,-388.1423 L-18.3637,-388.1568 L-18.3855,-388.1709 L-18.4076,-388.1847 L-18.4300,-388.1980 L-18.4526,-388.2110 L-18.4754,-388.2235 L-18.4984,-388.2357 L-18.5217,-388.2474 L-18.5451,-388.2587 L-18.5687,-388.2696 L-18.5926,-388.2801 L-18.6166,-388.2902 L-18.6407,-388.2998 L-18.6651,-388.3091 L-18.6896,-388.3178 L-18.7143,-388.3262 L-18.7391,-388.3341 L-18.7640,-388.3416 L-18.7891,-388.3486 L-18.8142,-388.3552 L-18.8395,-388.3613 L-18.8649,-388.3670 L-18.8904,-388.3723 L-18.9160,-388.3771 L-18.9417,-388.3814 L-18.9674,-388.3853 L-18.9932,-388.3888 L-19.0191,-388.3917 L-19.0450,-388.3943 L-19.0710,-388.3963 L-19.0969,-388.3979 L-19.1229,-388.3991 L-19.1490,-388.3998 L-19.1750,-388.4000 L-304.8250,-388.4000"></path>
	<path d="M-87.2250,-82.8000 L-87.2510,-82.7998 L-87.2771,-82.7991 L-87.3031,-82.7979 L-87.3290,-82.7963 L-87.3550,-82.7943 L-87.3809,-82.7917 L-87.4068,-82.7888 L-87.4326,-82.7853 L-87.4583,-82.7814 L-87.4840,-82.7771 L-87.5096,-82.7723 L-87.5351,-82.7670 L-87.5605,-82.7613 L-87.5858,-82.7552 L-87.6109,-82.7486 L-87.6360,-82.7416 L-87.6609,-82.7341 L-87.6857,-82.7262 L-87.7104,-82.7178 L-87.7349,-82.7091 L-87.7593,-82.6998 L-87.7834,-82.6902 L-87.8074,-82.6801 L-87.8313,-82.6696 L-87.8549,-82.6587 L-87.8783,-82.6474 L-87.9016,-82.6357 L-87.9246,-82.6235 L-87.9474,-82.6110 L-87.9700,-82.5980 L-87.9924,-82.5847 L-88.0145,-82.5709 L-88.0363,-82.5568 L-88.0579,-82.5423 L-88.0793,-82.5274 L-88.1004,-82.5121 L-88.1212,-82.4965 L-88.1417,-82.4805 L-88.1620,-82.4642 L-88.1819,-82.4474 L-88.2016,-82.4304 L-88.2210,-82.4130 L-88.2400,-82.3952 L-88.2587,-82.3771 L-88.2771,-82.3587 L-88.2952,-82.3400 L-88.3130,-82.3210 L-88.3304,-82.3016 L-88.3474,-82.2819 L-88.3642,-82.2620 L-88.3805,-82.2417 L-88.3965,-82.2212 L-88.4121,-82.2004 L-88.4274,-82.1793 L-88.4423,-82.1579 L-88.4568,-82.1363 L-88.4709,-82.1145 L-88.4847,-82.0924 L-88.4980,-82.0700 L-88.5110,-82.0474 L-88.5235,-82.0246 L-88.5357,-82.0016 L-88.5474,-81.9783 L-88.5587,-81.9549 L-88.5696,-81.9313 L-88.5801,-81.9074 L-88.5902,-81.8834 L-88.5998,-81.8593 L-88.6091,-81.8349 L-88.6178,-81.8104 L-88.6262,-81.7857 L-88.6341,-81.7609 L-88.6416,-81.7360 L-88.6486,-81.7109 L-88.6552,-81.6858 L-88.6613,-81.6605 L-88.6670,-81.6351 L-88.6723,-81.6096 L-88.6771,-81.5840 L-88.6814,-81.5583 L-88.6853,-81.5326 L-88.6888,-81.5068 L-88.6917,-81.4809 L-88.6943,-81.4550 L-88.6963,-81.4290 L-88.6979,-81.4031 L-88.6991,-81.3771 L-88.6998,-81.3510 L-88.7000,-81.3250 L-88.7000,-36.4750 L-88.6998,-36.4490 L-88.6991,-36.4229 L-88.6979,-36.3969 L-88.6963,-36.3710 L-88.6943,-36.3450 L-88.6917,-36.3191 L-88.6888,-36.2932 L-88.6853,-36.2674 L-88.6814,-36.2417 L-88.6771,-36.2160 L-88.6723,-36.1904 L-88.6670,-36.1649 L-88.6613,-36.1395 L-88.6552,-36.1142 L-88.6486,-36.0891 L-88.6416,-36.0640 L-88.6341,-36.0391 L-88.6262,-36.0143 L-88.6178,-35.9896 L-88.6091,-35.9651 L-88.5998,-35.9407 L-88.5902,-35.9166 L-88.5801,-35.8926 L-88.5696,-35.8687 L-88.5587,-35.8451 L-88.5474,-35.8217 L-88.5357,-35.7984 L-88.5235,-35.7754 L-88.5110,-35.7526 L-88.4980,-35.7300 L-88.4847,-35.7076 L-88.4709,-35.6855 L-88.4568,-35.6637 L-88.4423,-35.6421 L-88.4274,-35.6207 L-88.4121,-35.5996 L-88.3965,-35.5788 L-88.3805,-35.5583 L-88.3642,-35.5380 L-88.3474,-35.5181 L-88.3304,-35.4984 L-88.3130,-35.4790 L-88.2952,-35.4600 L-88.2771,-35.4413 L-88.2587,-35.4229 L-88.2400,-35.4048 L-88.2210,-35.3870 L-88.2016,-35.3696 L-88.1819,-35.3526 L-88.1620,-35.3358 L-88.1417,-35.3195 L-88.1212,-35.3035 L-88.1004,-35.2879 L-88.0793,-35.2726 L-88.0579,-35.2577 L-88.0363,-35.2432 L-88.0145,-35.2291 L-87.9924,-35.2153 L-87.9700,-35.2020 L-87.9474,-35.1890 L-87.9246,-35.1765 L-87.9016,-35.1643 L-87.8783,-35.1526 L-87.8549,-35.1413 L-87.8313,-35.1304 L-87.8074,-35.1199 L-87.7834,-35.1098 L-87.7593,-35.1002 L-87.7349,-35.0909 L-87.7104,-35.0822 L-87.6857,-35.0738 L-87.6609,-35.0659 L-87.6360,-35.0584 L-87.6109,-35.0514 L-87.5858,-35.0448 L-87.5605,-35.0387 L-87.5351,-35.0330 L-87.5096,-35.0277 L-87.4840,-35.0229 L-87.4583,-35.0186 L-87.4326,-35.0147 L-87.4068,-35.0112 L-87.3809,-35.0083 L-87.3550,-35.0057 L-87.3290,-35.0037 L-87.3031,-35.0021 L-87.2771,-35.0009 L-87.2510,-35.0002 L-87.2250,-35.0000 L-54.1750,-35.0000 L-54.1490,-35.0002 L-54.1229,-35.0009 L-54.0969,-35.0021 L-54.0710,-35.0037 L-54.0450,-35.0057 L-54.0191,-35.0083 L-53.9932,-35.0112 L-53.9674,-35.0147 L-53.9417,-35.0186 L-53.9160,-35.0229 L-53.8904,-35.0277 L-53.8649,-35.0330 L-53.8395,-35.0387 L-53.8142,-35.0448 L-53.7891,-35.0514 L-53.7640,-35.0584 L-53.7391,-35.0659 L-53.7143,-35.0738 L-53.6896,-35.0822 L-53.6651,-35.0909 L-53.6407,-35.1002 L-53.6166,-35.1098 L-53.5926,-35.1199 L-53.5687,-35.1304 L-53.5451,-35.1413 L-53.5217,-35.1526 L-53.4984,-35.1643 L-53.4754,-35.1765 L-53.4526,-35.1890 L-53.4300,-35.2020 L-53.4076,-35.2153 L-53.3855,-35.2291 L-53.3637,-35.2432 L-53.3421,-35.2577 L-53.3207,-35.2726 L-53.2996,-35.2879 L-53.2788,-35.3035 L-53.2583,-35.3195 L-53.2380,-35.3358 L-53.2181,-35.3526 L-53.1984,-35.3696 L-53.1790,-35.3870 L-53.1600,-35.4048 L-53.1413,-35.4229 L-53.1229,-35.4413 L-53.1048,-35.4600 L-53.0870,-35.4790 L-53.0696,-35.4984 L-53.0526,-35.5181 L-53.0358,-35.5380 L-53.0195,-35.5583 L-53.0035,-35.5788 L-52.9879,-35.5996 L-52.9726,-35.6207 L-52.9577,-35.6421 L-52.9432,-35.6637 L-52.9291,-35.6855 L-52.9153,-35.7076 L-52.9020,-35.7300 L-52.8890,-35.7526 L-52.8765,-35.7754 L-52.8643,-35.7984 L-52.8526,-35.8217 L-52.8413,-35.8451 L-52.8304,-35.8687 L-52.8199,-35.8926 L-52.8098,-35.9166 L-52.8002,-35.9407 L-52.7909,-35.9651 L-52.7822,-35.9896 L-52.7738,-36.0143 L-52.7659,-36.0391 L-52.7584,-36.0640 L-52.7514,-36.0891 L-52.7448,-36.1142 L-52.7387,-36.1395 L-52.7330,-36.1649 L-52.7277,-36.1904 L-52.7229,-36.2160 L-52.7186,-36.2417 L-52.7147,-36.2674 L-52.7112,-36.2932 L-52.7083,-36.3191 L-52.7057,-36.3450 L-52.7037,-36.3710 L-52.7021,-36.3969 L-52.7009,-36.4229 L-52.7002,-36.4490 L-52.7000,-36.4750 L-52.7000,-81.3250 L-52.7002,-81.3510 L-52.7009,-81.3771 L-52.7021,-81.4031 L-52.7037,-81.4290 L-52.7057,-81.4550 L-52.7083,-81.4809 L-52.7112,-81.5068 L-52.7147,-81.5326 L-52.7186,-81.5583 L-52.7229,-81.5840 L-52.7277,-81.6096 L-52.7330,-81.6351 L-52.7387,-81.6605 L-52.7448,-81.6858 L-52.7514,-81.7109 L-52.7584,-81.7360 L-52.7659,-81.7609 L-52.7738,-81.7857 L-52.7822,-81.8104 L-52.7909,-81.8349 L-52.8002,-81.8593 L-52.8098,-81.8834 L-52.8199,-81.9074 L-52.8304,-81.9313 L-52.8413,-81.9549 L-52.8526,-81.9783 L-52.8643,-82.0016 L-52.8765,-82.0246 L-52.8890,-82.0474 L-52.9020,-82.0700 L-52.9153,-82.0924 L-52.9291,-82.1145 L-52.9432,-82.1363 L-52.9577,-82.1579 L-52.9726,-82.1793 L-52.9879,-82.2004 L-53.0035,-82.2212 L-53.0195,-82.2417 L-53.0358,-82.2620 L-53.0526,-82.2819 L-53.0696,-82.3016 L-53.0870,-82.3210 L-53.1048,-82.3400 L-53.1229,-82.3587 L-53.1413,-82.3771 L-53.1600,-82.3952 L-53.1790,-82.4130 L-53.1984,-82.4304 L-53.2181,-82.4474 L-53.2380,-82.4642 L-53.2583,-82.4805 L-53.2788,-82.4965 L-53.2996,-82.5121 L-53.3207,-82.5274 L-53.3421,-82.5423 L-53.3637,-82.5568 L-53.3855,-82.5709 L-53.4076,-82.5847 L-53.4300,-82.5980 L-53.4526,-82.6110 L-53.4754,-82.6235 L-53.4984,-82.6357 L-53.5217,-82.6474 L-53.5451,-82.6587 L-53.5687,-82.6696 L-53.5926,-82.6801 L-53.6166,-82.6902 L-53.6407,-82.6998 L-53.6651,-82.7091 L-53.6896,-82.7178 L-53.7143,-82.7262 L-53.7391,-82.7341 L-53.7640,-82.7416 L-53.7891,-82.7486 L-53.8142,-82.7552 L-53.8395,-82.7613 L-53.8649,-82.7670 L-53.8904,-82.7723 L-53.9160,-82.7771 L-53.9417,-82.7814 L-53.9674,-82.7853 L-53.9932,-82.7888 L-54.0191,-82.7917 L-54.0450,-82.7943 L-54.0710,-82.7963 L-54.0969,-82.7979 L-54.1229,-82.7991 L-54.1490,-82.7998 L-54.1750,-82.8000 L-87.2250,-82.8000"></path>
</g>
</svg>