<?xml version="1.0" encoding="utf-8"?>
<svg xmlns="http://www.w3.org/2000/svg" width="401.2000mm" height="182.9000mm" viewBox="590.0000 -377.6000 401.2000 182.9000">
<g>
	<path d="M595.9000,-194.7000 L985.3000,-194.7000 L985.3000,-194.7000 L985.3000,-206.5000 L991.2000,-206.5000 L991.2000,-206.5000 L991.2000,-218.3000 L985.3000,-218.3000 L985.3000,-218.3000 L985.3000,-230.1000 L991.2000,-230.1000 L991.2000,-230.1000 L991.2000,-241.9000 L985.3000,-241.9000 L985.3000,-241.9000 L985.3000,-253.7000 L991.2000,-253.7000 L991.2000,-253.7000 L991.2000,-265.5000 L985.3000,-265.5000 L985.3000,-265.5000 L985.3000,-277.3000 L991.2000,-277.3000 L991.2000,-277.3000 L991.2000,-289.1000 L985.3000,-289.1000 L985.3000,-289.1000 L985.3000,-300.9000 L991.2000,-300.9000 L991.2000,-300.9000 L991.2000,-312.7000 L985.3000,-312.7000 L985.3000,-312.7000 L985.3000,-324.5000 L991.2000,-324.5000 L991.2000,-324.5000 L991.2000,-336.3000 L985.3000,-336.3000 L985.3000,-336.3000 L985.3000,-348.1000 L991.2000,-348.1000 L991.2000,-348.1000 L991.2000,-359.9000 L985.3000,-359.9000 L985.3000,-359.9000 L985.3000,-371.7000 L985.3000,-371.7000 L973.5000,-371.7000 L973.5000,-377.6000 L973.5000,-377.6000 L961.7000,-377.6000 L961.7000,-371.7000 L961.7000,-371.7000 L949.9000,-371.7000 L949.9000,-377.6000 L949.9000,-377.6000 L938.1000,-377.6000 L938.1000,-371.7000 L938.1000,-371.7000 L926.3000,-371.7000 L926.3000,-377.6000 L926.3000,-377.6000 L914.5000,-377.6000 L914.5000,-371.7000 L914.5000,-371.7000 L902.7000,-371.7000 L902.7000,-377.6000 L902.7000,-377.6000 L890.9000,-377.6000 L890.9000,-371.7000 L890.9000,-371.7000 L879.1000,-371.7000 L879.1000,-377.6000 L879.1000,-377.6000 L867.3000,-377.6000 L867.3000,-371.7000 L867.3000,-371.7000 L855.5000,-371.7000 L855.5000,-377.6000 L855.5000,-377.6000 L843.7000,-377.6000 L843.7000,-371.7000 L843.7000,-371.7000 L831.9000,-371.7000 L831.9000,-377.6000 L831.9000,-377.6000 L820.1000,-377.6000 L820.1000,-371.7000 L820.1000,-371.7000 L808.3000,-371.7000 L808.3000,-377.6000 L808.3000,-377.6000 L796.5000,-377.6000 L796.5000,-371.7000 L796.5000,-371.7000 L784.7000,-371.7000 L784.7000,-377.6000 L784.7000,-377.6000 L772.9000,-377.6000 L772.9000,-371.7000 L772.9000,-371.7000 L761.1000,-371.7000 L761.1000,-377.6000 L761.1000,-377.6000 L749.3000,-377.6000 L749.3000,-371.7000 L749.3000,-371.7000 L737.5000,-371.7000 L737.5000,-377.6000 L737.5000,-377.6000 L725.7000,-377.6000 L725.7000,-371.7000 L725.7000,-371.7000 L713.9000,-371.7000 L713.9000,-377.6000 L713.9000,-377.6000 L702.1000,-377.6000 L702.1000,-371.7000 L702.1000,-371.7000 L690.3000,-371.7000 L690.3000,-377.6000 L690.3000,-377.6000 L678.5000,-377.6000 L678.5000,-371.7000 L678.5000,-371.7000 L666.7000,-371.7000 L666.7000,-377.6000 L666.7000,-377.6000 L654.9000,-377.6000 L654.9000,-371.7000 L654.9000,-371.7000 L643.1000,-371.7000 L643.1000,-377.6000 L643.1000,-377.6000 L631.3000,-377.6000 L631.3000,-371.7000 L631.3000,-371.7000 L619.5000,-371.7000 L619.5000,-377.6000 L619.5000,-377.6000 L607.7000,-377.6000 L607.7000,-371.7000 L607.7000,-371.7000 L595.9000,-371.7000 L595.9000,-371.7000 L595.9000,-359.9000 L590.0000,-359.9000 L590.0000,-359.9000 L590.0000,-348.1000 L595.9000,-348.1000 L595.9000,-348.1000 L595.9000,-336.3000 L590.0000,-336.3000 L590.0000,-336.3000 L590.0000,-324.5000 L595.9000,-324.5000 L595.9000,-324.5000 L595.9000,-312.7000 L590.0000,-312.7000 L590.0000,-312.7000 L590.0000,-300.9000 L595.9000,-300.9000 L595.9000,-300.9000 L595.9000,-289.1000 L590.0000,-289.1000 L590.0000,-289.1000 L590.0000,-277.3000 L595.9000,-277.3000 L595.9000,-277.3000 L595.9000,-265.5000 L590.0000,-265.5000 L590.0000,-265.5000 L590.0000,-253.7000 L595.9000,-253.7000 L595.9000,-253.7000 L595.9000,-241.9000 L590.0000,-241.9000 L590.0000,-241.9000 L590.0000,-230.1000 L595.9000,-230.1000 L595.9000,-230.1000 L595.9000,-218.3000 L590.0000,-218.3000 L590.0000,-218.3000 L590.0000,-206.5000 L595.9000,-206.5000 L595.9000,-206.5000 L595.9000,-194.7000 L595.9000,-194.7000"></path>
	<path d="M725.7000,-331.7000 L725.4815,-331.6990 L725.2631,-331.6962 L725.0447,-331.6914 L724.8263,-331.6847 L724.6080,-331.6761 L724.3898,-331.6656 L724.1717,-331.6532 L723.9537,-331.6389 L723.7358,-331.6227 L723.5181,-331.6046 L723.3005,-331.5846 L723.0832,-331.5627 L722.8660,-331.5388 L722.6491,-331.5131 L722.4323,-331.4855 L722.2159,-331.4560 L721.9997,-331.4246 L721.7837,-331.3914 L721.5681,-331.3562 L721.3528,-331.3191 L721.1378,-331.2802 L720.9232,-331.2394 L720.7090,-331.1967 L720.4951,-331.1522 L720.2816,-331.1058 L720.0685,-331.0575 L719.8559,-331.0073 L719.6437,-330.9553 L719.4320,-330.9015 L719.2207,-330.8458 L719.0100,-330.7882 L718.7997,-330.7289 L718.5900,-330.6676 L718.3808,-330.6046 L718.1722,-330.5397 L717.9642,-330.4730 L717.7567,-330.4045 L717.5499,-330.3342 L717.3437,-330.2621 L717.1381,-330.1882 L716.9332,-330.1124 L716.7289,-330.0349 L716.5253,-329.9557 L716.3225,-329.8746 L716.1203,-329.7918 L715.9189,-329.7072 L715.7182,-329.6208 L715.5183,-329.5327 L715.3191,-329.4429 L715.1208,-329.3513 L714.9233,-329.2580 L714.7265,-329.1629 L714.5307,-329.0662 L714.3356,-328.9677 L714.1415,-328.8676 L713.9482,-328.7657 L713.7558,-328.6622 L713.5644,-328.5570 L713.3738,-328.4501 L713.1842,-328.3415 L712.9956,-328.2313 L712.8079,-328.1195 L712.6212,-328.0060 L712.4356,-327.8909 L712.2509,-327.7742 L712.0672,-327.6559 L711.8846,-327.5359 L711.7031,-327.4144 L711.5226,-327.2913 L711.3432,-327.1666 L711.1649,-327.0404 L710.9877,-326.9126 L710.8116,-326.7832 L710.6367,-326.6524 L710.4629,-326.5200 L710.2903,-326.3861 L710.1189,-326.2507 L709.9486,-326.1137 L709.7796,-325.9754 L709.6117,-325.8355 L709.4451,-325.6942 L709.2798,-325.5514 L709.1156,-325.4072 L708.9528,-325.2616 L708.7912,-325.1145 L708.6310,-324.9660 L708.4720,-324.8162 L708.3143,-324.6649 L708.1580,-324.5123 L708.0030,-324.3583 L707.8494,-324.2030 L707.6971,-324.0464 L707.5462,-323.8884 L707.3967,-323.7291 L707.2486,-323.5685 L707.1019,-323.4066 L706.9566,-323.2434 L706.8128,-323.0790 L706.6704,-322.9133 L706.5294,-322.7464 L706.3899,-322.5783 L706.2519,-322.4089 L706.1154,-322.2384 L705.9803,-322.0667 L705.8468,-321.8937 L705.7148,-321.7197 L705.5843,-321.5445 L705.4553,-321.3681 L705.3279,-321.1906 L705.2021,-321.0121 L705.0778,-320.8324 L704.9551,-320.6516 L704.8339,-320.4698 L704.7144,-320.2870 L704.5965,-320.1030 L704.4802,-319.9181 L704.3655,-319.7322 L704.2524,-319.5452 L704.1410,-319.3573 L704.0312,-319.1685 L703.9231,-318.9786 L703.8166,-318.7879 L703.7118,-318.5962 L703.6087,-318.4036 L703.5072,-318.2101 L703.4075,-318.0157 L703.3095,-317.8204 L703.2132,-317.6244 L703.1185,-317.4274 L703.0257,-317.2297 L702.9345,-317.0311 L702.8451,-316.8318 L702.7574,-316.6317 L702.6715,-316.4308 L702.5874,-316.2292 L702.5050,-316.0269 L702.4244,-315.8238 L702.3455,-315.6201 L702.2685,-315.4157 L702.1932,-315.2106 L702.1197,-315.0048 L702.0480,-314.7985 L701.9782,-314.5915 L701.9101,-314.3839 L701.8439,-314.1757 L701.7795,-313.9669 L701.7169,-313.7576 L701.6561,-313.5478 L701.5972,-313.3374 L701.5401,-313.1265 L701.4849,-312.9151 L701.4315,-312.7033 L701.3800,-312.4910 L701.3303,-312.2782 L701.2825,-312.0651 L701.2365,-311.8515 L701.1924,-311.6375 L701.1502,-311.4232 L701.1099,-311.2084 L701.0714,-310.9934 L701.0348,-310.7780 L701.0001,-310.5623 L700.9673,-310.3463 L700.9364,-310.1300 L700.9074,-309.9135 L700.8803,-309.6967 L700.8550,-309.4797 L700.8317,-309.2625 L700.8102,-309.0451 L700.7907,-308.8275 L700.7730,-308.6097 L700.7573,-308.3918 L700.7435,-308.1738 L700.7316,-307.9557 L700.7215,-307.7374 L700.7134,-307.5191 L700.7072,-307.3007 L700.7029,-307.0823 L700.7005,-306.8639 L700.7001,-306.6454 L700.7015,-306.4269 L700.7048,-306.2085 L700.7101,-305.9901 L700.7172,-305.7717 L700.7263,-305.5534 L700.7373,-305.3352 L700.7502,-305.1172 L700.7649,-304.8992 L700.7816,-304.6814 L700.8002,-304.4637 L700.8207,-304.2462 L700.8431,-304.0289 L700.8674,-303.8117 L700.8936,-303.5948 L700.9217,-303.3782 L700.9516,-303.1618 L700.9835,-302.9457 L701.0173,-302.7298 L701.0529,-302.5143 L701.0904,-302.2990 L701.1298,-302.0842 L701.1711,-301.8696 L701.2142,-301.6555 L701.2593,-301.4417 L701.3061,-301.2283 L701.3549,-301.0153 L701.4055,-300.8028 L701.4580,-300.5907 L701.5123,-300.3791 L701.5684,-300.1680 L701.6264,-299.9574 L701.6863,-299.7473 L701.7479,-299.5377 L701.8114,-299.3286 L701.8768,-299.1202 L701.9439,-298.9123 L702.0129,-298.7050 L702.0837,-298.4983 L702.1562,-298.2922 L702.2306,-298.0868 L702.3068,-297.8820 L702.3847,-297.6779 L702.4644,-297.4745 L702.5460,-297.2719 L702.6292,-297.0699 L702.7143,-296.8686 L702.8011,-296.6681 L702.8896,-296.4684 L702.9799,-296.2695 L703.0719,-296.0713 L703.1656,-295.8740 L703.2611,-295.6775 L703.3583,-295.4818 L703.4572,-295.2870 L703.5577,-295.0931 L703.6600,-294.9000 L703.7640,-294.7079 L703.8696,-294.5166 L703.9769,-294.3263 L704.0859,-294.1370 L704.1965,-293.9486 L704.3087,-293.7612 L704.4226,-293.5747 L704.5381,-293.3893 L704.6553,-293.2049 L704.7740,-293.0215 L704.8943,-292.8391 L705.0162,-292.6579 L705.1397,-292.4776 L705.2648,-292.2985 L705.3914,-292.1205 L705.5196,-291.9436 L705.6493,-291.7678 L705.7806,-291.5931 L705.9134,-291.4197 L706.0476,-291.2473 L706.1834,-291.0762 L706.3207,-290.9062 L706.4595,-290.7375 L706.5997,-290.5700 L706.7414,-290.4037 L706.8845,-290.2386 L707.0291,-290.0748 L707.1751,-289.9123 L707.3225,-289.7510 L707.4713,-289.5911 L707.6215,-289.4325 L707.7731,-289.2751 L707.9260,-289.1191 L708.0804,-288.9645 L708.2360,-288.8112 L708.3930,-288.6593 L708.5513,-288.5087 L708.7109,-288.3596 L708.8719,-288.2118 L709.0341,-288.0654 L709.1975,-287.9205 L709.3623,-287.7770 L709.5283,-287.6350 L709.6955,-287.4944 L709.8639,-287.3553 L710.0336,-287.2176 L710.2044,-287.0815 L710.3765,-286.9468 L710.5497,-286.8136 L710.7240,-286.6820 L710.8995,-286.5519 L711.0762,-286.4233 L711.2539,-286.2963 L711.4328,-286.1709 L711.6127,-286.0470 L711.7937,-285.9246 L711.9758,-285.8039 L712.1589,-285.6848 L712.3431,-285.5673 L712.5283,-285.4513 L712.7145,-285.3370 L712.9016,-285.2244 L713.0898,-285.1134 L713.2789,-285.0040 L713.4690,-284.8963 L713.6600,-284.7902 L713.8519,-284.6859 L714.0447,-284.5832 L714.2385,-284.4821 L714.4330,-284.3828 L714.6285,-284.2852 L714.8248,-284.1893 L715.0219,-284.0952 L715.2199,-284.0027 L715.4186,-283.9120 L715.6181,-283.8230 L715.8184,-283.7358 L716.0195,-283.6503 L716.2213,-283.5666 L716.4238,-283.4847 L716.6270,-283.4045 L716.8309,-283.3261 L717.0355,-283.2495 L717.2408,-283.1747 L717.4467,-283.1016 L717.6532,-283.0304 L717.8604,-282.9610 L718.0681,-282.8934 L718.2765,-282.8276 L718.4854,-282.7636 L718.6948,-282.7015 L718.9048,-282.6412 L719.1153,-282.5828 L719.3263,-282.5261 L719.5378,-282.4714 L719.7497,-282.4184 L719.9622,-282.3674 L720.1750,-282.3182 L720.3883,-282.2708 L720.6020,-282.2253 L720.8160,-282.1817 L721.0305,-282.1400 L721.2453,-282.1001 L721.4604,-282.0621 L721.6759,-282.0260 L721.8917,-281.9918 L722.1077,-281.9594 L722.3241,-281.9290 L722.5407,-281.9004 L722.7575,-281.8738 L722.9746,-281.8490 L723.1918,-281.8261 L723.4093,-281.8052 L723.6269,-281.7861 L723.8447,-281.7689 L724.0627,-281.7537 L724.2807,-281.7403 L724.4989,-281.7289 L724.7171,-281.7193 L724.9355,-281.7117 L725.1539,-281.7060 L725.3723,-281.7021 L725.5908,-281.7002 L725.8092,-281.7002 L726.0277,-281.7021 L726.2461,-281.7060 L726.4645,-281.7117 L726.6829,-281.7193 L726.9011,-281.7289 L727.1193,-281.7403 L727.3373,-281.7537 L727.5553,-281.7689 L727.7731,-281.7861 L727.9907,-281.8052 L728.2082,-281.8261 L728.4254,-281.8490 L728.6425,-281.8738 L728.8593,-281.9004 L729.0759,-281.9290 L729.2923,-281.9594 L729.5083,-281.9918 L729.7241,-282.0260 L729.9396,-282.0621 L730.1547,-282.1001 L730.3695,-282.1400 L730.5840,-282.1817 L730.7980,-282.2253 L731.0117,-282.2708 L731.2250,-282.3182 L731.4378,-282.3674 L731.6503,-282.4184 L731.8622,-282.4714 L732.0737,-282.5261 L732.2847,-282.5828 L732.4952,-282.6412 L732.7052,-282.7015 L732.9146,-282.7636 L733.1235,-282.8276 L733.3319,-282.8934 L733.5396,-282.9610 L733.7468,-283.0304 L733.9533,-283.1016 L734.1592,-283.1747 L734.3645,-283.2495 L734.5691,-283.3261 L734.7730,-283.4045 L734.9762,-283.4847 L735.1787,-283.5666 L735.3805,-283.6503 L735.5816,-283.7358 L735.7819,-283.8230 L735.9814,-283.9120 L736.1801,-284.0027 L736.3781,-284.0952 L736.5752,-284.1893 L736.7715,-284.2852 L736.9670,-284.3828 L737.1615,-284.4821 L737.3553,-284.5832 L737.5481,-284.6859 L737.7400,-284.7902 L737.9310,-284.8963 L738.1211,-285.0040 L738.3102,-285.1134 L738.4984,-285.2244 L738.6855,-285.3370 L738.8717,-285.4513 L739.0569,-285.5673 L739.2411,-285.6848 L739.4242,-285.8039 L739.6063,-285.9246 L739.7873,-286.0470 L739.9672,-286.1709 L740.1461,-286.2963 L740.3238,-286.4233 L740.5005,-286.5519 L740.6760,-286.6820 L740.8503,-286.8136 L741.0235,-286.9468 L741.1956,-287.0815 L741.3664,-287.2176 L741.5361,-287.3553 L741.7045,-287.4944 L741.8717,-287.6350 L742.0377,-287.7770 L742.2025,-287.9205 L742.3659,-288.0654 L742.5281,-288.2118 L742.6891,-288.3596 L742.8487,-288.5087 L743.0070,-288.6593 L743.1640,-288.8112 L743.3196,-288.9645 L743.4740,-289.1191 L743.6269,-289.2751 L743.7785,-289.4325 L743.9287,-289.5911 L744.0775,-289.7510 L744.2249,-289.9123 L744.3709,-290.0748 L744.5155,-290.2386 L744.6586,-290.4037 L744.8003,-290.5700 L744.9405,-290.7375 L745.0793,-290.9062 L745.2166,-291.0762 L745.3524,-291.2473 L745.4866,-291.4197 L745.6194,-291.5931 L745.7507,-291.7678 L745.8804,-291.9436 L746.0086,-292.1205 L746.1352,-292.2985 L746.2603,-292.4776 L746.3838,-292.6579 L746.5057,-292.8391 L746.6260,-293.0215 L746.7447,-293.2049 L746.8619,-293.3893 L746.9774,-293.5747 L747.0913,-293.7612 L747.2035,-293.9486 L747.3141,-294.1370 L747.4231,-294.3263 L747.5304,-294.5166 L747.6360,-294.7079 L747.7400,-294.9000 L747.8423,-295.0931 L747.9428,-295.2870 L748.0417,-295.4818 L748.1389,-295.6775 L748.2344,-295.8740 L748.3281,-296.0713 L748.4201,-296.2695 L748.5104,-296.4684 L748.5989,-296.6681 L748.6857,-296.8686 L748.7708,-297.0699 L748.8540,-297.2719 L748.9356,-297.4745 L749.0153,-297.6779 L749.0932,-297.8820 L749.1694,-298.0868 L749.2438,-298.2922 L749.3163,-298.4983 L749.3871,-298.7050 L749.4561,-298.9123 L749.5232,-299.1202 L749.5886,-299.3286 L749.6521,-299.5377 L749.7137,-299.7473 L749.7736,-299.9574 L749.8316,-300.1680 L749.8877,-300.3791 L749.9420,-300.5907 L749.9945,-300.8028 L750.0451,-301.0153 L750.0939,-301.2283 L750.1407,-301.4417 L750.1858,-301.6555 L750.2289,-301.8696 L750.2702,-302.0842 L750.3096,-302.2990 L750.3471,-302.5143 L750.3827,-302.7298 L750.4165,-302.9457 L750.4484,-303.1618 L750.4783,-303.3782 L750.5064,-303.5948 L750.5326,-303.8117 L750.5569,-304.0289 L750.5793,-304.2462 L750.5998,-304.4637 L750.6184,-304.6814 L750.6351,-304.8992 L750.6498,-305.1172 L750.6627,-305.3352 L750.6737,-305.5534 L750.6828,-305.7717 L750.6899,-305.9901 L750.6952,-306.2085 L750.6985,-306.4269 L750.6999,-306.6454 L750.6995,-306.8639 L750.6971,-307.0823 L750.6928,-307.3007 L750.6866,-307.5191 L750.6785,-307.7374 L750.6684,-307.9557 L750.6565,-308.1738 L750.6427,-308.3918 L750.6270,-308.6097 L750.6093,-308.8275 L750.5898,-309.0451 L750.5683,-309.2625 L750.5450,-309.4797 L750.5197,-309.6967 L750.4926,-309.9135 L750.4636,-310.1300 L750.4327,-310.3463 L750.3999,-310.5623 L750.3652,-310.7780 L750.3286,-310.9934 L750.2901,-311.2084 L750.2498,-311.4232 L750.2076,-311.6375 L750.1635,-311.8515 L750.1175,-312.0651 L750.0697,-312.2782 L750.0200,-312.4910 L749.9685,-312.7033 L749.9151,-312.9151 L749.8599,-313.1265 L749.8028,-313.3374 L749.7439,-313.5478 L749.6831,-313.7576 L749.6205,-313.9669 L749.5561,-314.1757 L749.4899,-314.3839 L749.4218,-314.5915 L749.3520,-314.7985 L749.2803,-315.0048 L749.2068,-315.2106 L749.1315,-315.4157 L749.0545,-315.6201 L748.9756,-315.8238 L748.8950,-316.0269 L748.8126,-316.2292 L748.7285,-316.4308 L748.6426,-316.6317 L748.5549,-316.8318 L748.4655,-317.0311 L748.3743,-317.2297 L748.2815,-317.4274 L748.1868,-317.6244 L748.0905,-317.8204 L747.9925,-318.0157 L747.8928,-318.2101 L747.7913,-318.4036 L747.6882,-318.5962 L747.5834,-318.7879 L747.4769,-318.9786 L747.3688,-319.1685 L747.2590,-319.3573 L747.1476,-319.5452 L747.0345,-319.7322 L746.9198,-319.9181 L746.8035,-320.1030 L746.6856,-320.2870 L746.5661,-320.4698 L746.4449,-320.6516 L746.3222,-320.8324 L746.1979,-321.0121 L746.0721,-321.1906 L745.9447,-321.3681 L745.8157,-321.5445 L745.6852,-321.7197 L745.5532,-321.8937 L745.4197,-322.0667 L745.2846,-322.2384 L745.1481,-322.4089 L745.0101,-322.5783 L744.8706,-322.7464 L744.7296,-322.9133 L744.5872,-323.0790 L744.4434,-323.2434 L744.2981,-323.4066 L744.1514,-323.5685 L744.0033,-323.7291 L743.8538,-323.8884 L743.7029,-324.0464 L743.5506,-324.2030 L743.3970,-324.3583 L743.2420,-324.5123 L743.0857,-324.6649 L742.9280,-324.8162 L742.7690,-324.9660 L742.6088,-325.1145 L742.4472,-325.2616 L742.2844,-325.4072 L742.1202,-325.5514 L741.9549,-325.6942 L741.7883,-325.8355 L741.6204,-325.9754 L741.4514,-326.1137 L741.2811,-326.2507 L741.1097,-326.3861 L740.9371,-326.5200 L740.7633,-326.6524 L740.5884,-326.7832 L740.4123,-326.9126 L740.2351,-327.0404 L740.0568,-327.1666 L739.8774,-327.2913 L739.6969,-327.4144 L739.5154,-327.5359 L739.3328,-327.6559 L739.1491,-327.7742 L738.9644,-327.8909 L738.7788,-328.0060 L738.5921,-328.1195 L738.4044,-328.2313 L738.2158,-328.3415 L738.0262,-328.4501 L737.8356,-328.5570 L737.6442,-328.6622 L737.4518,-328.7657 L737.2585,-328.8676 L737.0644,-328.9677 L736.8693,-329.0662 L736.6735,-329.1629 L736.4767,-329.2580 L736.2792,-329.3513 L736.0809,-329.4429 L735.8817,-329.5327 L735.6818,-329.6208 L735.4811,-329.7072 L735.2797,-329.7918 L735.0775,-329.8746 L734.8747,-329.9557 L734.6711,-330.0349 L734.4668,-330.1124 L734.2619,-330.1882 L734.0563,-330.2621 L733.8501,-330.3342 L733.6433,-330.4045 L733.4358,-330.4730 L733.2278,-330.5397 L733.0192,-330.6046 L732.8100,-330.6676 L732.6003,-330.7289 L732.3900,-330.7882 L732.1793,-330.8458 L731.9680,-330.9015 L731.7563,-330.9553 L731.5441,-331.0073 L731.3315,-331.0575 L731.1184,-331.1058 L730.9049,-331.1522 L730.6910,-331.1967 L730.4768,-331.2394 L730.2622,-331.2802 L730.0472,-331.3191 L729.8319,-331.3562 L729.6163,-331.3914 L729.4003,-331.4246 L729.1841,-331.4560 L728.9677,-331.4855 L728.7509,-331.5131 L728.5340,-331.5388 L728.3168,-331.5627 L728.0995,-331.5846 L727.8819,-331.6046 L727.6642,-331.6227 L727.4463,-331.6389 L727.2283,-331.6532 L727.0102,-331.6656 L726.7920,-331.6761 L726.5737,-331.6847 L726.3553,-331.6914 L726.1369,-331.6962 L725.9185,-331.6990 L725.7000,-331.7000"></path>
	<path d="M700.7000,-251.1750 L700.7000,-250.4250 L750.7000,-250.4250 L750.7000,-251.1750 L700.7000,-251.1750"></path>
	<path d="M855.5000,-331.7000 L855.2815,-331.6990 L855.0631,-331.6962 L854.8447,-331.6914 L854.6263,-331.6847 L854.4080,-331.6761 L854.1898,-331.6656 L853.9717,-331.6532 L853.7537,-331.6389 L853.5358,-331.6227 L853.3181,-331.6046 L853.1005,-331.5846 L852.8832,-331.5627 L852.6660,-331.5388 L852.4491,-331.5131 L852.2323,-331.4855 L852.0159,-331.4560 L851.7997,-331.4246 L851.5837,-331.3914 L851.3681,-331.3562 L851.1528,-331.3191 L850.9378,-331.2802 L850.7232,-331.2394 L850.5090,-331.1967 L850.2951,-331.1522 L850.0816,-331.1058 L849.8685,-331.0575 L849.6559,-331.0073 L849.4437,-330.9553 L849.2320,-330.9015 L849.0207,-330.8458 L848.8100,-330.7882 L848.5997,-330.7289 L848.3900,-330.6676 L848.1808,-330.6046 L847.9722,-330.5397 L847.7642,-330.4730 L847.5567,-330.4045 L847.3499,-330.3342 L847.1437,-330.2621 L846.9381,-330.1882 L846.7332,-330.1124 L846.5289,-330.0349 L846.3253,-329.9557 L846.1225,-329.8746 L845.9203,-329.7918 L845.7189,-329.7072 L845.5182,-329.6208 L845.3183,-329.5327 L845.1191,-329.4429 L844.9208,-329.3513 L844.7233,-329.2580 L844.5265,-329.1629 L844.3307,-329.0662 L844.1356,-328.9677 L843.9415,-328.8676 L843.7482,-328.7657 L843.5558,-328.6622 L843.3644,-328.5570 L843.1738,-328.4501 L842.9842,-328.3415 L842.7956,-328.2313 L842.6079,-328.1195 L842.4212,-328.0060 L842.2356,-327.8909 L842.0509,-327.7742 L841.8672,-327.6559 L841.6846,-327.5359 L841.5031,-327.4144 L841.3226,-327.2913 L841.1432,-327.1666 L840.9649,-327.0404 L840.7877,-326.9126 L840.6116,-326.7832 L840.4367,-326.6524 L840.2629,-326.5200 L840.0903,-326.3861 L839.9189,-326.2507 L839.7486,-326.1137 L839.5796,-325.9754 L839.4117,-325.8355 L839.2451,-325.6942 L839.0798,-325.5514 L838.9156,-325.4072 L838.7528,-325.2616 L838.5912,-325.1145 L838.4310,-324.9660 L838.2720,-324.8162 L838.1143,-324.6649 L837.9580,-324.5123 L837.8030,-324.3583 L837.6494,-324.2030 L837.4971,-324.0464 L837.3462,-323.8884 L837.1967,-323.7291 L837.0486,-323.5685 L836.9019,-323.4066 L836.7566,-323.2434 L836.6128,-323.0790 L836.4704,-322.9133 L836.3294,-322.7464 L836.1899,-322.5783 L836.0519,-322.4089 L835.9154,-322.2384 L835.7803,-322.0667 L835.6468,-321.8937 L835.5148,-321.7197 L835.3843,-321.5445 L835.2553,-321.3681 L835.1279,-321.1906 L835.0021,-321.0121 L834.8778,-320.8324 L834.7551,-320.6516 L834.6339,-320.4698 L834.5144,-320.2870 L834.3965,-320.1030 L834.2802,-319.9181 L834.1655,-319.7322 L834.0524,-319.5452 L833.9410,-319.3573 L833.8312,-319.1685 L833.7231,-318.9786 L833.6166,-318.7879 L833.5118,-318.5962 L833.4087,-318.4036 L833.3072,-318.2101 L833.2075,-318.0157 L833.1095,-317.8204 L833.0132,-317.6244 L832.9185,-317.4274 L832.8257,-317.2297 L832.7345,-317.0311 L832.6451,-316.8318 L832.5574,-316.6317 L832.4715,-316.4308 L832.3874,-316.2292 L832.3050,-316.0269 L832.2244,-315.8238 L832.1455,-315.6201 L832.0685,-315.4157 L831.9932,-315.2106 L831.9197,-315.0048 L831.8480,-314.7985 L831.7782,-314.5915 L831.7101,-314.3839 L831.6439,-314.1757 L831.5795,-313.9669 L831.5169,-313.7576 L831.4561,-313.5478 L831.3972,-313.3374 L831.3401,-313.1265 L831.2849,-312.9151 L831.2315,-312.7033 L831.1800,-312.4910 L831.1303,-312.2782 L831.0825,-312.0651 L831.0365,-311.8515 L830.9924,-311.6375 L830.9502,-311.4232 L830.9099,-311.2084 L830.8714,-310.9934 L830.8348,-310.7780 L830.8001,-310.5623 L830.7673,-310.3463 L830.7364,-310.1300 L830.7074,-309.9135 L830.6803,-309.6967 L830.6550,-309.4797 L830.6317,-309.2625 L830.6102,-309.0451 L830.5907,-308.8275 L830.5730,-308.6097 L830.5573,-308.3918 L830.5435,-308.1738 L830.5316,-307.9557 L830.5215,-307.7374 L830.5134,-307.5191 L830.5072,-307.3007 L830.5029,-307.0823 L830.5005,-306.8639 L830.5001,-306.6454 L830.5015,-306.4269 L830.5048,-306.2085 L830.5101,-305.9901 L830.5172,-305.7717 L830.5263,-305.5534 L830.5373,-305.3352 L830.5502,-305.1172 L830.5649,-304.8992 L830.5816,-304.6814 L830.6002,-304.4637 L830.6207,-304.2462 L830.6431,-304.0289 L830.6674,-303.8117 L830.6936,-303.5948 L830.7217,-303.3782 L830.7516,-303.1618 L830.7835,-302.9457 L830.8173,-302.7298 L830.8529,-302.5143 L830.8904,-302.2990 L830.9298,-302.0842 L830.9711,-301.8696 L831.0142,-301.6555 L831.0593,-301.4417 L831.1061,-301.2283 L831.1549,-301.0153 L831.2055,-300.8028 L831.2580,-300.5907 L831.3123,-300.3791 L831.3684,-300.1680 L831.4264,-299.9574 L831.4863,-299.7473 L831.5479,-299.5377 L831.6114,-299.3286 L831.6768,-299.1202 L831.7439,-298.9123 L831.8129,-298.7050 L831.8837,-298.4983 L831.9562,-298.2922 L832.0306,-298.0868 L832.1068,-297.8820 L832.1847,-297.6779 L832.2644,-297.4745 L832.3460,-297.2719 L832.4292,-297.0699 L832.5143,-296.8686 L832.6011,-296.6681 L832.6896,-296.4684 L832.7799,-296.2695 L832.8719,-296.0713 L832.9656,-295.8740 L833.0611,-295.6775 L833.1583,-295.4818 L833.2572,-295.2870 L833.3577,-295.0931 L833.4600,-294.9000 L833.5640,-294.7079 L833.6696,-294.5166 L833.7769,-294.3263 L833.8859,-294.1370 L833.9965,-293.9486 L834.1087,-293.7612 L834.2226,-293.5747 L834.3381,-293.3893 L834.4553,-293.2049 L834.5740,-293.0215 L834.6943,-292.8391 L834.8162,-292.6579 L834.9397,-292.4776 L835.0648,-292.2985 L835.1914,-292.1205 L835.3196,-291.9436 L835.4493,-291.7678 L835.5806,-291.5931 L835.7134,-291.4197 L835.8476,-291.2473 L835.9834,-291.0762 L836.1207,-290.9062 L836.2595,-290.7375 L836.3997,-290.5700 L836.5414,-290.4037 L836.6845,-290.2386 L836.8291,-290.0748 L836.9751,-289.9123 L837.1225,-289.7510 L837.2713,-289.5911 L837.4215,-289.4325 L837.5731,-289.2751 L837.7260,-289.1191 L837.8804,-288.9645 L838.0360,-288.8112 L838.1930,-288.6593 L838.3513,-288.5087 L838.5109,-288.3596 L838.6719,-288.2118 L838.8341,-288.0654 L838.9975,-287.9205 L839.1623,-287.7770 L839.3283,-287.6350 L839.4955,-287.4944 L839.6639,-287.3553 L839.8336,-287.2176 L840.0044,-287.0815 L840.1765,-286.9468 L840.3497,-286.8136 L840.5240,-286.6820 L840.6995,-286.5519 L840.8762,-286.4233 L841.0539,-286.2963 L841.2328,-286.1709 L841.4127,-286.0470 L841.5937,-285.9246 L841.7758,-285.8039 L841.9589,-285.6848 L842.1431,-285.5673 L842.3283,-285.4513 L842.5145,-285.3370 L842.7016,-285.2244 L842.8898,-285.1134 L843.0789,-285.0040 L843.2690,-284.8963 L843.4600,-284.7902 L843.6519,-284.6859 L843.8447,-284.5832 L844.0385,-284.4821 L844.2330,-284.3828 L844.4285,-284.2852 L844.6248,-284.1893 L844.8219,-284.0952 L845.0199,-284.0027 L845.2186,-283.9120 L845.4181,-283.8230 L845.6184,-283.7358 L845.8195,-283.6503 L846.0213,-283.5666 L846.2238,-283.4847 L846.4270,-283.4045 L846.6309,-283.3261 L846.8355,-283.2495 L847.0408,-283.1747 L847.2467,-283.1016 L847.4532,-283.0304 L847.6604,-282.9610 L847.8681,-282.8934 L848.0765,-282.8276 L848.2854,-282.7636 L848.4948,-282.7015 L848.7048,-282.6412 L848.9153,-282.5828 L849.1263,-282.5261 L849.3378,-282.4714 L849.5497,-282.4184 L849.7622,-282.3674 L849.9750,-282.3182 L850.1883,-282.2708 L850.4020,-282.2253 L850.6160,-282.1817 L850.8305,-282.1400 L851.0453,-282.1001 L851.2604,-282.0621 L851.4759,-282.0260 L851.6917,-281.9918 L851.9077,-281.9594 L852.1241,-281.9290 L852.3407,-281.9004 L852.5575,-281.8738 L852.7746,-281.8490 L852.9918,-281.8261 L853.2093,-281.8052 L853.4269,-281.7861 L853.6447,-281.7689 L853.8627,-281.7537 L854.0807,-281.7403 L854.2989,-281.7289 L854.5171,-281.7193 L854.7355,-281.7117 L854.9539,-281.7060 L855.1723,-281.7021 L855.3908,-281.7002 L855.6092,-281.7002 L855.8277,-281.7021 L856.0461,-281.7060 L856.2645,-281.7117 L856.4829,-281.7193 L856.7011,-281.7289 L856.9193,-281.7403 L857.1373,-281.7537 L857.3553,-281.7689 L857.5731,-281.7861 L857.7907,-281.8052 L858.0082,-281.8261 L858.2254,-281.8490 L858.4425,-281.8738 L858.6593,-281.9004 L858.8759,-281.9290 L859.0923,-281.9594 L859.3083,-281.9918 L859.5241,-282.0260 L859.7396,-282.0621 L859.9547,-282.1001 L860.1695,-282.1400 L860.3840,-282.1817 L860.5980,-282.2253 L860.8117,-282.2708 L861.0250,-282.3182 L861.2378,-282.3674 L861.4503,-282.4184 L861.6622,-282.4714 L861.8737,-282.5261 L862.0847,-282.5828 L862.2952,-282.6412 L862.5052,-282.7015 L862.7146,-282.7636 L862.9235,-282.8276 L863.1319,-282.8934 L863.3396,-282.9610 L863.5468,-283.0304 L863.7533,-283.1016 L863.9592,-283.1747 L864.1645,-283.2495 L864.3691,-283.3261 L864.5730,-283.4045 L864.7762,-283.4847 L864.9787,-283.5666 L865.1805,-283.6503 L865.3816,-283.7358 L865.5819,-283.8230 L865.7814,-283.9120 L865.9801,-284.0027 L866.1781,-284.0952 L866.3752,-284.1893 L866.5715,-284.2852 L866.7670,-284.3828 L866.9615,-284.4821 L867.1553,-284.5832 L867.3481,-284.6859 L867.5400,-284.7902 L867.7310,-284.8963 L867.9211,-285.0040 L868.1102,-285.1134 L868.2984,-285.2244 L868.4855,-285.3370 L868.6717,-285.4513 L868.8569,-285.5673 L869.0411,-285.6848 L869.2242,-285.8039 L869.4063,-285.9246 L869.5873,-286.0470 L869.7672,-286.1709 L869.9461,-286.2963 L870.1238,-286.4233 L870.3005,-286.5519 L870.4760,-286.6820 L870.6503,-286.8136 L870.8235,-286.9468 L870.9956,-287.0815 L871.1664,-287.2176 L871.3361,-287.3553 L871.5045,-287.4944 L871.6717,-287.6350 L871.8377,-287.7770 L872.0025,-287.9205 L872.1659,-288.0654 L872.3281,-288.2118 L872.4891,-288.3596 L872.6487,-288.5087 L872.8070,-288.6593 L872.9640,-288.8112 L873.1196,-288.9645 L873.2740,-289.1191 L873.4269,-289.2751 L873.5785,-289.4325 L873.7287,-289.5911 L873.8775,-289.7510 L874.0249,-289.9123 L874.1709,-290.0748 L874.3155,-290.2386 L874.4586,-290.4037 L874.6003,-290.5700 L874.7405,-290.7375 L874.8793,-290.9062 L875.0166,-291.0762 L875.1524,-291.2473 L875.2866,-291.4197 L875.4194,-291.5931 L875.5507,-291.7678 L875.6804,-291.9436 L875.8086,-292.1205 L875.9352,-292.2985 L876.0603,-292.4776 L876.1838,-292.6579 L876.3057,-292.8391 L876.4260,-293.0215 L876.5447,-293.2049 L876.6619,-293.3893 L876.7774,-293.5747 L876.8913,-293.7612 L877.0035,-293.9486 L877.1141,-294.1370 L877.2231,-294.3263 L877.3304,-294.5166 L877.4360,-294.7079 L877.5400,-294.9000 L877.6423,-295.0931 L877.7428,-295.2870 L877.8417,-295.4818 L877.9389,-295.6775 L878.0344,-295.8740 L878.1281,-296.0713 L878.2201,-296.2695 L878.3104,-296.4684 L878.3989,-296.6681 L878.4857,-296.8686 L878.5708,-297.0699 L878.6540,-297.2719 L878.7356,-297.4745 L878.8153,-297.6779 L878.8932,-297.8820 L878.9694,-298.0868 L879.0438,-298.2922 L879.1163,-298.4983 L879.1871,-298.7050 L879.2561,-298.9123 L879.3232,-299.1202 L879.3886,-299.3286 L879.4521,-299.5377 L879.5137,-299.7473 L879.5736,-299.9574 L879.6316,-300.1680 L879.6877,-300.3791 L879.7420,-300.5907 L879.7945,-300.8028 L879.8451,-301.0153 L879.8939,-301.2283 L879.9407,-301.4417 L879.9858,-301.6555 L880.0289,-301.8696 L880.0702,-302.0842 L880.1096,-302.2990 L880.1471,-302.5143 L880.1827,-302.7298 L880.2165,-302.9457 L880.2484,-303.1618 L880.2783,-303.3782 L880.3064,-303.5948 L880.3326,-303.8117 L880.3569,-304.0289 L880.3793,-304.2462 L880.3998,-304.4637 L880.4184,-304.6814 L880.4351,-304.8992 L880.4498,-305.1172 L880.4627,-305.3352 L880.4737,-305.5534 L880.4828,-305.7717 L880.4899,-305.9901 L880.4952,-306.2085 L880.4985,-306.4269 L880.4999,-306.6454 L880.4995,-306.8639 L880.4971,-307.0823 L880.4928,-307.3007 L880.4866,-307.5191 L880.4785,-307.7374 L880.4684,-307.9557 L880.4565,-308.1738 L880.4427,-308.3918 L880.4270,-308.6097 L880.4093,-308.8275 L880.3898,-309.0451 L880.3683,-309.2625 L880.3450,-309.4797 L880.3197,-309.6967 L880.2926,-309.9135 L880.2636,-310.1300 L880.2327,-310.3463 L880.1999,-310.5623 L880.1652,-310.7780 L880.1286,-310.9934 L880.0901,-311.2084 L880.0498,-311.4232 L880.0076,-311.6375 L879.9635,-311.8515 L879.9175,-312.0651 L879.8697,-312.2782 L879.8200,-312.4910 L879.7685,-312.7033 L879.7151,-312.9151 L879.6599,-313.1265 L879.6028,-313.3374 L879.5439,-313.5478 L879.4831,-313.7576 L879.4205,-313.9669 L879.3561,-314.1757 L879.2899,-314.3839 L879.2218,-314.5915 L879.1520,-314.7985 L879.0803,-315.0048 L879.0068,-315.2106 L878.9315,-315.4157 L878.8545,-315.6201 L878.7756,-315.8238 L878.6950,-316.0269 L878.6126,-316.2292 L878.5285,-316.4308 L878.4426,-316.6317 L878.3549,-316.8318 L878.2655,-317.0311 L878.1743,-317.2297 L878.0815,-317.4274 L877.9868,-317.6244 L877.8905,-317.8204 L877.7925,-318.0157 L877.6928,-318.2101 L877.5913,-318.4036 L877.4882,-318.5962 L877.3834,-318.7879 L877.2769,-318.9786 L877.1688,-319.1685 L877.0590,-319.3573 L876.9476,-319.5452 L876.8345,-319.7322 L876.7198,-319.9181 L876.6035,-320.1030 L876.4856,-320.2870 L876.3661,-320.4698 L876.2449,-320.6516 L876.1222,-320.8324 L875.9979,-321.0121 L875.8721,-321.1906 L875.7447,-321.3681 L875.6157,-321.5445 L875.4852,-321.7197 L875.3532,-321.8937 L875.2197,-322.0667 L875.0846,-322.2384 L874.9481,-322.4089 L874.8101,-322.5783 L874.6706,-322.7464 L874.5296,-322.9133 L874.3872,-323.0790 L874.2434,-323.2434 L874.0981,-323.4066 L873.9514,-323.5685 L873.8033,-323.7291 L873.6538,-323.8884 L873.5029,-324.0464 L873.3506,-324.2030 L873.1970,-324.3583 L873.0420,-324.5123 L872.8857,-324.6649 L872.7280,-324.8162 L872.5690,-324.9660 L872.4088,-325.1145 L872.2472,-325.2616 L872.0844,-325.4072 L871.9202,-325.5514 L871.7549,-325.6942 L871.5883,-325.8355 L871.4204,-325.9754 L871.2514,-326.1137 L871.0811,-326.2507 L870.9097,-326.3861 L870.7371,-326.5200 L870.5633,-326.6524 L870.3884,-326.7832 L870.2123,-326.9126 L870.0351,-327.0404 L869.8568,-327.1666 L869.6774,-327.2913 L869.4969,-327.4144 L869.3154,-327.5359 L869.1328,-327.6559 L868.9491,-327.7742 L868.7644,-327.8909 L868.5788,-328.0060 L868.3921,-328.1195 L868.2044,-328.2313 L868.0158,-328.3415 L867.8262,-328.4501 L867.6356,-328.5570 L867.4442,-328.6622 L867.2518,-328.7657 L867.0585,-328.8676 L866.8644,-328.9677 L866.6693,-329.0662 L866.4735,-329.1629 L866.2767,-329.2580 L866.0792,-329.3513 L865.8809,-329.4429 L865.6817,-329.5327 L865.4818,-329.6208 L865.2811,-329.7072 L865.0797,-329.7918 L864.8775,-329.8746 L864.6747,-329.9557 L864.4711,-330.0349 L864.2668,-330.1124 L864.0619,-330.1882 L863.8563,-330.2621 L863.6501,-330.3342 L863.4433,-330.4045 L863.2358,-330.4730 L863.0278,-330.5397 L862.8192,-330.6046 L862.6100,-330.6676 L862.4003,-330.7289 L862.1900,-330.7882 L861.9793,-330.8458 L861.7680,-330.9015 L861.5563,-330.9553 L861.3441,-331.0073 L861.1315,-331.0575 L860.9184,-331.1058 L860.7049,-331.1522 L860.4910,-331.1967 L860.2768,-331.2394 L860.0622,-331.2802 L859.8472,-331.3191 L859.6319,-331.3562 L859.4163,-331.3914 L859.2003,-331.4246 L858.9841,-331.4560 L858.7677,-331.4855 L858.5509,-331.5131 L858.3340,-331.5388 L858.1168,-331.5627 L857.8995,-331.5846 L857.6819,-331.6046 L857.4642,-331.6227 L857.2463,-331.6389 L857.0283,-331.6532 L856.8102,-331.6656 L856.5920,-331.6761 L856.3737,-331.6847 L856.1553,-331.6914 L855.9369,-331.6962 L855.7185,-331.6990 L855.5000,-331.7000"></path>
	<path d="M830.5000,-251.1750 L830.5000,-250.4250 L880.5000,-250.4250 L880.5000,-251.1750 L830.5000,-251.1750"></path>
</g>
</svg>