<?xml version="1.0" encoding="utf-8"?>
<svg xmlns="http://www.w3.org/2000/svg" width="590.0000mm" height="141.6000mm" viewBox="-5.9000 11.8000 590.0000 141.6000">
<g>
	<path d="M-0.0000,11.8000 L-5.9000,11.8000 L-5.9000,17.7000 L-5.9000,29.5000 L0.0000,29.5000 L0.0000,29.5000 L0.0000,41.3000 L-5.9000,41.3000 L-5.9000,41.3000 L-5.9000,53.1000 L0.0000,53.1000 L0.0000,53.1000 L0.0000,64.9000 L-5.9000,64.9000 L-5.9000,64.9000 L-5.9000,76.7000 L0.0000,76.7000 L0.0000,76.7000 L0.0000,88.5000 L-5.9000,88.5000 L-5.9000,88.5000 L-5.9000,100.3000 L0.0000,100.3000 L0.0000,100.3000 L0.0000,112.1000 L-5.9000,112.1000 L-5.9000,112.1000 L-5.9000,123.9000 L0.0000,123.9000 L0.0000,123.9000 L0.0000,135.7000 L-5.9000,135.7000 L-5.9000,135.7000 L-5.9000,147.5000 L-5.9000,153.4000 L-5.9000,147.5000 L-5.9000,153.4000 L0.0000,153.4000 L11.8000,153.4000 L11.8000,147.5000 L11.8000,147.5000 L23.6000,147.5000 L23.6000,153.4000 L23.6000,153.4000 L35.4000,153.4000 L35.4000,147.5000 L35.4000,147.5000 L47.2000,147.5000 L47.2000,153.4000 L47.2000,153.4000 L59.0000,153.4000 L59.0000,147.5000 L59.0000,147.5000 L70.8000,147.5000 L70.8000,153.4000 L70.8000,153.4000 L82.6000,153.4000 L82.6000,147.5000 L82.6000,147.5000 L94.4000,147.5000 L94.4000,153.4000 L94.4000,153.4000 L106.2000,153.4000 L106.2000,147.5000 L106.2000,147.5000 L118.0000,147.5000 L118.0000,153.4000 L118.0000,153.4000 L129.8000,153.4000 L129.8000,147.5000 L129.8000,147.5000 L448.4000,147.5000 L448.4000,147.5000 L448.4000,153.4000 L460.2000,153.4000 L460.2000,147.5000 L460.2000,147.5000 L472.0000,147.5000 L472.0000,153.4000 L472.0000,153.4000 L483.8000,153.4000 L483.8000,147.5000 L483.8000,147.5000 L495.6000,147.5000 L495.6000,153.4000 L495.6000,153.4000 L507.4000,153.4000 L507.4000,147.5000 L507.4000,147.5000 L519.2000,147.5000 L519.2000,153.4000 L519.2000,153.4000 L531.0000,153.4000 L531.0000,147.5000 L531.0000,147.5000 L542.8000,147.5000 L542.8000,153.4000 L542.8000,153.4000 L554.6000,153.4000 L554.6000,147.5000 L554.6000,147.5000 L566.4000,147.5000 L566.4000,153.4000 L566.4000,153.4000 L578.2000,153.4000 L584.1000,153.4000 L584.1000,147.5000 L584.1000,153.4000 L584.1000,147.5000 L584.1000,135.7000 L578.2000,135.7000 L578.2000,135.7000 L578.2000,123.9000 L584.1000,123.9000 L584.1000,123.9000 L584.1000,112.1000 L578.2000,112.1000 L578.2000,112.1000 L578.2000,100.3000 L584.1000,100.3000 L584.1000,100.3000 L584.1000,88.5000 L578.2000,88.5000 L578.2000,88.5000 L578.2000,76.7000 L584.1000,76.7000 L584.1000,76.7000 L584.1000,64.9000 L578.2000,64.9000 L578.2000,64.9000 L578.2000,53.1000 L584.1000,53.1000 L584.1000,53.1000 L584.1000,41.3000 L578.2000,41.3000 L578.2000,41.3000 L578.2000,29.5000 L584.1000,29.5000 L584.1000,29.5000 L584.1000,17.7000 L584.1000,11.8000 L578.2000,11.8000 L578.2000,11.8000 L578.0689,11.8072 L577.9377,11.8287 L577.8066,11.8645 L577.6754,11.9143 L577.5443,11.9780 L577.4132,12.0552 L577.2820,12.1455 L577.1509,12.2485 L577.0197,12.3636 L576.8886,12.4905 L576.7575,12.6283 L576.6263,12.7765 L576.4952,12.9343 L576.3640,13.1009 L576.2329,13.2756 L576.1017,13.4575 L575.9706,13.6456 L575.8395,13.8392 L575.7083,14.0372 L575.5772,14.2387 L575.4460,14.4426 L575.3149,14.6481 L575.1838,14.8540 L575.0526,15.0595 L574.9215,15.2634 L574.7903,15.4648 L574.6592,15.6628 L574.5281,15.8563 L574.3969,16.0444 L574.2658,16.2262 L574.1346,16.4008 L574.0035,16.5674 L573.8724,16.7251 L573.7412,16.8732 L573.6101,17.0109 L573.4789,17.1376 L573.3478,17.2527 L573.2166,17.3555 L573.0855,17.4457 L572.9544,17.5227 L572.8232,17.5862 L572.6921,17.6359 L572.5609,17.6716 L572.4298,17.6930 L572.2987,17.7000 L572.1675,17.6927 L572.0364,17.6710 L571.9052,17.6351 L571.7741,17.5851 L571.6430,17.5213 L571.5118,17.4440 L571.3807,17.3536 L571.2495,17.2504 L571.1184,17.1351 L570.9873,17.0082 L570.8561,16.8702 L570.7250,16.7220 L570.5938,16.5641 L570.4627,16.3973 L570.3315,16.2226 L570.2004,16.0406 L570.0693,15.8524 L569.9381,15.6588 L569.8070,15.4608 L569.6758,15.2593 L569.5447,15.0553 L569.4136,14.8498 L569.2824,14.6439 L569.1513,14.4384 L569.0201,14.2345 L568.8890,14.0331 L568.7579,13.8352 L568.6267,13.6417 L568.4956,13.4537 L568.3644,13.2720 L568.2333,13.0974 L568.1022,12.9310 L567.9710,12.7734 L567.8399,12.6254 L567.7087,12.4878 L567.5776,12.3612 L567.4465,12.2462 L567.3153,12.1435 L567.1842,12.0534 L567.0530,11.9766 L566.9219,11.9132 L566.7907,11.8636 L566.6596,11.8281 L566.5285,11.8069 L566.3973,11.8000 L566.2662,11.8075 L566.1350,11.8293 L566.0039,11.8654 L565.8728,11.9155 L565.7416,11.9794 L565.6105,12.0569 L565.4793,12.1474 L565.3482,12.2507 L565.2171,12.3661 L565.0859,12.4932 L564.9548,12.6312 L564.8236,12.7796 L564.6925,12.9376 L564.5614,13.1044 L564.4302,13.2792 L564.2991,13.4613 L564.1679,13.6495 L564.0368,13.8432 L563.9056,14.0413 L563.7745,14.2428 L563.6434,14.4468 L563.5122,14.6523 L563.3811,14.8582 L563.2499,15.0637 L563.1188,15.2676 L562.9877,15.4689 L562.8565,15.6668 L562.7254,15.8602 L562.5942,16.0482 L562.4631,16.2299 L562.3320,16.4043 L562.2008,16.5707 L562.0697,16.7282 L561.9385,16.8761 L561.8074,17.0136 L561.6763,17.1401 L561.5451,17.2549 L561.4140,17.3575 L561.2828,17.4474 L561.1517,17.5242 L561.0205,17.5874 L560.8894,17.6368 L560.7583,17.6721 L560.6271,17.6932 L560.4960,17.7000 L560.3648,17.6924 L560.2337,17.6704 L560.1026,17.6342 L559.9714,17.5839 L559.8403,17.5198 L559.7091,17.4423 L559.5780,17.3516 L559.4469,17.2482 L559.3157,17.1326 L559.1846,17.0055 L559.0534,16.8673 L558.9223,16.7188 L558.7912,16.5607 L558.6600,16.3938 L558.5289,16.2189 L558.3977,16.0369 L558.2666,15.8485 L558.1355,15.6548 L558.0043,15.4567 L557.8732,15.2551 L557.7420,15.0511 L557.6109,14.8456 L557.4797,14.6397 L557.3486,14.4343 L557.2175,14.2304 L557.0863,14.0290 L556.9552,13.8312 L556.8240,13.6379 L556.6929,13.4499 L556.5618,13.2683 L556.4306,13.0940 L556.2995,12.9277 L556.1683,12.7702 L556.0372,12.6225 L555.9061,12.4851 L555.7749,12.3587 L555.6438,12.2440 L555.5126,12.1415 L555.3815,12.0517 L555.2504,11.9751 L555.1192,11.9120 L554.9881,11.8628 L554.8569,11.8276 L554.7258,11.8066 L554.5946,11.8000 L554.4635,11.8078 L554.3324,11.8299 L554.2012,11.8663 L554.0701,11.9167 L553.9389,11.9809 L553.8078,12.0586 L553.6767,12.1494 L553.5455,12.2529 L553.4144,12.3686 L553.2832,12.4959 L553.1521,12.6342 L553.0210,12.7827 L552.8898,12.9409 L552.7587,13.1079 L552.6275,13.2829 L552.4964,13.4650 L552.3653,13.6534 L552.2341,13.8472 L552.1030,14.0454 L551.9718,14.2469 L551.8407,14.4510 L551.7095,14.6565 L551.5784,14.8624 L551.4473,15.0678 L551.3161,15.2717 L551.1850,15.4730 L551.0538,15.6708 L550.9227,15.8641 L550.7916,16.0520 L550.6604,16.2335 L550.5293,16.4078 L550.3981,16.5740 L550.2670,16.7313 L550.1359,16.8790 L550.0047,17.0163 L549.8736,17.1425 L549.7424,17.2571 L549.6113,17.3595 L549.4802,17.4491 L549.3490,17.5256 L549.2179,17.5886 L549.0867,17.6377 L548.9556,17.6727 L548.8244,17.6935 L548.6933,17.7000 L548.5622,17.6921 L548.4310,17.6698 L548.2999,17.6333 L548.1687,17.5828 L548.0376,17.5184 L547.9065,17.4406 L547.7753,17.3496 L547.6442,17.2460 L547.5130,17.1302 L547.3819,17.0028 L547.2508,16.8644 L547.1196,16.7157 L546.9885,16.5574 L546.8573,16.3904 L546.7262,16.2153 L546.5951,16.0331 L546.4639,15.8446 L546.3328,15.6508 L546.2016,15.4526 L546.0705,15.2510 L545.9394,15.0469 L545.8082,14.8414 L545.6771,14.6355 L545.5459,14.4301 L545.4148,14.2262 L545.2836,14.0250 L545.1525,13.8272 L545.0214,13.6340 L544.8902,13.4462 L544.7591,13.2647 L544.6279,13.0905 L544.4968,12.9244 L544.3657,12.7671 L544.2345,12.6196 L544.1034,12.4824 L543.9722,12.3563 L543.8411,12.2418 L543.7100,12.1396 L543.5788,12.0500 L543.4477,11.9737 L543.3165,11.9109 L543.1854,11.8619 L543.0543,11.8270 L542.9231,11.8063 L542.7920,11.8000 L542.6608,11.8081 L542.5297,11.8305 L542.3985,11.8671 L542.2674,11.9178 L542.1363,11.9823 L542.0051,12.0603 L541.8740,12.1514 L541.7428,12.2552 L541.6117,12.3711 L541.4806,12.4986 L541.3494,12.6371 L541.2183,12.7859 L541.0871,12.9442 L540.9560,13.1114 L540.8249,13.2865 L540.6937,13.4688 L540.5626,13.6574 L540.4314,13.8512 L540.3003,14.0494 L540.1692,14.2511 L540.0380,14.4552 L539.9069,14.6607 L539.7757,14.8666 L539.6446,15.0720 L539.5134,15.2758 L539.3823,15.4771 L539.2512,15.6748 L539.1200,15.8680 L538.9889,16.0557 L538.8577,16.2371 L538.7266,16.4113 L538.5955,16.5773 L538.4643,16.7344 L538.3332,16.8819 L538.2020,17.0190 L538.0709,17.1450 L537.9398,17.2593 L537.8086,17.3614 L537.6775,17.4508 L537.5463,17.5270 L537.4152,17.5897 L537.2841,17.6385 L537.1529,17.6733 L537.0218,17.6938 L536.8906,17.7000 L536.7595,17.6917 L536.6284,17.6692 L536.4972,17.6324 L536.3661,17.5816 L536.2349,17.5169 L536.1038,17.4388 L535.9726,17.3476 L535.8415,17.2437 L535.7104,17.1277 L535.5792,17.0000 L535.4481,16.8614 L535.3169,16.7126 L535.1858,16.5541 L535.0547,16.3869 L534.9235,16.2116 L534.7924,16.0293 L534.6612,15.8407 L534.5301,15.6468 L534.3990,15.4485 L534.2678,15.2468 L534.1367,15.0427 L534.0055,14.8372 L533.8744,14.6313 L533.7433,14.4259 L533.6121,14.2221 L533.4810,14.0209 L533.3498,13.8232 L533.2187,13.6301 L533.0875,13.4424 L532.9564,13.2611 L532.8253,13.0870 L532.6941,12.9211 L532.5630,12.7640 L532.4318,12.6167 L532.3007,12.4797 L532.1696,12.3538 L532.0384,12.2396 L531.9073,12.1376 L531.7761,12.0484 L531.6450,11.9723 L531.5139,11.9097 L531.3827,11.8610 L531.2516,11.8264 L531.1204,11.8061 L530.9893,11.8000 L530.8582,11.8084 L530.7270,11.8311 L530.5959,11.8680 L530.4647,11.9190 L530.3336,11.9838 L530.2024,12.0620 L530.0713,12.1534 L529.9402,12.2574 L529.8090,12.3736 L529.6779,12.5013 L529.5467,12.6400 L529.4156,12.7890 L529.2845,12.9476 L529.1533,13.1149 L529.0222,13.2902 L528.8910,13.4726 L528.7599,13.6613 L528.6288,13.8552 L528.4976,14.0535 L528.3665,14.2552 L528.2353,14.4593 L528.1042,14.6649 L527.9731,14.8708 L527.8419,15.0762 L527.7108,15.2800 L527.5796,15.4812 L527.4485,15.6788 L527.3174,15.8719 L527.1862,16.0595 L527.0551,16.2407 L526.9239,16.4147 L526.7928,16.5806 L526.6616,16.7375 L526.5305,16.8848 L526.3994,17.0216 L526.2682,17.1474 L526.1371,17.2615 L526.0059,17.3634 L525.8748,17.4525 L525.7437,17.5284 L525.6125,17.5908 L525.4814,17.6394 L525.3502,17.6739 L525.2191,17.6941 L525.0880,17.6999 L524.9568,17.6914 L524.8257,17.6686 L524.6945,17.6315 L524.5634,17.5804 L524.4323,17.5155 L524.3011,17.4371 L524.1700,17.3456 L524.0388,17.2415 L523.9077,17.1252 L523.7765,16.9973 L523.6454,16.8585 L523.5143,16.7094 L523.3831,16.5508 L523.2520,16.3834 L523.1208,16.2080 L522.9897,16.0255 L522.8586,15.8368 L522.7274,15.6428 L522.5963,15.4444 L522.4651,15.2427 L522.3340,15.0386 L522.2029,14.8330 L522.0717,14.6271 L521.9406,14.4217 L521.8094,14.2180 L521.6783,14.0168 L521.5472,13.8192 L521.4160,13.6262 L521.2849,13.4386 L521.1537,13.2574 L521.0226,13.0835 L520.8914,12.9178 L520.7603,12.7609 L520.6292,12.6138 L520.4980,12.4770 L520.3669,12.3514 L520.2357,12.2374 L520.1046,12.1357 L519.9735,12.0467 L519.8423,11.9709 L519.7112,11.9086 L519.5800,11.8602 L519.4489,11.8259 L519.3178,11.8058 L519.1866,11.8001 L519.0555,11.8087 L518.9243,11.8317 L518.7932,11.8689 L518.6621,11.9202 L518.5309,11.9852 L518.3998,12.0638 L518.2686,12.1554 L518.1375,12.2597 L518.0064,12.3761 L517.8752,12.5040 L517.7441,12.6430 L517.6129,12.7922 L517.4818,12.9509 L517.3506,13.1184 L517.2195,13.2939 L517.0884,13.4764 L516.9572,13.6652 L516.8261,13.8592 L516.6949,14.0576 L516.5638,14.2594 L516.4327,14.4635 L516.3015,14.6691 L516.1704,14.8750 L516.0392,15.0804 L515.9081,15.2841 L515.7770,15.4852 L515.6458,15.6828 L515.5147,15.8758 L515.3835,16.0633 L515.2524,16.2444 L515.1213,16.4182 L514.9901,16.5839 L514.8590,16.7406 L514.7278,16.8877 L514.5967,17.0243 L514.4655,17.1499 L514.3344,17.2637 L514.2033,17.3653 L514.0721,17.4542 L513.9410,17.5298 L513.8098,17.5920 L513.6787,17.6402 L513.5476,17.6744 L513.4164,17.6943 L513.2853,17.6999 L513.1541,17.6911 L513.0230,17.6680 L512.8919,17.6306 L512.7607,17.5792 L512.6296,17.5140 L512.4984,17.4354 L512.3673,17.3436 L512.2362,17.2392 L512.1050,17.1227 L511.9739,16.9946 L511.8427,16.8556 L511.7116,16.7063 L511.5804,16.5474 L511.4493,16.3799 L511.3182,16.2043 L511.1870,16.0217 L511.0559,15.8329 L510.9247,15.6388 L510.7936,15.4403 L510.6625,15.2386 L510.5313,15.0344 L510.4002,14.8288 L510.2690,14.6229 L510.1379,14.4175 L510.0068,14.2138 L509.8756,14.0127 L509.7445,13.8152 L509.6133,13.6223 L509.4822,13.4349 L509.3511,13.2538 L509.2199,13.0801 L509.0888,12.9145 L508.9576,12.7578 L508.8265,12.6109 L508.6954,12.4743 L508.5642,12.3489 L508.4331,12.2352 L508.3019,12.1337 L508.1708,12.0450 L508.0396,11.9695 L507.9085,11.9075 L507.7774,11.8594 L507.6462,11.8253 L507.5151,11.8055 L507.3839,11.8001 L507.2528,11.8091 L507.1217,11.8323 L506.9905,11.8698 L506.8594,11.9214 L506.7282,11.9867 L506.5971,12.0655 L506.4660,12.1574 L506.3348,12.2619 L506.2037,12.3786 L506.0725,12.5068 L505.9414,12.6459 L505.8103,12.7953 L505.6791,12.9542 L505.5480,13.1219 L505.4168,13.2975 L505.2857,13.4802 L505.1545,13.6691 L505.0234,13.8632 L504.8923,14.0617 L504.7611,14.2635 L504.6300,14.4677 L504.4988,14.6733 L504.3677,14.8792 L504.2366,15.0845 L504.1054,15.2882 L503.9743,15.4893 L503.8431,15.6868 L503.7120,15.8796 L503.5809,16.0670 L503.4497,16.2480 L503.3186,16.4217 L503.1874,16.5872 L503.0563,16.7437 L502.9252,16.8906 L502.7940,17.0270 L502.6629,17.1523 L502.5317,17.2659 L502.4006,17.3673 L502.2694,17.4558 L502.1383,17.5312 L502.0072,17.5931 L501.8760,17.6411 L501.7449,17.6750 L501.6137,17.6946 L501.4826,17.6999 L501.3515,17.6908 L501.2203,17.6673 L501.0892,17.6297 L500.9580,17.5780 L500.8269,17.5125 L500.6958,17.4336 L500.5646,17.3416 L500.4335,17.2370 L500.3023,17.1202 L500.1712,16.9919 L500.0401,16.8526 L499.9089,16.7031 L499.7778,16.5441 L499.6466,16.3763 L499.5155,16.2007 L499.3844,16.0179 L499.2532,15.8290 L499.1221,15.6348 L498.9909,15.4363 L498.8598,15.2344 L498.7286,15.0302 L498.5975,14.8246 L498.4664,14.6187 L498.3352,14.4134 L498.2041,14.2097 L498.0729,14.0087 L497.9418,13.8113 L497.8107,13.6184 L497.6795,13.4311 L497.5484,13.2502 L497.4172,13.0766 L497.2861,12.9112 L497.1550,12.7547 L497.0238,12.6080 L496.8927,12.4717 L496.7615,12.3465 L496.6304,12.2330 L496.4993,12.1318 L496.3681,12.0433 L496.2370,11.9681 L496.1058,11.9064 L495.9747,11.8585 L495.8435,11.8248 L495.7124,11.8053 L495.5813,11.8001 L495.4501,11.8094 L495.3190,11.8330 L495.1878,11.8708 L495.0567,11.9226 L494.9256,11.9882 L494.7944,12.0673 L494.6633,12.1594 L494.5321,12.2642 L494.4010,12.3811 L494.2699,12.5095 L494.1387,12.6489 L494.0076,12.7985 L493.8764,12.9576 L493.7453,13.1254 L493.6142,13.3012 L493.4830,13.4840 L493.3519,13.6730 L493.2207,13.8672 L493.0896,14.0658 L492.9584,14.2677 L492.8273,14.4719 L492.6962,14.6775 L492.5650,14.8834 L492.4339,15.0887 L492.3027,15.2924 L492.1716,15.4934 L492.0405,15.6907 L491.9093,15.8835 L491.7782,16.0708 L491.6470,16.2516 L491.5159,16.4251 L491.3848,16.5905 L491.2536,16.7468 L491.1225,16.8935 L490.9913,17.0297 L490.8602,17.1548 L490.7291,17.2681 L490.5979,17.3692 L490.4668,17.4575 L490.3356,17.5326 L490.2045,17.5942 L490.0733,17.6419 L489.9422,17.6755 L489.8111,17.6948 L489.6799,17.6998 L489.5488,17.6904 L489.4176,17.6667 L489.2865,17.6288 L489.1554,17.5768 L489.0242,17.5111 L488.8931,17.4319 L488.7619,17.3396 L488.6308,17.2347 L488.4997,17.1177 L488.3685,16.9891 L488.2374,16.8497 L488.1062,16.7000 L487.9751,16.5408 L487.8440,16.3728 L487.7128,16.1970 L487.5817,16.0141 L487.4505,15.8251 L487.3194,15.6308 L487.1883,15.4322 L487.0571,15.2303 L486.9260,15.0260 L486.7948,14.8204 L486.6637,14.6145 L486.5325,14.4092 L486.4014,14.2056 L486.2703,14.0046 L486.1391,13.8073 L486.0080,13.6145 L485.8768,13.4273 L485.7457,13.2466 L485.6146,13.0731 L485.4834,12.9079 L485.3523,12.7516 L485.2211,12.6051 L485.0900,12.4690 L484.9589,12.3440 L484.8277,12.2308 L484.6966,12.1298 L484.5654,12.0416 L484.4343,11.9667 L484.3032,11.9052 L484.1720,11.8577 L484.0409,11.8242 L483.9097,11.8050 L483.7786,11.8002 L483.6474,11.8097 L483.5163,11.8336 L483.3852,11.8717 L483.2540,11.9238 L483.1229,11.9897 L482.9917,12.0690 L482.8606,12.1614 L482.7295,12.2664 L482.5983,12.3836 L482.4672,12.5122 L482.3360,12.6518 L482.2049,12.8016 L482.0738,12.9609 L481.9426,13.1289 L481.8115,13.3048 L481.6803,13.4878 L481.5492,13.6769 L481.4181,13.8712 L481.2869,14.0699 L481.1558,14.2718 L481.0246,14.4761 L480.8935,14.6817 L480.7623,14.8876 L480.6312,15.0929 L480.5001,15.2965 L480.3689,15.4974 L480.2378,15.6947 L480.1066,15.8874 L479.9755,16.0745 L479.8444,16.2552 L479.7132,16.4286 L479.5821,16.5938 L479.4509,16.7499 L479.3198,16.8964 L479.1887,17.0323 L479.0575,17.1572 L478.9264,17.2703 L478.7952,17.3711 L478.6641,17.4592 L478.5330,17.5340 L478.4018,17.5953 L478.2707,17.6427 L478.1395,17.6760 L478.0084,17.6951 L477.8773,17.6998 L477.7461,17.6901 L477.6150,17.6661 L477.4838,17.6279 L477.3527,17.5756 L477.2215,17.5096 L477.0904,17.4301 L476.9593,17.3376 L476.8281,17.2324 L476.6970,17.1152 L476.5658,16.9864 L476.4347,16.8467 L476.3036,16.6968 L476.1724,16.5374 L476.0413,16.3693 L475.9101,16.1933 L475.7790,16.0103 L475.6479,15.8211 L475.5167,15.6267 L475.3856,15.4281 L475.2544,15.2261 L475.1233,15.0218 L474.9922,14.8162 L474.8610,14.6103 L474.7299,14.4050 L474.5987,14.2014 L474.4676,14.0005 L474.3364,13.8033 L474.2053,13.6107 L474.0742,13.4236 L473.9430,13.2430 L473.8119,13.0697 L473.6807,12.9046 L473.5496,12.7485 L473.4185,12.6022 L473.2873,12.4663 L473.1562,12.3416 L473.0250,12.2286 L472.8939,12.1279 L472.7628,12.0400 L472.6316,11.9653 L472.5005,11.9041 L472.3693,11.8569 L472.2382,11.8237 L472.1071,11.8048 L471.9759,11.8002 L471.8448,11.8101 L471.7136,11.8342 L471.5825,11.8726 L471.4513,11.9250 L471.3202,11.9912 L471.1891,12.0708 L471.0579,12.1634 L470.9268,12.2687 L470.7956,12.3861 L470.6645,12.5150 L470.5334,12.6548 L470.4022,12.8048 L470.2711,12.9642 L470.1399,13.1324 L470.0088,13.3085 L469.8777,13.4916 L469.7465,13.6808 L469.6154,13.8753 L469.4842,14.0740 L469.3531,14.2760 L469.2220,14.4803 L469.0908,14.6859 L468.9597,14.8918 L468.8285,15.0971 L468.6974,15.3006 L468.5663,15.5015 L468.4351,15.6987 L468.3040,15.8913 L468.1728,16.0783 L468.0417,16.2588 L467.9105,16.4320 L467.7794,16.5970 L467.6483,16.7530 L467.5171,16.8992 L467.3860,17.0350 L467.2548,17.1596 L467.1237,17.2725 L466.9926,17.3731 L466.8614,17.4608 L466.7303,17.5354 L466.5991,17.5964 L466.4680,17.6435 L466.3369,17.6766 L466.2057,17.6953 L466.0746,17.6997 L465.9434,17.6898 L465.8123,17.6655 L465.6812,17.6269 L465.5500,17.5744 L465.4189,17.5081 L465.2877,17.4284 L465.1566,17.3356 L465.0254,17.2301 L464.8943,17.1127 L464.7632,16.9836 L464.6320,16.8438 L464.5009,16.6937 L464.3697,16.5341 L464.2386,16.3658 L464.1075,16.1897 L463.9763,16.0065 L463.8452,15.8172 L463.7140,15.6227 L463.5829,15.4240 L463.4518,15.2220 L463.3206,15.0176 L463.1895,14.8120 L463.0583,14.6061 L462.9272,14.4008 L462.7961,14.1973 L462.6649,13.9965 L462.5338,13.7993 L462.4026,13.6068 L462.2715,13.4198 L462.1403,13.2393 L462.0092,13.0662 L461.8781,12.9013 L461.7469,12.7454 L461.6158,12.5993 L461.4846,12.4637 L461.3535,12.3392 L461.2224,12.2264 L461.0912,12.1260 L460.9601,12.0383 L460.8289,11.9639 L460.6978,11.9030 L460.5667,11.8560 L460.4355,11.8232 L460.3044,11.8046 L460.1732,11.8003 L460.0421,11.8104 L459.9110,11.8349 L459.7798,11.8735 L459.6487,11.9262 L459.5175,11.9926 L459.3864,12.0725 L459.2553,12.1655 L459.1241,12.2710 L458.9930,12.3886 L458.8618,12.5177 L458.7307,12.6577 L458.5995,12.8079 L458.4684,12.9676 L458.3373,13.1359 L458.2061,13.3122 L458.0750,13.4954 L457.9438,13.6847 L457.8127,13.8793 L457.6816,14.0781 L457.5504,14.2801 L457.4193,14.4845 L457.2881,14.6901 L457.1570,14.8960 L457.0259,15.1012 L456.8947,15.3048 L456.7636,15.5056 L456.6324,15.7027 L456.5013,15.8952 L456.3702,16.0821 L456.2390,16.2625 L456.1079,16.4355 L455.9767,16.6003 L455.8456,16.7561 L455.7144,16.9021 L455.5833,17.0377 L455.4522,17.1620 L455.3210,17.2747 L455.1899,17.3750 L455.0587,17.4625 L454.9276,17.5368 L454.7965,17.5975 L454.6653,17.6444 L454.5342,17.6771 L454.4030,17.6956 L454.2719,17.6997 L454.1408,17.6894 L454.0096,17.6648 L453.8785,17.6260 L453.7473,17.5732 L453.6162,17.5066 L453.4851,17.4266 L453.3539,17.3335 L453.2228,17.2279 L453.0916,17.1101 L452.9605,16.9809 L452.8293,16.8408 L452.6982,16.6905 L452.5671,16.5307 L452.4359,16.3623 L452.3048,16.1860 L452.1736,16.0027 L452.0425,15.8133 L451.9114,15.6187 L451.7802,15.4199 L451.6491,15.2178 L451.5179,15.0134 L451.3868,14.8078 L451.2557,14.6019 L451.1245,14.3967 L450.9934,14.1932 L450.8622,13.9924 L450.7311,13.7953 L450.6000,13.6029 L450.4688,13.4161 L450.3377,13.2357 L450.2065,13.0628 L450.0754,12.8981 L449.9443,12.7424 L449.8131,12.5964 L449.6820,12.4610 L449.5508,12.3368 L449.4197,12.2243 L449.2885,12.1241 L449.1574,12.0367 L449.0263,11.9625 L448.8951,11.9019 L448.7640,11.8552 L448.6328,11.8226 L448.5017,11.8043 L448.3706,11.8004 L448.2394,11.8108 L448.1083,11.8355 L447.9771,11.8745 L447.8460,11.9274 L447.7149,11.9941 L447.5837,12.0743 L447.4526,12.1675 L447.3214,12.2733 L447.1903,12.3911 L447.0592,12.5205 L446.9280,12.6607 L446.7969,12.8111 L446.6657,12.9709 L446.5346,13.1395 L446.4034,13.3158 L446.2723,13.4992 L446.1412,13.6887 L446.0100,13.8833 L445.8789,14.0822 L445.7477,14.2843 L445.6166,14.4886 L445.4855,14.6943 L445.3543,14.9002 L445.2232,15.1054 L445.0920,15.3089 L444.9609,15.5096 L444.8298,15.7067 L444.6986,15.8990 L444.5675,16.0858 L444.4363,16.2661 L444.3052,16.4389 L444.1741,16.6036 L444.0429,16.7592 L443.9118,16.9050 L443.7806,17.0403 L443.6495,17.1645 L443.5183,17.2768 L443.3872,17.3769 L443.2561,17.4642 L443.1249,17.5382 L442.9938,17.5986 L442.8626,17.6452 L442.7315,17.6776 L442.6004,17.6958 L442.4692,17.6996 L442.3381,17.6890 L442.2069,17.6642 L442.0758,17.6251 L441.9447,17.5720 L441.8135,17.5051 L441.6824,17.4248 L441.5512,17.3315 L441.4201,17.2256 L441.2890,17.1076 L441.1578,16.9781 L441.0267,16.8378 L440.8955,16.6873 L440.7644,16.5274 L440.6333,16.3588 L440.5021,16.1823 L440.3710,15.9989 L440.2398,15.8094 L440.1087,15.6147 L439.9775,15.4158 L439.8464,15.2137 L439.7153,15.0093 L439.5841,14.8036 L439.4530,14.5977 L439.3218,14.3925 L439.1907,14.1891 L439.0596,13.9883 L438.9284,13.7914 L438.7973,13.5990 L438.6661,13.4123 L438.5350,13.2321 L438.4039,13.0593 L438.2727,12.8948 L438.1416,12.7393 L438.0104,12.5936 L437.8793,12.4584 L437.7482,12.3343 L437.6170,12.2221 L437.4859,12.1222 L437.3547,12.0350 L437.2236,11.9611 L437.0924,11.9008 L436.9613,11.8544 L436.8302,11.8221 L436.6990,11.8041 L436.5679,11.8004 L436.4367,11.8111 L436.3056,11.8362 L436.1745,11.8754 L436.0433,11.9287 L435.9122,11.9956 L435.7810,12.0761 L435.6499,12.1695 L435.5188,12.2756 L435.3876,12.3937 L435.2565,12.5232 L435.1253,12.6637 L434.9942,12.8143 L434.8631,12.9743 L434.7319,13.1430 L434.6008,13.3195 L434.4696,13.5030 L434.3385,13.6926 L434.2073,13.8873 L434.0762,14.0862 L433.9451,14.2884 L433.8139,14.4928 L433.6828,14.6985 L433.5516,14.9044 L433.4205,15.1096 L433.2894,15.3130 L433.1582,15.5137 L433.0271,15.7106 L432.8959,15.9029 L432.7648,16.0896 L432.6337,16.2697 L432.5025,16.4424 L432.3714,16.6068 L432.2402,16.7623 L432.1091,16.9079 L431.9780,17.0430 L431.8468,17.1669 L431.7157,17.2790 L431.5845,17.3788 L431.4534,17.4658 L431.3222,17.5395 L431.1911,17.5997 L431.0600,17.6460 L430.9288,17.6781 L430.7977,17.6960 L430.6665,17.6995 L430.5354,17.6887 L430.4043,17.6635 L430.2731,17.6241 L430.1420,17.5707 L430.0108,17.5036 L429.8797,17.4230 L429.7486,17.3295 L429.6174,17.2233 L429.4863,17.1051 L429.3551,16.9754 L429.2240,16.8348 L429.0929,16.6841 L428.9617,16.5240 L428.8306,16.3552 L428.6994,16.1786 L428.5683,15.9951 L428.4372,15.8055 L428.3060,15.6107 L428.1749,15.4117 L428.0437,15.2095 L427.9126,15.0051 L427.7814,14.7994 L427.6503,14.5935 L427.5192,14.3883 L427.3880,14.1849 L427.2569,13.9843 L427.1257,13.7874 L426.9946,13.5952 L426.8635,13.4086 L426.7323,13.2285 L426.6012,13.0559 L426.4700,12.8915 L426.3389,12.7362 L426.2078,12.5907 L426.0766,12.4557 L425.9455,12.3319 L425.8143,12.2199 L425.6832,12.1202 L425.5521,12.0334 L425.4209,11.9598 L425.2898,11.8997 L425.1586,11.8536 L425.0275,11.8216 L424.8963,11.8039 L424.7652,11.8005 L424.6341,11.8115 L424.5029,11.8368 L424.3718,11.8764 L424.2406,11.9299 L424.1095,11.9972 L423.9784,12.0778 L423.8472,12.1716 L423.7161,12.2779 L423.5849,12.3962 L423.4538,12.5260 L423.3227,12.6666 L423.1915,12.8174 L423.0604,12.9777 L422.9292,13.1465 L422.7981,13.3232 L422.6670,13.5068 L422.5358,13.6965 L422.4047,13.8913 L422.2735,14.0903 L422.1424,14.2926 L422.0112,14.4970 L421.8801,14.7027 L421.7490,14.9086 L421.6178,15.1138 L421.4867,15.3171 L421.3555,15.5177 L421.2244,15.7146 L421.0933,15.9068 L420.9621,16.0933 L420.8310,16.2733 L420.6998,16.4458 L420.5687,16.6101 L420.4376,16.7653 L420.3064,16.9107 L420.1753,17.0456 L420.0441,17.1693 L419.9130,17.2812 L419.7819,17.3807 L419.6507,17.4674 L419.5196,17.5409 L419.3884,17.6008 L419.2573,17.6468 L419.1262,17.6786 L418.9950,17.6962 L418.8639,17.6995 L418.7327,17.6883 L418.6016,17.6628 L418.4704,17.6232 L418.3393,17.5695 L418.2082,17.5021 L418.0770,17.4213 L417.9459,17.3274 L417.8147,17.2210 L417.6836,17.1025 L417.5525,16.9726 L417.4213,16.8319 L417.2902,16.6810 L417.1590,16.5207 L417.0279,16.3517 L416.8968,16.1750 L416.7656,15.9913 L416.6345,15.8015 L416.5033,15.6067 L416.3722,15.4076 L416.2411,15.2054 L416.1099,15.0009 L415.9788,14.7952 L415.8476,14.5893 L415.7165,14.3841 L415.5853,14.1808 L415.4542,13.9802 L415.3231,13.7834 L415.1919,13.5913 L415.0608,13.4048 L414.9296,13.2249 L414.7985,13.0525 L414.6674,12.8883 L414.5362,12.7331 L414.4051,12.5878 L414.2739,12.4531 L414.1428,12.3295 L414.0117,12.2178 L413.8805,12.1183 L413.7494,12.0317 L413.6182,11.9584 L413.4871,11.8987 L413.3560,11.8528 L413.2248,11.8211 L413.0937,11.8037 L412.9625,11.8006 L412.8314,11.8119 L412.7002,11.8375 L412.5691,11.8773 L412.4380,11.9311 L412.3068,11.9987 L412.1757,12.0796 L412.0445,12.1736 L411.9134,12.2801 L411.7823,12.3987 L411.6511,12.5288 L411.5200,12.6696 L411.3888,12.8206 L411.2577,12.9810 L411.1266,13.1500 L410.9954,13.3269 L410.8643,13.5106 L410.7331,13.7004 L410.6020,13.8954 L410.4709,14.0944 L410.3397,14.2967 L410.2086,14.5012 L410.0774,14.7069 L409.9463,14.9128 L409.8152,15.1179 L409.6840,15.3213 L409.5529,15.5218 L409.4217,15.7186 L409.2906,15.9106 L409.1594,16.0970 L409.0283,16.2769 L408.8972,16.4493 L408.7660,16.6134 L408.6349,16.7684 L408.5037,16.9136 L408.3726,17.0482 L408.2415,17.1717 L408.1103,17.2833 L407.9792,17.3826 L407.8480,17.4691 L407.7169,17.5423 L407.5858,17.6019 L407.4546,17.6476 L407.3235,17.6791 L407.1923,17.6964 L407.0612,17.6994 L406.9301,17.6879 L406.7989,17.6622 L406.6678,17.6222 L406.5366,17.5683 L406.4055,17.5006 L406.2743,17.4195 L406.1432,17.3254 L406.0121,17.2187 L405.8809,17.1000 L405.7498,16.9699 L405.6186,16.8289 L405.4875,16.6778 L405.3564,16.5173 L405.2252,16.3482 L405.0941,16.1713 L404.9629,15.9875 L404.8318,15.7976 L404.7007,15.6026 L404.5695,15.4035 L404.4384,15.2012 L404.3072,14.9967 L404.1761,14.7910 L404.0450,14.5851 L403.9138,14.3800 L403.7827,14.1767 L403.6515,13.9762 L403.5204,13.7794 L403.3892,13.5874 L403.2581,13.4011 L403.1270,13.2213 L402.9958,13.0490 L402.8647,12.8850 L402.7335,12.7301 L402.6024,12.5850 L402.4713,12.4504 L402.3401,12.3271 L402.2090,12.2156 L402.0778,12.1164 L401.9467,12.0301 L401.8156,11.9570 L401.6844,11.8976 L401.5533,11.8520 L401.4221,11.8206 L401.2910,11.8035 L401.1599,11.8007 L401.0287,11.8123 L400.8976,11.8382 L400.7664,11.8783 L400.6353,11.9324 L400.5042,12.0002 L400.3730,12.0814 L400.2419,12.1757 L400.1107,12.2824 L399.9796,12.4013 L399.8484,12.5315 L399.7173,12.6726 L399.5862,12.8238 L399.4550,12.9844 L399.3239,13.1536 L399.1927,13.3306 L399.0616,13.5145 L398.9305,13.7044 L398.7993,13.8994 L398.6682,14.0985 L398.5370,14.3009 L398.4059,14.5054 L398.2748,14.7111 L398.1436,14.9170 L398.0125,15.1221 L397.8813,15.3254 L397.7502,15.5259 L397.6191,15.7226 L397.4879,15.9145 L397.3568,16.1008 L397.2256,16.2805 L397.0945,16.4527 L396.9633,16.6166 L396.8322,16.7715 L396.7011,16.9164 L396.5699,17.0509 L396.4388,17.1741 L396.3076,17.2855 L396.1765,17.3845 L396.0454,17.4707 L395.9142,17.5436 L395.7831,17.6029 L395.6519,17.6484 L395.5208,17.6796 L395.3897,17.6966 L395.2585,17.6993 L395.1274,17.6875 L394.9962,17.6615 L394.8651,17.6213 L394.7340,17.5670 L394.6028,17.4990 L394.4717,17.4177 L394.3405,17.3233 L394.2094,17.2164 L394.0782,17.0975 L393.9471,16.9671 L393.8160,16.8259 L393.6848,16.6746 L393.5537,16.5139 L393.4225,16.3446 L393.2914,16.1676 L393.1603,15.9836 L393.0291,15.7937 L392.8980,15.5986 L392.7668,15.3994 L392.6357,15.1970 L392.5046,14.9925 L392.3734,14.7868 L392.2423,14.5809 L392.1111,14.3758 L391.9800,14.1726 L391.8489,13.9721 L391.7177,13.7755 L391.5866,13.5836 L391.4554,13.3974 L391.3243,13.2177 L391.1932,13.0456 L391.0620,12.8817 L390.9309,12.7270 L390.7997,12.5821 L390.6686,12.4478 L390.5374,12.3247 L390.4063,12.2135 L390.2752,12.1146 L390.1440,12.0285 L390.0129,11.9557 L389.8817,11.8965 L389.7506,11.8513 L389.6195,11.8201 L389.4883,11.8033 L389.3572,11.8008 L389.2260,11.8126 L389.0949,11.8388 L388.9638,11.8792 L388.8326,11.9336 L388.7015,12.0017 L388.5703,12.0832 L388.4392,12.1777 L388.3081,12.2848 L388.1769,12.4038 L388.0458,12.5343 L387.9146,12.6756 L387.7835,12.8270 L387.6523,12.9878 L387.5212,13.1571 L387.3901,13.3342 L387.2589,13.5183 L387.1278,13.7083 L386.9966,13.9034 L386.8655,14.1026 L386.7344,14.3050 L386.6032,14.5096 L386.4721,14.7153 L386.3409,14.9212 L386.2098,15.1263 L386.0787,15.3295 L385.9475,15.5299 L385.8164,15.7265 L385.6852,15.9184 L385.5541,16.1045 L385.4230,16.2841 L385.2918,16.4561 L385.1607,16.6199 L385.0295,16.7745 L384.8984,16.9193 L384.7672,17.0535 L384.6361,17.1765 L384.5050,17.2876 L384.3738,17.3864 L384.2427,17.4723 L384.1115,17.5450 L383.9804,17.6040 L383.8493,17.6491 L383.7181,17.6801 L383.5870,17.6968 L383.4558,17.6992 L383.3247,17.6872 L383.1936,17.6608 L383.0624,17.6203 L382.9313,17.5658 L382.8001,17.4975 L382.6690,17.4159 L382.5379,17.3213 L382.4067,17.2141 L382.2756,17.0949 L382.1444,16.9643 L382.0133,16.8229 L381.8822,16.6714 L381.7510,16.5106 L381.6199,16.3411 L381.4887,16.1639 L381.3576,15.9798 L381.2264,15.7897 L381.0953,15.5946 L380.9642,15.3953 L380.8330,15.1929 L380.7019,14.9883 L380.5707,14.7826 L380.4396,14.5767 L380.3085,14.3716 L380.1773,14.1684 L380.0462,13.9681 L379.9150,13.7715 L379.7839,13.5797 L379.6528,13.3936 L379.5216,13.2141 L379.3905,13.0422 L379.2593,12.8785 L379.1282,12.7239 L378.9971,12.5793 L378.8659,12.4452 L378.7348,12.3223 L378.6036,12.2113 L378.4725,12.1127 L378.3413,12.0269 L378.2102,11.9544 L378.0791,11.8955 L377.9479,11.8505 L377.8168,11.8196 L377.6856,11.8031 L377.5545,11.8009 L377.4234,11.8130 L377.2922,11.8395 L377.1611,11.8802 L377.0299,11.9349 L376.8988,12.0032 L376.7677,12.0850 L376.6365,12.1798 L376.5054,12.2871 L376.3742,12.4064 L376.2431,12.5371 L376.1120,12.6786 L375.9808,12.8302 L375.8497,12.9911 L375.7185,13.1607 L375.5874,13.3379 L375.4562,13.5221 L375.3251,13.7122 L375.1940,13.9074 L375.0628,14.1067 L374.9317,14.3092 L374.8005,14.5138 L374.6694,14.7195 L374.5383,14.9254 L374.4071,15.1304 L374.2760,15.3336 L374.1448,15.5340 L374.0137,15.7305 L373.8826,15.9222 L373.7514,16.1082 L373.6203,16.2877 L373.4891,16.4596 L373.3580,16.6231 L373.2269,16.7776 L373.0957,16.9221 L372.9646,17.0561 L372.8334,17.1789 L372.7023,17.2898 L372.5711,17.3883 L372.4400,17.4739 L372.3089,17.5463 L372.1777,17.6051 L372.0466,17.6499 L371.9154,17.6806 L371.7843,17.6970 L371.6532,17.6991 L371.5220,17.6868 L371.3909,17.6601 L371.2597,17.6193 L371.1286,17.5645 L370.9975,17.4960 L370.8663,17.4141 L370.7352,17.3192 L370.6040,17.2118 L370.4729,17.0924 L370.3418,16.9615 L370.2106,16.8199 L370.0795,16.6682 L369.9483,16.5072 L369.8172,16.3376 L369.6861,16.1602 L369.5549,15.9760 L369.4238,15.7858 L369.2926,15.5905 L369.1615,15.3912 L369.0303,15.1887 L368.8992,14.9841 L368.7681,14.7784 L368.6369,14.5725 L368.5058,14.3675 L368.3746,14.1643 L368.2435,13.9640 L368.1124,13.7675 L367.9812,13.5758 L367.8501,13.3899 L367.7189,13.2106 L367.5878,13.0387 L367.4567,12.8752 L367.3255,12.7209 L367.1944,12.5764 L367.0632,12.4426 L366.9321,12.3199 L366.8010,12.2092 L366.6698,12.1108 L366.5387,12.0253 L366.4075,11.9530 L366.2764,11.8944 L366.1452,11.8497 L366.0141,11.8192 L365.8830,11.8029 L365.7518,11.8010 L365.6207,11.8134 L365.4895,11.8402 L365.3584,11.8812 L365.2273,11.9361 L365.0961,12.0048 L364.9650,12.0868 L364.8338,12.1818 L364.7027,12.2894 L364.5716,12.4089 L364.4404,12.5399 L364.3093,12.6816 L364.1781,12.8334 L364.0470,12.9945 L363.9159,13.1642 L363.7847,13.3416 L363.6536,13.5259 L363.5224,13.7162 L363.3913,13.9115 L363.2601,14.1108 L363.1290,14.3133 L362.9979,14.5180 L362.8667,14.7237 L362.7356,14.9296 L362.6044,15.1346 L362.4733,15.3378 L362.3422,15.5380 L362.2110,15.7344 L362.0799,15.9261 L361.9487,16.1120 L361.8176,16.2912 L361.6865,16.4630 L361.5553,16.6264 L361.4242,16.7806 L361.2930,16.9250 L361.1619,17.0587 L361.0308,17.1812 L360.8996,17.2919 L360.7685,17.3902 L360.6373,17.4755 L360.5062,17.5477 L360.3751,17.6061 L360.2439,17.6507 L360.1128,17.6811 L359.9816,17.6972 L359.8505,17.6990 L359.7193,17.6864 L359.5882,17.6594 L359.4571,17.6183 L359.3259,17.5632 L359.1948,17.4944 L359.0636,17.4123 L358.9325,17.3171 L358.8014,17.2095 L358.6702,17.0898 L358.5391,16.9587 L358.4079,16.8169 L358.2768,16.6650 L358.1457,16.5038 L358.0145,16.3340 L357.8834,16.1565 L357.7522,15.9722 L357.6211,15.7819 L357.4900,15.5865 L357.3588,15.3871 L357.2277,15.1846 L357.0965,14.9799 L356.9654,14.7742 L356.8342,14.5683 L356.7031,14.3633 L356.5720,14.1602 L356.4408,13.9600 L356.3097,13.7636 L356.1785,13.5720 L356.0474,13.3862 L355.9163,13.2070 L355.7851,13.0353 L355.6540,12.8720 L355.5228,12.7178 L355.3917,12.5736 L355.2606,12.4400 L355.1294,12.3176 L354.9983,12.2070 L354.8671,12.1089 L354.7360,12.0237 L354.6049,11.9517 L354.4737,11.8933 L354.3426,11.8489 L354.2114,11.8187 L354.0803,11.8027 L353.9491,11.8011 L353.8180,11.8138 L353.6869,11.8409 L353.5557,11.8822 L353.4246,11.9374 L353.2934,12.0063 L353.1623,12.0886 L353.0312,12.1839 L352.9000,12.2917 L352.7689,12.4115 L352.6377,12.5426 L352.5066,12.6846 L352.3755,12.8366 L352.2443,12.9979 L352.1132,13.1677 L351.9820,13.3453 L351.8509,13.5297 L351.7198,13.7201 L351.5886,13.9155 L351.4575,14.1150 L351.3263,14.3175 L351.1952,14.5222 L351.0641,14.7279 L350.9329,14.9338 L350.8018,15.1388 L350.6706,15.3419 L350.5395,15.5421 L350.4083,15.7384 L350.2772,15.9299 L350.1461,16.1157 L350.0149,16.2948 L349.8838,16.4664 L349.7526,16.6296 L349.6215,16.7837 L349.4904,16.9278 L349.3592,17.0614 L349.2281,17.1836 L349.0969,17.2940 L348.9658,17.3920 L348.8347,17.4772 L348.7035,17.5490 L348.5724,17.6072 L348.4412,17.6514 L348.3101,17.6816 L348.1790,17.6974 L348.0478,17.6989 L347.9167,17.6860 L347.7855,17.6587 L347.6544,17.6173 L347.5232,17.5620 L347.3921,17.4929 L347.2610,17.4105 L347.1298,17.3150 L346.9987,17.2071 L346.8675,17.0872 L346.7364,16.9560 L346.6053,16.8139 L346.4741,16.6618 L346.3430,16.5004 L346.2118,16.3305 L346.0807,16.1528 L345.9496,15.9683 L345.8184,15.7779 L345.6873,15.5825 L345.5561,15.3830 L345.4250,15.1804 L345.2939,14.9757 L345.1627,14.7700 L345.0316,14.5641 L344.9004,14.3591 L344.7693,14.1561 L344.6381,13.9559 L344.5070,13.7596 L344.3759,13.5681 L344.2447,13.3824 L344.1136,13.2034 L343.9824,13.0319 L343.8513,12.8688 L343.7202,12.7148 L343.5890,12.5708 L343.4579,12.4373 L343.3267,12.3152 L343.1956,12.2049 L343.0645,12.1070 L342.9333,12.0220 L342.8022,11.9504 L342.6710,11.8923 L342.5399,11.8482 L342.4088,11.8182 L342.2776,11.8025 L342.1465,11.8012 L342.0153,11.8143 L341.8842,11.8416 L341.7531,11.8831 L341.6219,11.9387 L341.4908,12.0079 L341.3596,12.0905 L341.2285,12.1860 L341.0973,12.2940 L340.9662,12.4140 L340.8351,12.5454 L340.7039,12.6876 L340.5728,12.8398 L340.4416,13.0013 L340.3105,13.1713 L340.1794,13.3490 L340.0482,13.5336 L339.9171,13.7241 L339.7859,13.9195 L339.6548,14.1191 L339.5237,14.3217 L339.3925,14.5264 L339.2614,14.7321 L339.1302,14.9380 L338.9991,15.1430 L338.8680,15.3460 L338.7368,15.5461 L338.6057,15.7424 L338.4745,15.9338 L338.3434,16.1194 L338.2122,16.2984 L338.0811,16.4698 L337.9500,16.6329 L337.8188,16.7867 L337.6877,16.9307 L337.5565,17.0640 L337.4254,17.1860 L337.2943,17.2961 L337.1631,17.3939 L337.0320,17.4788 L336.9008,17.5503 L336.7697,17.6082 L336.6386,17.6522 L336.5074,17.6820 L336.3763,17.6976 L336.2451,17.6987 L336.1140,17.6855 L335.9829,17.6580 L335.8517,17.6164 L335.7206,17.5607 L335.5894,17.4914 L335.4583,17.4086 L335.3271,17.3130 L335.1960,17.2048 L335.0649,17.0847 L334.9337,16.9532 L334.8026,16.8109 L334.6714,16.6586 L334.5403,16.4970 L334.4092,16.3269 L334.2780,16.1491 L334.1469,15.9645 L334.0157,15.7740 L333.8846,15.5785 L333.7535,15.3789 L333.6223,15.1763 L333.4912,14.9716 L333.3600,14.7658 L333.2289,14.5599 L333.0978,14.3550 L332.9666,14.1520 L332.8355,13.9519 L332.7043,13.7556 L332.5732,13.5643 L332.4421,13.3787 L332.3109,13.1998 L332.1798,13.0285 L332.0486,12.8655 L331.9175,12.7118 L331.7863,12.5679 L331.6552,12.4347 L331.5241,12.3128 L331.3929,12.2028 L331.2618,12.1052 L331.1306,12.0205 L330.9995,11.9490 L330.8684,11.8913 L330.7372,11.8474 L330.6061,11.8177 L330.4749,11.8023 L330.3438,11.8013 L330.2127,11.8147 L330.0815,11.8423 L329.9504,11.8841 L329.8192,11.9399 L329.6881,12.0094 L329.5570,12.0923 L329.4258,12.1881 L329.2947,12.2964 L329.1635,12.4166 L329.0324,12.5482 L328.9012,12.6906 L328.7701,12.8430 L328.6390,13.0047 L328.5078,13.1749 L328.3767,13.3527 L328.2455,13.5374 L328.1144,13.7280 L327.9833,13.9236 L327.8521,14.1232 L327.7210,14.3258 L327.5898,14.5305 L327.4587,14.7363 L327.3276,14.9422 L327.1964,15.1471 L327.0653,15.3501 L326.9341,15.5502 L326.8030,15.7463 L326.6719,15.9376 L326.5407,16.1232 L326.4096,16.3020 L326.2784,16.4732 L326.1473,16.6361 L326.0161,16.7898 L325.8850,16.9335 L325.7539,17.0666 L325.6227,17.1884 L325.4916,17.2983 L325.3604,17.3958 L325.2293,17.4803 L325.0982,17.5516 L324.9670,17.6093 L324.8359,17.6529 L324.7047,17.6825 L324.5736,17.6977 L324.4425,17.6986 L324.3113,17.6851 L324.1802,17.6573 L324.0490,17.6154 L323.9179,17.5594 L323.7868,17.4898 L323.6556,17.4068 L323.5245,17.3109 L323.3933,17.2025 L323.2622,17.0821 L323.1311,16.9504 L322.9999,16.8079 L322.8688,16.6554 L322.7376,16.4936 L322.6065,16.3234 L322.4753,16.1454 L322.3442,15.9607 L322.2131,15.7700 L322.0819,15.5744 L321.9508,15.3748 L321.8196,15.1721 L321.6885,14.9674 L321.5574,14.7616 L321.4262,14.5557 L321.2951,14.3508 L321.1639,14.1478 L321.0328,13.9478 L320.9017,13.7517 L320.7705,13.5604 L320.6394,13.3750 L320.5082,13.1962 L320.3771,13.0251 L320.2460,12.8623 L320.1148,12.7087 L319.9837,12.5651 L319.8525,12.4321 L319.7214,12.3105 L319.5902,12.2007 L319.4591,12.1033 L319.3280,12.0189 L319.1968,11.9477 L319.0657,11.8902 L318.9345,11.8467 L318.8034,11.8173 L318.6723,11.8022 L318.5411,11.8014 L318.4100,11.8151 L318.2788,11.8430 L318.1477,11.8851 L318.0166,11.9412 L317.8854,12.0110 L317.7543,12.0941 L317.6231,12.1902 L317.4920,12.2987 L317.3609,12.4192 L317.2297,12.5510 L317.0986,12.6936 L316.9674,12.8462 L316.8363,13.0081 L316.7051,13.1784 L316.5740,13.3564 L316.4429,13.5412 L316.3117,13.7319 L316.1806,13.9276 L316.0494,14.1273 L315.9183,14.3300 L315.7872,14.5347 L315.6560,14.7405 L315.5249,14.9464 L315.3937,15.1513 L315.2626,15.3542 L315.1315,15.5542 L315.0003,15.7503 L314.8692,15.9415 L314.7380,16.1269 L314.6069,16.3055 L314.4758,16.4766 L314.3446,16.6393 L314.2135,16.7928 L314.0823,16.9363 L313.9512,17.0692 L313.8200,17.1907 L313.6889,17.3004 L313.5578,17.3976 L313.4266,17.4819 L313.2955,17.5529 L313.1643,17.6103 L313.0332,17.6537 L312.9021,17.6829 L312.7709,17.6979 L312.6398,17.6985 L312.5086,17.6847 L312.3775,17.6566 L312.2464,17.6144 L312.1152,17.5581 L311.9841,17.4882 L311.8529,17.4050 L311.7218,17.3088 L311.5907,17.2001 L311.4595,17.0795 L311.3284,16.9476 L311.1972,16.8049 L311.0661,16.6522 L310.9350,16.4903 L310.8038,16.3198 L310.6727,16.1417 L310.5415,15.9568 L310.4104,15.7661 L310.2792,15.5704 L310.1481,15.3707 L310.0170,15.1679 L309.8858,14.9632 L309.7547,14.7574 L309.6235,14.5515 L309.4924,14.3466 L309.3613,14.1437 L309.2301,13.9438 L309.0990,13.7477 L308.9678,13.5566 L308.8367,13.3713 L308.7056,13.1927 L308.5744,13.0217 L308.4433,12.8591 L308.3121,12.7057 L308.1810,12.5623 L308.0499,12.4295 L307.9187,12.3081 L307.7876,12.1986 L307.6564,12.1015 L307.5253,12.0173 L307.3941,11.9464 L307.2630,11.8892 L307.1319,11.8459 L307.0007,11.8168 L306.8696,11.8020 L306.7384,11.8016 L306.6073,11.8155 L306.4762,11.8437 L306.3450,11.8861 L306.2139,11.9425 L306.0827,12.0125 L305.9516,12.0959 L305.8205,12.1923 L305.6893,12.3010 L305.5582,12.4218 L305.4270,12.5538 L305.2959,12.6966 L305.1648,12.8494 L305.0336,13.0114 L304.9025,13.1820 L304.7713,13.3601 L304.6402,13.5451 L304.5090,13.7359 L304.3779,13.9316 L304.2468,14.1314 L304.1156,14.3341 L303.9845,14.5389 L303.8533,14.7447 L303.7222,14.9506 L303.5911,15.1554 L303.4599,15.3583 L303.3288,15.5583 L303.1976,15.7542 L303.0665,15.9453 L302.9354,16.1306 L302.8042,16.3091 L302.6731,16.4801 L302.5419,16.6426 L302.4108,16.7958 L302.2797,16.9391 L302.1485,17.0718 L302.0174,17.1931 L301.8862,17.3025 L301.7551,17.3995 L301.6240,17.4835 L301.4928,17.5542 L301.3617,17.6113 L301.2305,17.6544 L301.0994,17.6834 L300.9682,17.6981 L300.8371,17.6983 L300.7060,17.6843 L300.5748,17.6559 L300.4437,17.6133 L300.3125,17.5568 L300.1814,17.4867 L300.0503,17.4031 L299.9191,17.3067 L299.7880,17.1978 L299.6568,17.0769 L299.5257,16.9448 L299.3946,16.8019 L299.2634,16.6490 L299.1323,16.4869 L299.0011,16.3163 L298.8700,16.1380 L298.7389,15.9530 L298.6077,15.7621 L298.4766,15.5663 L298.3454,15.3666 L298.2143,15.1638 L298.0831,14.9590 L297.9520,14.7532 L297.8209,14.5473 L297.6897,14.3425 L297.5586,14.1396 L297.4274,13.9397 L297.2963,13.7438 L297.1652,13.5528 L297.0340,13.3676 L296.9029,13.1891 L296.7717,13.0182 L296.6406,12.8558 L296.5095,12.7027 L296.3783,12.5595 L296.2472,12.4269 L296.1160,12.3057 L295.9849,12.1965 L295.8538,12.0996 L295.7226,12.0157 L295.5915,11.9451 L295.4603,11.8882 L295.3292,11.8452 L295.1980,11.8164 L295.0669,11.8019 L294.9358,11.8017 L294.8046,11.8159 L294.6735,11.8445 L294.5423,11.8872 L294.4112,11.9438 L294.2801,12.0141 L294.1489,12.0978 L294.0178,12.1943 L293.8866,12.3034 L293.7555,12.4243 L293.6244,12.5566 L293.4932,12.6996 L293.3621,12.8526 L293.2309,13.0148 L293.0998,13.1855 L292.9687,13.3638 L292.8375,13.5489 L292.7064,13.7398 L292.5752,13.9357 L292.4441,14.1355 L292.3130,14.3383 L292.1818,14.5431 L292.0507,14.7489 L291.9195,14.9548 L291.7884,15.1596 L291.6572,15.3624 L291.5261,15.5623 L291.3950,15.7582 L291.2638,15.9492 L291.1327,16.1343 L291.0015,16.3127 L290.8704,16.4835 L290.7393,16.6458 L290.6081,16.7989 L290.4770,16.9419 L290.3458,17.0744 L290.2147,17.1954 L290.0836,17.3046 L289.9524,17.4013 L289.8213,17.4851 L289.6901,17.5556 L289.5590,17.6123 L289.4279,17.6552 L289.2967,17.6838 L289.1656,17.6982 L289.0344,17.6982 L288.9033,17.6838 L288.7721,17.6552 L288.6410,17.6123 L288.5099,17.5556 L288.3787,17.4851 L288.2476,17.4013 L288.1164,17.3046 L287.9853,17.1954 L287.8542,17.0744 L287.7230,16.9419 L287.5919,16.7989 L287.4607,16.6458 L287.3296,16.4835 L287.1985,16.3127 L287.0673,16.1343 L286.9362,15.9492 L286.8050,15.7582 L286.6739,15.5623 L286.5428,15.3624 L286.4116,15.1596 L286.2805,14.9548 L286.1493,14.7489 L286.0182,14.5431 L285.8870,14.3383 L285.7559,14.1355 L285.6248,13.9357 L285.4936,13.7398 L285.3625,13.5489 L285.2313,13.3638 L285.1002,13.1855 L284.9691,13.0148 L284.8379,12.8526 L284.7068,12.6996 L284.5756,12.5566 L284.4445,12.4243 L284.3134,12.3034 L284.1822,12.1943 L284.0511,12.0978 L283.9199,12.0141 L283.7888,11.9438 L283.6577,11.8872 L283.5265,11.8445 L283.3954,11.8159 L283.2642,11.8017 L283.1331,11.8019 L283.0020,11.8164 L282.8708,11.8452 L282.7397,11.8882 L282.6085,11.9451 L282.4774,12.0157 L282.3462,12.0996 L282.2151,12.1965 L282.0840,12.3057 L281.9528,12.4269 L281.8217,12.5595 L281.6905,12.7027 L281.5594,12.8558 L281.4283,13.0182 L281.2971,13.1891 L281.1660,13.3676 L281.0348,13.5528 L280.9037,13.7438 L280.7726,13.9397 L280.6414,14.1396 L280.5103,14.3425 L280.3791,14.5473 L280.2480,14.7532 L280.1169,14.9590 L279.9857,15.1638 L279.8546,15.3666 L279.7234,15.5663 L279.5923,15.7621 L279.4611,15.9530 L279.3300,16.1380 L279.1989,16.3163 L279.0677,16.4869 L278.9366,16.6490 L278.8054,16.8019 L278.6743,16.9448 L278.5432,17.0769 L278.4120,17.1978 L278.2809,17.3067 L278.1497,17.4031 L278.0186,17.4867 L277.8875,17.5568 L277.7563,17.6133 L277.6252,17.6559 L277.4940,17.6843 L277.3629,17.6983 L277.2318,17.6981 L277.1006,17.6834 L276.9695,17.6544 L276.8383,17.6113 L276.7072,17.5542 L276.5760,17.4835 L276.4449,17.3995 L276.3138,17.3025 L276.1826,17.1931 L276.0515,17.0718 L275.9203,16.9391 L275.7892,16.7958 L275.6581,16.6426 L275.5269,16.4801 L275.3958,16.3091 L275.2646,16.1306 L275.1335,15.9453 L275.0024,15.7542 L274.8712,15.5583 L274.7401,15.3583 L274.6089,15.1554 L274.4778,14.9506 L274.3467,14.7447 L274.2155,14.5389 L274.0844,14.3341 L273.9532,14.1314 L273.8221,13.9316 L273.6910,13.7359 L273.5598,13.5451 L273.4287,13.3601 L273.2975,13.1820 L273.1664,13.0114 L273.0352,12.8494 L272.9041,12.6966 L272.7730,12.5538 L272.6418,12.4218 L272.5107,12.3010 L272.3795,12.1923 L272.2484,12.0959 L272.1173,12.0125 L271.9861,11.9425 L271.8550,11.8861 L271.7238,11.8437 L271.5927,11.8155 L271.4616,11.8016 L271.3304,11.8020 L271.1993,11.8168 L271.0681,11.8459 L270.9370,11.8892 L270.8059,11.9464 L270.6747,12.0173 L270.5436,12.1015 L270.4124,12.1986 L270.2813,12.3081 L270.1501,12.4295 L270.0190,12.5623 L269.8879,12.7057 L269.7567,12.8591 L269.6256,13.0217 L269.4944,13.1927 L269.3633,13.3713 L269.2322,13.5566 L269.1010,13.7477 L268.9699,13.9438 L268.8387,14.1437 L268.7076,14.3466 L268.5765,14.5515 L268.4453,14.7574 L268.3142,14.9632 L268.1830,15.1679 L268.0519,15.3707 L267.9208,15.5704 L267.7896,15.7661 L267.6585,15.9568 L267.5273,16.1417 L267.3962,16.3198 L267.2650,16.4903 L267.1339,16.6522 L267.0028,16.8049 L266.8716,16.9476 L266.7405,17.0795 L266.6093,17.2001 L266.4782,17.3088 L266.3471,17.4050 L266.2159,17.4882 L266.0848,17.5581 L265.9536,17.6144 L265.8225,17.6566 L265.6914,17.6847 L265.5602,17.6985 L265.4291,17.6979 L265.2979,17.6829 L265.1668,17.6537 L265.0357,17.6103 L264.9045,17.5529 L264.7734,17.4819 L264.6422,17.3976 L264.5111,17.3004 L264.3800,17.1907 L264.2488,17.0692 L264.1177,16.9363 L263.9865,16.7928 L263.8554,16.6393 L263.7242,16.4766 L263.5931,16.3055 L263.4620,16.1269 L263.3308,15.9415 L263.1997,15.7503 L263.0685,15.5542 L262.9374,15.3542 L262.8063,15.1513 L262.6751,14.9464 L262.5440,14.7405 L262.4128,14.5347 L262.2817,14.3300 L262.1506,14.1273 L262.0194,13.9276 L261.8883,13.7319 L261.7571,13.5412 L261.6260,13.3564 L261.4949,13.1784 L261.3637,13.0081 L261.2326,12.8462 L261.1014,12.6936 L260.9703,12.5510 L260.8391,12.4192 L260.7080,12.2987 L260.5769,12.1902 L260.4457,12.0941 L260.3146,12.0110 L260.1834,11.9412 L260.0523,11.8851 L259.9212,11.8430 L259.7900,11.8151 L259.6589,11.8014 L259.5277,11.8022 L259.3966,11.8173 L259.2655,11.8467 L259.1343,11.8902 L259.0032,11.9477 L258.8720,12.0189 L258.7409,12.1033 L258.6098,12.2007 L258.4786,12.3105 L258.3475,12.4321 L258.2163,12.5651 L258.0852,12.7087 L257.9540,12.8623 L257.8229,13.0251 L257.6918,13.1962 L257.5606,13.3750 L257.4295,13.5604 L257.2983,13.7517 L257.1672,13.9478 L257.0361,14.1478 L256.9049,14.3508 L256.7738,14.5557 L256.6426,14.7616 L256.5115,14.9674 L256.3804,15.1721 L256.2492,15.3748 L256.1181,15.5744 L255.9869,15.7700 L255.8558,15.9607 L255.7247,16.1454 L255.5935,16.3234 L255.4624,16.4936 L255.3312,16.6554 L255.2001,16.8079 L255.0689,16.9504 L254.9378,17.0821 L254.8067,17.2025 L254.6755,17.3109 L254.5444,17.4068 L254.4132,17.4898 L254.2821,17.5594 L254.1510,17.6154 L254.0198,17.6573 L253.8887,17.6851 L253.7575,17.6986 L253.6264,17.6977 L253.4953,17.6825 L253.3641,17.6529 L253.2330,17.6093 L253.1018,17.5516 L252.9707,17.4803 L252.8396,17.3958 L252.7084,17.2983 L252.5773,17.1884 L252.4461,17.0666 L252.3150,16.9335 L252.1839,16.7898 L252.0527,16.6361 L251.9216,16.4732 L251.7904,16.3020 L251.6593,16.1232 L251.5281,15.9376 L251.3970,15.7463 L251.2659,15.5502 L251.1347,15.3501 L251.0036,15.1471 L250.8724,14.9422 L250.7413,14.7363 L250.6102,14.5305 L250.4790,14.3258 L250.3479,14.1232 L250.2167,13.9236 L250.0856,13.7280 L249.9545,13.5374 L249.8233,13.3527 L249.6922,13.1749 L249.5610,13.0047 L249.4299,12.8430 L249.2988,12.6906 L249.1676,12.5482 L249.0365,12.4166 L248.9053,12.2964 L248.7742,12.1881 L248.6430,12.0923 L248.5119,12.0094 L248.3808,11.9399 L248.2496,11.8841 L248.1185,11.8423 L247.9873,11.8147 L247.8562,11.8013 L247.7251,11.8023 L247.5939,11.8177 L247.4628,11.8474 L247.3316,11.8913 L247.2005,11.9490 L247.0694,12.0205 L246.9382,12.1052 L246.8071,12.2028 L246.6759,12.3128 L246.5448,12.4347 L246.4137,12.5679 L246.2825,12.7118 L246.1514,12.8655 L246.0202,13.0285 L245.8891,13.1998 L245.7579,13.3787 L245.6268,13.5643 L245.4957,13.7556 L245.3645,13.9519 L245.2334,14.1520 L245.1022,14.3550 L244.9711,14.5599 L244.8400,14.7658 L244.7088,14.9716 L244.5777,15.1763 L244.4465,15.3789 L244.3154,15.5785 L244.1843,15.7740 L244.0531,15.9645 L243.9220,16.1491 L243.7908,16.3269 L243.6597,16.4970 L243.5286,16.6586 L243.3974,16.8109 L243.2663,16.9532 L243.1351,17.0847 L243.0040,17.2048 L242.8729,17.3130 L242.7417,17.4086 L242.6106,17.4914 L242.4794,17.5607 L242.3483,17.6164 L242.2171,17.6580 L242.0860,17.6855 L241.9549,17.6987 L241.8237,17.6976 L241.6926,17.6820 L241.5614,17.6522 L241.4303,17.6082 L241.2992,17.5503 L241.1680,17.4788 L241.0369,17.3939 L240.9057,17.2961 L240.7746,17.1860 L240.6435,17.0640 L240.5123,16.9307 L240.3812,16.7867 L240.2500,16.6329 L240.1189,16.4698 L239.9878,16.2984 L239.8566,16.1194 L239.7255,15.9338 L239.5943,15.7424 L239.4632,15.5461 L239.3320,15.3460 L239.2009,15.1430 L239.0698,14.9380 L238.9386,14.7321 L238.8075,14.5264 L238.6763,14.3217 L238.5452,14.1191 L238.4141,13.9195 L238.2829,13.7241 L238.1518,13.5336 L238.0206,13.3490 L237.8895,13.1713 L237.7584,13.0013 L237.6272,12.8398 L237.4961,12.6876 L237.3649,12.5454 L237.2338,12.4140 L237.1027,12.2940 L236.9715,12.1860 L236.8404,12.0905 L236.7092,12.0079 L236.5781,11.9387 L236.4469,11.8831 L236.3158,11.8416 L236.1847,11.8143 L236.0535,11.8012 L235.9224,11.8025 L235.7912,11.8182 L235.6601,11.8482 L235.5290,11.8923 L235.3978,11.9504 L235.2667,12.0220 L235.1355,12.1070 L235.0044,12.2049 L234.8733,12.3152 L234.7421,12.4373 L234.6110,12.5708 L234.4798,12.7148 L234.3487,12.8688 L234.2176,13.0319 L234.0864,13.2034 L233.9553,13.3824 L233.8241,13.5681 L233.6930,13.7596 L233.5619,13.9559 L233.4307,14.1561 L233.2996,14.3591 L233.1684,14.5641 L233.0373,14.7700 L232.9061,14.9757 L232.7750,15.1804 L232.6439,15.3830 L232.5127,15.5825 L232.3816,15.7779 L232.2504,15.9683 L232.1193,16.1528 L231.9882,16.3305 L231.8570,16.5004 L231.7259,16.6618 L231.5947,16.8139 L231.4636,16.9560 L231.3325,17.0872 L231.2013,17.2071 L231.0702,17.3150 L230.9390,17.4105 L230.8079,17.4929 L230.6768,17.5620 L230.5456,17.6173 L230.4145,17.6587 L230.2833,17.6860 L230.1522,17.6989 L230.0210,17.6974 L229.8899,17.6816 L229.7588,17.6514 L229.6276,17.6072 L229.4965,17.5490 L229.3653,17.4772 L229.2342,17.3920 L229.1031,17.2940 L228.9719,17.1836 L228.8408,17.0614 L228.7096,16.9278 L228.5785,16.7837 L228.4474,16.6296 L228.3162,16.4664 L228.1851,16.2948 L228.0539,16.1157 L227.9228,15.9299 L227.7917,15.7384 L227.6605,15.5421 L227.5294,15.3419 L227.3982,15.1388 L227.2671,14.9338 L227.1359,14.7279 L227.0048,14.5222 L226.8737,14.3175 L226.7425,14.1150 L226.6114,13.9155 L226.4802,13.7201 L226.3491,13.5297 L226.2180,13.3453 L226.0868,13.1677 L225.9557,12.9979 L225.8245,12.8366 L225.6934,12.6846 L225.5623,12.5426 L225.4311,12.4115 L225.3000,12.2917 L225.1688,12.1839 L225.0377,12.0886 L224.9066,12.0063 L224.7754,11.9374 L224.6443,11.8822 L224.5131,11.8409 L224.3820,11.8138 L224.2509,11.8011 L224.1197,11.8027 L223.9886,11.8187 L223.8574,11.8489 L223.7263,11.8933 L223.5951,11.9517 L223.4640,12.0237 L223.3329,12.1089 L223.2017,12.2070 L223.0706,12.3176 L222.9394,12.4400 L222.8083,12.5736 L222.6772,12.7178 L222.5460,12.8720 L222.4149,13.0353 L222.2837,13.2070 L222.1526,13.3862 L222.0215,13.5720 L221.8903,13.7636 L221.7592,13.9600 L221.6280,14.1602 L221.4969,14.3633 L221.3658,14.5683 L221.2346,14.7742 L221.1035,14.9799 L220.9723,15.1846 L220.8412,15.3871 L220.7100,15.5865 L220.5789,15.7819 L220.4478,15.9722 L220.3166,16.1565 L220.1855,16.3340 L220.0543,16.5038 L219.9232,16.6650 L219.7921,16.8169 L219.6609,16.9587 L219.5298,17.0898 L219.3986,17.2095 L219.2675,17.3171 L219.1364,17.4123 L219.0052,17.4944 L218.8741,17.5632 L218.7429,17.6183 L218.6118,17.6594 L218.4807,17.6864 L218.3495,17.6990 L218.2184,17.6972 L218.0872,17.6811 L217.9561,17.6507 L217.8249,17.6061 L217.6938,17.5477 L217.5627,17.4755 L217.4315,17.3902 L217.3004,17.2919 L217.1692,17.1812 L217.0381,17.0587 L216.9070,16.9250 L216.7758,16.7806 L216.6447,16.6264 L216.5135,16.4630 L216.3824,16.2912 L216.2513,16.1120 L216.1201,15.9261 L215.9890,15.7344 L215.8578,15.5380 L215.7267,15.3378 L215.5956,15.1346 L215.4644,14.9296 L215.3333,14.7237 L215.2021,14.5180 L215.0710,14.3133 L214.9399,14.1108 L214.8087,13.9115 L214.6776,13.7162 L214.5464,13.5259 L214.4153,13.3416 L214.2841,13.1642 L214.1530,12.9945 L214.0219,12.8334 L213.8907,12.6816 L213.7596,12.5399 L213.6284,12.4089 L213.4973,12.2894 L213.3662,12.1818 L213.2350,12.0868 L213.1039,12.0048 L212.9727,11.9361 L212.8416,11.8812 L212.7105,11.8402 L212.5793,11.8134 L212.4482,11.8010 L212.3170,11.8029 L212.1859,11.8192 L212.0548,11.8497 L211.9236,11.8944 L211.7925,11.9530 L211.6613,12.0253 L211.5302,12.1108 L211.3990,12.2092 L211.2679,12.3199 L211.1368,12.4426 L211.0056,12.5764 L210.8745,12.7209 L210.7433,12.8752 L210.6122,13.0387 L210.4811,13.2106 L210.3499,13.3899 L210.2188,13.5758 L210.0876,13.7675 L209.9565,13.9640 L209.8254,14.1643 L209.6942,14.3675 L209.5631,14.5725 L209.4319,14.7784 L209.3008,14.9841 L209.1697,15.1887 L209.0385,15.3912 L208.9074,15.5905 L208.7762,15.7858 L208.6451,15.9760 L208.5139,16.1602 L208.3828,16.3376 L208.2517,16.5072 L208.1205,16.6682 L207.9894,16.8199 L207.8582,16.9615 L207.7271,17.0924 L207.5960,17.2118 L207.4648,17.3192 L207.3337,17.4141 L207.2025,17.4960 L207.0714,17.5645 L206.9403,17.6193 L206.8091,17.6601 L206.6780,17.6868 L206.5468,17.6991 L206.4157,17.6970 L206.2846,17.6806 L206.1534,17.6499 L206.0223,17.6051 L205.8911,17.5463 L205.7600,17.4739 L205.6289,17.3883 L205.4977,17.2898 L205.3666,17.1789 L205.2354,17.0561 L205.1043,16.9221 L204.9731,16.7776 L204.8420,16.6231 L204.7109,16.4596 L204.5797,16.2877 L204.4486,16.1082 L204.3174,15.9222 L204.1863,15.7305 L204.0552,15.5340 L203.9240,15.3336 L203.7929,15.1304 L203.6617,14.9254 L203.5306,14.7195 L203.3995,14.5138 L203.2683,14.3092 L203.1372,14.1067 L203.0060,13.9074 L202.8749,13.7122 L202.7438,13.5221 L202.6126,13.3379 L202.4815,13.1607 L202.3503,12.9911 L202.2192,12.8302 L202.0880,12.6786 L201.9569,12.5371 L201.8258,12.4064 L201.6946,12.2871 L201.5635,12.1798 L201.4323,12.0850 L201.3012,12.0032 L201.1701,11.9349 L201.0389,11.8802 L200.9078,11.8395 L200.7766,11.8130 L200.6455,11.8009 L200.5144,11.8031 L200.3832,11.8196 L200.2521,11.8505 L200.1209,11.8955 L199.9898,11.9544 L199.8587,12.0269 L199.7275,12.1127 L199.5964,12.2113 L199.4652,12.3223 L199.3341,12.4452 L199.2029,12.5793 L199.0718,12.7239 L198.9407,12.8785 L198.8095,13.0422 L198.6784,13.2141 L198.5472,13.3936 L198.4161,13.5797 L198.2850,13.7715 L198.1538,13.9681 L198.0227,14.1684 L197.8915,14.3716 L197.7604,14.5767 L197.6293,14.7826 L197.4981,14.9883 L197.3670,15.1929 L197.2358,15.3953 L197.1047,15.5946 L196.9736,15.7897 L196.8424,15.9798 L196.7113,16.1639 L196.5801,16.3411 L196.4490,16.5106 L196.3178,16.6714 L196.1867,16.8229 L196.0556,16.9643 L195.9244,17.0949 L195.7933,17.2141 L195.6621,17.3213 L195.5310,17.4159 L195.3999,17.4975 L195.2687,17.5658 L195.1376,17.6203 L195.0064,17.6608 L194.8753,17.6872 L194.7442,17.6992 L194.6130,17.6968 L194.4819,17.6801 L194.3507,17.6491 L194.2196,17.6040 L194.0885,17.5450 L193.9573,17.4723 L193.8262,17.3864 L193.6950,17.2876 L193.5639,17.1765 L193.4328,17.0535 L193.3016,16.9193 L193.1705,16.7745 L193.0393,16.6199 L192.9082,16.4561 L192.7770,16.2841 L192.6459,16.1045 L192.5148,15.9184 L192.3836,15.7265 L192.2525,15.5299 L192.1213,15.3295 L191.9902,15.1263 L191.8591,14.9212 L191.7279,14.7153 L191.5968,14.5096 L191.4656,14.3050 L191.3345,14.1026 L191.2034,13.9034 L191.0722,13.7083 L190.9411,13.5183 L190.8099,13.3342 L190.6788,13.1571 L190.5477,12.9878 L190.4165,12.8270 L190.2854,12.6756 L190.1542,12.5343 L190.0231,12.4038 L189.8919,12.2848 L189.7608,12.1777 L189.6297,12.0832 L189.4985,12.0017 L189.3674,11.9336 L189.2362,11.8792 L189.1051,11.8388 L188.9740,11.8126 L188.8428,11.8008 L188.7117,11.8033 L188.5805,11.8201 L188.4494,11.8513 L188.3183,11.8965 L188.1871,11.9557 L188.0560,12.0285 L187.9248,12.1146 L187.7937,12.2135 L187.6626,12.3247 L187.5314,12.4478 L187.4003,12.5821 L187.2691,12.7270 L187.1380,12.8817 L187.0068,13.0456 L186.8757,13.2177 L186.7446,13.3974 L186.6134,13.5836 L186.4823,13.7755 L186.3511,13.9721 L186.2200,14.1726 L186.0889,14.3758 L185.9577,14.5809 L185.8266,14.7868 L185.6954,14.9925 L185.5643,15.1970 L185.4332,15.3994 L185.3020,15.5986 L185.1709,15.7937 L185.0397,15.9836 L184.9086,16.1676 L184.7775,16.3446 L184.6463,16.5139 L184.5152,16.6746 L184.3840,16.8259 L184.2529,16.9671 L184.1218,17.0975 L183.9906,17.2164 L183.8595,17.3233 L183.7283,17.4177 L183.5972,17.4990 L183.4660,17.5670 L183.3349,17.6213 L183.2038,17.6615 L183.0726,17.6875 L182.9415,17.6993 L182.8103,17.6966 L182.6792,17.6796 L182.5481,17.6484 L182.4169,17.6029 L182.2858,17.5436 L182.1546,17.4707 L182.0235,17.3845 L181.8924,17.2855 L181.7612,17.1741 L181.6301,17.0509 L181.4989,16.9164 L181.3678,16.7715 L181.2367,16.6166 L181.1055,16.4527 L180.9744,16.2805 L180.8432,16.1008 L180.7121,15.9145 L180.5809,15.7226 L180.4498,15.5259 L180.3187,15.3254 L180.1875,15.1221 L180.0564,14.9170 L179.9252,14.7111 L179.7941,14.5054 L179.6630,14.3009 L179.5318,14.0985 L179.4007,13.8994 L179.2695,13.7044 L179.1384,13.5145 L179.0073,13.3306 L178.8761,13.1536 L178.7450,12.9844 L178.6138,12.8238 L178.4827,12.6726 L178.3516,12.5315 L178.2204,12.4013 L178.0893,12.2824 L177.9581,12.1757 L177.8270,12.0814 L177.6958,12.0002 L177.5647,11.9324 L177.4336,11.8783 L177.3024,11.8382 L177.1713,11.8123 L177.0401,11.8007 L176.9090,11.8035 L176.7779,11.8206 L176.6467,11.8520 L176.5156,11.8976 L176.3844,11.9570 L176.2533,12.0301 L176.1222,12.1164 L175.9910,12.2156 L175.8599,12.3271 L175.7287,12.4504 L175.5976,12.5850 L175.4665,12.7301 L175.3353,12.8850 L175.2042,13.0490 L175.0730,13.2213 L174.9419,13.4011 L174.8108,13.5874 L174.6796,13.7794 L174.5485,13.9762 L174.4173,14.1767 L174.2862,14.3800 L174.1550,14.5851 L174.0239,14.7910 L173.8928,14.9967 L173.7616,15.2012 L173.6305,15.4035 L173.4993,15.6026 L173.3682,15.7976 L173.2371,15.9875 L173.1059,16.1713 L172.9748,16.3482 L172.8436,16.5173 L172.7125,16.6778 L172.5814,16.8289 L172.4502,16.9699 L172.3191,17.1000 L172.1879,17.2187 L172.0568,17.3254 L171.9257,17.4195 L171.7945,17.5006 L171.6634,17.5683 L171.5322,17.6222 L171.4011,17.6622 L171.2699,17.6879 L171.1388,17.6994 L171.0077,17.6964 L170.8765,17.6791 L170.7454,17.6476 L170.6142,17.6019 L170.4831,17.5423 L170.3520,17.4691 L170.2208,17.3826 L170.0897,17.2833 L169.9585,17.1717 L169.8274,17.0482 L169.6963,16.9136 L169.5651,16.7684 L169.4340,16.6134 L169.3028,16.4493 L169.1717,16.2769 L169.0406,16.0970 L168.9094,15.9106 L168.7783,15.7186 L168.6471,15.5218 L168.5160,15.3213 L168.3848,15.1179 L168.2537,14.9128 L168.1226,14.7069 L167.9914,14.5012 L167.8603,14.2967 L167.7291,14.0944 L167.5980,13.8954 L167.4669,13.7004 L167.3357,13.5106 L167.2046,13.3269 L167.0734,13.1500 L166.9423,12.9810 L166.8112,12.8206 L166.6800,12.6696 L166.5489,12.5288 L166.4177,12.3987 L166.2866,12.2801 L166.1555,12.1736 L166.0243,12.0796 L165.8932,11.9987 L165.7620,11.9311 L165.6309,11.8773 L165.4998,11.8375 L165.3686,11.8119 L165.2375,11.8006 L165.1063,11.8037 L164.9752,11.8211 L164.8440,11.8528 L164.7129,11.8987 L164.5818,11.9584 L164.4506,12.0317 L164.3195,12.1183 L164.1883,12.2178 L164.0572,12.3295 L163.9261,12.4531 L163.7949,12.5878 L163.6638,12.7331 L163.5326,12.8883 L163.4015,13.0525 L163.2704,13.2249 L163.1392,13.4048 L163.0081,13.5913 L162.8769,13.7834 L162.7458,13.9802 L162.6147,14.1808 L162.4835,14.3841 L162.3524,14.5893 L162.2212,14.7952 L162.0901,15.0009 L161.9589,15.2054 L161.8278,15.4076 L161.6967,15.6067 L161.5655,15.8015 L161.4344,15.9913 L161.3032,16.1750 L161.1721,16.3517 L161.0410,16.5207 L160.9098,16.6810 L160.7787,16.8319 L160.6475,16.9726 L160.5164,17.1025 L160.3853,17.2210 L160.2541,17.3274 L160.1230,17.4213 L159.9918,17.5021 L159.8607,17.5695 L159.7296,17.6232 L159.5984,17.6628 L159.4673,17.6883 L159.3361,17.6995 L159.2050,17.6962 L159.0738,17.6786 L158.9427,17.6468 L158.8116,17.6008 L158.6804,17.5409 L158.5493,17.4674 L158.4181,17.3807 L158.2870,17.2812 L158.1559,17.1693 L158.0247,17.0456 L157.8936,16.9107 L157.7624,16.7653 L157.6313,16.6101 L157.5002,16.4458 L157.3690,16.2733 L157.2379,16.0933 L157.1067,15.9068 L156.9756,15.7146 L156.8445,15.5177 L156.7133,15.3171 L156.5822,15.1138 L156.4510,14.9086 L156.3199,14.7027 L156.1888,14.4970 L156.0576,14.2926 L155.9265,14.0903 L155.7953,13.8913 L155.6642,13.6965 L155.5330,13.5068 L155.4019,13.3232 L155.2708,13.1465 L155.1396,12.9777 L155.0085,12.8174 L154.8773,12.6666 L154.7462,12.5260 L154.6151,12.3962 L154.4839,12.2779 L154.3528,12.1716 L154.2216,12.0778 L154.0905,11.9972 L153.9594,11.9299 L153.8282,11.8764 L153.6971,11.8368 L153.5659,11.8115 L153.4348,11.8005 L153.3037,11.8039 L153.1725,11.8216 L153.0414,11.8536 L152.9102,11.8997 L152.7791,11.9598 L152.6479,12.0334 L152.5168,12.1202 L152.3857,12.2199 L152.2545,12.3319 L152.1234,12.4557 L151.9922,12.5907 L151.8611,12.7362 L151.7300,12.8915 L151.5988,13.0559 L151.4677,13.2285 L151.3365,13.4086 L151.2054,13.5952 L151.0743,13.7874 L150.9431,13.9843 L150.8120,14.1849 L150.6808,14.3883 L150.5497,14.5935 L150.4186,14.7994 L150.2874,15.0051 L150.1563,15.2095 L150.0251,15.4117 L149.8940,15.6107 L149.7628,15.8055 L149.6317,15.9951 L149.5006,16.1786 L149.3694,16.3552 L149.2383,16.5240 L149.1071,16.6841 L148.9760,16.8348 L148.8449,16.9754 L148.7137,17.1051 L148.5826,17.2233 L148.4514,17.3295 L148.3203,17.4230 L148.1892,17.5036 L148.0580,17.5707 L147.9269,17.6241 L147.7957,17.6635 L147.6646,17.6887 L147.5335,17.6995 L147.4023,17.6960 L147.2712,17.6781 L147.1400,17.6460 L147.0089,17.5997 L146.8778,17.5395 L146.7466,17.4658 L146.6155,17.3788 L146.4843,17.2790 L146.3532,17.1669 L146.2220,17.0430 L146.0909,16.9079 L145.9598,16.7623 L145.8286,16.6068 L145.6975,16.4424 L145.5663,16.2697 L145.4352,16.0896 L145.3041,15.9029 L145.1729,15.7106 L145.0418,15.5137 L144.9106,15.3130 L144.7795,15.1096 L144.6484,14.9044 L144.5172,14.6985 L144.3861,14.4928 L144.2549,14.2884 L144.1238,14.0862 L143.9927,13.8873 L143.8615,13.6926 L143.7304,13.5030 L143.5992,13.3195 L143.4681,13.1430 L143.3369,12.9743 L143.2058,12.8143 L143.0747,12.6637 L142.9435,12.5232 L142.8124,12.3937 L142.6812,12.2756 L142.5501,12.1695 L142.4190,12.0761 L142.2878,11.9956 L142.1567,11.9287 L142.0255,11.8754 L141.8944,11.8362 L141.7633,11.8111 L141.6321,11.8004 L141.5010,11.8041 L141.3698,11.8221 L141.2387,11.8544 L141.1076,11.9008 L140.9764,11.9611 L140.8453,12.0350 L140.7141,12.1222 L140.5830,12.2221 L140.4518,12.3343 L140.3207,12.4584 L140.1896,12.5936 L140.0584,12.7393 L139.9273,12.8948 L139.7961,13.0593 L139.6650,13.2321 L139.5339,13.4123 L139.4027,13.5990 L139.2716,13.7914 L139.1404,13.9883 L139.0093,14.1891 L138.8782,14.3925 L138.7470,14.5977 L138.6159,14.8036 L138.4847,15.0093 L138.3536,15.2137 L138.2225,15.4158 L138.0913,15.6147 L137.9602,15.8094 L137.8290,15.9989 L137.6979,16.1823 L137.5667,16.3588 L137.4356,16.5274 L137.3045,16.6873 L137.1733,16.8378 L137.0422,16.9781 L136.9110,17.1076 L136.7799,17.2256 L136.6488,17.3315 L136.5176,17.4248 L136.3865,17.5051 L136.2553,17.5720 L136.1242,17.6251 L135.9931,17.6642 L135.8619,17.6890 L135.7308,17.6996 L135.5996,17.6958 L135.4685,17.6776 L135.3374,17.6452 L135.2062,17.5986 L135.0751,17.5382 L134.9439,17.4642 L134.8128,17.3769 L134.6817,17.2768 L134.5505,17.1645 L134.4194,17.0403 L134.2882,16.9050 L134.1571,16.7592 L134.0259,16.6036 L133.8948,16.4389 L133.7637,16.2661 L133.6325,16.0858 L133.5014,15.8990 L133.3702,15.7067 L133.2391,15.5096 L133.1080,15.3089 L132.9768,15.1054 L132.8457,14.9002 L132.7145,14.6943 L132.5834,14.4886 L132.4523,14.2843 L132.3211,14.0822 L132.1900,13.8833 L132.0588,13.6887 L131.9277,13.4992 L131.7966,13.3158 L131.6654,13.1395 L131.5343,12.9709 L131.4031,12.8111 L131.2720,12.6607 L131.1408,12.5205 L131.0097,12.3911 L130.8786,12.2733 L130.7474,12.1675 L130.6163,12.0743 L130.4851,11.9941 L130.3540,11.9274 L130.2229,11.8745 L130.0917,11.8355 L129.9606,11.8108 L129.8294,11.8004 L129.6983,11.8043 L129.5672,11.8226 L129.4360,11.8552 L129.3049,11.9019 L129.1737,11.9625 L129.0426,12.0367 L128.9115,12.1241 L128.7803,12.2243 L128.6492,12.3368 L128.5180,12.4610 L128.3869,12.5964 L128.2557,12.7424 L128.1246,12.8981 L127.9935,13.0628 L127.8623,13.2357 L127.7312,13.4161 L127.6000,13.6029 L127.4689,13.7953 L127.3378,13.9924 L127.2066,14.1932 L127.0755,14.3967 L126.9443,14.6019 L126.8132,14.8078 L126.6821,15.0134 L126.5509,15.2178 L126.4198,15.4199 L126.2886,15.6187 L126.1575,15.8133 L126.0264,16.0027 L125.8952,16.1860 L125.7641,16.3623 L125.6329,16.5307 L125.5018,16.6905 L125.3707,16.8408 L125.2395,16.9809 L125.1084,17.1101 L124.9772,17.2279 L124.8461,17.3335 L124.7149,17.4266 L124.5838,17.5066 L124.4527,17.5732 L124.3215,17.6260 L124.1904,17.6648 L124.0592,17.6894 L123.9281,17.6997 L123.7970,17.6956 L123.6658,17.6771 L123.5347,17.6444 L123.4035,17.5975 L123.2724,17.5368 L123.1413,17.4625 L123.0101,17.3750 L122.8790,17.2747 L122.7478,17.1620 L122.6167,17.0377 L122.4856,16.9021 L122.3544,16.7561 L122.2233,16.6003 L122.0921,16.4355 L121.9610,16.2625 L121.8298,16.0821 L121.6987,15.8952 L121.5676,15.7027 L121.4364,15.5056 L121.3053,15.3048 L121.1741,15.1012 L121.0430,14.8960 L120.9119,14.6901 L120.7807,14.4845 L120.6496,14.2801 L120.5184,14.0781 L120.3873,13.8793 L120.2562,13.6847 L120.1250,13.4954 L119.9939,13.3122 L119.8627,13.1359 L119.7316,12.9676 L119.6005,12.8079 L119.4693,12.6577 L119.3382,12.5177 L119.2070,12.3886 L119.0759,12.2710 L118.9447,12.1655 L118.8136,12.0725 L118.6825,11.9926 L118.5513,11.9262 L118.4202,11.8735 L118.2890,11.8349 L118.1579,11.8104 L118.0268,11.8003 L117.8956,11.8046 L117.7645,11.8232 L117.6333,11.8560 L117.5022,11.9030 L117.3711,11.9639 L117.2399,12.0383 L117.1088,12.1260 L116.9776,12.2264 L116.8465,12.3392 L116.7154,12.4637 L116.5842,12.5993 L116.4531,12.7454 L116.3219,12.9013 L116.1908,13.0662 L116.0597,13.2393 L115.9285,13.4198 L115.7974,13.6068 L115.6662,13.7993 L115.5351,13.9965 L115.4039,14.1973 L115.2728,14.4008 L115.1417,14.6061 L115.0105,14.8120 L114.8794,15.0176 L114.7482,15.2220 L114.6171,15.4240 L114.4860,15.6227 L114.3548,15.8172 L114.2237,16.0065 L114.0925,16.1897 L113.9614,16.3658 L113.8303,16.5341 L113.6991,16.6937 L113.5680,16.8438 L113.4368,16.9836 L113.3057,17.1127 L113.1746,17.2301 L113.0434,17.3356 L112.9123,17.4284 L112.7811,17.5081 L112.6500,17.5744 L112.5188,17.6269 L112.3877,17.6655 L112.2566,17.6898 L112.1254,17.6997 L111.9943,17.6953 L111.8631,17.6766 L111.7320,17.6435 L111.6009,17.5964 L111.4697,17.5354 L111.3386,17.4608 L111.2074,17.3731 L111.0763,17.2725 L110.9452,17.1596 L110.8140,17.0350 L110.6829,16.8992 L110.5517,16.7530 L110.4206,16.5970 L110.2895,16.4320 L110.1583,16.2588 L110.0272,16.0783 L109.8960,15.8913 L109.7649,15.6987 L109.6337,15.5015 L109.5026,15.3006 L109.3715,15.0971 L109.2403,14.8918 L109.1092,14.6859 L108.9780,14.4803 L108.8469,14.2760 L108.7158,14.0740 L108.5846,13.8753 L108.4535,13.6808 L108.3223,13.4916 L108.1912,13.3085 L108.0601,13.1324 L107.9289,12.9642 L107.7978,12.8048 L107.6666,12.6548 L107.5355,12.5150 L107.4044,12.3861 L107.2732,12.2687 L107.1421,12.1634 L107.0109,12.0708 L106.8798,11.9912 L106.7487,11.9250 L106.6175,11.8726 L106.4864,11.8342 L106.3552,11.8101 L106.2241,11.8002 L106.0929,11.8048 L105.9618,11.8237 L105.8307,11.8569 L105.6995,11.9041 L105.5684,11.9653 L105.4372,12.0400 L105.3061,12.1279 L105.1750,12.2286 L105.0438,12.3416 L104.9127,12.4663 L104.7815,12.6022 L104.6504,12.7485 L104.5193,12.9046 L104.3881,13.0697 L104.2570,13.2430 L104.1258,13.4236 L103.9947,13.6107 L103.8636,13.8033 L103.7324,14.0005 L103.6013,14.2014 L103.4701,14.4050 L103.3390,14.6103 L103.2078,14.8162 L103.0767,15.0218 L102.9456,15.2261 L102.8144,15.4281 L102.6833,15.6267 L102.5521,15.8211 L102.4210,16.0103 L102.2899,16.1933 L102.1587,16.3693 L102.0276,16.5374 L101.8964,16.6968 L101.7653,16.8467 L101.6342,16.9864 L101.5030,17.1152 L101.3719,17.2324 L101.2407,17.3376 L101.1096,17.4301 L100.9785,17.5096 L100.8473,17.5756 L100.7162,17.6279 L100.5850,17.6661 L100.4539,17.6901 L100.3227,17.6998 L100.1916,17.6951 L100.0605,17.6760 L99.9293,17.6427 L99.7982,17.5953 L99.6670,17.5340 L99.5359,17.4592 L99.4048,17.3711 L99.2736,17.2703 L99.1425,17.1572 L99.0113,17.0323 L98.8802,16.8964 L98.7491,16.7499 L98.6179,16.5938 L98.4868,16.4286 L98.3556,16.2552 L98.2245,16.0745 L98.0934,15.8874 L97.9622,15.6947 L97.8311,15.4974 L97.6999,15.2965 L97.5688,15.0929 L97.4377,14.8876 L97.3065,14.6817 L97.1754,14.4761 L97.0442,14.2718 L96.9131,14.0699 L96.7819,13.8712 L96.6508,13.6769 L96.5197,13.4878 L96.3885,13.3048 L96.2574,13.1289 L96.1262,12.9609 L95.9951,12.8016 L95.8640,12.6518 L95.7328,12.5122 L95.6017,12.3836 L95.4705,12.2664 L95.3394,12.1614 L95.2083,12.0690 L95.0771,11.9897 L94.9460,11.9238 L94.8148,11.8717 L94.6837,11.8336 L94.5526,11.8097 L94.4214,11.8002 L94.2903,11.8050 L94.1591,11.8242 L94.0280,11.8577 L93.8968,11.9052 L93.7657,11.9667 L93.6346,12.0416 L93.5034,12.1298 L93.3723,12.2308 L93.2411,12.3440 L93.1100,12.4690 L92.9789,12.6051 L92.8477,12.7516 L92.7166,12.9079 L92.5854,13.0731 L92.4543,13.2466 L92.3232,13.4273 L92.1920,13.6145 L92.0609,13.8073 L91.9297,14.0046 L91.7986,14.2056 L91.6675,14.4092 L91.5363,14.6145 L91.4052,14.8204 L91.2740,15.0260 L91.1429,15.2303 L91.0117,15.4322 L90.8806,15.6308 L90.7495,15.8251 L90.6183,16.0141 L90.4872,16.1970 L90.3560,16.3728 L90.2249,16.5408 L90.0938,16.7000 L89.9626,16.8497 L89.8315,16.9891 L89.7003,17.1177 L89.5692,17.2347 L89.4381,17.3396 L89.3069,17.4319 L89.1758,17.5111 L89.0446,17.5768 L88.9135,17.6288 L88.7824,17.6667 L88.6512,17.6904 L88.5201,17.6998 L88.3889,17.6948 L88.2578,17.6755 L88.1267,17.6419 L87.9955,17.5942 L87.8644,17.5326 L87.7332,17.4575 L87.6021,17.3692 L87.4709,17.2681 L87.3398,17.1548 L87.2087,17.0297 L87.0775,16.8935 L86.9464,16.7468 L86.8152,16.5905 L86.6841,16.4251 L86.5530,16.2516 L86.4218,16.0708 L86.2907,15.8835 L86.1595,15.6907 L86.0284,15.4934 L85.8973,15.2924 L85.7661,15.0887 L85.6350,14.8834 L85.5038,14.6775 L85.3727,14.4719 L85.2416,14.2677 L85.1104,14.0658 L84.9793,13.8672 L84.8481,13.6730 L84.7170,13.4840 L84.5858,13.3012 L84.4547,13.1254 L84.3236,12.9576 L84.1924,12.7985 L84.0613,12.6489 L83.9301,12.5095 L83.7990,12.3811 L83.6679,12.2642 L83.5367,12.1594 L83.4056,12.0673 L83.2744,11.9882 L83.1433,11.9226 L83.0122,11.8708 L82.8810,11.8330 L82.7499,11.8094 L82.6187,11.8001 L82.4876,11.8053 L82.3565,11.8248 L82.2253,11.8585 L82.0942,11.9064 L81.9630,11.9681 L81.8319,12.0433 L81.7007,12.1318 L81.5696,12.2330 L81.4385,12.3465 L81.3073,12.4717 L81.1762,12.6080 L81.0450,12.7547 L80.9139,12.9112 L80.7828,13.0766 L80.6516,13.2502 L80.5205,13.4311 L80.3893,13.6184 L80.2582,13.8113 L80.1271,14.0087 L79.9959,14.2097 L79.8648,14.4134 L79.7336,14.6187 L79.6025,14.8246 L79.4714,15.0302 L79.3402,15.2344 L79.2091,15.4363 L79.0779,15.6348 L78.9468,15.8290 L78.8156,16.0179 L78.6845,16.2007 L78.5534,16.3763 L78.4222,16.5441 L78.2911,16.7031 L78.1599,16.8526 L78.0288,16.9919 L77.8977,17.1202 L77.7665,17.2370 L77.6354,17.3416 L77.5042,17.4336 L77.3731,17.5125 L77.2420,17.5780 L77.1108,17.6297 L76.9797,17.6673 L76.8485,17.6908 L76.7174,17.6999 L76.5863,17.6946 L76.4551,17.6750 L76.3240,17.6411 L76.1928,17.5931 L76.0617,17.5312 L75.9306,17.4558 L75.7994,17.3673 L75.6683,17.2659 L75.5371,17.1523 L75.4060,17.0270 L75.2748,16.8906 L75.1437,16.7437 L75.0126,16.5872 L74.8814,16.4217 L74.7503,16.2480 L74.6191,16.0670 L74.4880,15.8796 L74.3569,15.6868 L74.2257,15.4893 L74.0946,15.2882 L73.9634,15.0845 L73.8323,14.8792 L73.7012,14.6733 L73.5700,14.4677 L73.4389,14.2635 L73.3077,14.0617 L73.1766,13.8632 L73.0455,13.6691 L72.9143,13.4802 L72.7832,13.2975 L72.6520,13.1219 L72.5209,12.9542 L72.3897,12.7953 L72.2586,12.6459 L72.1275,12.5068 L71.9963,12.3786 L71.8652,12.2619 L71.7340,12.1574 L71.6029,12.0655 L71.4718,11.9867 L71.3406,11.9214 L71.2095,11.8698 L71.0783,11.8323 L70.9472,11.8091 L70.8161,11.8001 L70.6849,11.8055 L70.5538,11.8253 L70.4226,11.8594 L70.2915,11.9075 L70.1604,11.9695 L70.0292,12.0450 L69.8981,12.1337 L69.7669,12.2352 L69.6358,12.3489 L69.5046,12.4743 L69.3735,12.6109 L69.2424,12.7578 L69.1112,12.9145 L68.9801,13.0801 L68.8489,13.2538 L68.7178,13.4349 L68.5867,13.6223 L68.4555,13.8152 L68.3244,14.0127 L68.1932,14.2138 L68.0621,14.4175 L67.9310,14.6229 L67.7998,14.8288 L67.6687,15.0344 L67.5375,15.2386 L67.4064,15.4403 L67.2753,15.6388 L67.1441,15.8329 L67.0130,16.0217 L66.8818,16.2043 L66.7507,16.3799 L66.6196,16.5474 L66.4884,16.7063 L66.3573,16.8556 L66.2261,16.9946 L66.0950,17.1227 L65.9638,17.2392 L65.8327,17.3436 L65.7016,17.4354 L65.5704,17.5140 L65.4393,17.5792 L65.3081,17.6306 L65.1770,17.6680 L65.0459,17.6911 L64.9147,17.6999 L64.7836,17.6943 L64.6524,17.6744 L64.5213,17.6402 L64.3902,17.5920 L64.2590,17.5298 L64.1279,17.4542 L63.9967,17.3653 L63.8656,17.2637 L63.7345,17.1499 L63.6033,17.0243 L63.4722,16.8877 L63.3410,16.7406 L63.2099,16.5839 L63.0787,16.4182 L62.9476,16.2444 L62.8165,16.0633 L62.6853,15.8758 L62.5542,15.6828 L62.4230,15.4852 L62.2919,15.2841 L62.1608,15.0804 L62.0296,14.8750 L61.8985,14.6691 L61.7673,14.4635 L61.6362,14.2594 L61.5051,14.0576 L61.3739,13.8592 L61.2428,13.6652 L61.1116,13.4764 L60.9805,13.2939 L60.8494,13.1184 L60.7182,12.9509 L60.5871,12.7922 L60.4559,12.6430 L60.3248,12.5040 L60.1936,12.3761 L60.0625,12.2597 L59.9314,12.1554 L59.8002,12.0638 L59.6691,11.9852 L59.5379,11.9202 L59.4068,11.8689 L59.2757,11.8317 L59.1445,11.8087 L59.0134,11.8001 L58.8822,11.8058 L58.7511,11.8259 L58.6200,11.8602 L58.4888,11.9086 L58.3577,11.9709 L58.2265,12.0467 L58.0954,12.1357 L57.9643,12.2374 L57.8331,12.3514 L57.7020,12.4770 L57.5708,12.6138 L57.4397,12.7609 L57.3086,12.9178 L57.1774,13.0835 L57.0463,13.2574 L56.9151,13.4386 L56.7840,13.6262 L56.6528,13.8192 L56.5217,14.0168 L56.3906,14.2180 L56.2594,14.4217 L56.1283,14.6271 L55.9971,14.8330 L55.8660,15.0386 L55.7349,15.2427 L55.6037,15.4444 L55.4726,15.6428 L55.3414,15.8368 L55.2103,16.0255 L55.0792,16.2080 L54.9480,16.3834 L54.8169,16.5508 L54.6857,16.7094 L54.5546,16.8585 L54.4235,16.9973 L54.2923,17.1252 L54.1612,17.2415 L54.0300,17.3456 L53.8989,17.4371 L53.7677,17.5155 L53.6366,17.5804 L53.5055,17.6315 L53.3743,17.6686 L53.2432,17.6914 L53.1120,17.6999 L52.9809,17.6941 L52.8498,17.6739 L52.7186,17.6394 L52.5875,17.5908 L52.4563,17.5284 L52.3252,17.4525 L52.1941,17.3634 L52.0629,17.2615 L51.9318,17.1474 L51.8006,17.0216 L51.6695,16.8848 L51.5384,16.7375 L51.4072,16.5806 L51.2761,16.4147 L51.1449,16.2407 L51.0138,16.0595 L50.8826,15.8719 L50.7515,15.6788 L50.6204,15.4812 L50.4892,15.2800 L50.3581,15.0762 L50.2269,14.8708 L50.0958,14.6649 L49.9647,14.4593 L49.8335,14.2552 L49.7024,14.0535 L49.5712,13.8552 L49.4401,13.6613 L49.3090,13.4726 L49.1778,13.2902 L49.0467,13.1149 L48.9155,12.9476 L48.7844,12.7890 L48.6533,12.6400 L48.5221,12.5013 L48.3910,12.3736 L48.2598,12.2574 L48.1287,12.1534 L47.9976,12.0620 L47.8664,11.9838 L47.7353,11.9190 L47.6041,11.8680 L47.4730,11.8311 L47.3418,11.8084 L47.2107,11.8000 L47.0796,11.8061 L46.9484,11.8264 L46.8173,11.8610 L46.6861,11.9097 L46.5550,11.9723 L46.4239,12.0484 L46.2927,12.1376 L46.1616,12.2396 L46.0304,12.3538 L45.8993,12.4797 L45.7682,12.6167 L45.6370,12.7640 L45.5059,12.9211 L45.3747,13.0870 L45.2436,13.2611 L45.1125,13.4424 L44.9813,13.6301 L44.8502,13.8232 L44.7190,14.0209 L44.5879,14.2221 L44.4567,14.4259 L44.3256,14.6313 L44.1945,14.8372 L44.0633,15.0427 L43.9322,15.2468 L43.8010,15.4485 L43.6699,15.6468 L43.5388,15.8407 L43.4076,16.0293 L43.2765,16.2116 L43.1453,16.3869 L43.0142,16.5541 L42.8831,16.7126 L42.7519,16.8614 L42.6208,17.0000 L42.4896,17.1277 L42.3585,17.2437 L42.2274,17.3476 L42.0962,17.4388 L41.9651,17.5169 L41.8339,17.5816 L41.7028,17.6324 L41.5716,17.6692 L41.4405,17.6917 L41.3094,17.7000 L41.1782,17.6938 L41.0471,17.6733 L40.9159,17.6385 L40.7848,17.5897 L40.6537,17.5270 L40.5225,17.4508 L40.3914,17.3614 L40.2602,17.2593 L40.1291,17.1450 L39.9980,17.0190 L39.8668,16.8819 L39.7357,16.7344 L39.6045,16.5773 L39.4734,16.4113 L39.3423,16.2371 L39.2111,16.0557 L39.0800,15.8680 L38.9488,15.6748 L38.8177,15.4771 L38.6866,15.2758 L38.5554,15.0720 L38.4243,14.8666 L38.2931,14.6607 L38.1620,14.4552 L38.0308,14.2511 L37.8997,14.0494 L37.7686,13.8512 L37.6374,13.6574 L37.5063,13.4688 L37.3751,13.2865 L37.2440,13.1114 L37.1129,12.9442 L36.9817,12.7859 L36.8506,12.6371 L36.7194,12.4986 L36.5883,12.3711 L36.4572,12.2552 L36.3260,12.1514 L36.1949,12.0603 L36.0637,11.9823 L35.9326,11.9178 L35.8015,11.8671 L35.6703,11.8305 L35.5392,11.8081 L35.4080,11.8000 L35.2769,11.8063 L35.1457,11.8270 L35.0146,11.8619 L34.8835,11.9109 L34.7523,11.9737 L34.6212,12.0500 L34.4900,12.1396 L34.3589,12.2418 L34.2278,12.3563 L34.0966,12.4824 L33.9655,12.6196 L33.8343,12.7671 L33.7032,12.9244 L33.5721,13.0905 L33.4409,13.2647 L33.3098,13.4462 L33.1786,13.6340 L33.0475,13.8272 L32.9164,14.0250 L32.7852,14.2262 L32.6541,14.4301 L32.5229,14.6355 L32.3918,14.8414 L32.2606,15.0469 L32.1295,15.2510 L31.9984,15.4526 L31.8672,15.6508 L31.7361,15.8446 L31.6049,16.0331 L31.4738,16.2153 L31.3427,16.3904 L31.2115,16.5574 L31.0804,16.7157 L30.9492,16.8644 L30.8181,17.0028 L30.6870,17.1302 L30.5558,17.2460 L30.4247,17.3496 L30.2935,17.4406 L30.1624,17.5184 L30.0313,17.5828 L29.9001,17.6333 L29.7690,17.6698 L29.6378,17.6921 L29.5067,17.7000 L29.3756,17.6935 L29.2444,17.6727 L29.1133,17.6377 L28.9821,17.5886 L28.8510,17.5256 L28.7198,17.4491 L28.5887,17.3595 L28.4576,17.2571 L28.3264,17.1425 L28.1953,17.0163 L28.0641,16.8790 L27.9330,16.7313 L27.8019,16.5740 L27.6707,16.4078 L27.5396,16.2335 L27.4084,16.0520 L27.2773,15.8641 L27.1462,15.6708 L27.0150,15.4730 L26.8839,15.2717 L26.7527,15.0678 L26.6216,14.8624 L26.4905,14.6565 L26.3593,14.4510 L26.2282,14.2469 L26.0970,14.0454 L25.9659,13.8472 L25.8347,13.6534 L25.7036,13.4650 L25.5725,13.2829 L25.4413,13.1079 L25.3102,12.9409 L25.1790,12.7827 L25.0479,12.6342 L24.9168,12.4959 L24.7856,12.3686 L24.6545,12.2529 L24.5233,12.1494 L24.3922,12.0586 L24.2611,11.9809 L24.1299,11.9167 L23.9988,11.8663 L23.8676,11.8299 L23.7365,11.8078 L23.6054,11.8000 L23.4742,11.8066 L23.3431,11.8276 L23.2119,11.8628 L23.0808,11.9120 L22.9496,11.9751 L22.8185,12.0517 L22.6874,12.1415 L22.5562,12.2440 L22.4251,12.3587 L22.2939,12.4851 L22.1628,12.6225 L22.0317,12.7702 L21.9005,12.9277 L21.7694,13.0940 L21.6382,13.2683 L21.5071,13.4499 L21.3760,13.6379 L21.2448,13.8312 L21.1137,14.0290 L20.9825,14.2304 L20.8514,14.4343 L20.7203,14.6397 L20.5891,14.8456 L20.4580,15.0511 L20.3268,15.2551 L20.1957,15.4567 L20.0645,15.6548 L19.9334,15.8485 L19.8023,16.0369 L19.6711,16.2189 L19.5400,16.3938 L19.4088,16.5607 L19.2777,16.7188 L19.1466,16.8673 L19.0154,17.0055 L18.8843,17.1326 L18.7531,17.2482 L18.6220,17.3516 L18.4909,17.4423 L18.3597,17.5198 L18.2286,17.5839 L18.0974,17.6342 L17.9663,17.6704 L17.8352,17.6924 L17.7040,17.7000 L17.5729,17.6932 L17.4417,17.6721 L17.3106,17.6368 L17.1795,17.5874 L17.0483,17.5242 L16.9172,17.4474 L16.7860,17.3575 L16.6549,17.2549 L16.5237,17.1401 L16.3926,17.0136 L16.2615,16.8761 L16.1303,16.7282 L15.9992,16.5707 L15.8680,16.4043 L15.7369,16.2299 L15.6058,16.0482 L15.4746,15.8602 L15.3435,15.6668 L15.2123,15.4689 L15.0812,15.2676 L14.9501,15.0637 L14.8189,14.8582 L14.6878,14.6523 L14.5566,14.4468 L14.4255,14.2428 L14.2944,14.0413 L14.1632,13.8432 L14.0321,13.6495 L13.9009,13.4613 L13.7698,13.2792 L13.6386,13.1044 L13.5075,12.9376 L13.3764,12.7796 L13.2452,12.6312 L13.1141,12.4932 L12.9829,12.3661 L12.8518,12.2507 L12.7207,12.1474 L12.5895,12.0569 L12.4584,11.9794 L12.3272,11.9155 L12.1961,11.8654 L12.0650,11.8293 L11.9338,11.8075 L11.8027,11.8000 L11.6715,11.8069 L11.5404,11.8281 L11.4093,11.8636 L11.2781,11.9132 L11.1470,11.9766 L11.0158,12.0534 L10.8847,12.1435 L10.7535,12.2462 L10.6224,12.3612 L10.4913,12.4878 L10.3601,12.6254 L10.2290,12.7734 L10.0978,12.9310 L9.9667,13.0974 L9.8356,13.2720 L9.7044,13.4537 L9.5733,13.6417 L9.4421,13.8352 L9.3110,14.0331 L9.1799,14.2345 L9.0487,14.4384 L8.9176,14.6439 L8.7864,14.8498 L8.6553,15.0553 L8.5242,15.2593 L8.3930,15.4608 L8.2619,15.6588 L8.1307,15.8524 L7.9996,16.0406 L7.8685,16.2226 L7.7373,16.3973 L7.6062,16.5641 L7.4750,16.7220 L7.3439,16.8702 L7.2127,17.0082 L7.0816,17.1351 L6.9505,17.2504 L6.8193,17.3536 L6.6882,17.4440 L6.5570,17.5213 L6.4259,17.5851 L6.2948,17.6351 L6.1636,17.6710 L6.0325,17.6927 L5.9013,17.7000 L5.7702,17.6930 L5.6391,17.6716 L5.5079,17.6359 L5.3768,17.5862 L5.2456,17.5227 L5.1145,17.4457 L4.9834,17.3555 L4.8522,17.2527 L4.7211,17.1376 L4.5899,17.0109 L4.4588,16.8732 L4.3276,16.7251 L4.1965,16.5674 L4.0654,16.4008 L3.9342,16.2262 L3.8031,16.0444 L3.6719,15.8563 L3.5408,15.6628 L3.4097,15.4648 L3.2785,15.2634 L3.1474,15.0595 L3.0162,14.8540 L2.8851,14.6481 L2.7540,14.4426 L2.6228,14.2387 L2.4917,14.0372 L2.3605,13.8392 L2.2294,13.6456 L2.0983,13.4575 L1.9671,13.2756 L1.8360,13.1009 L1.7048,12.9343 L1.5737,12.7765 L1.4425,12.6283 L1.3114,12.4905 L1.1803,12.3636 L1.0491,12.2485 L0.9180,12.1455 L0.7868,12.0552 L0.6557,11.9780 L0.5246,11.9143 L0.3934,11.8645 L0.2623,11.8287 L0.1311,11.8072 L0.0000,11.8000 L-0.0000,11.8000"></path>
	<path d="M11.8000,23.6000 L11.8000,26.6000 L23.6000,26.6000 L23.6000,23.6000 L11.8000,23.6000"></path>
	<path d="M35.4000,23.6000 L35.4000,26.6000 L47.2000,26.6000 L47.2000,23.6000 L35.4000,23.6000"></path>
	<path d="M59.0000,23.6000 L59.0000,26.6000 L70.8000,26.6000 L70.8000,23.6000 L59.0000,23.6000"></path>
	<path d="M82.6000,23.6000 L82.6000,26.6000 L94.4000,26.6000 L94.4000,23.6000 L82.6000,23.6000"></path>
	<path d="M106.2000,23.6000 L106.2000,26.6000 L118.0000,26.6000 L118.0000,23.6000 L106.2000,23.6000"></path>
	<path d="M129.8000,23.6000 L129.8000,26.6000 L141.6000,26.6000 L141.6000,23.6000 L129.8000,23.6000"></path>
	<path d="M153.4000,23.6000 L153.4000,26.6000 L165.2000,26.6000 L165.2000,23.6000 L153.4000,23.6000"></path>
	<path d="M177.0000,23.6000 L177.0000,26.6000 L188.8000,26.6000 L188.8000,23.6000 L177.0000,23.6000"></path>
	<path d="M200.6000,23.6000 L200.6000,26.6000 L212.4000,26.6000 L212.4000,23.6000 L200.6000,23.6000"></path>
	<path d="M224.2000,23.6000 L224.2000,26.6000 L236.0000,26.6000 L236.0000,23.6000 L224.2000,23.6000"></path>
	<path d="M247.8000,23.6000 L247.8000,26.6000 L259.6000,26.6000 L259.6000,23.6000 L247.8000,23.6000"></path>
	<path d="M271.4000,23.6000 L271.4000,26.6000 L283.2000,26.6000 L283.2000,23.6000 L271.4000,23.6000"></path>
	<path d="M295.0000,23.6000 L295.0000,26.6000 L306.8000,26.6000 L306.8000,23.6000 L295.0000,23.6000"></path>
	<path d="M318.6000,23.6000 L318.6000,26.6000 L330.4000,26.6000 L330.4000,23.6000 L318.6000,23.6000"></path>
	<path d="M342.2000,23.6000 L342.2000,26.6000 L354.0000,26.6000 L354.0000,23.6000 L342.2000,23.6000"></path>
	<path d="M365.8000,23.6000 L365.8000,26.6000 L377.6000,26.6000 L377.6000,23.6000 L365.8000,23.6000"></path>
	<path d="M389.4000,23.6000 L389.4000,26.6000 L401.2000,26.6000 L401.2000,23.6000 L389.4000,23.6000"></path>
	<path d="M413.0000,23.6000 L413.0000,26.6000 L424.8000,26.6000 L424.8000,23.6000 L413.0000,23.6000"></path>
	<path d="M436.6000,23.6000 L436.6000,26.6000 L448.4000,26.6000 L448.4000,23.6000 L436.6000,23.6000"></path>
	<path d="M460.2000,23.6000 L460.2000,26.6000 L472.0000,26.6000 L472.0000,23.6000 L460.2000,23.6000"></path>
	<path d="M483.8000,23.6000 L483.8000,26.6000 L495.6000,26.6000 L495.6000,23.6000 L483.8000,23.6000"></path>
	<path d="M507.4000,23.6000 L507.4000,26.6000 L519.2000,26.6000 L519.2000,23.6000 L507.4000,23.6000"></path>
	<path d="M531.0000,23.6000 L531.0000,26.6000 L542.8000,26.6000 L542.8000,23.6000 L531.0000,23.6000"></path>
	<path d="M554.6000,23.6000 L554.6000,26.6000 L566.4000,26.6000 L566.4000,23.6000 L554.6000,23.6000"></path>
</g>
</svg>