<?xml version="1.0" encoding="utf-8"?>
<svg xmlns="http://www.w3.org/2000/svg" width="135.7000mm" height="401.2000mm" viewBox="448.4000 159.3000 135.7000 401.2000">
<g>
	<path d="M448.4000,165.2000 L448.4000,554.6000 L448.4000,554.6000 L460.2000,554.6000 L460.2000,560.5000 L460.2000,560.5000 L472.0000,560.5000 L472.0000,554.6000 L472.0000,554.6000 L483.8000,554.6000 L483.8000,560.5000 L483.8000,560.5000 L495.6000,560.5000 L495.6000,554.6000 L495.6000,554.6000 L507.4000,554.6000 L507.4000,560.5000 L507.4000,560.5000 L519.2000,560.5000 L519.2000,554.6000 L519.2000,554.6000 L531.0000,554.6000 L531.0000,560.5000 L531.0000,560.5000 L542.8000,560.5000 L542.8000,554.6000 L542.8000,554.6000 L554.6000,554.6000 L554.6000,560.5000 L554.6000,560.5000 L566.4000,560.5000 L566.4000,554.6000 L566.4000,554.6000 L578.2000,554.6000 L578.2000,554.6000 L584.1000,554.6000 L584.1000,542.8000 L578.2000,542.8000 L578.2000,542.8000 L578.2000,531.0000 L584.1000,531.0000 L584.1000,531.0000 L584.1000,519.2000 L578.2000,519.2000 L578.2000,519.2000 L578.2000,507.4000 L584.1000,507.4000 L584.1000,507.4000 L584.1000,495.6000 L578.2000,495.6000 L578.2000,495.6000 L578.2000,483.8000 L584.1000,483.8000 L584.1000,483.8000 L584.1000,472.0000 L578.2000,472.0000 L578.2000,472.0000 L578.2000,460.2000 L584.1000,460.2000 L584.1000,460.2000 L584.1000,448.4000 L578.2000,448.4000 L578.2000,448.4000 L578.2000,436.6000 L584.1000,436.6000 L584.1000,436.6000 L584.1000,424.8000 L578.2000,424.8000 L578.2000,424.8000 L578.2000,413.0000 L584.1000,413.0000 L584.1000,413.0000 L584.1000,401.2000 L578.2000,401.2000 L578.2000,401.2000 L578.2000,389.4000 L584.1000,389.4000 L584.1000,389.4000 L584.1000,377.6000 L578.2000,377.6000 L578.2000,377.6000 L578.2000,365.8000 L584.1000,365.8000 L584.1000,365.8000 L584.1000,354.0000 L578.2000,354.0000 L578.2000,354.0000 L578.2000,342.2000 L584.1000,342.2000 L584.1000,342.2000 L584.1000,330.4000 L578.2000,330.4000 L578.2000,330.4000 L578.2000,318.6000 L584.1000,318.6000 L584.1000,318.6000 L584.1000,306.8000 L578.2000,306.8000 L578.2000,306.8000 L578.2000,295.0000 L584.1000,295.0000 L584.1000,295.0000 L584.1000,283.2000 L578.2000,283.2000 L578.2000,283.2000 L578.2000,271.4000 L584.1000,271.4000 L584.1000,271.4000 L584.1000,259.6000 L578.2000,259.6000 L578.2000,259.6000 L578.2000,247.8000 L584.1000,247.8000 L584.1000,247.8000 L584.1000,236.0000 L578.2000,236.0000 L578.2000,236.0000 L578.2000,224.2000 L584.1000,224.2000 L584.1000,224.2000 L584.1000,212.4000 L578.2000,212.4000 L578.2000,212.4000 L578.2000,200.6000 L584.1000,200.6000 L584.1000,200.6000 L584.1000,188.8000 L578.2000,188.8000 L578.2000,188.8000 L578.2000,177.0000 L584.1000,177.0000 L584.1000,177.0000 L584.1000,165.2000 L578.2000,165.2000 L578.2000,165.2000 L566.4000,165.2000 L566.4000,159.3000 L566.4000,159.3000 L554.6000,159.3000 L554.6000,165.2000 L554.6000,165.2000 L542.8000,165.2000 L542.8000,159.3000 L542.8000,159.3000 L531.0000,159.3000 L531.0000,165.2000 L531.0000,165.2000 L519.2000,165.2000 L519.2000,159.3000 L519.2000,159.3000 L507.4000,159.3000 L507.4000,165.2000 L507.4000,165.2000 L495.6000,165.2000 L495.6000,159.3000 L495.6000,159.3000 L483.8000,159.3000 L483.8000,165.2000 L483.8000,165.2000 L472.0000,165.2000 L472.0000,159.3000 L472.0000,159.3000 L460.2000,159.3000 L460.2000,165.2000 L460.2000,165.2000 L448.4000,165.2000"></path>
</g>
</svg>