<?xml version="1.0" encoding="utf-8"?>
<svg xmlns="http://www.w3.org/2000/svg" width="251.0000mm" height="315.2752mm" viewBox="256.5500 -341.8239 251.0000 315.2752">
<g>
	<path d="M256.5500,-32.4487 L256.5500,-26.5487 L273.2833,-26.5487 L273.2833,-32.4487 L273.2833,-32.4487 L290.0167,-32.4487 L290.0167,-26.5487 L290.0167,-26.5487 L306.7500,-26.5487 L306.7500,-32.4487 L306.7500,-32.4487 L323.4833,-32.4487 L323.4833,-26.5487 L323.4833,-26.5487 L340.2167,-26.5487 L340.2167,-32.4487 L340.2167,-32.4487 L356.9500,-32.4487 L356.9500,-26.5487 L356.9500,-26.5487 L373.6833,-26.5487 L373.6833,-32.4487 L373.6833,-32.4487 L390.4167,-32.4487 L390.4167,-26.5487 L390.4167,-26.5487 L407.1500,-26.5487 L407.1500,-32.4487 L407.1500,-32.4487 L423.8833,-32.4487 L423.8833,-26.5487 L423.8833,-26.5487 L440.6167,-26.5487 L440.6167,-32.4487 L440.6167,-32.4487 L457.3500,-32.4487 L457.3500,-26.5487 L457.3500,-26.5487 L474.0833,-26.5487 L474.0833,-32.4487 L474.0833,-32.4487 L490.8167,-32.4487 L490.8167,-26.5487 L490.8167,-26.5487 L507.5500,-26.5487 L507.5500,-32.4487 L507.5500,-32.4487 L507.5500,-335.9239 L507.5500,-335.9239 L507.5500,-341.8239 L490.8167,-341.8239 L490.8167,-335.9239 L490.8167,-335.9239 L474.0833,-335.9239 L474.0833,-341.8239 L474.0833,-341.8239 L457.3500,-341.8239 L457.3500,-335.9239 L457.3500,-335.9239 L440.6167,-335.9239 L440.6167,-341.8239 L440.6167,-341.8239 L423.8833,-341.8239 L423.8833,-335.9239 L423.8833,-335.9239 L407.1500,-335.9239 L407.1500,-341.8239 L407.1500,-341.8239 L390.4167,-341.8239 L390.4167,-335.9239 L390.4167,-335.9239 L373.6833,-335.9239 L373.6833,-341.8239 L373.6833,-341.8239 L356.9500,-341.8239 L356.9500,-335.9239 L356.9500,-335.9239 L340.2167,-335.9239 L340.2167,-341.8239 L340.2167,-341.8239 L323.4833,-341.8239 L323.4833,-335.9239 L323.4833,-335.9239 L306.7500,-335.9239 L306.7500,-341.8239 L306.7500,-341.8239 L290.0167,-341.8239 L290.0167,-335.9239 L290.0167,-335.9239 L273.2833,-335.9239 L273.2833,-341.8239 L273.2833,-341.8239 L256.5500,-341.8239 L256.5500,-335.9239 L256.5500,-32.4487"></path>
	<path d="M256.5500,-222.8726 L256.5500,-219.8726 L507.5500,-219.8726 L507.5500,-222.8726 L256.5500,-222.8726"></path>
	<path d="M256.5500,-176.9106 L256.5500,-173.9106 L507.5500,-173.9106 L507.5500,-176.9106 L256.5500,-176.9106"></path>
	<path d="M256.5500,-79.9106 L256.5500,-76.9106 L507.5500,-76.9106 L507.5500,-79.9106 L256.5500,-79.9106"></path>
	<path d="M278.0250,-155.4106 L277.9990,-155.4104 L277.9729,-155.4097 L277.9469,-155.4086 L277.9210,-155.4070 L277.8950,-155.4049 L277.8691,-155.4024 L277.8432,-155.3994 L277.8174,-155.3960 L277.7917,-155.3921 L277.7660,-155.3877 L277.7404,-155.3829 L277.7149,-155.3777 L277.6895,-155.3720 L277.6642,-155.3658 L277.6391,-155.3593 L277.6140,-155.3522 L277.5891,-155.3447 L277.5643,-155.3368 L277.5396,-155.3285 L277.5151,-155.3197 L277.4907,-155.3105 L277.4666,-155.3008 L277.4426,-155.2908 L277.4187,-155.2803 L277.3951,-155.2694 L277.3717,-155.2580 L277.3484,-155.2463 L277.3254,-155.2342 L277.3026,-155.2216 L277.2800,-155.2087 L277.2576,-155.1953 L277.2355,-155.1816 L277.2137,-155.1675 L277.1921,-155.1529 L277.1707,-155.1381 L277.1496,-155.1228 L277.1288,-155.1072 L277.1083,-155.0912 L277.0880,-155.0748 L277.0681,-155.0581 L277.0484,-155.0410 L277.0290,-155.0236 L277.0100,-155.0059 L276.9913,-154.9878 L276.9729,-154.9694 L276.9548,-154.9507 L276.9370,-154.9316 L276.9196,-154.9122 L276.9026,-154.8926 L276.8858,-154.8726 L276.8695,-154.8524 L276.8535,-154.8318 L276.8379,-154.8110 L276.8226,-154.7899 L276.8077,-154.7686 L276.7932,-154.7470 L276.7791,-154.7251 L276.7653,-154.7030 L276.7520,-154.6806 L276.7390,-154.6581 L276.7265,-154.6353 L276.7143,-154.6122 L276.7026,-154.5890 L276.6913,-154.5656 L276.6804,-154.5419 L276.6699,-154.5181 L276.6598,-154.4941 L276.6502,-154.4699 L276.6409,-154.4456 L276.6322,-154.4210 L276.6238,-154.3964 L276.6159,-154.3716 L276.6084,-154.3467 L276.6014,-154.3216 L276.5948,-154.2964 L276.5887,-154.2711 L276.5830,-154.2457 L276.5777,-154.2202 L276.5729,-154.1946 L276.5686,-154.1690 L276.5647,-154.1432 L276.5612,-154.1174 L276.5583,-154.0915 L276.5557,-154.0656 L276.5537,-154.0397 L276.5521,-154.0137 L276.5509,-153.9877 L276.5502,-153.9617 L276.5500,-153.9356 L276.5500,-99.8856 L276.5502,-99.8596 L276.5509,-99.8336 L276.5521,-99.8076 L276.5537,-99.7816 L276.5557,-99.7556 L276.5583,-99.7297 L276.5612,-99.7039 L276.5647,-99.6781 L276.5686,-99.6523 L276.5729,-99.6267 L276.5777,-99.6011 L276.5830,-99.5756 L276.5887,-99.5502 L276.5948,-99.5249 L276.6014,-99.4997 L276.6084,-99.4746 L276.6159,-99.4497 L276.6238,-99.4249 L276.6322,-99.4002 L276.6409,-99.3757 L276.6502,-99.3514 L276.6598,-99.3272 L276.6699,-99.3032 L276.6804,-99.2794 L276.6913,-99.2557 L276.7026,-99.2323 L276.7143,-99.2091 L276.7265,-99.1860 L276.7390,-99.1632 L276.7520,-99.1406 L276.7653,-99.1183 L276.7791,-99.0962 L276.7932,-99.0743 L276.8077,-99.0527 L276.8226,-99.0313 L276.8379,-99.0103 L276.8535,-98.9894 L276.8695,-98.9689 L276.8858,-98.9487 L276.9026,-98.9287 L276.9196,-98.9090 L276.9370,-98.8897 L276.9548,-98.8706 L276.9729,-98.8519 L276.9913,-98.8335 L277.0100,-98.8154 L277.0290,-98.7977 L277.0484,-98.7803 L277.0681,-98.7632 L277.0880,-98.7465 L277.1083,-98.7301 L277.1288,-98.7141 L277.1496,-98.6985 L277.1707,-98.6832 L277.1921,-98.6683 L277.2137,-98.6538 L277.2355,-98.6397 L277.2576,-98.6260 L277.2800,-98.6126 L277.3026,-98.5997 L277.3254,-98.5871 L277.3484,-98.5750 L277.3717,-98.5632 L277.3951,-98.5519 L277.4187,-98.5410 L277.4426,-98.5305 L277.4666,-98.5204 L277.4907,-98.5108 L277.5151,-98.5016 L277.5396,-98.4928 L277.5643,-98.4845 L277.5891,-98.4765 L277.6140,-98.4691 L277.6391,-98.4620 L277.6642,-98.4554 L277.6895,-98.4493 L277.7149,-98.4436 L277.7404,-98.4384 L277.7660,-98.4336 L277.7917,-98.4292 L277.8174,-98.4253 L277.8432,-98.4219 L277.8691,-98.4189 L277.8950,-98.4164 L277.9210,-98.4143 L277.9469,-98.4127 L277.9729,-98.4116 L277.9990,-98.4109 L278.0250,-98.4106 L332.0750,-98.4106 L332.1010,-98.4109 L332.1271,-98.4116 L332.1531,-98.4127 L332.1790,-98.4143 L332.2050,-98.4164 L332.2309,-98.4189 L332.2568,-98.4219 L332.2826,-98.4253 L332.3083,-98.4292 L332.3340,-98.4336 L332.3596,-98.4384 L332.3851,-98.4436 L332.4105,-98.4493 L332.4358,-98.4554 L332.4609,-98.4620 L332.4860,-98.4691 L332.5109,-98.4765 L332.5357,-98.4845 L332.5604,-98.4928 L332.5849,-98.5016 L332.6093,-98.5108 L332.6334,-98.5204 L332.6574,-98.5305 L332.6813,-98.5410 L332.7049,-98.5519 L332.7283,-98.5632 L332.7516,-98.5750 L332.7746,-98.5871 L332.7974,-98.5997 L332.8200,-98.6126 L332.8424,-98.6260 L332.8645,-98.6397 L332.8863,-98.6538 L332.9079,-98.6683 L332.9293,-98.6832 L332.9504,-98.6985 L332.9712,-98.7141 L332.9917,-98.7301 L333.0120,-98.7465 L333.0319,-98.7632 L333.0516,-98.7803 L333.0710,-98.7977 L333.0900,-98.8154 L333.1087,-98.8335 L333.1271,-98.8519 L333.1452,-98.8706 L333.1630,-98.8897 L333.1804,-98.9090 L333.1974,-98.9287 L333.2142,-98.9487 L333.2305,-98.9689 L333.2465,-98.9894 L333.2621,-99.0103 L333.2774,-99.0313 L333.2923,-99.0527 L333.3068,-99.0743 L333.3209,-99.0962 L333.3347,-99.1183 L333.3480,-99.1406 L333.3610,-99.1632 L333.3735,-99.1860 L333.3857,-99.2091 L333.3974,-99.2323 L333.4087,-99.2557 L333.4196,-99.2794 L333.4301,-99.3032 L333.4402,-99.3272 L333.4498,-99.3514 L333.4591,-99.3757 L333.4678,-99.4002 L333.4762,-99.4249 L333.4841,-99.4497 L333.4916,-99.4746 L333.4986,-99.4997 L333.5052,-99.5249 L333.5113,-99.5502 L333.5170,-99.5756 L333.5223,-99.6011 L333.5271,-99.6267 L333.5314,-99.6523 L333.5353,-99.6781 L333.5388,-99.7039 L333.5417,-99.7297 L333.5443,-99.7556 L333.5463,-99.7816 L333.5479,-99.8076 L333.5491,-99.8336 L333.5498,-99.8596 L333.5500,-99.8856 L333.5500,-153.9356 L333.5498,-153.9617 L333.5491,-153.9877 L333.5479,-154.0137 L333.5463,-154.0397 L333.5443,-154.0656 L333.5417,-154.0915 L333.5388,-154.1174 L333.5353,-154.1432 L333.5314,-154.1690 L333.5271,-154.1946 L333.5223,-154.2202 L333.5170,-154.2457 L333.5113,-154.2711 L333.5052,-154.2964 L333.4986,-154.3216 L333.4916,-154.3467 L333.4841,-154.3716 L333.4762,-154.3964 L333.4678,-154.4210 L333.4591,-154.4456 L333.4498,-154.4699 L333.4402,-154.4941 L333.4301,-154.5181 L333.4196,-154.5419 L333.4087,-154.5656 L333.3974,-154.5890 L333.3857,-154.6122 L333.3735,-154.6353 L333.3610,-154.6581 L333.3480,-154.6806 L333.3347,-154.7030 L333.3209,-154.7251 L333.3068,-154.7470 L333.2923,-154.7686 L333.2774,-154.7899 L333.2621,-154.8110 L333.2465,-154.8318 L333.2305,-154.8524 L333.2142,-154.8726 L333.1974,-154.8926 L333.1804,-154.9122 L333.1630,-154.9316 L333.1452,-154.9507 L333.1271,-154.9694 L333.1087,-154.9878 L333.0900,-155.0059 L333.0710,-155.0236 L333.0516,-155.0410 L333.0319,-155.0581 L333.0120,-155.0748 L332.9917,-155.0912 L332.9712,-155.1072 L332.9504,-155.1228 L332.9293,-155.1381 L332.9079,-155.1529 L332.8863,-155.1675 L332.8645,-155.1816 L332.8424,-155.1953 L332.8200,-155.2087 L332.7974,-155.2216 L332.7746,-155.2342 L332.7516,-155.2463 L332.7283,-155.2580 L332.7049,-155.2694 L332.6813,-155.2803 L332.6574,-155.2908 L332.6334,-155.3008 L332.6093,-155.3105 L332.5849,-155.3197 L332.5604,-155.3285 L332.5357,-155.3368 L332.5109,-155.3447 L332.4860,-155.3522 L332.4609,-155.3593 L332.4358,-155.3658 L332.4105,-155.3720 L332.3851,-155.3777 L332.3596,-155.3829 L332.3340,-155.3877 L332.3083,-155.3921 L332.2826,-155.3960 L332.2568,-155.3994 L332.2309,-155.4024 L332.2050,-155.4049 L332.1790,-155.4070 L332.1531,-155.4086 L332.1271,-155.4097 L332.1010,-155.4104 L332.0750,-155.4106 L278.0250,-155.4106"></path>
	<path d="M355.0250,-155.4106 L354.9990,-155.4104 L354.9729,-155.4097 L354.9469,-155.4086 L354.9210,-155.4070 L354.8950,-155.4049 L354.8691,-155.4024 L354.8432,-155.3994 L354.8174,-155.3960 L354.7917,-155.3921 L354.7660,-155.3877 L354.7404,-155.3829 L354.7149,-155.3777 L354.6895,-155.3720 L354.6642,-155.3658 L354.6391,-155.3593 L354.6140,-155.3522 L354.5891,-155.3447 L354.5643,-155.3368 L354.5396,-155.3285 L354.5151,-155.3197 L354.4907,-155.3105 L354.4666,-155.3008 L354.4426,-155.2908 L354.4187,-155.2803 L354.3951,-155.2694 L354.3717,-155.2580 L354.3484,-155.2463 L354.3254,-155.2342 L354.3026,-155.2216 L354.2800,-155.2087 L354.2576,-155.1953 L354.2355,-155.1816 L354.2137,-155.1675 L354.1921,-155.1529 L354.1707,-155.1381 L354.1496,-155.1228 L354.1288,-155.1072 L354.1083,-155.0912 L354.0880,-155.0748 L354.0681,-155.0581 L354.0484,-155.0410 L354.0290,-155.0236 L354.0100,-155.0059 L353.9913,-154.9878 L353.9729,-154.9694 L353.9548,-154.9507 L353.9370,-154.9316 L353.9196,-154.9122 L353.9026,-154.8926 L353.8858,-154.8726 L353.8695,-154.8524 L353.8535,-154.8318 L353.8379,-154.8110 L353.8226,-154.7899 L353.8077,-154.7686 L353.7932,-154.7470 L353.7791,-154.7251 L353.7653,-154.7030 L353.7520,-154.6806 L353.7390,-154.6581 L353.7265,-154.6353 L353.7143,-154.6122 L353.7026,-154.5890 L353.6913,-154.5656 L353.6804,-154.5419 L353.6699,-154.5181 L353.6598,-154.4941 L353.6502,-154.4699 L353.6409,-154.4456 L353.6322,-154.4210 L353.6238,-154.3964 L353.6159,-154.3716 L353.6084,-154.3467 L353.6014,-154.3216 L353.5948,-154.2964 L353.5887,-154.2711 L353.5830,-154.2457 L353.5777,-154.2202 L353.5729,-154.1946 L353.5686,-154.1690 L353.5647,-154.1432 L353.5612,-154.1174 L353.5583,-154.0915 L353.5557,-154.0656 L353.5537,-154.0397 L353.5521,-154.0137 L353.5509,-153.9877 L353.5502,-153.9617 L353.5500,-153.9356 L353.5500,-99.8856 L353.5502,-99.8596 L353.5509,-99.8336 L353.5521,-99.8076 L353.5537,-99.7816 L353.5557,-99.7556 L353.5583,-99.7297 L353.5612,-99.7039 L353.5647,-99.6781 L353.5686,-99.6523 L353.5729,-99.6267 L353.5777,-99.6011 L353.5830,-99.5756 L353.5887,-99.5502 L353.5948,-99.5249 L353.6014,-99.4997 L353.6084,-99.4746 L353.6159,-99.4497 L353.6238,-99.4249 L353.6322,-99.4002 L353.6409,-99.3757 L353.6502,-99.3514 L353.6598,-99.3272 L353.6699,-99.3032 L353.6804,-99.2794 L353.6913,-99.2557 L353.7026,-99.2323 L353.7143,-99.2091 L353.7265,-99.1860 L353.7390,-99.1632 L353.7520,-99.1406 L353.7653,-99.1183 L353.7791,-99.0962 L353.7932,-99.0743 L353.8077,-99.0527 L353.8226,-99.0313 L353.8379,-99.0103 L353.8535,-98.9894 L353.8695,-98.9689 L353.8858,-98.9487 L353.9026,-98.9287 L353.9196,-98.9090 L353.9370,-98.8897 L353.9548,-98.8706 L353.9729,-98.8519 L353.9913,-98.8335 L354.0100,-98.8154 L354.0290,-98.7977 L354.0484,-98.7803 L354.0681,-98.7632 L354.0880,-98.7465 L354.1083,-98.7301 L354.1288,-98.7141 L354.1496,-98.6985 L354.1707,-98.6832 L354.1921,-98.6683 L354.2137,-98.6538 L354.2355,-98.6397 L354.2576,-98.6260 L354.2800,-98.6126 L354.3026,-98.5997 L354.3254,-98.5871 L354.3484,-98.5750 L354.3717,-98.5632 L354.3951,-98.5519 L354.4187,-98.5410 L354.4426,-98.5305 L354.4666,-98.5204 L354.4907,-98.5108 L354.5151,-98.5016 L354.5396,-98.4928 L354.5643,-98.4845 L354.5891,-98.4765 L354.6140,-98.4691 L354.6391,-98.4620 L354.6642,-98.4554 L354.6895,-98.4493 L354.7149,-98.4436 L354.7404,-98.4384 L354.7660,-98.4336 L354.7917,-98.4292 L354.8174,-98.4253 L354.8432,-98.4219 L354.8691,-98.4189 L354.8950,-98.4164 L354.9210,-98.4143 L354.9469,-98.4127 L354.9729,-98.4116 L354.9990,-98.4109 L355.0250,-98.4106 L409.0750,-98.4106 L409.1010,-98.4109 L409.1271,-98.4116 L409.1531,-98.4127 L409.1790,-98.4143 L409.2050,-98.4164 L409.2309,-98.4189 L409.2568,-98.4219 L409.2826,-98.4253 L409.3083,-98.4292 L409.3340,-98.4336 L409.3596,-98.4384 L409.3851,-98.4436 L409.4105,-98.4493 L409.4358,-98.4554 L409.4609,-98.4620 L409.4860,-98.4691 L409.5109,-98.4765 L409.5357,-98.4845 L409.5604,-98.4928 L409.5849,-98.5016 L409.6093,-98.5108 L409.6334,-98.5204 L409.6574,-98.5305 L409.6813,-98.5410 L409.7049,-98.5519 L409.7283,-98.5632 L409.7516,-98.5750 L409.7746,-98.5871 L409.7974,-98.5997 L409.8200,-98.6126 L409.8424,-98.6260 L409.8645,-98.6397 L409.8863,-98.6538 L409.9079,-98.6683 L409.9293,-98.6832 L409.9504,-98.6985 L409.9712,-98.7141 L409.9917,-98.7301 L410.0120,-98.7465 L410.0319,-98.7632 L410.0516,-98.7803 L410.0710,-98.7977 L410.0900,-98.8154 L410.1087,-98.8335 L410.1271,-98.8519 L410.1452,-98.8706 L410.1630,-98.8897 L410.1804,-98.9090 L410.1974,-98.9287 L410.2142,-98.9487 L410.2305,-98.9689 L410.2465,-98.9894 L410.2621,-99.0103 L410.2774,-99.0313 L410.2923,-99.0527 L410.3068,-99.0743 L410.3209,-99.0962 L410.3347,-99.1183 L410.3480,-99.1406 L410.3610,-99.1632 L410.3735,-99.1860 L410.3857,-99.2091 L410.3974,-99.2323 L410.4087,-99.2557 L410.4196,-99.2794 L410.4301,-99.3032 L410.4402,-99.3272 L410.4498,-99.3514 L410.4591,-99.3757 L410.4678,-99.4002 L410.4762,-99.4249 L410.4841,-99.4497 L410.4916,-99.4746 L410.4986,-99.4997 L410.5052,-99.5249 L410.5113,-99.5502 L410.5170,-99.5756 L410.5223,-99.6011 L410.5271,-99.6267 L410.5314,-99.6523 L410.5353,-99.6781 L410.5388,-99.7039 L410.5417,-99.7297 L410.5443,-99.7556 L410.5463,-99.7816 L410.5479,-99.8076 L410.5491,-99.8336 L410.5498,-99.8596 L410.5500,-99.8856 L410.5500,-153.9356 L410.5498,-153.9617 L410.5491,-153.9877 L410.5479,-154.0137 L410.5463,-154.0397 L410.5443,-154.0656 L410.5417,-154.0915 L410.5388,-154.1174 L410.5353,-154.1432 L410.5314,-154.1690 L410.5271,-154.1946 L410.5223,-154.2202 L410.5170,-154.2457 L410.5113,-154.2711 L410.5052,-154.2964 L410.4986,-154.3216 L410.4916,-154.3467 L410.4841,-154.3716 L410.4762,-154.3964 L410.4678,-154.4210 L410.4591,-154.4456 L410.4498,-154.4699 L410.4402,-154.4941 L410.4301,-154.5181 L410.4196,-154.5419 L410.4087,-154.5656 L410.3974,-154.5890 L410.3857,-154.6122 L410.3735,-154.6353 L410.3610,-154.6581 L410.3480,-154.6806 L410.3347,-154.7030 L410.3209,-154.7251 L410.3068,-154.7470 L410.2923,-154.7686 L410.2774,-154.7899 L410.2621,-154.8110 L410.2465,-154.8318 L410.2305,-154.8524 L410.2142,-154.8726 L410.1974,-154.8926 L410.1804,-154.9122 L410.1630,-154.9316 L410.1452,-154.9507 L410.1271,-154.9694 L410.1087,-154.9878 L410.0900,-155.0059 L410.0710,-155.0236 L410.0516,-155.0410 L410.0319,-155.0581 L410.0120,-155.0748 L409.9917,-155.0912 L409.9712,-155.1072 L409.9504,-155.1228 L409.9293,-155.1381 L409.9079,-155.1529 L409.8863,-155.1675 L409.8645,-155.1816 L409.8424,-155.1953 L409.8200,-155.2087 L409.7974,-155.2216 L409.7746,-155.2342 L409.7516,-155.2463 L409.7283,-155.2580 L409.7049,-155.2694 L409.6813,-155.2803 L409.6574,-155.2908 L409.6334,-155.3008 L409.6093,-155.3105 L409.5849,-155.3197 L409.5604,-155.3285 L409.5357,-155.3368 L409.5109,-155.3447 L409.4860,-155.3522 L409.4609,-155.3593 L409.4358,-155.3658 L409.4105,-155.3720 L409.3851,-155.3777 L409.3596,-155.3829 L409.3340,-155.3877 L409.3083,-155.3921 L409.2826,-155.3960 L409.2568,-155.3994 L409.2309,-155.4024 L409.2050,-155.4049 L409.1790,-155.4070 L409.1531,-155.4086 L409.1271,-155.4097 L409.1010,-155.4104 L409.0750,-155.4106 L355.0250,-155.4106"></path>
	<path d="M432.0250,-155.4106 L431.9990,-155.4104 L431.9729,-155.4097 L431.9469,-155.4086 L431.9210,-155.4070 L431.8950,-155.4049 L431.8691,-155.4024 L431.8432,-155.3994 L431.8174,-155.3960 L431.7917,-155.3921 L431.7660,-155.3877 L431.7404,-155.3829 L431.7149,-155.3777 L431.6895,-155.3720 L431.6642,-155.3658 L431.6391,-155.3593 L431.6140,-155.3522 L431.5891,-155.3447 L431.5643,-155.3368 L431.5396,-155.3285 L431.5151,-155.3197 L431.4907,-155.3105 L431.4666,-155.3008 L431.4426,-155.2908 L431.4187,-155.2803 L431.3951,-155.2694 L431.3717,-155.2580 L431.3484,-155.2463 L431.3254,-155.2342 L431.3026,-155.2216 L431.2800,-155.2087 L431.2576,-155.1953 L431.2355,-155.1816 L431.2137,-155.1675 L431.1921,-155.1529 L431.1707,-155.1381 L431.1496,-155.1228 L431.1288,-155.1072 L431.1083,-155.0912 L431.0880,-155.0748 L431.0681,-155.0581 L431.0484,-155.0410 L431.0290,-155.0236 L431.0100,-155.0059 L430.9913,-154.9878 L430.9729,-154.9694 L430.9548,-154.9507 L430.9370,-154.9316 L430.9196,-154.9122 L430.9026,-154.8926 L430.8858,-154.8726 L430.8695,-154.8524 L430.8535,-154.8318 L430.8379,-154.8110 L430.8226,-154.7899 L430.8077,-154.7686 L430.7932,-154.7470 L430.7791,-154.7251 L430.7653,-154.7030 L430.7520,-154.6806 L430.7390,-154.6581 L430.7265,-154.6353 L430.7143,-154.6122 L430.7026,-154.5890 L430.6913,-154.5656 L430.6804,-154.5419 L430.6699,-154.5181 L430.6598,-154.4941 L430.6502,-154.4699 L430.6409,-154.4456 L430.6322,-154.4210 L430.6238,-154.3964 L430.6159,-154.3716 L430.6084,-154.3467 L430.6014,-154.3216 L430.5948,-154.2964 L430.5887,-154.2711 L430.5830,-154.2457 L430.5777,-154.2202 L430.5729,-154.1946 L430.5686,-154.1690 L430.5647,-154.1432 L430.5612,-154.1174 L430.5583,-154.0915 L430.5557,-154.0656 L430.5537,-154.0397 L430.5521,-154.0137 L430.5509,-153.9877 L430.5502,-153.9617 L430.5500,-153.9356 L430.5500,-99.8856 L430.5502,-99.8596 L430.5509,-99.8336 L430.5521,-99.8076 L430.5537,-99.7816 L430.5557,-99.7556 L430.5583,-99.7297 L430.5612,-99.7039 L430.5647,-99.6781 L430.5686,-99.6523 L430.5729,-99.6267 L430.5777,-99.6011 L430.5830,-99.5756 L430.5887,-99.5502 L430.5948,-99.5249 L430.6014,-99.4997 L430.6084,-99.4746 L430.6159,-99.4497 L430.6238,-99.4249 L430.6322,-99.4002 L430.6409,-99.3757 L430.6502,-99.3514 L430.6598,-99.3272 L430.6699,-99.3032 L430.6804,-99.2794 L430.6913,-99.2557 L430.7026,-99.2323 L430.7143,-99.2091 L430.7265,-99.1860 L430.7390,-99.1632 L430.7520,-99.1406 L430.7653,-99.1183 L430.7791,-99.0962 L430.7932,-99.0743 L430.8077,-99.0527 L430.8226,-99.0313 L430.8379,-99.0103 L430.8535,-98.9894 L430.8695,-98.9689 L430.8858,-98.9487 L430.9026,-98.9287 L430.9196,-98.9090 L430.9370,-98.8897 L430.9548,-98.8706 L430.9729,-98.8519 L430.9913,-98.8335 L431.0100,-98.8154 L431.0290,-98.7977 L431.0484,-98.7803 L431.0681,-98.7632 L431.0880,-98.7465 L431.1083,-98.7301 L431.1288,-98.7141 L431.1496,-98.6985 L431.1707,-98.6832 L431.1921,-98.6683 L431.2137,-98.6538 L431.2355,-98.6397 L431.2576,-98.6260 L431.2800,-98.6126 L431.3026,-98.5997 L431.3254,-98.5871 L431.3484,-98.5750 L431.3717,-98.5632 L431.3951,-98.5519 L431.4187,-98.5410 L431.4426,-98.5305 L431.4666,-98.5204 L431.4907,-98.5108 L431.5151,-98.5016 L431.5396,-98.4928 L431.5643,-98.4845 L431.5891,-98.4765 L431.6140,-98.4691 L431.6391,-98.4620 L431.6642,-98.4554 L431.6895,-98.4493 L431.7149,-98.4436 L431.7404,-98.4384 L431.7660,-98.4336 L431.7917,-98.4292 L431.8174,-98.4253 L431.8432,-98.4219 L431.8691,-98.4189 L431.8950,-98.4164 L431.9210,-98.4143 L431.9469,-98.4127 L431.9729,-98.4116 L431.9990,-98.4109 L432.0250,-98.4106 L486.0750,-98.4106 L486.1010,-98.4109 L486.1271,-98.4116 L486.1531,-98.4127 L486.1790,-98.4143 L486.2050,-98.4164 L486.2309,-98.4189 L486.2568,-98.4219 L486.2826,-98.4253 L486.3083,-98.4292 L486.3340,-98.4336 L486.3596,-98.4384 L486.3851,-98.4436 L486.4105,-98.4493 L486.4358,-98.4554 L486.4609,-98.4620 L486.4860,-98.4691 L486.5109,-98.4765 L486.5357,-98.4845 L486.5604,-98.4928 L486.5849,-98.5016 L486.6093,-98.5108 L486.6334,-98.5204 L486.6574,-98.5305 L486.6813,-98.5410 L486.7049,-98.5519 L486.7283,-98.5632 L486.7516,-98.5750 L486.7746,-98.5871 L486.7974,-98.5997 L486.8200,-98.6126 L486.8424,-98.6260 L486.8645,-98.6397 L486.8863,-98.6538 L486.9079,-98.6683 L486.9293,-98.6832 L486.9504,-98.6985 L486.9712,-98.7141 L486.9917,-98.7301 L487.0120,-98.7465 L487.0319,-98.7632 L487.0516,-98.7803 L487.0710,-98.7977 L487.0900,-98.8154 L487.1087,-98.8335 L487.1271,-98.8519 L487.1452,-98.8706 L487.1630,-98.8897 L487.1804,-98.9090 L487.1974,-98.9287 L487.2142,-98.9487 L487.2305,-98.9689 L487.2465,-98.9894 L487.2621,-99.0103 L487.2774,-99.0313 L487.2923,-99.0527 L487.3068,-99.0743 L487.3209,-99.0962 L487.3347,-99.1183 L487.3480,-99.1406 L487.3610,-99.1632 L487.3735,-99.1860 L487.3857,-99.2091 L487.3974,-99.2323 L487.4087,-99.2557 L487.4196,-99.2794 L487.4301,-99.3032 L487.4402,-99.3272 L487.4498,-99.3514 L487.4591,-99.3757 L487.4678,-99.4002 L487.4762,-99.4249 L487.4841,-99.4497 L487.4916,-99.4746 L487.4986,-99.4997 L487.5052,-99.5249 L487.5113,-99.5502 L487.5170,-99.5756 L487.5223,-99.6011 L487.5271,-99.6267 L487.5314,-99.6523 L487.5353,-99.6781 L487.5388,-99.7039 L487.5417,-99.7297 L487.5443,-99.7556 L487.5463,-99.7816 L487.5479,-99.8076 L487.5491,-99.8336 L487.5498,-99.8596 L487.5500,-99.8856 L487.5500,-153.9356 L487.5498,-153.9617 L487.5491,-153.9877 L487.5479,-154.0137 L487.5463,-154.0397 L487.5443,-154.0656 L487.5417,-154.0915 L487.5388,-154.1174 L487.5353,-154.1432 L487.5314,-154.1690 L487.5271,-154.1946 L487.5223,-154.2202 L487.5170,-154.2457 L487.5113,-154.2711 L487.5052,-154.2964 L487.4986,-154.3216 L487.4916,-154.3467 L487.4841,-154.3716 L487.4762,-154.3964 L487.4678,-154.4210 L487.4591,-154.4456 L487.4498,-154.4699 L487.4402,-154.4941 L487.4301,-154.5181 L487.4196,-154.5419 L487.4087,-154.5656 L487.3974,-154.5890 L487.3857,-154.6122 L487.3735,-154.6353 L487.3610,-154.6581 L487.3480,-154.6806 L487.3347,-154.7030 L487.3209,-154.7251 L487.3068,-154.7470 L487.2923,-154.7686 L487.2774,-154.7899 L487.2621,-154.8110 L487.2465,-154.8318 L487.2305,-154.8524 L487.2142,-154.8726 L487.1974,-154.8926 L487.1804,-154.9122 L487.1630,-154.9316 L487.1452,-154.9507 L487.1271,-154.9694 L487.1087,-154.9878 L487.0900,-155.0059 L487.0710,-155.0236 L487.0516,-155.0410 L487.0319,-155.0581 L487.0120,-155.0748 L486.9917,-155.0912 L486.9712,-155.1072 L486.9504,-155.1228 L486.9293,-155.1381 L486.9079,-155.1529 L486.8863,-155.1675 L486.8645,-155.1816 L486.8424,-155.1953 L486.8200,-155.2087 L486.7974,-155.2216 L486.7746,-155.2342 L486.7516,-155.2463 L486.7283,-155.2580 L486.7049,-155.2694 L486.6813,-155.2803 L486.6574,-155.2908 L486.6334,-155.3008 L486.6093,-155.3105 L486.5849,-155.3197 L486.5604,-155.3285 L486.5357,-155.3368 L486.5109,-155.3447 L486.4860,-155.3522 L486.4609,-155.3593 L486.4358,-155.3658 L486.4105,-155.3720 L486.3851,-155.3777 L486.3596,-155.3829 L486.3340,-155.3877 L486.3083,-155.3921 L486.2826,-155.3960 L486.2568,-155.3994 L486.2309,-155.4024 L486.2050,-155.4049 L486.1790,-155.4070 L486.1531,-155.4086 L486.1271,-155.4097 L486.1010,-155.4104 L486.0750,-155.4106 L432.0250,-155.4106"></path>
</g>
</svg>