<?xml version="1.0" encoding="utf-8"?>
<svg xmlns="http://www.w3.org/2000/svg" width="590.0000mm" height="401.2000mm" viewBox="-5.9000 -590.0000 590.0000 401.2000">
<g>
	<path d="M-5.9000,-188.8000 L0.0000,-188.8000 L11.8000,-188.8000 L11.8000,-194.7000 L11.8000,-194.7000 L23.6000,-194.7000 L23.6000,-188.8000 L23.6000,-188.8000 L35.4000,-188.8000 L35.4000,-194.7000 L35.4000,-194.7000 L47.2000,-194.7000 L47.2000,-188.8000 L47.2000,-188.8000 L59.0000,-188.8000 L59.0000,-194.7000 L59.0000,-194.7000 L70.8000,-194.7000 L70.8000,-188.8000 L70.8000,-188.8000 L82.6000,-188.8000 L82.6000,-194.7000 L82.6000,-194.7000 L94.4000,-194.7000 L94.4000,-188.8000 L94.4000,-188.8000 L106.2000,-188.8000 L106.2000,-194.7000 L106.2000,-194.7000 L118.0000,-194.7000 L118.0000,-188.8000 L118.0000,-188.8000 L129.8000,-188.8000 L129.8000,-194.7000 L129.8000,-194.7000 L141.6000,-194.7000 L141.6000,-188.8000 L141.6000,-188.8000 L153.4000,-188.8000 L153.4000,-194.7000 L153.4000,-194.7000 L165.2000,-194.7000 L165.2000,-188.8000 L165.2000,-188.8000 L177.0000,-188.8000 L177.0000,-194.7000 L177.0000,-194.7000 L188.8000,-194.7000 L188.8000,-188.8000 L188.8000,-188.8000 L200.6000,-188.8000 L200.6000,-194.7000 L200.6000,-194.7000 L212.4000,-194.7000 L212.4000,-188.8000 L212.4000,-188.8000 L224.2000,-188.8000 L224.2000,-194.7000 L224.2000,-194.7000 L236.0000,-194.7000 L236.0000,-188.8000 L236.0000,-188.8000 L247.8000,-188.8000 L247.8000,-194.7000 L247.8000,-194.7000 L259.6000,-194.7000 L259.6000,-188.8000 L259.6000,-188.8000 L271.4000,-188.8000 L271.4000,-194.7000 L271.4000,-194.7000 L283.2000,-194.7000 L283.2000,-188.8000 L283.2000,-188.8000 L295.0000,-188.8000 L295.0000,-194.7000 L295.0000,-194.7000 L306.8000,-194.7000 L306.8000,-188.8000 L306.8000,-188.8000 L318.6000,-188.8000 L318.6000,-194.7000 L318.6000,-194.7000 L330.4000,-194.7000 L330.4000,-188.8000 L330.4000,-188.8000 L342.2000,-188.8000 L342.2000,-194.7000 L342.2000,-194.7000 L354.0000,-194.7000 L354.0000,-188.8000 L354.0000,-188.8000 L365.8000,-188.8000 L365.8000,-194.7000 L365.8000,-194.7000 L377.6000,-194.7000 L377.6000,-188.8000 L377.6000,-188.8000 L389.4000,-188.8000 L389.4000,-194.7000 L389.4000,-194.7000 L401.2000,-194.7000 L401.2000,-188.8000 L401.2000,-188.8000 L413.0000,-188.8000 L413.0000,-194.7000 L413.0000,-194.7000 L424.8000,-194.7000 L424.8000,-188.8000 L424.8000,-188.8000 L436.6000,-188.8000 L436.6000,-194.7000 L436.6000,-194.7000 L448.4000,-194.7000 L448.4000,-188.8000 L448.4000,-188.8000 L460.2000,-188.8000 L460.2000,-194.7000 L460.2000,-194.7000 L472.0000,-194.7000 L472.0000,-188.8000 L472.0000,-188.8000 L483.8000,-188.8000 L483.8000,-194.7000 L483.8000,-194.7000 L495.6000,-194.7000 L495.6000,-188.8000 L495.6000,-188.8000 L507.4000,-188.8000 L507.4000,-194.7000 L507.4000,-194.7000 L519.2000,-194.7000 L519.2000,-188.8000 L519.2000,-188.8000 L531.0000,-188.8000 L531.0000,-194.7000 L531.0000,-194.7000 L542.8000,-194.7000 L542.8000,-188.8000 L542.8000,-188.8000 L554.6000,-188.8000 L554.6000,-194.7000 L554.6000,-194.7000 L566.4000,-194.7000 L566.4000,-188.8000 L566.4000,-188.8000 L578.2000,-188.8000 L584.1000,-188.8000 L584.1000,-188.8000 L584.1000,-194.7000 L584.1000,-206.5000 L578.2000,-206.5000 L578.2000,-206.5000 L578.2000,-218.3000 L584.1000,-218.3000 L584.1000,-218.3000 L584.1000,-230.1000 L578.2000,-230.1000 L578.2000,-230.1000 L578.2000,-241.9000 L584.1000,-241.9000 L584.1000,-241.9000 L584.1000,-253.7000 L578.2000,-253.7000 L578.2000,-253.7000 L578.2000,-265.5000 L584.1000,-265.5000 L584.1000,-265.5000 L584.1000,-277.3000 L578.2000,-277.3000 L578.2000,-277.3000 L578.2000,-289.1000 L584.1000,-289.1000 L584.1000,-289.1000 L584.1000,-300.9000 L578.2000,-300.9000 L578.2000,-300.9000 L578.2000,-312.7000 L584.1000,-312.7000 L584.1000,-312.7000 L584.1000,-324.5000 L578.2000,-324.5000 L578.2000,-324.5000 L578.2000,-336.3000 L584.1000,-336.3000 L584.1000,-336.3000 L584.1000,-348.1000 L578.2000,-348.1000 L578.2000,-348.1000 L578.2000,-359.9000 L584.1000,-359.9000 L584.1000,-359.9000 L584.1000,-371.7000 L578.2000,-371.7000 L578.2000,-371.7000 L578.2000,-383.5000 L584.1000,-383.5000 L584.1000,-383.5000 L584.1000,-395.3000 L578.2000,-395.3000 L578.2000,-395.3000 L578.2000,-407.1000 L584.1000,-407.1000 L584.1000,-407.1000 L584.1000,-418.9000 L578.2000,-418.9000 L578.2000,-418.9000 L578.2000,-430.7000 L584.1000,-430.7000 L584.1000,-430.7000 L584.1000,-442.5000 L578.2000,-442.5000 L578.2000,-442.5000 L578.2000,-454.3000 L584.1000,-454.3000 L584.1000,-454.3000 L584.1000,-466.1000 L578.2000,-466.1000 L578.2000,-466.1000 L578.2000,-477.9000 L584.1000,-477.9000 L584.1000,-477.9000 L584.1000,-489.7000 L578.2000,-489.7000 L578.2000,-489.7000 L578.2000,-501.5000 L584.1000,-501.5000 L584.1000,-501.5000 L584.1000,-513.3000 L578.2000,-513.3000 L578.2000,-513.3000 L578.2000,-525.1000 L584.1000,-525.1000 L584.1000,-525.1000 L584.1000,-536.9000 L578.2000,-536.9000 L578.2000,-536.9000 L578.2000,-548.7000 L584.1000,-548.7000 L584.1000,-548.7000 L584.1000,-560.5000 L578.2000,-560.5000 L578.2000,-560.5000 L578.2000,-572.3000 L584.1000,-572.3000 L584.1000,-572.3000 L584.1000,-584.1000 L584.1000,-590.0000 L584.1000,-590.0000 L578.2000,-590.0000 L566.4000,-590.0000 L566.4000,-584.1000 L566.4000,-584.1000 L554.6000,-584.1000 L554.6000,-590.0000 L554.6000,-590.0000 L542.8000,-590.0000 L542.8000,-584.1000 L542.8000,-584.1000 L531.0000,-584.1000 L531.0000,-590.0000 L531.0000,-590.0000 L519.2000,-590.0000 L519.2000,-584.1000 L519.2000,-584.1000 L507.4000,-584.1000 L507.4000,-590.0000 L507.4000,-590.0000 L495.6000,-590.0000 L495.6000,-584.1000 L495.6000,-584.1000 L483.8000,-584.1000 L483.8000,-590.0000 L483.8000,-590.0000 L472.0000,-590.0000 L472.0000,-584.1000 L472.0000,-584.1000 L460.2000,-584.1000 L460.2000,-590.0000 L460.2000,-590.0000 L448.4000,-590.0000 L448.4000,-584.1000 L448.4000,-584.1000 L436.6000,-584.1000 L436.6000,-590.0000 L436.6000,-590.0000 L424.8000,-590.0000 L424.8000,-584.1000 L424.8000,-584.1000 L413.0000,-584.1000 L413.0000,-590.0000 L413.0000,-590.0000 L401.2000,-590.0000 L401.2000,-584.1000 L401.2000,-584.1000 L389.4000,-584.1000 L389.4000,-590.0000 L389.4000,-590.0000 L377.6000,-590.0000 L377.6000,-584.1000 L377.6000,-584.1000 L365.8000,-584.1000 L365.8000,-590.0000 L365.8000,-590.0000 L354.0000,-590.0000 L354.0000,-584.1000 L354.0000,-584.1000 L342.2000,-584.1000 L342.2000,-590.0000 L342.2000,-590.0000 L330.4000,-590.0000 L330.4000,-584.1000 L330.4000,-584.1000 L318.6000,-584.1000 L318.6000,-590.0000 L318.6000,-590.0000 L306.8000,-590.0000 L306.8000,-584.1000 L306.8000,-584.1000 L295.0000,-584.1000 L295.0000,-590.0000 L295.0000,-590.0000 L283.2000,-590.0000 L283.2000,-584.1000 L283.2000,-584.1000 L271.4000,-584.1000 L271.4000,-590.0000 L271.4000,-590.0000 L259.6000,-590.0000 L259.6000,-584.1000 L259.6000,-584.1000 L247.8000,-584.1000 L247.8000,-590.0000 L247.8000,-590.0000 L236.0000,-590.0000 L236.0000,-584.1000 L236.0000,-584.1000 L224.2000,-584.1000 L224.2000,-590.0000 L224.2000,-590.0000 L212.4000,-590.0000 L212.4000,-584.1000 L212.4000,-584.1000 L200.6000,-584.1000 L200.6000,-590.0000 L200.6000,-590.0000 L188.8000,-590.0000 L188.8000,-584.1000 L188.8000,-584.1000 L177.0000,-584.1000 L177.0000,-590.0000 L177.0000,-590.0000 L165.2000,-590.0000 L165.2000,-584.1000 L165.2000,-584.1000 L153.4000,-584.1000 L153.4000,-590.0000 L153.4000,-590.0000 L141.6000,-590.0000 L141.6000,-584.1000 L141.6000,-584.1000 L129.8000,-584.1000 L129.8000,-590.0000 L129.8000,-590.0000 L118.0000,-590.0000 L118.0000,-584.1000 L118.0000,-584.1000 L106.2000,-584.1000 L106.2000,-590.0000 L106.2000,-590.0000 L94.4000,-590.0000 L94.4000,-584.1000 L94.4000,-584.1000 L82.6000,-584.1000 L82.6000,-590.0000 L82.6000,-590.0000 L70.8000,-590.0000 L70.8000,-584.1000 L70.8000,-584.1000 L59.0000,-584.1000 L59.0000,-590.0000 L59.0000,-590.0000 L47.2000,-590.0000 L47.2000,-584.1000 L47.2000,-584.1000 L35.4000,-584.1000 L35.4000,-590.0000 L35.4000,-590.0000 L23.6000,-590.0000 L23.6000,-584.1000 L23.6000,-584.1000 L11.8000,-584.1000 L11.8000,-590.0000 L11.8000,-590.0000 L-0.0000,-590.0000 L-5.9000,-590.0000 L-5.9000,-590.0000 L-5.9000,-584.1000 L-5.9000,-572.3000 L-0.0000,-572.3000 L-0.0000,-572.3000 L-0.0000,-560.5000 L-5.9000,-560.5000 L-5.9000,-560.5000 L-5.9000,-548.7000 L-0.0000,-548.7000 L-0.0000,-548.7000 L-0.0000,-536.9000 L-5.9000,-536.9000 L-5.9000,-536.9000 L-5.9000,-525.1000 L-0.0000,-525.1000 L-0.0000,-525.1000 L-0.0000,-513.3000 L-5.9000,-513.3000 L-5.9000,-513.3000 L-5.9000,-501.5000 L-0.0000,-501.5000 L-0.0000,-501.5000 L-0.0000,-489.7000 L-5.9000,-489.7000 L-5.9000,-489.7000 L-5.9000,-477.9000 L-0.0000,-477.9000 L-0.0000,-477.9000 L-0.0000,-466.1000 L-5.9000,-466.1000 L-5.9000,-466.1000 L-5.9000,-454.3000 L-0.0000,-454.3000 L-0.0000,-454.3000 L-0.0000,-442.5000 L-5.9000,-442.5000 L-5.9000,-442.5000 L-5.9000,-430.7000 L-0.0000,-430.7000 L-0.0000,-430.7000 L-0.0000,-418.9000 L-5.9000,-418.9000 L-5.9000,-418.9000 L-5.9000,-407.1000 L-0.0000,-407.1000 L-0.0000,-407.1000 L-0.0000,-395.3000 L-5.9000,-395.3000 L-5.9000,-395.3000 L-5.9000,-383.5000 L-0.0000,-383.5000 L-0.0000,-383.5000 L-0.0000,-371.7000 L-5.9000,-371.7000 L-5.9000,-371.7000 L-5.9000,-359.9000 L-0.0000,-359.9000 L-0.0000,-359.9000 L-0.0000,-348.1000 L-5.9000,-348.1000 L-5.9000,-348.1000 L-5.9000,-336.3000 L-0.0000,-336.3000 L-0.0000,-336.3000 L-0.0000,-324.5000 L-5.9000,-324.5000 L-5.9000,-324.5000 L-5.9000,-312.7000 L-0.0000,-312.7000 L-0.0000,-312.7000 L-0.0000,-300.9000 L-5.9000,-300.9000 L-5.9000,-300.9000 L-5.9000,-289.1000 L-0.0000,-289.1000 L-0.0000,-289.1000 L-0.0000,-277.3000 L-5.9000,-277.3000 L-5.9000,-277.3000 L-5.9000,-265.5000 L-0.0000,-265.5000 L-0.0000,-265.5000 L-0.0000,-253.7000 L-5.9000,-253.7000 L-5.9000,-253.7000 L-5.9000,-241.9000 L-0.0000,-241.9000 L-0.0000,-241.9000 L-0.0000,-230.1000 L-5.9000,-230.1000 L-5.9000,-230.1000 L-5.9000,-218.3000 L-0.0000,-218.3000 L-0.0000,-218.3000 L-0.0000,-206.5000 L-5.9000,-206.5000 L-5.9000,-206.5000 L-5.9000,-194.7000 L-5.9000,-188.8000 L-5.9000,-188.8000"></path>
	<path d="M180.0000,-206.5000 L185.9000,-206.5000 L185.9000,-218.3000 L180.0000,-218.3000 L180.0000,-206.5000"></path>
	<path d="M180.0000,-230.1000 L185.9000,-230.1000 L185.9000,-241.9000 L180.0000,-241.9000 L180.0000,-230.1000"></path>
	<path d="M180.0000,-253.7000 L185.9000,-253.7000 L185.9000,-265.5000 L180.0000,-265.5000 L180.0000,-253.7000"></path>
	<path d="M180.0000,-277.3000 L185.9000,-277.3000 L185.9000,-289.1000 L180.0000,-289.1000 L180.0000,-277.3000"></path>
	<path d="M180.0000,-300.9000 L185.9000,-300.9000 L185.9000,-312.7000 L180.0000,-312.7000 L180.0000,-300.9000"></path>
	<path d="M180.0000,-324.5000 L185.9000,-324.5000 L185.9000,-336.3000 L180.0000,-336.3000 L180.0000,-324.5000"></path>
	<path d="M180.0000,-348.1000 L185.9000,-348.1000 L185.9000,-359.9000 L180.0000,-359.9000 L180.0000,-348.1000"></path>
	<path d="M180.0000,-371.7000 L185.9000,-371.7000 L185.9000,-383.5000 L180.0000,-383.5000 L180.0000,-371.7000"></path>
	<path d="M180.0000,-395.3000 L185.9000,-395.3000 L185.9000,-407.1000 L180.0000,-407.1000 L180.0000,-395.3000"></path>
	<path d="M180.0000,-418.9000 L185.9000,-418.9000 L185.9000,-430.7000 L180.0000,-430.7000 L180.0000,-418.9000"></path>
	<path d="M180.0000,-442.5000 L185.9000,-442.5000 L185.9000,-454.3000 L180.0000,-454.3000 L180.0000,-442.5000"></path>
	<path d="M180.0000,-466.1000 L185.9000,-466.1000 L185.9000,-477.9000 L180.0000,-477.9000 L180.0000,-466.1000"></path>
	<path d="M180.0000,-489.7000 L185.9000,-489.7000 L185.9000,-501.5000 L180.0000,-501.5000 L180.0000,-489.7000"></path>
	<path d="M180.0000,-513.3000 L185.9000,-513.3000 L185.9000,-525.1000 L180.0000,-525.1000 L180.0000,-513.3000"></path>
	<path d="M180.0000,-536.9000 L185.9000,-536.9000 L185.9000,-548.7000 L180.0000,-548.7000 L180.0000,-536.9000"></path>
	<path d="M180.0000,-560.5000 L185.9000,-560.5000 L185.9000,-572.3000 L180.0000,-572.3000 L180.0000,-560.5000"></path>
	<path d="M36.4750,-549.1000 L36.4490,-549.0998 L36.4229,-549.0991 L36.3969,-549.0979 L36.3710,-549.0963 L36.3450,-549.0943 L36.3191,-549.0917 L36.2932,-549.0888 L36.2674,-549.0853 L36.2417,-549.0814 L36.2160,-549.0771 L36.1904,-549.0723 L36.1649,-549.0670 L36.1395,-549.0613 L36.1142,-549.0552 L36.0891,-549.0486 L36.0640,-549.0416 L36.0391,-549.0341 L36.0143,-549.0262 L35.9896,-549.0178 L35.9651,-549.0091 L35.9407,-548.9998 L35.9166,-548.9902 L35.8926,-548.9801 L35.8687,-548.9696 L35.8451,-548.9587 L35.8217,-548.9474 L35.7984,-548.9357 L35.7754,-548.9235 L35.7526,-548.9110 L35.7300,-548.8980 L35.7076,-548.8847 L35.6855,-548.8709 L35.6637,-548.8568 L35.6421,-548.8423 L35.6207,-548.8274 L35.5996,-548.8121 L35.5788,-548.7965 L35.5583,-548.7805 L35.5380,-548.7642 L35.5181,-548.7474 L35.4984,-548.7304 L35.4790,-548.7130 L35.4600,-548.6952 L35.4413,-548.6771 L35.4229,-548.6587 L35.4048,-548.6400 L35.3870,-548.6210 L35.3696,-548.6016 L35.3526,-548.5819 L35.3358,-548.5620 L35.3195,-548.5417 L35.3035,-548.5212 L35.2879,-548.5004 L35.2726,-548.4793 L35.2577,-548.4579 L35.2432,-548.4363 L35.2291,-548.4145 L35.2153,-548.3924 L35.2020,-548.3700 L35.1890,-548.3474 L35.1765,-548.3246 L35.1643,-548.3016 L35.1526,-548.2783 L35.1413,-548.2549 L35.1304,-548.2313 L35.1199,-548.2074 L35.1098,-548.1834 L35.1002,-548.1593 L35.0909,-548.1349 L35.0822,-548.1104 L35.0738,-548.0857 L35.0659,-548.0609 L35.0584,-548.0360 L35.0514,-548.0109 L35.0448,-547.9858 L35.0387,-547.9605 L35.0330,-547.9351 L35.0277,-547.9096 L35.0229,-547.8840 L35.0186,-547.8583 L35.0147,-547.8326 L35.0112,-547.8068 L35.0083,-547.7809 L35.0057,-547.7550 L35.0037,-547.7290 L35.0021,-547.7031 L35.0009,-547.6771 L35.0002,-547.6510 L35.0000,-547.6250 L35.0000,-231.1750 L35.0002,-231.1490 L35.0009,-231.1229 L35.0021,-231.0969 L35.0037,-231.0710 L35.0057,-231.0450 L35.0083,-231.0191 L35.0112,-230.9932 L35.0147,-230.9674 L35.0186,-230.9417 L35.0229,-230.9160 L35.0277,-230.8904 L35.0330,-230.8649 L35.0387,-230.8395 L35.0448,-230.8142 L35.0514,-230.7891 L35.0584,-230.7640 L35.0659,-230.7391 L35.0738,-230.7143 L35.0822,-230.6896 L35.0909,-230.6651 L35.1002,-230.6407 L35.1098,-230.6166 L35.1199,-230.5926 L35.1304,-230.5687 L35.1413,-230.5451 L35.1526,-230.5217 L35.1643,-230.4984 L35.1765,-230.4754 L35.1890,-230.4526 L35.2020,-230.4300 L35.2153,-230.4076 L35.2291,-230.3855 L35.2432,-230.3637 L35.2577,-230.3421 L35.2726,-230.3207 L35.2879,-230.2996 L35.3035,-230.2788 L35.3195,-230.2583 L35.3358,-230.2380 L35.3526,-230.2181 L35.3696,-230.1984 L35.3870,-230.1790 L35.4048,-230.1600 L35.4229,-230.1413 L35.4413,-230.1229 L35.4600,-230.1048 L35.4790,-230.0870 L35.4984,-230.0696 L35.5181,-230.0526 L35.5380,-230.0358 L35.5583,-230.0195 L35.5788,-230.0035 L35.5996,-229.9879 L35.6207,-229.9726 L35.6421,-229.9577 L35.6637,-229.9432 L35.6855,-229.9291 L35.7076,-229.9153 L35.7300,-229.9020 L35.7526,-229.8890 L35.7754,-229.8765 L35.7984,-229.8643 L35.8217,-229.8526 L35.8451,-229.8413 L35.8687,-229.8304 L35.8926,-229.8199 L35.9166,-229.8098 L35.9407,-229.8002 L35.9651,-229.7909 L35.9896,-229.7822 L36.0143,-229.7738 L36.0391,-229.7659 L36.0640,-229.7584 L36.0891,-229.7514 L36.1142,-229.7448 L36.1395,-229.7387 L36.1649,-229.7330 L36.1904,-229.7277 L36.2160,-229.7229 L36.2417,-229.7186 L36.2674,-229.7147 L36.2932,-229.7112 L36.3191,-229.7083 L36.3450,-229.7057 L36.3710,-229.7037 L36.3969,-229.7021 L36.4229,-229.7009 L36.4490,-229.7002 L36.4750,-229.7000 L143.5250,-229.7000 L143.5510,-229.7002 L143.5771,-229.7009 L143.6031,-229.7021 L143.6290,-229.7037 L143.6550,-229.7057 L143.6809,-229.7083 L143.7068,-229.7112 L143.7326,-229.7147 L143.7583,-229.7186 L143.7840,-229.7229 L143.8096,-229.7277 L143.8351,-229.7330 L143.8605,-229.7387 L143.8858,-229.7448 L143.9109,-229.7514 L143.9360,-229.7584 L143.9609,-229.7659 L143.9857,-229.7738 L144.0104,-229.7822 L144.0349,-229.7909 L144.0593,-229.8002 L144.0834,-229.8098 L144.1074,-229.8199 L144.1313,-229.8304 L144.1549,-229.8413 L144.1783,-229.8526 L144.2016,-229.8643 L144.2246,-229.8765 L144.2474,-229.8890 L144.2700,-229.9020 L144.2924,-229.9153 L144.3145,-229.9291 L144.3363,-229.9432 L144.3579,-229.9577 L144.3793,-229.9726 L144.4004,-229.9879 L144.4212,-230.0035 L144.4417,-230.0195 L144.4620,-230.0358 L144.4819,-230.0526 L144.5016,-230.0696 L144.5210,-230.0870 L144.5400,-230.1048 L144.5587,-230.1229 L144.5771,-230.1413 L144.5952,-230.1600 L144.6130,-230.1790 L144.6304,-230.1984 L144.6474,-230.2181 L144.6642,-230.2380 L144.6805,-230.2583 L144.6965,-230.2788 L144.7121,-230.2996 L144.7274,-230.3207 L144.7423,-230.3421 L144.7568,-230.3637 L144.7709,-230.3855 L144.7847,-230.4076 L144.7980,-230.4300 L144.8110,-230.4526 L144.8235,-230.4754 L144.8357,-230.4984 L144.8474,-230.5217 L144.8587,-230.5451 L144.8696,-230.5687 L144.8801,-230.5926 L144.8902,-230.6166 L144.8998,-230.6407 L144.9091,-230.6651 L144.9178,-230.6896 L144.9262,-230.7143 L144.9341,-230.7391 L144.9416,-230.7640 L144.9486,-230.7891 L144.9552,-230.8142 L144.9613,-230.8395 L144.9670,-230.8649 L144.9723,-230.8904 L144.9771,-230.9160 L144.9814,-230.9417 L144.9853,-230.9674 L144.9888,-230.9932 L144.9917,-231.0191 L144.9943,-231.0450 L144.9963,-231.0710 L144.9979,-231.0969 L144.9991,-231.1229 L144.9998,-231.1490 L145.0000,-231.1750 L145.0000,-547.6250 L144.9998,-547.6510 L144.9991,-547.6771 L144.9979,-547.7031 L144.9963,-547.7290 L144.9943,-547.7550 L144.9917,-547.7809 L144.9888,-547.8068 L144.9853,-547.8326 L144.9814,-547.8583 L144.9771,-547.8840 L144.9723,-547.9096 L144.9670,-547.9351 L144.9613,-547.9605 L144.9552,-547.9858 L144.9486,-548.0109 L144.9416,-548.0360 L144.9341,-548.0609 L144.9262,-548.0857 L144.9178,-548.1104 L144.9091,-548.1349 L144.8998,-548.1593 L144.8902,-548.1834 L144.8801,-548.2074 L144.8696,-548.2313 L144.8587,-548.2549 L144.8474,-548.2783 L144.8357,-548.3016 L144.8235,-548.3246 L144.8110,-548.3474 L144.7980,-548.3700 L144.7847,-548.3924 L144.7709,-548.4145 L144.7568,-548.4363 L144.7423,-548.4579 L144.7274,-548.4793 L144.7121,-548.5004 L144.6965,-548.5212 L144.6805,-548.5417 L144.6642,-548.5620 L144.6474,-548.5819 L144.6304,-548.6016 L144.6130,-548.6210 L144.5952,-548.6400 L144.5771,-548.6587 L144.5587,-548.6771 L144.5400,-548.6952 L144.5210,-548.7130 L144.5016,-548.7304 L144.4819,-548.7474 L144.4620,-548.7642 L144.4417,-548.7805 L144.4212,-548.7965 L144.4004,-548.8121 L144.3793,-548.8274 L144.3579,-548.8423 L144.3363,-548.8568 L144.3145,-548.8709 L144.2924,-548.8847 L144.2700,-548.8980 L144.2474,-548.9110 L144.2246,-548.9235 L144.2016,-548.9357 L144.1783,-548.9474 L144.1549,-548.9587 L144.1313,-548.9696 L144.1074,-548.9801 L144.0834,-548.9902 L144.0593,-548.9998 L144.0349,-549.0091 L144.0104,-549.0178 L143.9857,-549.0262 L143.9609,-549.0341 L143.9360,-549.0416 L143.9109,-549.0486 L143.8858,-549.0552 L143.8605,-549.0613 L143.8351,-549.0670 L143.8096,-549.0723 L143.7840,-549.0771 L143.7583,-549.0814 L143.7326,-549.0853 L143.7068,-549.0888 L143.6809,-549.0917 L143.6550,-549.0943 L143.6290,-549.0963 L143.6031,-549.0979 L143.5771,-549.0991 L143.5510,-549.0998 L143.5250,-549.1000 L36.4750,-549.1000"></path>
	<path d="M222.3750,-549.1000 L222.3490,-549.0998 L222.3229,-549.0991 L222.2969,-549.0979 L222.2710,-549.0963 L222.2450,-549.0943 L222.2191,-549.0917 L222.1932,-549.0888 L222.1674,-549.0853 L222.1417,-549.0814 L222.1160,-549.0771 L222.0904,-549.0723 L222.0649,-549.0670 L222.0395,-549.0613 L222.0142,-549.0552 L221.9891,-549.0486 L221.9640,-549.0416 L221.9391,-549.0341 L221.9143,-549.0262 L221.8896,-549.0178 L221.8651,-549.0091 L221.8407,-548.9998 L221.8166,-548.9902 L221.7926,-548.9801 L221.7687,-548.9696 L221.7451,-548.9587 L221.7217,-548.9474 L221.6984,-548.9357 L221.6754,-548.9235 L221.6526,-548.9110 L221.6300,-548.8980 L221.6076,-548.8847 L221.5855,-548.8709 L221.5637,-548.8568 L221.5421,-548.8423 L221.5207,-548.8274 L221.4996,-548.8121 L221.4788,-548.7965 L221.4583,-548.7805 L221.4380,-548.7642 L221.4181,-548.7474 L221.3984,-548.7304 L221.3790,-548.7130 L221.3600,-548.6952 L221.3413,-548.6771 L221.3229,-548.6587 L221.3048,-548.6400 L221.2870,-548.6210 L221.2696,-548.6016 L221.2526,-548.5819 L221.2358,-548.5620 L221.2195,-548.5417 L221.2035,-548.5212 L221.1879,-548.5004 L221.1726,-548.4793 L221.1577,-548.4579 L221.1432,-548.4363 L221.1291,-548.4145 L221.1153,-548.3924 L221.1020,-548.3700 L221.0890,-548.3474 L221.0765,-548.3246 L221.0643,-548.3016 L221.0526,-548.2783 L221.0413,-548.2549 L221.0304,-548.2313 L221.0199,-548.2074 L221.0098,-548.1834 L221.0002,-548.1593 L220.9909,-548.1349 L220.9822,-548.1104 L220.9738,-548.0857 L220.9659,-548.0609 L220.9584,-548.0360 L220.9514,-548.0109 L220.9448,-547.9858 L220.9387,-547.9605 L220.9330,-547.9351 L220.9277,-547.9096 L220.9229,-547.8840 L220.9186,-547.8583 L220.9147,-547.8326 L220.9112,-547.8068 L220.9083,-547.7809 L220.9057,-547.7550 L220.9037,-547.7290 L220.9021,-547.7031 L220.9009,-547.6771 L220.9002,-547.6510 L220.9000,-547.6250 L220.9000,-231.1750 L220.9002,-231.1490 L220.9009,-231.1229 L220.9021,-231.0969 L220.9037,-231.0710 L220.9057,-231.0450 L220.9083,-231.0191 L220.9112,-230.9932 L220.9147,-230.9674 L220.9186,-230.9417 L220.9229,-230.9160 L220.9277,-230.8904 L220.9330,-230.8649 L220.9387,-230.8395 L220.9448,-230.8142 L220.9514,-230.7891 L220.9584,-230.7640 L220.9659,-230.7391 L220.9738,-230.7143 L220.9822,-230.6896 L220.9909,-230.6651 L221.0002,-230.6407 L221.0098,-230.6166 L221.0199,-230.5926 L221.0304,-230.5687 L221.0413,-230.5451 L221.0526,-230.5217 L221.0643,-230.4984 L221.0765,-230.4754 L221.0890,-230.4526 L221.1020,-230.4300 L221.1153,-230.4076 L221.1291,-230.3855 L221.1432,-230.3637 L221.1577,-230.3421 L221.1726,-230.3207 L221.1879,-230.2996 L221.2035,-230.2788 L221.2195,-230.2583 L221.2358,-230.2380 L221.2526,-230.2181 L221.2696,-230.1984 L221.2870,-230.1790 L221.3048,-230.1600 L221.3229,-230.1413 L221.3413,-230.1229 L221.3600,-230.1048 L221.3790,-230.0870 L221.3984,-230.0696 L221.4181,-230.0526 L221.4380,-230.0358 L221.4583,-230.0195 L221.4788,-230.0035 L221.4996,-229.9879 L221.5207,-229.9726 L221.5421,-229.9577 L221.5637,-229.9432 L221.5855,-229.9291 L221.6076,-229.9153 L221.6300,-229.9020 L221.6526,-229.8890 L221.6754,-229.8765 L221.6984,-229.8643 L221.7217,-229.8526 L221.7451,-229.8413 L221.7687,-229.8304 L221.7926,-229.8199 L221.8166,-229.8098 L221.8407,-229.8002 L221.8651,-229.7909 L221.8896,-229.7822 L221.9143,-229.7738 L221.9391,-229.7659 L221.9640,-229.7584 L221.9891,-229.7514 L222.0142,-229.7448 L222.0395,-229.7387 L222.0649,-229.7330 L222.0904,-229.7277 L222.1160,-229.7229 L222.1417,-229.7186 L222.1674,-229.7147 L222.1932,-229.7112 L222.2191,-229.7083 L222.2450,-229.7057 L222.2710,-229.7037 L222.2969,-229.7021 L222.3229,-229.7009 L222.3490,-229.7002 L222.3750,-229.7000 L541.7250,-229.7000 L541.7510,-229.7002 L541.7771,-229.7009 L541.8031,-229.7021 L541.8290,-229.7037 L541.8550,-229.7057 L541.8809,-229.7083 L541.9068,-229.7112 L541.9326,-229.7147 L541.9583,-229.7186 L541.9840,-229.7229 L542.0096,-229.7277 L542.0351,-229.7330 L542.0605,-229.7387 L542.0858,-229.7448 L542.1109,-229.7514 L542.1360,-229.7584 L542.1609,-229.7659 L542.1857,-229.7738 L542.2104,-229.7822 L542.2349,-229.7909 L542.2593,-229.8002 L542.2834,-229.8098 L542.3074,-229.8199 L542.3313,-229.8304 L542.3549,-229.8413 L542.3783,-229.8526 L542.4016,-229.8643 L542.4246,-229.8765 L542.4474,-229.8890 L542.4700,-229.9020 L542.4924,-229.9153 L542.5145,-229.9291 L542.5363,-229.9432 L542.5579,-229.9577 L542.5793,-229.9726 L542.6004,-229.9879 L542.6212,-230.0035 L542.6417,-230.0195 L542.6620,-230.0358 L542.6819,-230.0526 L542.7016,-230.0696 L542.7210,-230.0870 L542.7400,-230.1048 L542.7587,-230.1229 L542.7771,-230.1413 L542.7952,-230.1600 L542.8130,-230.1790 L542.8304,-230.1984 L542.8474,-230.2181 L542.8642,-230.2380 L542.8805,-230.2583 L542.8965,-230.2788 L542.9121,-230.2996 L542.9274,-230.3207 L542.9423,-230.3421 L542.9568,-230.3637 L542.9709,-230.3855 L542.9847,-230.4076 L542.9980,-230.4300 L543.0110,-230.4526 L543.0235,-230.4754 L543.0357,-230.4984 L543.0474,-230.5217 L543.0587,-230.5451 L543.0696,-230.5687 L543.0801,-230.5926 L543.0902,-230.6166 L543.0998,-230.6407 L543.1091,-230.6651 L543.1178,-230.6896 L543.1262,-230.7143 L543.1341,-230.7391 L543.1416,-230.7640 L543.1486,-230.7891 L543.1552,-230.8142 L543.1613,-230.8395 L543.1670,-230.8649 L543.1723,-230.8904 L543.1771,-230.9160 L543.1814,-230.9417 L543.1853,-230.9674 L543.1888,-230.9932 L543.1917,-231.0191 L543.1943,-231.0450 L543.1963,-231.0710 L543.1979,-231.0969 L543.1991,-231.1229 L543.1998,-231.1490 L543.2000,-231.1750 L543.2000,-547.6250 L543.1998,-547.6510 L543.1991,-547.6771 L543.1979,-547.7031 L543.1963,-547.7290 L543.1943,-547.7550 L543.1917,-547.7809 L543.1888,-547.8068 L543.1853,-547.8326 L543.1814,-547.8583 L543.1771,-547.8840 L543.1723,-547.9096 L543.1670,-547.9351 L543.1613,-547.9605 L543.1552,-547.9858 L543.1486,-548.0109 L543.1416,-548.0360 L543.1341,-548.0609 L543.1262,-548.0857 L543.1178,-548.1104 L543.1091,-548.1349 L543.0998,-548.1593 L543.0902,-548.1834 L543.0801,-548.2074 L543.0696,-548.2313 L543.0587,-548.2549 L543.0474,-548.2783 L543.0357,-548.3016 L543.0235,-548.3246 L543.0110,-548.3474 L542.9980,-548.3700 L542.9847,-548.3924 L542.9709,-548.4145 L542.9568,-548.4363 L542.9423,-548.4579 L542.9274,-548.4793 L542.9121,-548.5004 L542.8965,-548.5212 L542.8805,-548.5417 L542.8642,-548.5620 L542.8474,-548.5819 L542.8304,-548.6016 L542.8130,-548.6210 L542.7952,-548.6400 L542.7771,-548.6587 L542.7587,-548.6771 L542.7400,-548.6952 L542.7210,-548.7130 L542.7016,-548.7304 L542.6819,-548.7474 L542.6620,-548.7642 L542.6417,-548.7805 L542.6212,-548.7965 L542.6004,-548.8121 L542.5793,-548.8274 L542.5579,-548.8423 L542.5363,-548.8568 L542.5145,-548.8709 L542.4924,-548.8847 L542.4700,-548.8980 L542.4474,-548.9110 L542.4246,-548.9235 L542.4016,-548.9357 L542.3783,-548.9474 L542.3549,-548.9587 L542.3313,-548.9696 L542.3074,-548.9801 L542.2834,-548.9902 L542.2593,-548.9998 L542.2349,-549.0091 L542.2104,-549.0178 L542.1857,-549.0262 L542.1609,-549.0341 L542.1360,-549.0416 L542.1109,-549.0486 L542.0858,-549.0552 L542.0605,-549.0613 L542.0351,-549.0670 L542.0096,-549.0723 L541.9840,-549.0771 L541.9583,-549.0814 L541.9326,-549.0853 L541.9068,-549.0888 L541.8809,-549.0917 L541.8550,-549.0943 L541.8290,-549.0963 L541.8031,-549.0979 L541.7771,-549.0991 L541.7510,-549.0998 L541.7250,-549.1000 L222.3750,-549.1000"></path>
</g>
</svg>