<?xml version="1.0" encoding="utf-8"?>
<svg xmlns="http://www.w3.org/2000/svg" width="401.2000mm" height="141.6000mm" viewBox="590.0000 11.8000 401.2000 141.6000">
<g>
	<path d="M595.9000,11.8000 L595.9000,17.7000 L595.9000,29.5000 L590.0000,29.5000 L590.0000,29.5000 L590.0000,41.3000 L595.9000,41.3000 L595.9000,41.3000 L595.9000,53.1000 L590.0000,53.1000 L590.0000,53.1000 L590.0000,64.9000 L595.9000,64.9000 L595.9000,64.9000 L595.9000,76.7000 L590.0000,76.7000 L590.0000,76.7000 L590.0000,88.5000 L595.9000,88.5000 L595.9000,88.5000 L595.9000,100.3000 L590.0000,100.3000 L590.0000,100.3000 L590.0000,112.1000 L595.9000,112.1000 L595.9000,112.1000 L595.9000,123.9000 L590.0000,123.9000 L590.0000,123.9000 L590.0000,135.7000 L595.9000,135.7000 L595.9000,135.7000 L595.9000,147.5000 L595.9000,147.5000 L607.7000,147.5000 L607.7000,153.4000 L607.7000,153.4000 L619.5000,153.4000 L619.5000,147.5000 L619.5000,147.5000 L631.3000,147.5000 L631.3000,153.4000 L631.3000,153.4000 L643.1000,153.4000 L643.1000,147.5000 L643.1000,147.5000 L654.9000,147.5000 L654.9000,153.4000 L654.9000,153.4000 L666.7000,153.4000 L666.7000,147.5000 L666.7000,147.5000 L678.5000,147.5000 L678.5000,153.4000 L678.5000,153.4000 L690.3000,153.4000 L690.3000,147.5000 L690.3000,147.5000 L702.1000,147.5000 L702.1000,153.4000 L702.1000,153.4000 L713.9000,153.4000 L713.9000,147.5000 L713.9000,147.5000 L725.7000,147.5000 L725.7000,153.4000 L725.7000,153.4000 L737.5000,153.4000 L737.5000,147.5000 L737.5000,147.5000 L749.3000,147.5000 L749.3000,153.4000 L749.3000,153.4000 L761.1000,153.4000 L761.1000,147.5000 L761.1000,147.5000 L772.9000,147.5000 L772.9000,153.4000 L772.9000,153.4000 L784.7000,153.4000 L784.7000,147.5000 L784.7000,147.5000 L796.5000,147.5000 L796.5000,153.4000 L796.5000,153.4000 L808.3000,153.4000 L808.3000,147.5000 L808.3000,147.5000 L820.1000,147.5000 L820.1000,153.4000 L820.1000,153.4000 L831.9000,153.4000 L831.9000,147.5000 L831.9000,147.5000 L843.7000,147.5000 L843.7000,153.4000 L843.7000,153.4000 L855.5000,153.4000 L855.5000,147.5000 L855.5000,147.5000 L867.3000,147.5000 L867.3000,153.4000 L867.3000,153.4000 L879.1000,153.4000 L879.1000,147.5000 L879.1000,147.5000 L890.9000,147.5000 L890.9000,153.4000 L890.9000,153.4000 L902.7000,153.4000 L902.7000,147.5000 L902.7000,147.5000 L914.5000,147.5000 L914.5000,153.4000 L914.5000,153.4000 L926.3000,153.4000 L926.3000,147.5000 L926.3000,147.5000 L938.1000,147.5000 L938.1000,153.4000 L938.1000,153.4000 L949.9000,153.4000 L949.9000,147.5000 L949.9000,147.5000 L961.7000,147.5000 L961.7000,153.4000 L961.7000,153.4000 L973.5000,153.4000 L973.5000,147.5000 L973.5000,147.5000 L985.3000,147.5000 L985.3000,147.5000 L985.3000,135.7000 L991.2000,135.7000 L991.2000,135.7000 L991.2000,123.9000 L985.3000,123.9000 L985.3000,123.9000 L985.3000,112.1000 L991.2000,112.1000 L991.2000,112.1000 L991.2000,100.3000 L985.3000,100.3000 L985.3000,100.3000 L985.3000,88.5000 L991.2000,88.5000 L991.2000,88.5000 L991.2000,76.7000 L985.3000,76.7000 L985.3000,76.7000 L985.3000,64.9000 L991.2000,64.9000 L991.2000,64.9000 L991.2000,53.1000 L985.3000,53.1000 L985.3000,53.1000 L985.3000,41.3000 L991.2000,41.3000 L991.2000,41.3000 L991.2000,29.5000 L985.3000,29.5000 L985.3000,29.5000 L985.3000,17.7000 L985.3000,11.8000 L985.3000,11.8000 L973.5000,11.8000 L973.5000,11.8000 L973.3688,11.8072 L973.2377,11.8287 L973.1065,11.8645 L972.9754,11.9144 L972.8442,11.9780 L972.7131,12.0552 L972.5819,12.1455 L972.4507,12.2486 L972.3196,12.3638 L972.1884,12.4906 L972.0573,12.6285 L971.9261,12.7767 L971.7949,12.9346 L971.6638,13.1012 L971.5326,13.2760 L971.4015,13.4579 L971.2703,13.6461 L971.1392,13.8397 L971.0080,14.0377 L970.8768,14.2392 L970.7457,14.4432 L970.6145,14.6487 L970.4834,14.8547 L970.3522,15.0601 L970.2210,15.2641 L970.0899,15.4655 L969.9587,15.6635 L969.8276,15.8570 L969.6964,16.0451 L969.5653,16.2269 L969.4341,16.4015 L969.3029,16.5681 L969.1718,16.7257 L969.0406,16.8738 L968.9095,17.0115 L968.7783,17.1382 L968.6471,17.2532 L968.5160,17.3560 L968.3848,17.4461 L968.2537,17.5231 L968.1225,17.5866 L967.9914,17.6362 L967.8602,17.6717 L967.7290,17.6930 L967.5979,17.7000 L967.4667,17.6926 L967.3356,17.6708 L967.2044,17.6348 L967.0733,17.5847 L966.9421,17.5208 L966.8109,17.4434 L966.6798,17.3529 L966.5486,17.2497 L966.4175,17.1343 L966.2863,17.0072 L966.1551,16.8692 L966.0240,16.7208 L965.8928,16.5628 L965.7617,16.3960 L965.6305,16.2212 L965.4994,16.0391 L965.3682,15.8508 L965.2370,15.6572 L965.1059,15.4591 L964.9747,15.2575 L964.8436,15.0535 L964.7124,14.8480 L964.5812,14.6420 L964.4501,14.4366 L964.3189,14.2326 L964.1878,14.0312 L964.0566,13.8333 L963.9255,13.6399 L963.7943,13.4519 L963.6631,13.2702 L963.5320,13.0957 L963.4008,12.9293 L963.2697,12.7718 L963.1385,12.6239 L963.0074,12.4864 L962.8762,12.3599 L962.7450,12.2451 L962.6139,12.1424 L962.4827,12.0525 L962.3516,11.9758 L962.2204,11.9125 L962.0892,11.8631 L961.9581,11.8278 L961.8269,11.8067 L961.6958,11.8000 L961.5646,11.8077 L961.4335,11.8297 L961.3023,11.8659 L961.1711,11.9162 L961.0400,11.9803 L960.9088,12.0579 L960.7777,12.1487 L960.6465,12.2521 L960.5153,12.3677 L960.3842,12.4949 L960.2530,12.6331 L960.1219,12.7817 L959.9907,12.9398 L959.8596,13.1068 L959.7284,13.2817 L959.5972,13.4638 L959.4661,13.6522 L959.3349,13.8460 L959.2038,14.0441 L959.0726,14.2457 L958.9414,14.4498 L958.8103,14.6553 L958.6791,14.8613 L958.5480,15.0667 L958.4168,15.2706 L958.2857,15.4720 L958.1545,15.6698 L958.0233,15.8632 L957.8922,16.0511 L957.7610,16.2327 L957.6299,16.4070 L957.4987,16.5733 L957.3676,16.7307 L957.2364,16.8784 L957.1052,17.0158 L956.9741,17.1421 L956.8429,17.2567 L956.7118,17.3591 L956.5806,17.4488 L956.4494,17.5254 L956.3183,17.5884 L956.1871,17.6375 L956.0560,17.6726 L955.9248,17.6935 L955.7937,17.7000 L955.6625,17.6921 L955.5313,17.6699 L955.4002,17.6334 L955.2690,17.5829 L955.1379,17.5185 L955.0067,17.4407 L954.8755,17.3498 L954.7444,17.2461 L954.6132,17.1303 L954.4821,17.0029 L954.3509,16.8645 L954.2198,16.7159 L954.0886,16.5576 L953.9574,16.3905 L953.8263,16.2154 L953.6951,16.0332 L953.5640,15.8447 L953.4328,15.6508 L953.3016,15.4526 L953.1705,15.2510 L953.0393,15.0469 L952.9082,14.8414 L952.7770,14.6354 L952.6459,14.4300 L952.5147,14.2261 L952.3835,14.0248 L952.2524,13.8270 L952.1212,13.6338 L951.9901,13.4459 L951.8589,13.2645 L951.7278,13.0902 L951.5966,12.9241 L951.4654,12.7669 L951.3343,12.6193 L951.2031,12.4821 L951.0720,12.3560 L950.9408,12.2416 L950.8096,12.1393 L950.6785,12.0498 L950.5473,11.9735 L950.4162,11.9107 L950.2850,11.8618 L950.1539,11.8269 L950.0227,11.8063 L949.8915,11.8000 L949.7604,11.8081 L949.6292,11.8306 L949.4981,11.8673 L949.3669,11.9181 L949.2357,11.9826 L949.1046,12.0607 L948.9734,12.1518 L948.8423,12.2556 L948.7111,12.3716 L948.5800,12.4992 L948.4488,12.6378 L948.3176,12.7866 L948.1865,12.9451 L948.0553,13.1123 L947.9242,13.2875 L947.7930,13.4698 L947.6619,13.6584 L947.5307,13.8523 L947.3995,14.0506 L947.2684,14.2523 L947.1372,14.4564 L947.0061,14.6620 L946.8749,14.8679 L946.7437,15.0733 L946.6126,15.2772 L946.4814,15.4784 L946.3503,15.6761 L946.2191,15.8693 L946.0880,16.0570 L945.9568,16.2384 L945.8256,16.4125 L945.6945,16.5785 L945.5633,16.7356 L945.4322,16.8830 L945.3010,17.0200 L945.1698,17.1459 L945.0387,17.2602 L944.9075,17.3622 L944.7764,17.4515 L944.6452,17.5276 L944.5141,17.5902 L944.3829,17.6389 L944.2517,17.6735 L944.1206,17.6939 L943.9894,17.7000 L943.8583,17.6916 L943.7271,17.6689 L943.5959,17.6320 L943.4648,17.5810 L943.3336,17.5162 L943.2025,17.4380 L943.0713,17.3466 L942.9402,17.2426 L942.8090,17.1264 L942.6778,16.9986 L942.5467,16.8599 L942.4155,16.7109 L942.2844,16.5523 L942.1532,16.3850 L942.0221,16.2096 L941.8909,16.0272 L941.7597,15.8385 L941.6286,15.6445 L941.4974,15.4462 L941.3663,15.2444 L941.2351,15.0403 L941.1039,14.8347 L940.9728,14.6287 L940.8416,14.4234 L940.7105,14.2196 L940.5793,14.0184 L940.4482,13.8207 L940.3170,13.6276 L940.1858,13.4400 L940.0547,13.2587 L939.9235,13.0847 L939.7924,12.9189 L939.6612,12.7619 L939.5300,12.6147 L939.3989,12.4779 L939.2677,12.3521 L939.1366,12.2381 L939.0054,12.1362 L938.8743,12.0472 L938.7431,11.9713 L938.6119,11.9089 L938.4808,11.8604 L938.3496,11.8260 L938.2185,11.8059 L938.0873,11.8001 L937.9561,11.8086 L937.8250,11.8316 L937.6938,11.8687 L937.5627,11.9199 L937.4315,11.9849 L937.3004,12.0634 L937.1692,12.1550 L937.0380,12.2592 L936.9069,12.3756 L936.7757,12.5035 L936.6446,12.6424 L936.5134,12.7916 L936.3823,12.9503 L936.2511,13.1178 L936.1199,13.2933 L935.9888,13.4758 L935.8576,13.6646 L935.7265,13.8586 L935.5953,14.0571 L935.4641,14.2588 L935.3330,14.4630 L935.2018,14.6686 L935.0707,14.8746 L934.9395,15.0799 L934.8084,15.2837 L934.6772,15.4849 L934.5460,15.6824 L934.4149,15.8755 L934.2837,16.0630 L934.1526,16.2441 L934.0214,16.4180 L933.8902,16.5837 L933.7591,16.7405 L933.6279,16.8876 L933.4968,17.0242 L933.3656,17.1498 L933.2345,17.2637 L933.1033,17.3653 L932.9721,17.4542 L932.8410,17.5298 L932.7098,17.5920 L932.5787,17.6402 L932.4475,17.6744 L932.3163,17.6943 L932.1852,17.6999 L932.0540,17.6911 L931.9229,17.6679 L931.7917,17.6306 L931.6606,17.5791 L931.5294,17.5139 L931.3982,17.4352 L931.2671,17.3434 L931.1359,17.2390 L931.0048,17.1225 L930.8736,16.9943 L930.7425,16.8553 L930.6113,16.7059 L930.4801,16.5471 L930.3490,16.3794 L930.2178,16.2038 L930.0867,16.0212 L929.9555,15.8323 L929.8243,15.6382 L929.6932,15.4397 L929.5620,15.2379 L929.4309,15.0337 L929.2997,14.8281 L929.1686,14.6221 L929.0374,14.4168 L928.9062,14.2130 L928.7751,14.0119 L928.6439,13.8144 L928.5128,13.6215 L928.3816,13.4340 L928.2504,13.2530 L928.1193,13.0793 L927.9881,12.9137 L927.8570,12.7570 L927.7258,12.6101 L927.5947,12.4736 L927.4635,12.3483 L927.3323,12.2346 L927.2012,12.1332 L927.0700,12.0445 L926.9389,11.9691 L926.8077,11.9071 L926.6766,11.8591 L926.5454,11.8251 L926.4142,11.8055 L926.2831,11.8001 L926.1519,11.8092 L926.0208,11.8325 L925.8896,11.8702 L925.7584,11.9218 L925.6273,11.9872 L925.4961,12.0661 L925.3650,12.1581 L925.2338,12.2628 L925.1027,12.3795 L924.9715,12.5078 L924.8403,12.6471 L924.7092,12.7966 L924.5780,12.9556 L924.4469,13.1233 L924.3157,13.2990 L924.1845,13.4818 L924.0534,13.6708 L923.9222,13.8650 L923.7911,14.0635 L923.6599,14.2654 L923.5288,14.4696 L923.3976,14.6752 L923.2664,14.8812 L923.1353,15.0865 L923.0041,15.2902 L922.8730,15.4913 L922.7418,15.6887 L922.6106,15.8816 L922.4795,16.0690 L922.3483,16.2499 L922.2172,16.4235 L922.0860,16.5889 L921.9549,16.7454 L921.8237,16.8922 L921.6925,17.0285 L921.5614,17.1537 L921.4302,17.2672 L921.2991,17.3684 L921.1679,17.4568 L921.0368,17.5321 L920.9056,17.5937 L920.7744,17.6416 L920.6433,17.6753 L920.5121,17.6947 L920.3810,17.6998 L920.2498,17.6906 L920.1186,17.6670 L919.9875,17.6291 L919.8563,17.5772 L919.7252,17.5116 L919.5940,17.4325 L919.4629,17.3403 L919.3317,17.2354 L919.2005,17.1185 L919.0694,16.9900 L918.9382,16.8506 L918.8071,16.7009 L918.6759,16.5418 L918.5447,16.3739 L918.4136,16.1981 L918.2824,16.0152 L918.1513,15.8261 L918.0201,15.6318 L917.8890,15.4333 L917.7578,15.2313 L917.6266,15.0271 L917.4955,14.8214 L917.3643,14.6155 L917.2332,14.4102 L917.1020,14.2065 L916.9708,14.0055 L916.8397,13.8081 L916.7085,13.6153 L916.5774,13.4281 L916.4462,13.2473 L916.3151,13.0738 L916.1839,12.9085 L916.0527,12.7521 L915.9216,12.6056 L915.7904,12.4694 L915.6593,12.3444 L915.5281,12.2311 L915.3970,12.1301 L915.2658,12.0419 L915.1346,11.9668 L915.0035,11.9054 L914.8723,11.8578 L914.7412,11.8243 L914.6100,11.8051 L914.4788,11.8002 L914.3477,11.8097 L914.2165,11.8335 L914.0854,11.8716 L913.9542,11.9237 L913.8231,11.9896 L913.6919,12.0689 L913.5607,12.1613 L913.4296,12.2663 L913.2984,12.3835 L913.1673,12.5122 L913.0361,12.6517 L912.9049,12.8015 L912.7738,12.9609 L912.6426,13.1289 L912.5115,13.3048 L912.3803,13.4878 L912.2492,13.6770 L912.1180,13.8713 L911.9868,14.0700 L911.8557,14.2720 L911.7245,14.4763 L911.5934,14.6819 L911.4622,14.8879 L911.3311,15.0931 L911.1999,15.2968 L911.0687,15.4977 L910.9376,15.6950 L910.8064,15.8877 L910.6753,16.0749 L910.5441,16.2556 L910.4129,16.4289 L910.2818,16.5941 L910.1506,16.7503 L910.0195,16.8967 L909.8883,17.0327 L909.7572,17.1575 L909.6260,17.2706 L909.4948,17.3714 L909.3637,17.4594 L909.2325,17.5343 L909.1014,17.5955 L908.9702,17.6429 L908.8390,17.6761 L908.7079,17.6951 L908.5767,17.6998 L908.4456,17.6900 L908.3144,17.6660 L908.1833,17.6277 L908.0521,17.5753 L907.9209,17.5092 L907.7898,17.4297 L907.6586,17.3371 L907.5275,17.2319 L907.3963,17.1145 L907.2651,16.9857 L907.1340,16.8459 L907.0028,16.6960 L906.8717,16.5365 L906.7405,16.3683 L906.6094,16.1923 L906.4782,16.0092 L906.3470,15.8199 L906.2159,15.6255 L906.0847,15.4268 L905.9536,15.2248 L905.8224,15.0204 L905.6913,14.8148 L905.5601,14.6088 L905.4289,14.4036 L905.2978,14.2000 L905.1666,13.9991 L905.0355,13.8018 L904.9043,13.6092 L904.7731,13.4221 L904.6420,13.2416 L904.5108,13.0683 L904.3797,12.9033 L904.2485,12.7473 L904.1174,12.6010 L903.9862,12.4652 L903.8550,12.3406 L903.7239,12.2277 L903.5927,12.1271 L903.4616,12.0392 L903.3304,11.9646 L903.1992,11.9036 L903.0681,11.8565 L902.9369,11.8234 L902.8058,11.8047 L902.6746,11.8003 L902.5435,11.8102 L902.4123,11.8345 L902.2811,11.8731 L902.1500,11.9256 L902.0188,11.9919 L901.8877,12.0717 L901.7565,12.1645 L901.6253,12.2699 L901.4942,12.3875 L901.3630,12.5165 L901.2319,12.6564 L901.1007,12.8065 L900.9696,12.9662 L900.8384,13.1345 L900.7072,13.3106 L900.5761,13.4938 L900.4449,13.6832 L900.3138,13.8777 L900.1826,14.0765 L900.0515,14.2785 L899.9203,14.4829 L899.7891,14.6885 L899.6580,14.8945 L899.5268,15.0997 L899.3957,15.3033 L899.2645,15.5042 L899.1333,15.7013 L899.0022,15.8939 L898.8710,16.0808 L898.7399,16.2613 L898.6087,16.4344 L898.4776,16.5993 L898.3464,16.7552 L898.2152,16.9013 L898.0841,17.0369 L897.9529,17.1614 L897.8218,17.2741 L897.6906,17.3745 L897.5594,17.4621 L897.4283,17.5364 L897.2971,17.5972 L897.1660,17.6442 L897.0348,17.6770 L896.9037,17.6955 L896.7725,17.6997 L896.6413,17.6895 L896.5102,17.6649 L896.3790,17.6262 L896.2479,17.5734 L896.1167,17.5069 L895.9856,17.4269 L895.8544,17.3339 L895.7232,17.2283 L895.5921,17.1106 L895.4609,16.9813 L895.3298,16.8412 L895.1986,16.6910 L895.0674,16.5312 L894.9363,16.3628 L894.8051,16.1865 L894.6740,16.0032 L894.5428,15.8137 L894.4117,15.6191 L894.2805,15.4203 L894.1493,15.2182 L894.0182,15.0138 L893.8870,14.8081 L893.7559,14.6022 L893.6247,14.3970 L893.4935,14.1934 L893.3624,13.9926 L893.2312,13.7955 L893.1001,13.6031 L892.9689,13.4162 L892.8378,13.2358 L892.7066,13.0629 L892.5754,12.8981 L892.4443,12.7424 L892.3131,12.5965 L892.1820,12.4610 L892.0508,12.3367 L891.9196,12.2242 L891.7885,12.1240 L891.6573,12.0366 L891.5262,11.9625 L891.3950,11.9019 L891.2639,11.8552 L891.1327,11.8226 L891.0015,11.8043 L890.8704,11.8004 L890.7392,11.8108 L890.6081,11.8356 L890.4769,11.8745 L890.3458,11.9275 L890.2146,11.9943 L890.0834,12.0745 L889.9523,12.1677 L889.8211,12.2735 L889.6900,12.3914 L889.5588,12.5208 L889.4276,12.6611 L889.2965,12.8115 L889.1653,12.9714 L889.0342,13.1400 L888.9030,13.3164 L888.7719,13.4998 L888.6407,13.6894 L888.5095,13.8840 L888.3784,14.0829 L888.2472,14.2851 L888.1161,14.4895 L887.9849,14.6952 L887.8537,14.9011 L887.7226,15.1063 L887.5914,15.3098 L887.4603,15.5106 L887.3291,15.7076 L887.1980,15.9000 L887.0668,16.0868 L886.9356,16.2670 L886.8045,16.4399 L886.6733,16.6045 L886.5422,16.7600 L886.4110,16.9058 L886.2798,17.0411 L886.1487,17.1652 L886.0175,17.2775 L885.8864,17.3775 L885.7552,17.4647 L885.6241,17.5386 L885.4929,17.5990 L885.3617,17.6454 L885.2306,17.6778 L885.0994,17.6959 L884.9683,17.6996 L884.8371,17.6889 L884.7060,17.6639 L884.5748,17.6247 L884.4436,17.5715 L884.3125,17.5045 L884.1813,17.4241 L884.0502,17.3307 L883.9190,17.2247 L883.7878,17.1066 L883.6567,16.9770 L883.5255,16.8366 L883.3944,16.6859 L883.2632,16.5259 L883.1321,16.3572 L883.0009,16.1807 L882.8697,15.9971 L882.7386,15.8075 L882.6074,15.6128 L882.4763,15.4138 L882.3451,15.2116 L882.2139,15.0072 L882.0828,14.8015 L881.9516,14.5956 L881.8205,14.3904 L881.6893,14.1869 L881.5582,13.9862 L881.4270,13.7892 L881.2958,13.5970 L881.1647,13.4103 L881.0335,13.2301 L880.9024,13.0574 L880.7712,12.8929 L880.6401,12.7375 L880.5089,12.5919 L880.3777,12.4568 L880.2466,12.3329 L880.1154,12.2208 L879.9843,12.1210 L879.8531,12.0340 L879.7219,11.9603 L879.5908,11.9002 L879.4596,11.8539 L879.3285,11.8218 L879.1973,11.8040 L879.0662,11.8005 L878.9350,11.8114 L878.8038,11.8366 L878.6727,11.8760 L878.5415,11.9295 L878.4104,11.9967 L878.2792,12.0773 L878.1480,12.1709 L878.0169,12.2772 L877.8857,12.3954 L877.7546,12.5252 L877.6234,12.6658 L877.4923,12.8166 L877.3611,12.9768 L877.2299,13.1456 L877.0988,13.3223 L876.9676,13.5059 L876.8365,13.6956 L876.7053,13.8904 L876.5741,14.0894 L876.4430,14.2916 L876.3118,14.4961 L876.1807,14.7018 L876.0495,14.9078 L875.9184,15.1129 L875.7872,15.3163 L875.6560,15.5170 L875.5249,15.7139 L875.3937,15.9061 L875.2626,16.0927 L875.1314,16.2727 L875.0003,16.4453 L874.8691,16.6096 L874.7379,16.7649 L874.6068,16.9103 L874.4756,17.0453 L874.3445,17.1690 L874.2133,17.2809 L874.0821,17.3805 L873.9510,17.4673 L873.8198,17.5408 L873.6887,17.6007 L873.5575,17.6467 L873.4264,17.6786 L873.2952,17.6962 L873.1640,17.6995 L873.0329,17.6883 L872.9017,17.6629 L872.7706,17.6232 L872.6394,17.5695 L872.5082,17.5021 L872.3771,17.4213 L872.2459,17.3274 L872.1148,17.2210 L871.9836,17.1026 L871.8525,16.9726 L871.7213,16.8318 L871.5901,16.6809 L871.4590,16.5206 L871.3278,16.3516 L871.1967,16.1748 L871.0655,15.9911 L870.9343,15.8013 L870.8032,15.6064 L870.6720,15.4074 L870.5409,15.2051 L870.4097,15.0006 L870.2786,14.7949 L870.1474,14.5889 L870.0162,14.3838 L869.8851,14.1804 L869.7539,13.9798 L869.6228,13.7830 L869.4916,13.5908 L869.3605,13.4044 L869.2293,13.2245 L869.0981,13.0520 L868.9670,12.8878 L868.8358,12.7327 L868.7047,12.5874 L868.5735,12.4527 L868.4423,12.3291 L868.3112,12.2174 L868.1800,12.1180 L868.0489,12.0314 L867.9177,11.9581 L867.7866,11.8985 L867.6554,11.8527 L867.5242,11.8210 L867.3931,11.8036 L867.2619,11.8006 L867.1308,11.8120 L866.9996,11.8377 L866.8684,11.8775 L866.7373,11.9314 L866.6061,11.9991 L866.4750,12.0801 L866.3438,12.1742 L866.2127,12.2808 L866.0815,12.3994 L865.9503,12.5296 L865.8192,12.6705 L865.6880,12.8216 L865.5569,12.9821 L865.4257,13.1512 L865.2946,13.3281 L865.1634,13.5119 L865.0322,13.7018 L864.9011,13.8967 L864.7699,14.0959 L864.6388,14.2982 L864.5076,14.5027 L864.3764,14.7085 L864.2453,14.9144 L864.1141,15.1195 L863.9830,15.3229 L863.8518,15.5234 L863.7207,15.7202 L863.5895,15.9122 L863.4583,16.0986 L863.3272,16.2784 L863.1960,16.4507 L863.0649,16.6148 L862.9337,16.7698 L862.8025,16.9149 L862.6714,17.0494 L862.5402,17.1728 L862.4091,17.2843 L862.2779,17.3835 L862.1468,17.4698 L862.0156,17.5429 L861.8844,17.6024 L861.7533,17.6480 L861.6221,17.6794 L861.4910,17.6965 L861.3598,17.6993 L861.2286,17.6877 L861.0975,17.6618 L860.9663,17.6217 L860.8352,17.5676 L860.7040,17.4997 L860.5729,17.4185 L860.4417,17.3242 L860.3105,17.2174 L860.1794,17.0985 L860.0482,16.9682 L859.9171,16.8271 L859.7859,16.6759 L859.6548,16.5153 L859.5236,16.3460 L859.3924,16.1690 L859.2613,15.9851 L859.1301,15.7951 L858.9990,15.6001 L858.8678,15.4009 L858.7366,15.1985 L858.6055,14.9940 L858.4743,14.7882 L858.3432,14.5823 L858.2120,14.3772 L858.0809,14.1739 L857.9497,13.9734 L857.8185,13.7767 L857.6874,13.5847 L857.5562,13.3985 L857.4251,13.2188 L857.2939,13.0466 L857.1627,12.8826 L857.0316,12.7278 L856.9004,12.5829 L856.7693,12.4485 L856.6381,12.3253 L856.5070,12.2140 L856.3758,12.1150 L856.2446,12.0289 L856.1135,11.9560 L855.9823,11.8968 L855.8512,11.8514 L855.7200,11.8202 L855.5888,11.8033 L855.4577,11.8007 L855.3265,11.8126 L855.1954,11.8387 L855.0642,11.8791 L854.9331,11.9334 L854.8019,12.0015 L854.6707,12.0829 L854.5396,12.1774 L854.4084,12.2844 L854.2773,12.4035 L854.1461,12.5339 L854.0150,12.6752 L853.8838,12.8266 L853.7526,12.9874 L853.6215,13.1568 L853.4903,13.3339 L853.3592,13.5179 L853.2280,13.7080 L853.0968,13.9031 L852.9657,14.1024 L852.8345,14.3048 L852.7034,14.5094 L852.5722,14.7151 L852.4411,14.9210 L852.3099,15.1261 L852.1787,15.3294 L852.0476,15.5298 L851.9164,15.7265 L851.7853,15.9183 L851.6541,16.1045 L851.5229,16.2841 L851.3918,16.4562 L851.2606,16.6199 L851.1295,16.7746 L850.9983,16.9194 L850.8672,17.0536 L850.7360,17.1766 L850.6048,17.2877 L850.4737,17.3865 L850.3425,17.4724 L850.2114,17.5451 L850.0802,17.6041 L849.9490,17.6492 L849.8179,17.6802 L849.6867,17.6969 L849.5556,17.6992 L849.4244,17.6871 L849.2933,17.6607 L849.1621,17.6202 L849.0309,17.5656 L848.8998,17.4973 L848.7686,17.4156 L848.6375,17.3210 L848.5063,17.2137 L848.3752,17.0945 L848.2440,16.9639 L848.1128,16.8224 L847.9817,16.6709 L847.8505,16.5099 L847.7194,16.3404 L847.5882,16.1632 L847.4570,15.9790 L847.3259,15.7889 L847.1947,15.5937 L847.0636,15.3944 L846.9324,15.1919 L846.8013,14.9873 L846.6701,14.7816 L846.5389,14.5756 L846.4078,14.3706 L846.2766,14.1674 L846.1455,13.9670 L846.0143,13.7704 L845.8831,13.5786 L845.7520,13.3926 L845.6208,13.2131 L845.4897,13.0411 L845.3585,12.8775 L845.2274,12.7230 L845.0962,12.5784 L844.9650,12.4443 L844.8339,12.3215 L844.7027,12.2106 L844.5716,12.1120 L844.4404,12.0263 L844.3093,11.9539 L844.1781,11.8951 L844.0469,11.8502 L843.9158,11.8194 L843.7846,11.8030 L843.6535,11.8009 L843.5223,11.8132 L843.3911,11.8398 L843.2600,11.8806 L843.1288,11.9354 L842.9977,12.0039 L842.8665,12.0858 L842.7354,12.1807 L842.6042,12.2881 L842.4730,12.4075 L842.3419,12.5383 L842.2107,12.6800 L842.0796,12.8317 L841.9484,12.9927 L841.8172,13.1624 L841.6861,13.3397 L841.5549,13.5240 L841.4238,13.7142 L841.2926,13.9095 L841.1615,14.1088 L841.0303,14.3113 L840.8991,14.5160 L840.7680,14.7218 L840.6368,14.9277 L840.5057,15.1327 L840.3745,15.3359 L840.2433,15.5362 L840.1122,15.7327 L839.9810,15.9244 L839.8499,16.1104 L839.7187,16.2897 L839.5876,16.4616 L839.4564,16.6251 L839.3252,16.7794 L839.1941,16.9239 L839.0629,17.0577 L838.9318,17.1803 L838.8006,17.2911 L838.6695,17.3895 L838.5383,17.4750 L838.4071,17.5472 L838.2760,17.6058 L838.1448,17.6504 L838.0137,17.6809 L837.8825,17.6972 L837.7513,17.6990 L837.6202,17.6865 L837.4890,17.6597 L837.3579,17.6186 L837.2267,17.5636 L837.0956,17.4949 L836.9644,17.4128 L836.8332,17.3177 L836.7021,17.2101 L836.5709,17.0905 L836.4398,16.9595 L836.3086,16.8177 L836.1774,16.6658 L836.0463,16.5046 L835.9151,16.3348 L835.7840,16.1574 L835.6528,15.9730 L835.5217,15.7827 L835.3905,15.5873 L835.2593,15.3879 L835.1282,15.1854 L834.9970,14.9807 L834.8659,14.7749 L834.7347,14.5690 L834.6035,14.3640 L834.4724,14.1608 L834.3412,13.9606 L834.2101,13.7641 L834.0789,13.5725 L833.9478,13.3867 L833.8166,13.2074 L833.6854,13.0357 L833.5543,12.8724 L833.4231,12.7182 L833.2920,12.5739 L833.1608,12.4402 L833.0297,12.3178 L832.8985,12.2072 L832.7673,12.1091 L832.6362,12.0238 L832.5050,11.9518 L832.3739,11.8934 L832.2427,11.8490 L832.1115,11.8187 L831.9804,11.8027 L831.8492,11.8011 L831.7181,11.8138 L831.5869,11.8409 L831.4558,11.8821 L831.3246,11.9374 L831.1934,12.0063 L831.0623,12.0887 L830.9311,12.1839 L830.8000,12.2918 L830.6688,12.4115 L830.5376,12.5427 L830.4065,12.6847 L830.2753,12.8367 L830.1442,12.9981 L830.0130,13.1680 L829.8819,13.3456 L829.7507,13.5300 L829.6195,13.7204 L829.4884,13.9158 L829.3572,14.1153 L829.2261,14.3179 L829.0949,14.5226 L828.9638,14.7284 L828.8326,14.9343 L828.7014,15.1393 L828.5703,15.3424 L828.4391,15.5426 L828.3080,15.7390 L828.1768,15.9305 L828.0456,16.1163 L827.9145,16.2954 L827.7833,16.4670 L827.6522,16.6302 L827.5210,16.7842 L827.3899,16.9284 L827.2587,17.0619 L827.1275,17.1841 L826.9964,17.2945 L826.8652,17.3924 L826.7341,17.4775 L826.6029,17.5493 L826.4717,17.6074 L826.3406,17.6516 L826.2094,17.6817 L826.0783,17.6974 L825.9471,17.6988 L825.8160,17.6858 L825.6848,17.6585 L825.5536,17.6171 L825.4225,17.5616 L825.2913,17.4924 L825.1602,17.4099 L825.0290,17.3144 L824.8978,17.2064 L824.7667,17.0864 L824.6355,16.9551 L824.5044,16.8129 L824.3732,16.6608 L824.2421,16.4993 L824.1109,16.3292 L823.9797,16.1515 L823.8486,15.9669 L823.7174,15.7765 L823.5863,15.5810 L823.4551,15.3814 L823.3240,15.1788 L823.1928,14.9741 L823.0616,14.7683 L822.9305,14.5624 L822.7993,14.3574 L822.6682,14.1543 L822.5370,13.9542 L822.4058,13.7579 L822.2747,13.5664 L822.1435,13.3808 L822.0124,13.2018 L821.8812,13.0303 L821.7501,12.8672 L821.6189,12.7134 L821.4877,12.5694 L821.3566,12.4361 L821.2254,12.3140 L821.0943,12.2039 L820.9631,12.1061 L820.8319,12.0212 L820.7008,11.9497 L820.5696,11.8918 L820.4385,11.8478 L820.3073,11.8180 L820.1762,11.8024 L820.0450,11.8013 L819.9138,11.8145 L819.7827,11.8420 L819.6515,11.8837 L819.5204,11.9394 L819.3892,12.0088 L819.2580,12.0915 L819.1269,12.1872 L818.9957,12.2954 L818.8646,12.4156 L818.7334,12.5472 L818.6023,12.6894 L818.4711,12.8418 L818.3399,13.0034 L818.2088,13.1736 L818.0776,13.3514 L817.9465,13.5361 L817.8153,13.7267 L817.6842,13.9222 L817.5530,14.1218 L817.4218,14.3245 L817.2907,14.5292 L817.1595,14.7350 L817.0284,14.9409 L816.8972,15.1459 L816.7660,15.3489 L816.6349,15.5490 L816.5037,15.7452 L816.3726,15.9366 L816.2414,16.1222 L816.1103,16.3011 L815.9791,16.4724 L815.8479,16.6353 L815.7168,16.7890 L815.5856,16.9328 L815.4545,17.0660 L815.3233,17.1878 L815.1921,17.2978 L815.0610,17.3954 L814.9298,17.4800 L814.7987,17.5514 L814.6675,17.6091 L814.5364,17.6528 L814.4052,17.6824 L814.2740,17.6977 L814.1429,17.6986 L814.0117,17.6852 L813.8806,17.6574 L813.7494,17.6155 L813.6183,17.5596 L813.4871,17.4900 L813.3559,17.4070 L813.2248,17.3111 L813.0936,17.2027 L812.9625,17.0824 L812.8313,16.9506 L812.7001,16.8082 L812.5690,16.6557 L812.4378,16.4939 L812.3067,16.3236 L812.1755,16.1457 L812.0444,15.9609 L811.9132,15.7702 L811.7820,15.5746 L811.6509,15.3749 L811.5197,15.1722 L811.3886,14.9675 L811.2574,14.7616 L811.1262,14.5557 L810.9951,14.3508 L810.8639,14.1478 L810.7328,13.9478 L810.6016,13.7516 L810.4705,13.5604 L810.3393,13.3749 L810.2081,13.1961 L810.0770,13.0249 L809.9458,12.8621 L809.8147,12.7086 L809.6835,12.5649 L809.5523,12.4320 L809.4212,12.3103 L809.2900,12.2005 L809.1589,12.1032 L809.0277,12.0187 L808.8966,11.9476 L808.7654,11.8901 L808.6342,11.8466 L808.5031,11.8172 L808.3719,11.8022 L808.2408,11.8015 L808.1096,11.8151 L807.9785,11.8431 L807.8473,11.8853 L807.7161,11.9414 L807.5850,12.0112 L807.4538,12.0944 L807.3227,12.1905 L807.1915,12.2991 L807.0603,12.4197 L806.9292,12.5516 L806.7980,12.6942 L806.6669,12.8469 L806.5357,13.0088 L806.4046,13.1792 L806.2734,13.3573 L806.1422,13.5421 L806.0111,13.7329 L805.8799,13.9286 L805.7488,14.1283 L805.6176,14.3311 L805.4864,14.5359 L805.3553,14.7417 L805.2241,14.9476 L805.0930,15.1525 L804.9618,15.3554 L804.8307,15.5554 L804.6995,15.7515 L804.5683,15.9427 L804.4372,16.1281 L804.3060,16.3067 L804.1749,16.4778 L804.0437,16.6404 L803.9125,16.7938 L803.7814,16.9373 L803.6502,17.0701 L803.5191,17.1916 L803.3879,17.3012 L803.2568,17.3983 L803.1256,17.4825 L802.9944,17.5535 L802.8633,17.6107 L802.7321,17.6540 L802.6010,17.6831 L802.4698,17.6980 L802.3387,17.6984 L802.2075,17.6845 L802.0763,17.6563 L801.9452,17.6139 L801.8140,17.5576 L801.6829,17.4875 L801.5517,17.4041 L801.4205,17.3078 L801.2894,17.1990 L801.1582,17.0783 L801.0271,16.9462 L800.8959,16.8034 L800.7648,16.6506 L800.6336,16.4885 L800.5024,16.3180 L800.3713,16.1398 L800.2401,15.9548 L800.1090,15.7640 L799.9778,15.5682 L799.8466,15.3684 L799.7155,15.1656 L799.5843,14.9608 L799.4532,14.7550 L799.3220,14.5491 L799.1909,14.3442 L799.0597,14.1413 L798.9285,13.9414 L798.7974,13.7454 L798.6662,13.5543 L798.5351,13.3690 L798.4039,13.1905 L798.2728,13.0195 L798.1416,12.8570 L798.0104,12.7038 L797.8793,12.5605 L797.7481,12.4278 L797.6170,12.3066 L797.4858,12.1972 L797.3546,12.1002 L797.2235,12.0162 L797.0923,11.9455 L796.9612,11.8885 L796.8300,11.8454 L796.6989,11.8165 L796.5677,11.8019 L796.4365,11.8017 L796.3054,11.8158 L796.1742,11.8443 L796.0431,11.8869 L795.9119,11.9435 L795.7807,12.0137 L795.6496,12.0973 L795.5184,12.1938 L795.3873,12.3028 L795.2561,12.4238 L795.1250,12.5560 L794.9938,12.6990 L794.8626,12.8519 L794.7315,13.0142 L794.6003,13.1848 L794.4692,13.3631 L794.3380,13.5482 L794.2068,13.7391 L794.0757,13.9350 L793.9445,14.1348 L793.8134,14.3376 L793.6822,14.5425 L793.5511,14.7483 L793.4199,14.9542 L793.2887,15.1591 L793.1576,15.3619 L793.0264,15.5618 L792.8953,15.7577 L792.7641,15.9488 L792.6330,16.1339 L792.5018,16.3124 L792.3706,16.4832 L792.2395,16.6455 L792.1083,16.7986 L791.9772,16.9418 L791.8460,17.0742 L791.7148,17.1953 L791.5837,17.3045 L791.4525,17.4012 L791.3214,17.4850 L791.1902,17.5555 L791.0591,17.6123 L790.9279,17.6552 L790.7967,17.6838 L790.6656,17.6982 L790.5344,17.6982 L790.4033,17.6838 L790.2721,17.6552 L790.1409,17.6123 L790.0098,17.5555 L789.8786,17.4850 L789.7475,17.4012 L789.6163,17.3045 L789.4852,17.1953 L789.3540,17.0742 L789.2228,16.9418 L789.0917,16.7986 L788.9605,16.6455 L788.8294,16.4832 L788.6982,16.3124 L788.5670,16.1339 L788.4359,15.9488 L788.3047,15.7577 L788.1736,15.5618 L788.0424,15.3619 L787.9113,15.1591 L787.7801,14.9542 L787.6489,14.7483 L787.5178,14.5425 L787.3866,14.3376 L787.2555,14.1348 L787.1243,13.9350 L786.9932,13.7391 L786.8620,13.5482 L786.7308,13.3631 L786.5997,13.1848 L786.4685,13.0142 L786.3374,12.8519 L786.2062,12.6990 L786.0750,12.5560 L785.9439,12.4238 L785.8127,12.3028 L785.6816,12.1938 L785.5504,12.0973 L785.4193,12.0137 L785.2881,11.9435 L785.1569,11.8869 L785.0258,11.8443 L784.8946,11.8158 L784.7635,11.8017 L784.6323,11.8019 L784.5011,11.8165 L784.3700,11.8454 L784.2388,11.8885 L784.1077,11.9455 L783.9765,12.0162 L783.8454,12.1002 L783.7142,12.1972 L783.5830,12.3066 L783.4519,12.4278 L783.3207,12.5605 L783.1896,12.7038 L783.0584,12.8570 L782.9272,13.0195 L782.7961,13.1905 L782.6649,13.3690 L782.5338,13.5543 L782.4026,13.7454 L782.2715,13.9414 L782.1403,14.1413 L782.0091,14.3442 L781.8780,14.5491 L781.7468,14.7550 L781.6157,14.9608 L781.4845,15.1656 L781.3534,15.3684 L781.2222,15.5682 L781.0910,15.7640 L780.9599,15.9548 L780.8287,16.1398 L780.6976,16.3180 L780.5664,16.4885 L780.4352,16.6506 L780.3041,16.8034 L780.1729,16.9462 L780.0418,17.0783 L779.9106,17.1990 L779.7795,17.3078 L779.6483,17.4041 L779.5171,17.4875 L779.3860,17.5576 L779.2548,17.6139 L779.1237,17.6563 L778.9925,17.6845 L778.8613,17.6984 L778.7302,17.6980 L778.5990,17.6831 L778.4679,17.6540 L778.3367,17.6107 L778.2056,17.5535 L778.0744,17.4825 L777.9432,17.3983 L777.8121,17.3012 L777.6809,17.1916 L777.5498,17.0701 L777.4186,16.9373 L777.2875,16.7938 L777.1563,16.6404 L777.0251,16.4778 L776.8940,16.3067 L776.7628,16.1281 L776.6317,15.9427 L776.5005,15.7515 L776.3693,15.5554 L776.2382,15.3554 L776.1070,15.1525 L775.9759,14.9476 L775.8447,14.7417 L775.7136,14.5359 L775.5824,14.3311 L775.4512,14.1283 L775.3201,13.9286 L775.1889,13.7329 L775.0578,13.5421 L774.9266,13.3573 L774.7954,13.1792 L774.6643,13.0088 L774.5331,12.8469 L774.4020,12.6942 L774.2708,12.5516 L774.1397,12.4197 L774.0085,12.2991 L773.8773,12.1905 L773.7462,12.0944 L773.6150,12.0112 L773.4839,11.9414 L773.3527,11.8853 L773.2215,11.8431 L773.0904,11.8151 L772.9592,11.8015 L772.8281,11.8022 L772.6969,11.8172 L772.5658,11.8466 L772.4346,11.8901 L772.3034,11.9476 L772.1723,12.0187 L772.0411,12.1032 L771.9100,12.2005 L771.7788,12.3103 L771.6477,12.4320 L771.5165,12.5649 L771.3853,12.7086 L771.2542,12.8621 L771.1230,13.0249 L770.9919,13.1961 L770.8607,13.3749 L770.7295,13.5604 L770.5984,13.7516 L770.4672,13.9478 L770.3361,14.1478 L770.2049,14.3508 L770.0738,14.5557 L769.9426,14.7616 L769.8114,14.9675 L769.6803,15.1722 L769.5491,15.3749 L769.4180,15.5746 L769.2868,15.7702 L769.1556,15.9609 L769.0245,16.1457 L768.8933,16.3236 L768.7622,16.4939 L768.6310,16.6557 L768.4999,16.8082 L768.3687,16.9506 L768.2375,17.0824 L768.1064,17.2027 L767.9752,17.3111 L767.8441,17.4070 L767.7129,17.4900 L767.5817,17.5596 L767.4506,17.6155 L767.3194,17.6574 L767.1883,17.6852 L767.0571,17.6986 L766.9260,17.6977 L766.7948,17.6824 L766.6636,17.6528 L766.5325,17.6091 L766.4013,17.5514 L766.2702,17.4800 L766.1390,17.3954 L766.0079,17.2978 L765.8767,17.1878 L765.7455,17.0660 L765.6144,16.9328 L765.4832,16.7890 L765.3521,16.6353 L765.2209,16.4724 L765.0897,16.3011 L764.9586,16.1222 L764.8274,15.9366 L764.6963,15.7452 L764.5651,15.5490 L764.4340,15.3489 L764.3028,15.1459 L764.1716,14.9409 L764.0405,14.7350 L763.9093,14.5292 L763.7782,14.3245 L763.6470,14.1218 L763.5158,13.9222 L763.3847,13.7267 L763.2535,13.5361 L763.1224,13.3514 L762.9912,13.1736 L762.8601,13.0034 L762.7289,12.8418 L762.5977,12.6894 L762.4666,12.5472 L762.3354,12.4156 L762.2043,12.2954 L762.0731,12.1872 L761.9420,12.0915 L761.8108,12.0088 L761.6796,11.9394 L761.5485,11.8837 L761.4173,11.8420 L761.2862,11.8145 L761.1550,11.8013 L761.0238,11.8024 L760.8927,11.8180 L760.7615,11.8478 L760.6304,11.8918 L760.4992,11.9497 L760.3681,12.0212 L760.2369,12.1061 L760.1057,12.2039 L759.9746,12.3140 L759.8434,12.4361 L759.7123,12.5694 L759.5811,12.7134 L759.4499,12.8672 L759.3188,13.0303 L759.1876,13.2018 L759.0565,13.3808 L758.9253,13.5664 L758.7942,13.7579 L758.6630,13.9542 L758.5318,14.1543 L758.4007,14.3574 L758.2695,14.5624 L758.1384,14.7683 L758.0072,14.9741 L757.8760,15.1788 L757.7449,15.3814 L757.6137,15.5810 L757.4826,15.7765 L757.3514,15.9669 L757.2203,16.1515 L757.0891,16.3292 L756.9579,16.4993 L756.8268,16.6608 L756.6956,16.8129 L756.5645,16.9551 L756.4333,17.0864 L756.3022,17.2064 L756.1710,17.3144 L756.0398,17.4099 L755.9087,17.4924 L755.7775,17.5616 L755.6464,17.6171 L755.5152,17.6585 L755.3840,17.6858 L755.2529,17.6988 L755.1217,17.6974 L754.9906,17.6817 L754.8594,17.6516 L754.7283,17.6074 L754.5971,17.5493 L754.4659,17.4775 L754.3348,17.3924 L754.2036,17.2945 L754.0725,17.1841 L753.9413,17.0619 L753.8101,16.9284 L753.6790,16.7842 L753.5478,16.6302 L753.4167,16.4670 L753.2855,16.2954 L753.1544,16.1163 L753.0232,15.9305 L752.8920,15.7390 L752.7609,15.5426 L752.6297,15.3424 L752.4986,15.1393 L752.3674,14.9343 L752.2362,14.7284 L752.1051,14.5226 L751.9739,14.3179 L751.8428,14.1153 L751.7116,13.9158 L751.5805,13.7204 L751.4493,13.5300 L751.3181,13.3456 L751.1870,13.1680 L751.0558,12.9981 L750.9247,12.8367 L750.7935,12.6847 L750.6624,12.5427 L750.5312,12.4115 L750.4000,12.2918 L750.2689,12.1839 L750.1377,12.0887 L750.0066,12.0063 L749.8754,11.9374 L749.7442,11.8821 L749.6131,11.8409 L749.4819,11.8138 L749.3508,11.8011 L749.2196,11.8027 L749.0885,11.8187 L748.9573,11.8490 L748.8261,11.8934 L748.6950,11.9518 L748.5638,12.0238 L748.4327,12.1091 L748.3015,12.2072 L748.1703,12.3178 L748.0392,12.4402 L747.9080,12.5739 L747.7769,12.7182 L747.6457,12.8724 L747.5146,13.0357 L747.3834,13.2074 L747.2522,13.3867 L747.1211,13.5725 L746.9899,13.7641 L746.8588,13.9606 L746.7276,14.1608 L746.5965,14.3640 L746.4653,14.5690 L746.3341,14.7749 L746.2030,14.9807 L746.0718,15.1854 L745.9407,15.3879 L745.8095,15.5873 L745.6783,15.7827 L745.5472,15.9730 L745.4160,16.1574 L745.2849,16.3348 L745.1537,16.5046 L745.0226,16.6658 L744.8914,16.8177 L744.7602,16.9595 L744.6291,17.0905 L744.4979,17.2101 L744.3668,17.3177 L744.2356,17.4128 L744.1044,17.4949 L743.9733,17.5636 L743.8421,17.6186 L743.7110,17.6597 L743.5798,17.6865 L743.4487,17.6990 L743.3175,17.6972 L743.1863,17.6809 L743.0552,17.6504 L742.9240,17.6058 L742.7929,17.5472 L742.6617,17.4750 L742.5305,17.3895 L742.3994,17.2911 L742.2682,17.1803 L742.1371,17.0577 L742.0059,16.9239 L741.8748,16.7794 L741.7436,16.6251 L741.6124,16.4616 L741.4813,16.2897 L741.3501,16.1104 L741.2190,15.9244 L741.0878,15.7327 L740.9567,15.5362 L740.8255,15.3359 L740.6943,15.1327 L740.5632,14.9277 L740.4320,14.7218 L740.3009,14.5160 L740.1697,14.3113 L740.0385,14.1088 L739.9074,13.9095 L739.7762,13.7142 L739.6451,13.5240 L739.5139,13.3397 L739.3828,13.1624 L739.2516,12.9927 L739.1204,12.8317 L738.9893,12.6800 L738.8581,12.5383 L738.7270,12.4075 L738.5958,12.2881 L738.4646,12.1807 L738.3335,12.0858 L738.2023,12.0039 L738.0712,11.9354 L737.9400,11.8806 L737.8089,11.8398 L737.6777,11.8132 L737.5465,11.8009 L737.4154,11.8030 L737.2842,11.8194 L737.1531,11.8502 L737.0219,11.8951 L736.8907,11.9539 L736.7596,12.0263 L736.6284,12.1120 L736.4973,12.2106 L736.3661,12.3215 L736.2350,12.4443 L736.1038,12.5784 L735.9726,12.7230 L735.8415,12.8775 L735.7103,13.0411 L735.5792,13.2131 L735.4480,13.3926 L735.3169,13.5786 L735.1857,13.7704 L735.0545,13.9670 L734.9234,14.1674 L734.7922,14.3706 L734.6611,14.5756 L734.5299,14.7816 L734.3987,14.9873 L734.2676,15.1919 L734.1364,15.3944 L734.0053,15.5937 L733.8741,15.7889 L733.7430,15.9790 L733.6118,16.1632 L733.4806,16.3404 L733.3495,16.5099 L733.2183,16.6709 L733.0872,16.8224 L732.9560,16.9639 L732.8248,17.0945 L732.6937,17.2137 L732.5625,17.3210 L732.4314,17.4156 L732.3002,17.4973 L732.1691,17.5656 L732.0379,17.6202 L731.9067,17.6607 L731.7756,17.6871 L731.6444,17.6992 L731.5133,17.6969 L731.3821,17.6802 L731.2510,17.6492 L731.1198,17.6041 L730.9886,17.5451 L730.8575,17.4724 L730.7263,17.3865 L730.5952,17.2877 L730.4640,17.1766 L730.3328,17.0536 L730.2017,16.9194 L730.0705,16.7746 L729.9394,16.6199 L729.8082,16.4562 L729.6771,16.2841 L729.5459,16.1045 L729.4147,15.9183 L729.2836,15.7265 L729.1524,15.5298 L729.0213,15.3294 L728.8901,15.1261 L728.7589,14.9210 L728.6278,14.7151 L728.4966,14.5094 L728.3655,14.3048 L728.2343,14.1024 L728.1032,13.9031 L727.9720,13.7080 L727.8408,13.5179 L727.7097,13.3339 L727.5785,13.1568 L727.4474,12.9874 L727.3162,12.8266 L727.1850,12.6752 L727.0539,12.5339 L726.9227,12.4035 L726.7916,12.2844 L726.6604,12.1774 L726.5293,12.0829 L726.3981,12.0015 L726.2669,11.9334 L726.1358,11.8791 L726.0046,11.8387 L725.8735,11.8126 L725.7423,11.8007 L725.6112,11.8033 L725.4800,11.8202 L725.3488,11.8514 L725.2177,11.8968 L725.0865,11.9560 L724.9554,12.0289 L724.8242,12.1150 L724.6930,12.2140 L724.5619,12.3253 L724.4307,12.4485 L724.2996,12.5829 L724.1684,12.7278 L724.0373,12.8826 L723.9061,13.0466 L723.7749,13.2188 L723.6438,13.3985 L723.5126,13.5847 L723.3815,13.7767 L723.2503,13.9734 L723.1191,14.1739 L722.9880,14.3772 L722.8568,14.5823 L722.7257,14.7882 L722.5945,14.9940 L722.4634,15.1985 L722.3322,15.4009 L722.2010,15.6001 L722.0699,15.7951 L721.9387,15.9851 L721.8076,16.1690 L721.6764,16.3460 L721.5452,16.5153 L721.4141,16.6759 L721.2829,16.8271 L721.1518,16.9682 L721.0206,17.0985 L720.8895,17.2174 L720.7583,17.3242 L720.6271,17.4185 L720.4960,17.4997 L720.3648,17.5676 L720.2337,17.6217 L720.1025,17.6618 L719.9714,17.6877 L719.8402,17.6993 L719.7090,17.6965 L719.5779,17.6794 L719.4467,17.6480 L719.3156,17.6024 L719.1844,17.5429 L719.0532,17.4698 L718.9221,17.3835 L718.7909,17.2843 L718.6598,17.1728 L718.5286,17.0494 L718.3975,16.9149 L718.2663,16.7698 L718.1351,16.6148 L718.0040,16.4507 L717.8728,16.2784 L717.7417,16.0986 L717.6105,15.9122 L717.4793,15.7202 L717.3482,15.5234 L717.2170,15.3229 L717.0859,15.1195 L716.9547,14.9144 L716.8236,14.7085 L716.6924,14.5027 L716.5612,14.2982 L716.4301,14.0959 L716.2989,13.8967 L716.1678,13.7018 L716.0366,13.5119 L715.9054,13.3281 L715.7743,13.1512 L715.6431,12.9821 L715.5120,12.8216 L715.3808,12.6705 L715.2497,12.5296 L715.1185,12.3994 L714.9873,12.2808 L714.8562,12.1742 L714.7250,12.0801 L714.5939,11.9991 L714.4627,11.9314 L714.3316,11.8775 L714.2004,11.8377 L714.0692,11.8120 L713.9381,11.8006 L713.8069,11.8036 L713.6758,11.8210 L713.5446,11.8527 L713.4134,11.8985 L713.2823,11.9581 L713.1511,12.0314 L713.0200,12.1180 L712.8888,12.2174 L712.7577,12.3291 L712.6265,12.4527 L712.4953,12.5874 L712.3642,12.7327 L712.2330,12.8878 L712.1019,13.0520 L711.9707,13.2245 L711.8395,13.4044 L711.7084,13.5908 L711.5772,13.7830 L711.4461,13.9798 L711.3149,14.1804 L711.1838,14.3838 L711.0526,14.5889 L710.9214,14.7949 L710.7903,15.0006 L710.6591,15.2051 L710.5280,15.4074 L710.3968,15.6064 L710.2657,15.8013 L710.1345,15.9911 L710.0033,16.1748 L709.8722,16.3516 L709.7410,16.5206 L709.6099,16.6809 L709.4787,16.8318 L709.3475,16.9726 L709.2164,17.1026 L709.0852,17.2210 L708.9541,17.3274 L708.8229,17.4213 L708.6918,17.5021 L708.5606,17.5695 L708.4294,17.6232 L708.2983,17.6629 L708.1671,17.6883 L708.0360,17.6995 L707.9048,17.6962 L707.7736,17.6786 L707.6425,17.6467 L707.5113,17.6007 L707.3802,17.5408 L707.2490,17.4673 L707.1179,17.3805 L706.9867,17.2809 L706.8555,17.1690 L706.7244,17.0453 L706.5932,16.9103 L706.4621,16.7649 L706.3309,16.6096 L706.1997,16.4453 L706.0686,16.2727 L705.9374,16.0927 L705.8063,15.9061 L705.6751,15.7139 L705.5440,15.5170 L705.4128,15.3163 L705.2816,15.1129 L705.1505,14.9078 L705.0193,14.7018 L704.8882,14.4961 L704.7570,14.2916 L704.6259,14.0894 L704.4947,13.8904 L704.3635,13.6956 L704.2324,13.5059 L704.1012,13.3223 L703.9701,13.1456 L703.8389,12.9768 L703.7077,12.8166 L703.5766,12.6658 L703.4454,12.5252 L703.3143,12.3954 L703.1831,12.2772 L703.0520,12.1709 L702.9208,12.0773 L702.7896,11.9967 L702.6585,11.9295 L702.5273,11.8760 L702.3962,11.8366 L702.2650,11.8114 L702.1338,11.8005 L702.0027,11.8040 L701.8715,11.8218 L701.7404,11.8539 L701.6092,11.9002 L701.4781,11.9603 L701.3469,12.0340 L701.2157,12.1210 L701.0846,12.2208 L700.9534,12.3329 L700.8223,12.4568 L700.6911,12.5919 L700.5599,12.7375 L700.4288,12.8929 L700.2976,13.0574 L700.1665,13.2301 L700.0353,13.4103 L699.9042,13.5970 L699.7730,13.7892 L699.6418,13.9862 L699.5107,14.1869 L699.3795,14.3904 L699.2484,14.5956 L699.1172,14.8015 L698.9861,15.0072 L698.8549,15.2116 L698.7237,15.4138 L698.5926,15.6128 L698.4614,15.8075 L698.3303,15.9971 L698.1991,16.1807 L698.0679,16.3572 L697.9368,16.5259 L697.8056,16.6859 L697.6745,16.8366 L697.5433,16.9770 L697.4122,17.1066 L697.2810,17.2247 L697.1498,17.3307 L697.0187,17.4241 L696.8875,17.5045 L696.7564,17.5715 L696.6252,17.6247 L696.4940,17.6639 L696.3629,17.6889 L696.2317,17.6996 L696.1006,17.6959 L695.9694,17.6778 L695.8383,17.6454 L695.7071,17.5990 L695.5759,17.5386 L695.4448,17.4647 L695.3136,17.3775 L695.1825,17.2775 L695.0513,17.1652 L694.9202,17.0411 L694.7890,16.9058 L694.6578,16.7600 L694.5267,16.6045 L694.3955,16.4399 L694.2644,16.2670 L694.1332,16.0868 L694.0020,15.9000 L693.8709,15.7076 L693.7397,15.5106 L693.6086,15.3098 L693.4774,15.1063 L693.3463,14.9011 L693.2151,14.6952 L693.0839,14.4895 L692.9528,14.2851 L692.8216,14.0829 L692.6905,13.8840 L692.5593,13.6894 L692.4281,13.4998 L692.2970,13.3164 L692.1658,13.1400 L692.0347,12.9714 L691.9035,12.8115 L691.7724,12.6611 L691.6412,12.5208 L691.5100,12.3914 L691.3789,12.2735 L691.2477,12.1677 L691.1166,12.0745 L690.9854,11.9943 L690.8542,11.9275 L690.7231,11.8745 L690.5919,11.8356 L690.4608,11.8108 L690.3296,11.8004 L690.1985,11.8043 L690.0673,11.8226 L689.9361,11.8552 L689.8050,11.9019 L689.6738,11.9625 L689.5427,12.0366 L689.4115,12.1240 L689.2804,12.2242 L689.1492,12.3367 L689.0180,12.4610 L688.8869,12.5965 L688.7557,12.7424 L688.6246,12.8981 L688.4934,13.0629 L688.3622,13.2358 L688.2311,13.4162 L688.0999,13.6031 L687.9688,13.7955 L687.8376,13.9926 L687.7065,14.1934 L687.5753,14.3970 L687.4441,14.6022 L687.3130,14.8081 L687.1818,15.0138 L687.0507,15.2182 L686.9195,15.4203 L686.7883,15.6191 L686.6572,15.8137 L686.5260,16.0032 L686.3949,16.1865 L686.2637,16.3628 L686.1326,16.5312 L686.0014,16.6910 L685.8702,16.8412 L685.7391,16.9813 L685.6079,17.1106 L685.4768,17.2283 L685.3456,17.3339 L685.2144,17.4269 L685.0833,17.5069 L684.9521,17.5734 L684.8210,17.6262 L684.6898,17.6649 L684.5587,17.6895 L684.4275,17.6997 L684.2963,17.6955 L684.1652,17.6770 L684.0340,17.6442 L683.9029,17.5972 L683.7717,17.5364 L683.6406,17.4621 L683.5094,17.3745 L683.3782,17.2741 L683.2471,17.1614 L683.1159,17.0369 L682.9848,16.9013 L682.8536,16.7552 L682.7224,16.5993 L682.5913,16.4344 L682.4601,16.2613 L682.3290,16.0808 L682.1978,15.8939 L682.0667,15.7013 L681.9355,15.5042 L681.8043,15.3033 L681.6732,15.0997 L681.5420,14.8945 L681.4109,14.6885 L681.2797,14.4829 L681.1485,14.2785 L681.0174,14.0765 L680.8862,13.8777 L680.7551,13.6832 L680.6239,13.4938 L680.4928,13.3106 L680.3616,13.1345 L680.2304,12.9662 L680.0993,12.8065 L679.9681,12.6564 L679.8370,12.5165 L679.7058,12.3875 L679.5747,12.2699 L679.4435,12.1645 L679.3123,12.0717 L679.1812,11.9919 L679.0500,11.9256 L678.9189,11.8731 L678.7877,11.8345 L678.6565,11.8102 L678.5254,11.8003 L678.3942,11.8047 L678.2631,11.8234 L678.1319,11.8565 L678.0008,11.9036 L677.8696,11.9646 L677.7384,12.0392 L677.6073,12.1271 L677.4761,12.2277 L677.3450,12.3406 L677.2138,12.4652 L677.0826,12.6010 L676.9515,12.7473 L676.8203,12.9033 L676.6892,13.0683 L676.5580,13.2416 L676.4269,13.4221 L676.2957,13.6092 L676.1645,13.8018 L676.0334,13.9991 L675.9022,14.2000 L675.7711,14.4036 L675.6399,14.6088 L675.5087,14.8148 L675.3776,15.0204 L675.2464,15.2248 L675.1153,15.4268 L674.9841,15.6255 L674.8530,15.8199 L674.7218,16.0092 L674.5906,16.1923 L674.4595,16.3683 L674.3283,16.5365 L674.1972,16.6960 L674.0660,16.8459 L673.9349,16.9857 L673.8037,17.1145 L673.6725,17.2319 L673.5414,17.3371 L673.4102,17.4297 L673.2791,17.5092 L673.1479,17.5753 L673.0167,17.6277 L672.8856,17.6660 L672.7544,17.6900 L672.6233,17.6998 L672.4921,17.6951 L672.3610,17.6761 L672.2298,17.6429 L672.0986,17.5955 L671.9675,17.5343 L671.8363,17.4594 L671.7052,17.3714 L671.5740,17.2706 L671.4428,17.1575 L671.3117,17.0327 L671.1805,16.8967 L671.0494,16.7503 L670.9182,16.5941 L670.7871,16.4289 L670.6559,16.2556 L670.5247,16.0749 L670.3936,15.8877 L670.2624,15.6950 L670.1313,15.4977 L670.0001,15.2968 L669.8689,15.0931 L669.7378,14.8879 L669.6066,14.6819 L669.4755,14.4763 L669.3443,14.2720 L669.2132,14.0700 L669.0820,13.8713 L668.9508,13.6770 L668.8197,13.4878 L668.6885,13.3048 L668.5574,13.1289 L668.4262,12.9609 L668.2951,12.8015 L668.1639,12.6517 L668.0327,12.5122 L667.9016,12.3835 L667.7704,12.2663 L667.6393,12.1613 L667.5081,12.0689 L667.3769,11.9896 L667.2458,11.9237 L667.1146,11.8716 L666.9835,11.8335 L666.8523,11.8097 L666.7212,11.8002 L666.5900,11.8051 L666.4588,11.8243 L666.3277,11.8578 L666.1965,11.9054 L666.0654,11.9668 L665.9342,12.0419 L665.8030,12.1301 L665.6719,12.2311 L665.5407,12.3444 L665.4096,12.4694 L665.2784,12.6056 L665.1473,12.7521 L665.0161,12.9085 L664.8849,13.0738 L664.7538,13.2473 L664.6226,13.4281 L664.4915,13.6153 L664.3603,13.8081 L664.2292,14.0055 L664.0980,14.2065 L663.9668,14.4102 L663.8357,14.6155 L663.7045,14.8214 L663.5734,15.0271 L663.4422,15.2313 L663.3110,15.4333 L663.1799,15.6318 L663.0487,15.8261 L662.9176,16.0152 L662.7864,16.1981 L662.6553,16.3739 L662.5241,16.5418 L662.3929,16.7009 L662.2618,16.8506 L662.1306,16.9900 L661.9995,17.1185 L661.8683,17.2354 L661.7371,17.3403 L661.6060,17.4325 L661.4748,17.5116 L661.3437,17.5772 L661.2125,17.6291 L661.0814,17.6670 L660.9502,17.6906 L660.8190,17.6998 L660.6879,17.6947 L660.5567,17.6753 L660.4256,17.6416 L660.2944,17.5937 L660.1632,17.5321 L660.0321,17.4568 L659.9009,17.3684 L659.7698,17.2672 L659.6386,17.1537 L659.5075,17.0285 L659.3763,16.8922 L659.2451,16.7454 L659.1140,16.5889 L658.9828,16.4235 L658.8517,16.2499 L658.7205,16.0690 L658.5894,15.8816 L658.4582,15.6887 L658.3270,15.4913 L658.1959,15.2902 L658.0647,15.0865 L657.9336,14.8812 L657.8024,14.6752 L657.6712,14.4696 L657.5401,14.2654 L657.4089,14.0635 L657.2778,13.8650 L657.1466,13.6708 L657.0155,13.4818 L656.8843,13.2990 L656.7531,13.1233 L656.6220,12.9556 L656.4908,12.7966 L656.3597,12.6471 L656.2285,12.5078 L656.0973,12.3795 L655.9662,12.2628 L655.8350,12.1581 L655.7039,12.0661 L655.5727,11.9872 L655.4416,11.9218 L655.3104,11.8702 L655.1792,11.8325 L655.0481,11.8092 L654.9169,11.8001 L654.7858,11.8055 L654.6546,11.8251 L654.5234,11.8591 L654.3923,11.9071 L654.2611,11.9691 L654.1300,12.0445 L653.9988,12.1332 L653.8677,12.2346 L653.7365,12.3483 L653.6053,12.4736 L653.4742,12.6101 L653.3430,12.7570 L653.2119,12.9137 L653.0807,13.0793 L652.9496,13.2530 L652.8184,13.4340 L652.6872,13.6215 L652.5561,13.8144 L652.4249,14.0119 L652.2938,14.2130 L652.1626,14.4168 L652.0314,14.6221 L651.9003,14.8281 L651.7691,15.0337 L651.6380,15.2379 L651.5068,15.4397 L651.3757,15.6382 L651.2445,15.8323 L651.1133,16.0212 L650.9822,16.2038 L650.8510,16.3794 L650.7199,16.5471 L650.5887,16.7059 L650.4575,16.8553 L650.3264,16.9943 L650.1952,17.1225 L650.0641,17.2390 L649.9329,17.3434 L649.8018,17.4352 L649.6706,17.5139 L649.5394,17.5791 L649.4083,17.6306 L649.2771,17.6679 L649.1460,17.6911 L649.0148,17.6999 L648.8837,17.6943 L648.7525,17.6744 L648.6213,17.6402 L648.4902,17.5920 L648.3590,17.5298 L648.2279,17.4542 L648.0967,17.3653 L647.9655,17.2637 L647.8344,17.1498 L647.7032,17.0242 L647.5721,16.8876 L647.4409,16.7405 L647.3098,16.5837 L647.1786,16.4180 L647.0474,16.2441 L646.9163,16.0630 L646.7851,15.8755 L646.6540,15.6824 L646.5228,15.4849 L646.3916,15.2837 L646.2605,15.0799 L646.1293,14.8746 L645.9982,14.6686 L645.8670,14.4630 L645.7359,14.2588 L645.6047,14.0571 L645.4735,13.8586 L645.3424,13.6646 L645.2112,13.4758 L645.0801,13.2933 L644.9489,13.1178 L644.8177,12.9503 L644.6866,12.7916 L644.5554,12.6424 L644.4243,12.5035 L644.2931,12.3756 L644.1620,12.2592 L644.0308,12.1550 L643.8996,12.0634 L643.7685,11.9849 L643.6373,11.9199 L643.5062,11.8687 L643.3750,11.8316 L643.2439,11.8086 L643.1127,11.8001 L642.9815,11.8059 L642.8504,11.8260 L642.7192,11.8604 L642.5881,11.9089 L642.4569,11.9713 L642.3257,12.0472 L642.1946,12.1362 L642.0634,12.2381 L641.9323,12.3521 L641.8011,12.4779 L641.6700,12.6147 L641.5388,12.7619 L641.4076,12.9189 L641.2765,13.0847 L641.1453,13.2587 L641.0142,13.4400 L640.8830,13.6276 L640.7518,13.8207 L640.6207,14.0184 L640.4895,14.2196 L640.3584,14.4234 L640.2272,14.6287 L640.0961,14.8347 L639.9649,15.0403 L639.8337,15.2444 L639.7026,15.4462 L639.5714,15.6445 L639.4403,15.8385 L639.3091,16.0272 L639.1779,16.2096 L639.0468,16.3850 L638.9156,16.5523 L638.7845,16.7109 L638.6533,16.8599 L638.5222,16.9986 L638.3910,17.1264 L638.2598,17.2426 L638.1287,17.3466 L637.9975,17.4380 L637.8664,17.5162 L637.7352,17.5810 L637.6041,17.6320 L637.4729,17.6689 L637.3417,17.6916 L637.2106,17.7000 L637.0794,17.6939 L636.9483,17.6735 L636.8171,17.6389 L636.6859,17.5902 L636.5548,17.5276 L636.4236,17.4515 L636.2925,17.3622 L636.1613,17.2602 L636.0302,17.1459 L635.8990,17.0200 L635.7678,16.8830 L635.6367,16.7356 L635.5055,16.5785 L635.3744,16.4125 L635.2432,16.2384 L635.1120,16.0570 L634.9809,15.8693 L634.8497,15.6761 L634.7186,15.4784 L634.5874,15.2772 L634.4563,15.0733 L634.3251,14.8679 L634.1939,14.6620 L634.0628,14.4564 L633.9316,14.2523 L633.8005,14.0506 L633.6693,13.8523 L633.5381,13.6584 L633.4070,13.4698 L633.2758,13.2875 L633.1447,13.1123 L633.0135,12.9451 L632.8824,12.7866 L632.7512,12.6378 L632.6200,12.4992 L632.4889,12.3716 L632.3577,12.2556 L632.2266,12.1518 L632.0954,12.0607 L631.9643,11.9826 L631.8331,11.9181 L631.7019,11.8673 L631.5708,11.8306 L631.4396,11.8081 L631.3085,11.8000 L631.1773,11.8063 L631.0461,11.8269 L630.9150,11.8618 L630.7838,11.9107 L630.6527,11.9735 L630.5215,12.0498 L630.3904,12.1393 L630.2592,12.2416 L630.1280,12.3560 L629.9969,12.4821 L629.8657,12.6193 L629.7346,12.7669 L629.6034,12.9241 L629.4722,13.0902 L629.3411,13.2645 L629.2099,13.4459 L629.0788,13.6338 L628.9476,13.8270 L628.8165,14.0248 L628.6853,14.2261 L628.5541,14.4300 L628.4230,14.6354 L628.2918,14.8414 L628.1607,15.0469 L628.0295,15.2510 L627.8984,15.4526 L627.7672,15.6508 L627.6360,15.8447 L627.5049,16.0332 L627.3737,16.2154 L627.2426,16.3905 L627.1114,16.5576 L626.9802,16.7159 L626.8491,16.8645 L626.7179,17.0029 L626.5868,17.1303 L626.4556,17.2461 L626.3245,17.3498 L626.1933,17.4407 L626.0621,17.5185 L625.9310,17.5829 L625.7998,17.6334 L625.6687,17.6699 L625.5375,17.6921 L625.4063,17.7000 L625.2752,17.6935 L625.1440,17.6726 L625.0129,17.6375 L624.8817,17.5884 L624.7506,17.5254 L624.6194,17.4488 L624.4882,17.3591 L624.3571,17.2567 L624.2259,17.1421 L624.0948,17.0158 L623.9636,16.8784 L623.8324,16.7307 L623.7013,16.5733 L623.5701,16.4070 L623.4390,16.2327 L623.3078,16.0511 L623.1767,15.8632 L623.0455,15.6698 L622.9143,15.4720 L622.7832,15.2706 L622.6520,15.0667 L622.5209,14.8613 L622.3897,14.6553 L622.2586,14.4498 L622.1274,14.2457 L621.9962,14.0441 L621.8651,13.8460 L621.7339,13.6522 L621.6028,13.4638 L621.4716,13.2817 L621.3404,13.1068 L621.2093,12.9398 L621.0781,12.7817 L620.9470,12.6331 L620.8158,12.4949 L620.6847,12.3677 L620.5535,12.2521 L620.4223,12.1487 L620.2912,12.0579 L620.1600,11.9803 L620.0289,11.9162 L619.8977,11.8659 L619.7665,11.8297 L619.6354,11.8077 L619.5042,11.8000 L619.3731,11.8067 L619.2419,11.8278 L619.1108,11.8631 L618.9796,11.9125 L618.8484,11.9758 L618.7173,12.0525 L618.5861,12.1424 L618.4550,12.2451 L618.3238,12.3599 L618.1926,12.4864 L618.0615,12.6239 L617.9303,12.7718 L617.7992,12.9293 L617.6680,13.0957 L617.5369,13.2702 L617.4057,13.4519 L617.2745,13.6399 L617.1434,13.8333 L617.0122,14.0312 L616.8811,14.2326 L616.7499,14.4366 L616.6188,14.6420 L616.4876,14.8480 L616.3564,15.0535 L616.2253,15.2575 L616.0941,15.4591 L615.9630,15.6572 L615.8318,15.8508 L615.7006,16.0391 L615.5695,16.2212 L615.4383,16.3960 L615.3072,16.5628 L615.1760,16.7208 L615.0449,16.8692 L614.9137,17.0072 L614.7825,17.1343 L614.6514,17.2497 L614.5202,17.3529 L614.3891,17.4434 L614.2579,17.5208 L614.1267,17.5847 L613.9956,17.6348 L613.8644,17.6708 L613.7333,17.6926 L613.6021,17.7000 L613.4710,17.6930 L613.3398,17.6717 L613.2086,17.6362 L613.0775,17.5866 L612.9463,17.5231 L612.8152,17.4461 L612.6840,17.3560 L612.5529,17.2532 L612.4217,17.1382 L612.2905,17.0115 L612.1594,16.8738 L612.0282,16.7257 L611.8971,16.5681 L611.7659,16.4015 L611.6347,16.2269 L611.5036,16.0451 L611.3724,15.8570 L611.2413,15.6635 L611.1101,15.4655 L610.9790,15.2641 L610.8478,15.0601 L610.7166,14.8547 L610.5855,14.6487 L610.4543,14.4432 L610.3232,14.2392 L610.1920,14.0377 L610.0608,13.8397 L609.9297,13.6461 L609.7985,13.4579 L609.6674,13.2760 L609.5362,13.1012 L609.4051,12.9346 L609.2739,12.7767 L609.1427,12.6285 L609.0116,12.4906 L608.8804,12.3638 L608.7493,12.2486 L608.6181,12.1455 L608.4869,12.0552 L608.3558,11.9780 L608.2246,11.9144 L608.0935,11.8645 L607.9623,11.8287 L607.8312,11.8072 L607.7000,11.8000 L607.7000,11.8000 L595.9000,11.8000 L595.9000,11.8000"></path>
	<path d="M607.7000,23.6000 L607.7000,26.6000 L619.5000,26.6000 L619.5000,23.6000 L607.7000,23.6000"></path>
	<path d="M631.3000,23.6000 L631.3000,26.6000 L643.1000,26.6000 L643.1000,23.6000 L631.3000,23.6000"></path>
	<path d="M654.9000,23.6000 L654.9000,26.6000 L666.7000,26.6000 L666.7000,23.6000 L654.9000,23.6000"></path>
	<path d="M678.5000,23.6000 L678.5000,26.6000 L690.3000,26.6000 L690.3000,23.6000 L678.5000,23.6000"></path>
	<path d="M702.1000,23.6000 L702.1000,26.6000 L713.9000,26.6000 L713.9000,23.6000 L702.1000,23.6000"></path>
	<path d="M725.7000,23.6000 L725.7000,26.6000 L737.5000,26.6000 L737.5000,23.6000 L725.7000,23.6000"></path>
	<path d="M749.3000,23.6000 L749.3000,26.6000 L761.1000,26.6000 L761.1000,23.6000 L749.3000,23.6000"></path>
	<path d="M772.9000,23.6000 L772.9000,26.6000 L784.7000,26.6000 L784.7000,23.6000 L772.9000,23.6000"></path>
	<path d="M796.5000,23.6000 L796.5000,26.6000 L808.3000,26.6000 L808.3000,23.6000 L796.5000,23.6000"></path>
	<path d="M820.1000,23.6000 L820.1000,26.6000 L831.9000,26.6000 L831.9000,23.6000 L820.1000,23.6000"></path>
	<path d="M843.7000,23.6000 L843.7000,26.6000 L855.5000,26.6000 L855.5000,23.6000 L843.7000,23.6000"></path>
	<path d="M867.3000,23.6000 L867.3000,26.6000 L879.1000,26.6000 L879.1000,23.6000 L867.3000,23.6000"></path>
	<path d="M890.9000,23.6000 L890.9000,26.6000 L902.7000,26.6000 L902.7000,23.6000 L890.9000,23.6000"></path>
	<path d="M914.5000,23.6000 L914.5000,26.6000 L926.3000,26.6000 L926.3000,23.6000 L914.5000,23.6000"></path>
	<path d="M938.1000,23.6000 L938.1000,26.6000 L949.9000,26.6000 L949.9000,23.6000 L938.1000,23.6000"></path>
	<path d="M961.7000,23.6000 L961.7000,26.6000 L973.5000,26.6000 L973.5000,23.6000 L961.7000,23.6000"></path>
</g>
</svg>